<svg width="40" height="41" viewBox="0 0 40 41" fill="none" xmlns="http://www.w3.org/2000/svg">
<path d="M0.307007 30.818L9.68202 40.193C9.9872 40.4982 10.4816 40.4982 10.7868 40.193L15.943 35.0368C16.2482 34.7316 16.2482 34.2372 15.943 33.932L15.7141 33.7032H26.9757C27.9648 33.7032 28.9087 33.3324 29.6366 32.6567L39.1144 23.774C40.0217 22.9314 40.3223 21.5929 39.8621 20.4436C39.5295 19.6117 38.8502 18.9751 37.9987 18.697C37.147 18.4184 36.2232 18.5313 35.4633 19.0062C35.4584 19.0092 33.3591 20.3868 33.3591 20.3868C33.3448 16.1519 30.7853 11.6359 27.262 9.60279C27.4631 9.37178 27.6212 9.09834 27.7219 8.79225C28.125 7.56574 27.4549 6.23823 26.2265 5.83265C26.1881 5.81983 26.1496 5.80854 26.1112 5.79664L28.1223 2.18396C28.238 1.97614 28.2529 1.72681 28.1623 1.50708C28.0719 1.28705 27.8864 1.12012 27.6578 1.05389C26.2159 0.634583 24.7171 0.421875 23.2032 0.421875C21.6895 0.421875 20.1905 0.634583 18.7485 1.05359C18.5199 1.12012 18.3344 1.28674 18.2437 1.50678C18.1534 1.72681 18.1681 1.97614 18.284 2.18396L20.2951 5.79664C20.2561 5.80884 20.217 5.82044 20.1779 5.83326C18.9514 6.23823 18.2816 7.56544 18.6847 8.79286C18.7854 9.09834 18.9447 9.37086 19.1464 9.60218C15.5707 11.6655 13.0469 16.2279 13.0469 20.4219C13.0469 20.5363 13.0496 20.6493 13.0533 20.7613C11.6541 21.143 10.3531 21.8385 9.25905 22.7965L6.88477 24.8738L6.568 24.557C6.26283 24.2519 5.76844 24.2519 5.46326 24.557L0.307007 29.7133C0.00183095 30.0185 0.00183095 30.5129 0.307007 30.818ZM20.1432 2.31122C21.1441 2.09394 22.1695 1.98438 23.2032 1.98438C24.2368 1.98438 25.2622 2.09394 26.2635 2.31122L24.5224 5.43836C23.6447 5.31599 22.761 5.31599 21.8842 5.43836L20.1432 2.31122ZM20.6656 7.31764C22.2687 6.79304 24.0165 6.75337 25.7386 7.31703C26.1484 7.45222 26.3721 7.89533 26.2375 8.30427C26.1362 8.61219 25.8615 8.82124 25.5432 8.83985C24.0027 8.35005 22.4027 8.34913 20.8628 8.83833C20.8628 8.83833 20.8628 8.83833 20.8625 8.83833C20.5414 8.81819 20.2689 8.60823 20.1688 8.30457C20.0342 7.89503 20.2579 7.45191 20.6656 7.31764ZM21.0977 10.4075C22.4524 9.91957 23.8559 9.90797 25.214 10.3746C28.8437 11.6228 31.7969 16.1299 31.7969 20.4219C31.7969 20.7857 31.774 21.1323 31.7289 21.4564L27.9737 23.9201C27.3923 23.1999 26.5113 22.7657 25.5469 22.7657H23.9844V21.8501C24.8938 21.5276 25.5469 20.659 25.5469 19.6406C25.5469 18.3482 24.4956 17.2969 23.2032 17.2969C22.7726 17.2969 22.4219 16.9466 22.4219 16.5156C22.4219 16.0847 22.7726 15.7344 23.2032 15.7344C23.4799 15.7344 23.772 15.8757 24.0482 16.1427C24.3582 16.4427 24.8529 16.4345 25.1529 16.1247C25.4529 15.8147 25.4447 15.32 25.1346 15.02C24.7382 14.6361 24.3415 14.4191 23.9844 14.3007V13.3906C23.9844 12.9591 23.6347 12.6094 23.2032 12.6094C22.7716 12.6094 22.4219 12.9591 22.4219 13.3906V14.3062C21.5128 14.6287 20.8594 15.4973 20.8594 16.5156C20.8594 17.8081 21.9107 18.8594 23.2032 18.8594C23.6341 18.8594 23.9844 19.2097 23.9844 19.6406C23.9844 20.0716 23.6341 20.4219 23.2032 20.4219C22.8693 20.4219 22.5092 20.2119 22.1887 19.8308C21.911 19.5006 21.4182 19.4578 21.088 19.7356C20.7578 20.0133 20.7151 20.5061 20.9928 20.8363C21.4102 21.3332 21.9016 21.6792 22.4219 21.8538V22.7657H22.1619C21.778 22.7657 21.6056 22.5154 21.3352 22.3405C19.6845 21.1034 17.6398 20.4219 15.5774 20.4219C15.2548 20.4219 14.9317 20.4387 14.61 20.4713C14.61 20.4549 14.6094 20.4387 14.6094 20.4219C14.6094 16.19 17.5202 11.6978 21.0977 10.4075ZM10.2881 23.972C11.756 22.6866 13.6423 21.9844 15.5774 21.9844C17.3041 21.9844 19.0158 22.5548 20.3971 23.5902C20.5963 23.7068 21.1512 24.3282 22.1616 24.3282H25.5469C26.4362 24.3282 27.1094 25.0511 27.1094 25.8907C27.1094 26.7522 26.4084 27.4532 25.5469 27.4532H20.0782C19.6466 27.4532 19.2969 27.8029 19.2969 28.2344C19.2969 28.6659 19.6466 29.0157 20.0782 29.0157H25.5469C27.2699 29.0157 28.6719 27.6137 28.6719 25.8907C28.6719 25.7115 28.656 25.5348 28.6261 25.3609L36.298 20.3273C36.663 20.1018 37.1058 20.049 37.5135 20.182C37.9236 20.3163 38.2511 20.623 38.4113 21.024C38.6368 21.5868 38.4952 22.2169 38.0485 22.6317L28.5709 31.5141C28.1357 31.9182 27.5693 32.1407 26.9757 32.1407H14.1516L7.99226 25.981L10.2881 23.972ZM6.01563 26.2141L14.2859 34.4844L10.2344 38.5359L1.96411 30.2657L6.01563 26.2141Z" fill="white"/>
</svg>
