<svg width="40" height="40" viewBox="0 0 40 40" fill="none" xmlns="http://www.w3.org/2000/svg">
<path d="M38.4616 37.1624H37.2737V30.1958H38.4616C38.7852 30.1958 39.0475 29.9334 39.0475 29.6098C39.0475 29.2863 38.7852 29.0239 38.4616 29.0239H26.7369V27.4685C26.7369 26.4071 25.8734 25.5435 24.8119 25.5435H23.7616V24.3348C23.7616 23.1708 22.831 22.2207 21.6748 22.1879V12.7344C21.6748 12.4108 21.4125 12.1484 21.0889 12.1484C20.7653 12.1484 20.503 12.4108 20.503 12.7344V22.1863H18.5447V8.64242H20.503V10C20.503 10.3236 20.7653 10.5859 21.0889 10.5859C21.4125 10.5859 21.6748 10.3236 21.6748 10V8.44711C21.6748 7.90859 21.2368 7.47055 20.6983 7.47055H20.1097V5.48328C21.1692 5.25445 22.0051 4.41859 22.2339 3.35906H29.4152V4.42773L23.6859 15.3136C23.4276 15.3413 23.1938 15.4902 23.0622 15.7179C22.9161 15.9709 22.9161 16.2852 23.0622 16.5382L24.4695 18.9755C24.6155 19.2286 24.8877 19.3858 25.1799 19.3858H30.6956C31.0192 19.3858 31.2816 19.1234 31.2816 18.7998C31.2816 18.4762 31.0192 18.2139 30.6956 18.2139H25.383L24.3816 16.4795H35.6208L34.6195 18.2139H33.43C33.1064 18.2139 32.8441 18.4762 32.8441 18.7998C32.8441 19.1234 33.1064 19.3858 33.43 19.3858H34.8223C35.1145 19.3858 35.3866 19.2287 35.5327 18.9756L36.9401 16.538C37.0861 16.2851 37.0861 15.9707 36.94 15.7177C36.8085 15.49 36.5746 15.3411 36.3163 15.3134L30.5871 4.42773V3.35898H32.7804C33.104 3.35898 33.3663 3.09664 33.3663 2.77305C33.3663 2.44945 33.104 2.18711 32.7804 2.18711H22.234C21.9642 0.938594 20.8518 0 19.5238 0C18.1957 0 17.0833 0.938594 16.8136 2.18711H6.26711C5.94352 2.18711 5.68117 2.44945 5.68117 2.77305C5.68117 3.09664 5.94352 3.35898 6.26711 3.35898H8.46039V4.42766L2.73125 15.3136C2.47289 15.3413 2.23906 15.4902 2.1075 15.7179C1.96141 15.9709 1.96141 16.2852 2.10742 16.5382V16.5383L3.51477 18.9759C3.66086 19.2288 3.93305 19.3859 4.22516 19.3859H13.8676C14.1597 19.3859 14.4319 19.2288 14.578 18.9758L15.9852 16.5383C16.1313 16.2853 16.1313 15.9709 15.9852 15.718C15.8538 15.4902 15.6199 15.3413 15.3615 15.3136L9.63227 4.42773V3.35898H16.8135C17.0424 4.41852 17.8782 5.25437 18.9377 5.4832V7.47047H18.3492C17.8107 7.47047 17.3727 7.90852 17.3727 8.44703V22.1878C16.2165 22.2206 15.2859 23.1707 15.2859 24.3347V25.5434H14.2356C13.1742 25.5434 12.3106 26.407 12.3106 27.4684V29.0238H4.65523C2.08836 29.0238 0 31.1121 0 33.6791C0 36.2459 2.08828 38.3342 4.65523 38.3342H7.94094V39.1791C7.94094 39.4852 8.10938 39.7637 8.38047 39.9058C8.65156 40.0478 8.97633 40.028 9.22805 39.8537L10.6604 38.8624L12.0927 39.8537C12.2328 39.9506 12.3956 39.9998 12.5592 39.9998C12.6895 39.9998 12.8201 39.9687 12.9402 39.9057C13.2113 39.7636 13.3798 39.4852 13.3798 39.1791V38.3341H38.4616C38.7852 38.3341 39.0475 38.0718 39.0475 37.7482C39.0475 37.4246 38.7852 37.1624 38.4616 37.1624ZM29.4152 15.3077H25.0134L29.4152 6.94383V15.3077ZM30.5871 6.94383L34.989 15.3077H30.5871V6.94383ZM8.46039 6.94383V15.3077H4.05852L8.46039 6.94383ZM13.6645 18.214H4.42813L3.4268 16.4796H14.6659L13.6645 18.214ZM14.0342 15.3077H9.63234V6.94383L14.0342 15.3077ZM17.9226 2.77305C17.9226 1.89016 18.6409 1.17188 19.5238 1.17188C20.4066 1.17188 21.1249 1.89016 21.1249 2.77305C21.1249 3.65594 20.4066 4.37422 19.5238 4.37422C18.6409 4.37422 17.9226 3.65594 17.9226 2.77305ZM16.4577 24.3347C16.4577 23.7962 16.8958 23.3581 17.4343 23.3581H21.6131C22.1516 23.3581 22.5897 23.7962 22.5897 24.3347V25.5434H16.4577V24.3347ZM4.65523 37.1624C2.73453 37.1624 1.17188 35.5998 1.17188 33.6791C1.17188 31.7584 2.73445 30.1958 4.65523 30.1958H5.47086C5.17922 30.6239 5.00844 31.1406 5.00844 31.6966V35.6616C5.00844 36.2176 5.17922 36.7343 5.47094 37.1624H4.65523ZM12.2078 38.5084L10.9938 37.6683C10.7931 37.5295 10.5274 37.5294 10.3269 37.6683L9.11273 38.5084V32.8042H12.2078V38.5084ZM36.1018 31.6324H23.4366C23.113 31.6324 22.8506 31.8948 22.8506 32.2184C22.8506 32.542 23.113 32.8043 23.4366 32.8043H36.1019V34.554H23.4366C23.113 34.554 22.8506 34.8163 22.8506 35.1399C22.8506 35.4635 23.113 35.7259 23.4366 35.7259H36.1019V37.1625H13.3797V32.8043H18.3238C18.6474 32.8043 18.9098 32.542 18.9098 32.2184C18.9098 31.8948 18.6474 31.6324 18.3238 31.6324H7.68109C7.3575 31.6324 7.09516 31.8948 7.09516 32.2184C7.09516 32.542 7.3575 32.8043 7.68109 32.8043H7.94094V37.1625H7.68109C6.85352 37.1625 6.18023 36.4892 6.18023 35.6616V31.6967C6.18023 30.8691 6.85352 30.1959 7.68109 30.1959H17.1019C17.4255 30.1959 17.6878 29.9335 17.6878 29.6099C17.6878 29.2863 17.4255 29.024 17.1019 29.024H13.4825V27.4686C13.4825 27.0534 13.8203 26.7155 14.2356 26.7155H24.8119C25.2271 26.7155 25.565 27.0534 25.565 27.4686V29.024H19.8363C19.5127 29.024 19.2503 29.2863 19.2503 29.6099C19.2503 29.9335 19.5127 30.1959 19.8363 30.1959H36.1018V31.6324Z" fill="white"/>
</svg>
