<svg width="52" height="61" viewBox="0 0 52 61" fill="none" xmlns="http://www.w3.org/2000/svg">
<g clip-path="url(#clip0_2_160105)">
<path d="M42.625 12.9604V9.21045H40.75V5.46045H38.875V1.71045H6.0625C2.44375 1.71045 -0.5 4.65514 -0.5 8.27295V53.2729C-0.5 56.8908 2.44375 59.8354 6.0625 59.8354H44.5V12.9604H42.625ZM38.875 7.33545V9.21045H6.0625C5.54594 9.21045 5.125 8.79045 5.125 8.27295C5.125 7.75545 5.54594 7.33545 6.0625 7.33545H38.875ZM6.0625 3.58545H37V5.46045H6.0625C4.51188 5.46045 3.25 6.72232 3.25 8.27295C3.25 9.82357 4.51188 11.0854 6.0625 11.0854H40.75V12.9604H6.0625C3.47781 12.9604 1.375 10.8576 1.375 8.27295C1.375 5.68826 3.47781 3.58545 6.0625 3.58545ZM42.625 57.9604H6.0625C3.47781 57.9604 1.375 55.8576 1.375 53.2729V12.862C2.56656 14.0789 4.22781 14.8354 6.0625 14.8354H42.625V57.9604Z" fill="#C3922E"/>
<path d="M15.7056 48.8582L26.9542 37.6096L28.2798 38.9352L17.0312 50.1838L15.7056 48.8582Z" fill="#C3922E"/>
<path d="M18.25 42.9604C19.8006 42.9604 21.0625 41.6986 21.0625 40.1479C21.0625 38.5973 19.8006 37.3354 18.25 37.3354C16.6994 37.3354 15.4375 38.5973 15.4375 40.1479C15.4375 41.6986 16.6994 42.9604 18.25 42.9604ZM18.25 39.2104C18.7666 39.2104 19.1875 39.6304 19.1875 40.1479C19.1875 40.6654 18.7666 41.0854 18.25 41.0854C17.7334 41.0854 17.3125 40.6654 17.3125 40.1479C17.3125 39.6304 17.7334 39.2104 18.25 39.2104Z" fill="#C3922E"/>
<path d="M25.75 44.8354C24.1994 44.8354 22.9375 46.0973 22.9375 47.6479C22.9375 49.1986 24.1994 50.4604 25.75 50.4604C27.3006 50.4604 28.5625 49.1986 28.5625 47.6479C28.5625 46.0973 27.3006 44.8354 25.75 44.8354ZM25.75 48.5854C25.2334 48.5854 24.8125 48.1654 24.8125 47.6479C24.8125 47.1304 25.2334 46.7104 25.75 46.7104C26.2666 46.7104 26.6875 47.1304 26.6875 47.6479C26.6875 48.1654 26.2666 48.5854 25.75 48.5854Z" fill="#C3922E"/>
<path d="M11.6875 54.2104H32.3125C34.8972 54.2104 37 52.1076 37 49.5229V38.2729C37 35.6883 34.8972 33.5854 32.3125 33.5854H11.6875C9.10281 33.5854 7 35.6883 7 38.2729V49.5229C7 52.1076 9.10281 54.2104 11.6875 54.2104ZM8.875 38.2729C8.875 36.7223 10.1369 35.4604 11.6875 35.4604H32.3125C33.8631 35.4604 35.125 36.7223 35.125 38.2729V49.5229C35.125 51.0736 33.8631 52.3354 32.3125 52.3354H11.6875C10.1369 52.3354 8.875 51.0736 8.875 49.5229V38.2729Z" fill="#C3922E"/>
<path d="M31.375 28.2726L33.25 25.7723L35.125 28.2726V29.8354H37V27.6483L34.4219 24.2104L37 20.7726V18.5854H35.125V20.1483L33.25 22.6486L31.375 20.1483V18.5854H29.5V20.7726L32.0781 24.2104L29.5 27.6483V29.8354H31.375V28.2726Z" fill="#C3922E"/>
<path d="M20.125 27.9604H23.875V29.8354H25.75V27.0229L23.6697 18.5854H20.3303L18.2781 26.7961L18.25 29.8354H20.125V27.9604ZM22.2053 20.4604L23.6116 26.0854H20.3884L21.7947 20.4604H22.2053Z" fill="#C3922E"/>
<path d="M10.75 29.8354H12.625V20.4604H16.375V18.5854H7V20.4604H10.75V29.8354Z" fill="#C3922E"/>
</g>
<defs>
<clipPath id="clip0_2_160105">
<rect width="52" height="60" fill="white" transform="translate(0 0.772949)"/>
</clipPath>
</defs>
</svg>
