<svg width="40" height="41" viewBox="0 0 40 41" fill="none" xmlns="http://www.w3.org/2000/svg">
<g clip-path="url(#clip0_2_40736)">
<path d="M20 40.5C19.9506 40.5 19.9011 40.4954 19.8523 40.486C15.1126 39.5744 10.8093 37.0231 7.73529 33.3018C4.66156 29.5805 2.96875 24.8729 2.96875 20.0462V6.3728C2.96875 6.03131 3.19061 5.72919 3.51654 5.62726L19.7418 0.543945C19.8239 0.515259 19.9139 0.501831 20 0.5H20.0009C20.0894 0.5 20.1764 0.515259 20.2585 0.543945L36.4835 5.62726C36.8094 5.72949 37.0313 6.03131 37.0313 6.3728V20.0462C37.0313 24.8729 35.3384 29.5805 32.2644 33.3018C29.1907 37.0231 24.8874 39.5744 20.1477 40.486C20.0989 40.4954 20.0494 40.5 20 40.5ZM4.53125 6.94653V20.0462C4.53125 29.2106 11.0275 37.1251 20 38.9225C28.9725 37.1251 35.4684 29.2106 35.4684 20.0462V6.94653L20 2.10034L4.53125 6.94653Z" fill="white"/>
<path d="M20 36.0215C19.9365 36.0215 19.873 36.0139 19.8114 35.9986C16.2842 35.1209 13.1015 33.0555 10.849 30.1829C8.58856 27.2996 7.34375 23.6997 7.34375 20.0461V9.58655C7.34375 9.24506 7.56561 8.94324 7.89124 8.84131L19.7662 5.12091C19.9182 5.0733 20.0815 5.0733 20.2335 5.12091L32.1085 8.84131C32.4341 8.94324 32.6559 9.24506 32.6559 9.58655V20.0461C32.6559 22.7167 31.9943 25.3751 30.7428 27.7338C30.5405 28.115 30.0677 28.2596 29.6866 28.0576C29.3054 27.8553 29.1605 27.3826 29.3625 27.0014C30.495 24.8676 31.0934 22.4625 31.0934 20.0461V10.1606L19.9997 6.68494L8.90625 10.1606V20.0461C8.90625 26.8281 13.4583 32.7167 19.9997 34.434C21.817 33.957 23.5056 33.1498 25.0217 32.0331C25.369 31.7774 25.8582 31.8516 26.1139 32.1989C26.3699 32.5461 26.2958 33.0353 25.9482 33.2911C24.2145 34.5682 22.2766 35.4789 20.1883 35.9986C20.1266 36.0139 20.0632 36.0215 20 36.0215Z" fill="white"/>
<path d="M18.5812 26.3795C18.381 26.3795 18.1815 26.3032 18.0289 26.1506L12.7972 20.919C12.4921 20.6141 12.4921 20.1195 12.7972 19.8143L15.4489 17.1626C15.5954 17.0161 15.7941 16.9337 16.0013 16.9337C16.2085 16.9337 16.4072 17.0161 16.5536 17.1626L18.5812 19.1902L23.4467 14.3245C23.7518 14.0196 24.2465 14.0193 24.5517 14.3245L27.2034 16.9761C27.3499 17.1226 27.4323 17.3213 27.4323 17.5285C27.4323 17.7357 27.3499 17.9344 27.2034 18.0809L19.1336 26.1506C18.981 26.3032 18.7811 26.3795 18.5812 26.3795ZM14.4543 20.3666L18.5812 24.4932L25.546 17.5285L23.999 15.9819L19.1336 20.8476C18.9871 20.9941 18.7885 21.0762 18.5812 21.0762C18.374 21.0762 18.1754 20.9941 18.0289 20.8476L16.0013 18.82L14.4543 20.3666Z" fill="white"/>
<path d="M28.0645 31.0547C27.8591 31.0547 27.6573 30.9717 27.5121 30.8258C27.3668 30.6805 27.2832 30.4788 27.2832 30.2734C27.2832 30.0681 27.3668 29.8663 27.5121 29.7211C27.6573 29.5758 27.8591 29.4922 28.0645 29.4922C28.2698 29.4922 28.4716 29.5758 28.6168 29.7211C28.7621 29.8663 28.8457 30.0681 28.8457 30.2734C28.8457 30.4788 28.7621 30.6805 28.6168 30.8258C28.4716 30.9717 28.2698 31.0547 28.0645 31.0547Z" fill="white"/>
</g>
<defs>
<clipPath id="clip0_2_40736">
<rect width="40" height="40" fill="white" transform="translate(0 0.5)"/>
</clipPath>
</defs>
</svg>
