<svg width="60" height="61" viewBox="0 0 60 61" fill="none" xmlns="http://www.w3.org/2000/svg">
<path fill-rule="evenodd" clip-rule="evenodd" d="M15.6903 53.0573C15.8236 53.3776 15.957 53.698 16.0903 54.0183L16.0906 54.0193C16.3448 54.6337 16.3452 55.2528 16.0943 55.8707L16.0929 55.8742C15.8388 56.4839 15.4009 56.9234 14.7845 57.1829L14.7824 57.1839L11.0422 58.7343C9.81311 59.2476 8.38994 58.6588 7.88017 57.4306C5.77005 52.3603 3.65699 47.2901 1.54688 42.2199C1.2877 41.6066 1.28676 40.9841 1.54229 40.3663C1.79711 39.75 2.23758 39.31 2.8497 39.0549L6.5937 37.501C7.82205 36.9911 9.24064 37.5747 9.75546 38.8039L9.75582 38.8048C9.8717 39.0831 9.98758 39.3616 10.1035 39.64C11.9485 38.7677 13.791 37.8899 15.625 36.9928C18.0949 35.7844 20.0417 34.9813 22.3096 35.2877C23.7906 35.488 25.4218 36.1627 27.4286 37.5683L34.3429 39.4206C35.5188 39.7355 36.4426 40.5355 36.9571 41.548L46.6516 38.704C50.7936 37.4889 53.0845 38.3671 54.0915 39.7282C54.7595 40.631 54.9326 41.8006 54.6826 42.9563C54.3301 44.5862 53.1269 46.1688 51.4863 46.8019L36.8815 52.4296C34.4343 53.3714 31.1651 54.6917 28.5388 53.9293L20.7581 51.6721L20.7568 51.6717C19.8293 51.401 18.9395 51.4762 18.0696 51.8999L15.6903 53.0573ZM14.5684 54.6491C14.3366 54.0921 8.46099 39.981 8.23546 39.4391C8.07088 39.0467 7.61782 38.8596 7.22535 39.0226L3.48264 40.576C3.28688 40.6575 3.14629 40.7986 3.06464 40.9959C2.98417 41.1904 2.98288 41.3866 3.06594 41.5823L3.06699 41.5849C5.17735 46.6559 7.29076 51.7267 9.40123 56.798L9.40135 56.7983C9.56382 57.1896 10.0169 57.3777 10.4096 57.2133L14.1488 55.6631L14.1501 55.6627C14.3468 55.579 14.4885 55.4391 14.5719 55.2409C14.6501 55.0441 14.6497 54.846 14.5684 54.6491ZM15.0561 51.5339L17.3483 50.4188C18.601 49.8087 19.8826 49.7004 21.2171 50.09L28.9978 52.347C30.0959 52.6659 31.3248 52.5117 32.5356 52.2015C33.8626 51.8614 35.1684 51.3237 36.2895 50.8923L50.8933 45.2649C52.0208 44.8299 52.8302 43.7281 53.0724 42.608C53.2191 41.9302 53.1589 41.2374 52.7671 40.708C52.4342 40.258 51.8706 39.9476 51.0621 39.8233C50.0785 39.6719 48.7816 39.796 47.1153 40.2848L37.3983 43.1354C37.4295 43.5784 37.3891 44.0334 37.2682 44.4848C36.6799 46.6813 34.3991 47.9988 32.2039 47.407L22.8268 44.8961C22.3876 44.7784 22.1265 44.3264 22.2442 43.8874C22.3617 43.4482 22.8137 43.1871 23.2529 43.3048L32.63 45.8157L32.6313 45.8161C33.9522 46.1721 35.3231 45.3793 35.6769 44.0586C36.0308 42.7374 35.2378 41.3657 33.9166 41.0119L26.8608 39.1217C26.7662 39.0963 26.677 39.0544 26.5971 38.9977C24.8163 37.7339 23.3932 37.0966 22.089 36.9203C20.1342 36.6562 18.4778 37.4311 16.349 38.4727C14.485 39.3843 12.6125 40.2763 10.7372 41.1626C12.1765 44.6195 13.6166 48.0764 15.0561 51.5339ZM9.30946 10.3203C9.00182 10.622 8.58041 10.8082 8.11594 10.8082C7.17499 10.8082 6.41099 10.0442 6.41099 9.10327C6.41099 8.16221 7.17499 7.39833 8.11594 7.39833C8.90841 7.39833 9.57535 7.94009 9.76605 8.67327H15.7045C16.1593 8.67327 16.5281 9.04197 16.5281 9.4968V12.7721H19.8239C20.4021 11.2041 21.2681 9.77491 22.3576 8.54868H19.4157C18.9609 8.54868 18.5922 8.17997 18.5922 7.72515V4.15433H16.1477C15.857 4.67974 15.2971 5.03574 14.6548 5.03574C13.7138 5.03574 12.9498 4.27185 12.9498 3.3308C12.9498 2.38985 13.7138 1.62585 14.6548 1.62585C15.2971 1.62585 15.857 1.98197 16.1477 2.50727H19.4157C19.8705 2.50727 20.2392 2.87597 20.2392 3.3308V6.90162H24.1108C26.3636 5.13856 29.1996 4.08727 32.2792 4.08727C35.3589 4.08727 38.195 5.13856 40.4477 6.90162H44.4624V3.3308C44.4624 2.87597 44.8311 2.50727 45.2859 2.50727H48.9391C49.2298 1.98197 49.7897 1.62585 50.432 1.62585C51.3731 1.62585 52.137 2.38985 52.137 3.3308C52.137 4.27185 51.3731 5.03574 50.432 5.03574C49.7897 5.03574 49.2298 4.67974 48.9391 4.15433H46.1095V7.72515C46.1095 8.17997 45.7408 8.54868 45.2859 8.54868H42.2009C43.2905 9.77491 44.1564 11.2041 44.7345 12.7721H48.4597V9.4968C48.4597 9.04197 48.8284 8.67327 49.2832 8.67327H55.44C55.7277 8.1375 56.2932 7.7728 56.9433 7.7728C57.8843 7.7728 58.6483 8.5368 58.6483 9.47774C58.6483 10.4188 57.8843 11.1827 56.9433 11.1827C56.3088 11.1827 55.7546 10.8353 55.4611 10.3203C53.4784 10.3203 50.1068 10.3203 50.1068 10.3203V13.5956C50.1068 14.0504 49.738 14.4191 49.2832 14.4191H45.2224C45.3925 15.1709 45.4989 15.9469 45.5352 16.7409H50.5471C50.7944 16.1042 51.4133 15.6523 52.137 15.6523C53.0781 15.6523 53.8419 16.4163 53.8419 17.3573C53.8419 18.2983 53.0781 19.0622 52.137 19.0622C51.5831 19.0622 51.0906 18.7976 50.7791 18.388H45.5098C45.4486 19.1835 45.3171 19.9594 45.1216 20.7096H49.3548C49.8096 20.7096 50.1783 21.0783 50.1783 21.5331V24.8086H55.4439C55.7328 24.2767 56.2962 23.9153 56.9433 23.9153C57.8843 23.9153 58.6483 24.6793 58.6483 25.6202C58.6483 26.5613 57.8843 27.3251 56.9433 27.3251C56.3058 27.3251 55.7495 26.9744 55.457 26.4556H49.3548C48.8999 26.4556 48.5312 26.0869 48.5312 25.6321V22.3567H44.5739C43.9288 23.9397 42.9866 25.3707 41.8169 26.5801H45.3575C45.8123 26.5801 46.181 26.9488 46.181 27.4036V30.9744H48.9391C49.2298 30.449 49.7897 30.093 50.432 30.093C51.3731 30.093 52.137 30.857 52.137 31.798C52.137 32.7389 51.3731 33.5029 50.432 33.5029C49.7897 33.5029 49.2298 33.1468 48.9391 32.6215H45.3575C44.9026 32.6215 44.5339 32.2528 44.5339 31.798V28.2271H39.8891C37.7339 29.7394 35.1095 30.6274 32.2792 30.6274C29.449 30.6274 26.8245 29.7394 24.6695 28.2271H20.3108V31.798C20.3108 32.2528 19.9421 32.6215 19.4872 32.6215H16.1477C15.857 33.1468 15.2971 33.5029 14.6548 33.5029C13.7138 33.5029 12.9498 32.7389 12.9498 31.798C12.9498 30.857 13.7138 30.093 14.6548 30.093C15.2971 30.093 15.857 30.449 16.1477 30.9744H18.6637V27.4036C18.6637 26.9488 19.0324 26.5801 19.4872 26.5801H22.7416C21.5718 25.3707 20.6297 23.9397 19.9846 22.3567C18.8915 22.3567 16.5996 22.3567 16.5996 22.3567V25.6321C16.5996 26.0869 16.2309 26.4556 15.7761 26.4556H9.60229C9.30982 26.9744 8.75346 27.3251 8.11594 27.3251C7.17499 27.3251 6.41099 26.5613 6.41099 25.6202C6.41099 24.6793 7.17499 23.9153 8.11594 23.9153C8.76311 23.9153 9.32652 24.2767 9.61535 24.8086H14.9525V21.5331C14.9525 21.0783 15.3212 20.7096 15.7761 20.7096H19.437C19.2415 19.9594 19.1099 19.1835 19.0486 18.388H14.3077C13.9962 18.7976 13.5037 19.0622 12.9498 19.0622C12.0089 19.0622 11.2449 18.2983 11.2449 17.3573C11.2449 16.4163 12.0089 15.6523 12.9498 15.6523C13.6735 15.6523 14.2924 16.1042 14.5397 16.7409H19.0232C19.0597 15.9469 19.1659 15.1709 19.3362 14.4191H15.7045C15.2497 14.4191 14.881 14.0504 14.881 13.5956V10.3203H9.30946ZM32.2792 5.73433C25.8643 5.73433 20.6563 10.9424 20.6563 17.3573C20.6563 23.7722 25.8643 28.9803 32.2792 28.9803C38.6942 28.9803 43.9023 23.7722 43.9023 17.3573C43.9023 10.9424 38.6942 5.73433 32.2792 5.73433ZM30.3405 18.7383C30.3476 18.7456 30.3545 18.7531 30.3613 18.7607C30.5176 18.9342 30.5928 19.1659 30.5683 19.3981C30.3805 21.1759 28.8751 22.5635 27.0479 22.5635C25.2208 22.5635 23.7153 21.1759 23.5277 19.3981C23.5031 19.1659 23.5783 18.9342 23.7345 18.7607C23.7413 18.7531 23.7483 18.7456 23.7553 18.7383L25.9578 14.9116H24.5512C24.0968 14.9116 23.7277 14.5426 23.7277 14.0881C23.7277 13.6335 24.0968 13.2646 24.5512 13.2646H29.8424C30.0986 12.5071 30.6983 11.9074 31.4557 11.6513V10.6501C31.4557 10.1955 31.8248 9.82656 32.2792 9.82656C32.7338 9.82656 33.1028 10.1955 33.1028 10.6501V11.6513C33.8602 11.9074 34.4599 12.5071 34.7161 13.2646H40.0072C40.4618 13.2646 40.8308 13.6335 40.8308 14.0881C40.8308 14.5426 40.4618 14.9116 40.0072 14.9116H38.6695L40.8322 18.6693C40.8392 18.6766 40.8462 18.684 40.853 18.6916C41.0092 18.8651 41.0844 19.0968 41.0598 19.3289C40.8722 21.1068 39.3668 22.4944 37.5396 22.4944C35.7124 22.4944 34.207 21.1068 34.0192 19.3289C33.9948 19.0968 34.0699 18.8651 34.2261 18.6916C34.233 18.684 34.2399 18.6766 34.247 18.6693L36.4097 14.9116H34.7161C34.4599 15.669 33.8602 16.2687 33.1028 16.5249V24.7967H35.6726C36.1272 24.7967 36.4962 25.1657 36.4962 25.6202C36.4962 26.0748 36.1272 26.4437 35.6726 26.4437H28.8858C28.4313 26.4437 28.0623 26.0748 28.0623 25.6202C28.0623 25.1657 28.4313 24.7967 28.8858 24.7967H31.4557V16.5249C30.6983 16.2687 30.0986 15.669 29.8424 14.9116H28.1381L30.3405 18.7383ZM25.7998 18.4881H28.2961C27.7357 17.5144 27.0479 16.3194 27.0479 16.3194L25.7998 18.4881ZM31.3545 14.0881C31.3545 14.5984 31.7689 15.0127 32.2792 15.0127C32.7896 15.0127 33.2039 14.5984 33.2039 14.0881C33.2039 13.5777 32.7896 13.1634 32.2792 13.1634C31.7689 13.1634 31.3545 13.5777 31.3545 14.0881ZM38.7877 18.4189C38.2273 17.4453 37.5396 16.2503 37.5396 16.2503L36.2915 18.4189H38.7877ZM36.0073 20.066C36.3516 20.5394 36.9099 20.8474 37.5396 20.8474C38.1692 20.8474 38.7276 20.5394 39.0718 20.066H36.0073ZM25.5157 20.1351C25.8599 20.6086 26.4183 20.9164 27.0479 20.9164C27.6776 20.9164 28.2359 20.6086 28.5802 20.1351H25.5157Z" fill="#C3922E"/>
</svg>
