<svg width="150" height="31" viewBox="0 0 150 31" fill="none" xmlns="http://www.w3.org/2000/svg">
<g opacity="0.5">
<path d="M41.624 21.5991H51.9271V18.3987H45.2859V6.34375H41.624V21.5991Z" fill="white"/>
<path d="M58.031 19.4657C56.562 19.4657 55.7966 18.1428 55.7966 16.1586C55.7966 14.1743 56.562 12.8301 58.031 12.8301C59.4998 12.8301 60.286 14.1743 60.286 16.1586C60.286 18.1428 59.4998 19.4657 58.031 19.4657ZM58.0517 21.9407C61.4653 21.9407 63.6997 19.4444 63.6997 16.1586C63.6997 12.8728 61.4653 10.3765 58.0517 10.3765C54.6586 10.3765 52.3828 12.8728 52.3828 16.1586C52.3828 19.4444 54.6586 21.9407 58.0517 21.9407Z" fill="white"/>
<path d="M69.6085 25.376C71.1809 25.376 72.567 25.0132 73.4981 24.1598C74.3463 23.3704 74.9049 22.1755 74.9049 20.5326V10.6753H71.6775V11.8488H71.636C71.0153 10.9313 70.0637 10.3552 68.6569 10.3552C66.0293 10.3552 64.2087 12.6169 64.2087 15.8174C64.2087 19.1671 66.4224 21.002 68.8017 21.002C70.0844 21.002 70.8912 20.4686 71.512 19.7431H71.5947V20.8314C71.5947 22.1542 70.9947 22.9222 69.5672 22.9222C68.4499 22.9222 67.8914 22.4316 67.7051 21.8554H64.4363C64.7673 24.1385 66.6914 25.376 69.6085 25.376ZM69.5879 18.4203C68.3259 18.4203 67.4982 17.3535 67.4982 15.7106C67.4982 14.0464 68.3259 12.9796 69.5879 12.9796C70.9947 12.9796 71.7395 14.2171 71.7395 15.6893C71.7395 17.2255 71.0567 18.4203 69.5879 18.4203Z" fill="white"/>
<path d="M81.5416 19.4657C80.0727 19.4657 79.3072 18.1428 79.3072 16.1586C79.3072 14.1743 80.0727 12.8301 81.5416 12.8301C83.0105 12.8301 83.7968 14.1743 83.7968 16.1586C83.7968 18.1428 83.0105 19.4657 81.5416 19.4657ZM81.5623 21.9407C84.9761 21.9407 87.2104 19.4444 87.2104 16.1586C87.2104 12.8728 84.9761 10.3765 81.5623 10.3765C78.1694 10.3765 75.8936 12.8728 75.8936 16.1586C75.8936 19.4444 78.1694 21.9407 81.5623 21.9407Z" fill="white"/>
<path d="M88.1943 21.5994H91.5667V10.6753H88.1943V21.5994ZM88.1943 9.16038H91.5667V6.34399H88.1943V9.16038Z" fill="white"/>
<path d="M93.0305 25.2053H96.4028V20.4686H96.4442C97.1062 21.3861 98.0787 21.9408 99.444 21.9408C102.216 21.9408 104.058 19.6792 104.058 16.1373C104.058 12.8515 102.341 10.3552 99.5268 10.3552C98.0787 10.3552 97.0442 11.0166 96.3201 11.9981H96.2579V10.6753H93.0305V25.2053ZM98.5752 19.2525C97.1269 19.2525 96.2994 18.0362 96.2994 16.2654C96.2994 14.4945 97.0442 13.1502 98.513 13.1502C99.9613 13.1502 100.644 14.3878 100.644 16.2654C100.644 18.1216 99.8578 19.2525 98.5752 19.2525Z" fill="white"/>
<path d="M109.548 21.9408C112.32 21.9408 114.369 20.7034 114.369 18.3137C114.369 15.5186 112.176 15.0279 110.314 14.7078C108.969 14.4517 107.769 14.3452 107.769 13.577C107.769 12.8943 108.41 12.5742 109.238 12.5742C110.169 12.5742 110.81 12.8729 110.934 13.8544H114.038C113.872 11.6994 112.258 10.3552 109.258 10.3552C106.755 10.3552 104.686 11.5501 104.686 13.8544C104.686 16.4147 106.652 16.9268 108.493 17.2468C109.9 17.5028 111.182 17.6095 111.182 18.5911C111.182 19.2951 110.541 19.6792 109.527 19.6792C108.41 19.6792 107.707 19.1458 107.583 18.0577H104.396C104.5 20.4686 106.445 21.9408 109.548 21.9408Z" fill="white"/>
<path d="M118.95 21.9195C120.419 21.9195 121.35 21.3221 122.115 20.2552H122.177V21.5994H125.405V10.6753H122.032V16.7775C122.032 18.079 121.329 18.9752 120.17 18.9752C119.094 18.9752 118.577 18.3137 118.577 17.1189V10.6753H115.226V17.8443C115.226 20.2766 116.508 21.9195 118.95 21.9195Z" fill="white"/>
<path d="M126.871 21.5996H130.244V15.4762C130.244 14.1746 130.864 13.2572 131.919 13.2572C132.933 13.2572 133.409 13.9399 133.409 15.1134V21.5996H136.781V15.4762C136.781 14.1746 137.381 13.2572 138.457 13.2572C139.471 13.2572 139.947 13.9399 139.947 15.1134V21.5996H143.319V14.4948C143.319 12.041 142.119 10.3555 139.719 10.3555C138.354 10.3555 137.216 10.9529 136.388 12.2757H136.347C135.809 11.1022 134.754 10.3555 133.367 10.3555C131.836 10.3555 130.823 11.1022 130.161 12.2331H130.099V10.6755H126.871V21.5996Z" fill="white"/>
<path fill-rule="evenodd" clip-rule="evenodd" d="M21.2452 27.9135C28.2438 27.9135 33.9173 22.2329 33.9173 15.2256C33.9173 8.2182 28.2438 2.5376 21.2452 2.5376C14.2467 2.5376 8.57324 8.2182 8.57324 15.2256C8.57324 22.2329 14.2467 27.9135 21.2452 27.9135ZM25.1985 8.44818C25.3909 7.76381 24.7276 7.35911 24.1218 7.79124L15.6652 13.8233C15.0082 14.2919 15.1116 15.2256 15.8204 15.2256H18.0473V15.2083H22.3874L18.851 16.4576L17.2921 22.003C17.0996 22.6874 17.7629 23.092 18.3688 22.6598L26.8253 16.6278C27.4823 16.1593 27.3789 15.2256 26.6701 15.2256H23.2931L25.1985 8.44818Z" fill="white"/>
</g>
</svg>
