<svg width="27" height="27" viewBox="0 0 27 27" fill="none" xmlns="http://www.w3.org/2000/svg">
<path d="M12.8428 10.8793C13.8886 10.823 14.7834 11.169 15.5269 11.9174C16.2365 12.698 16.5367 13.6091 16.4273 14.6508C16.3891 14.8487 16.2936 15.0204 16.1407 15.1657C15.9538 15.3433 15.7363 15.4207 15.4882 15.3978C14.9606 15.2849 14.7116 14.9719 14.7412 14.4587C14.8048 13.9133 14.659 13.4537 14.3038 13.0799C13.9485 12.7062 13.4969 12.5372 12.9489 12.573C12.4349 12.5765 12.135 12.3119 12.049 11.7793C12.0617 11.2822 12.3262 10.9823 12.8428 10.8793ZM12.5553 7.51495C14.6801 7.40316 16.478 8.08711 17.9491 9.56679C18.6595 10.3143 19.1601 11.1642 19.4509 12.1165C19.7748 13.0697 19.866 14.0502 19.7243 15.0578C19.7023 15.2728 19.6233 15.4448 19.4874 15.574C19.3005 15.7516 19.0665 15.8286 18.7852 15.8048C18.2907 15.6928 18.0502 15.3717 18.0637 14.8416C18.2366 13.2544 17.7907 11.8837 16.7259 10.7293C15.6271 9.60725 14.2808 9.09228 12.6869 9.1844C12.1729 9.18792 11.8644 8.93141 11.7615 8.41487C11.7911 7.9017 12.0557 7.60172 12.5553 7.51495ZM12.3175 4.15183C13.862 4.04187 15.3238 4.25309 16.7029 4.78548C18.0989 5.30172 19.3297 6.12046 20.3954 7.2417C21.4611 8.36294 22.2243 9.64227 22.6851 11.0797C23.1629 12.501 23.2996 13.9716 23.0952 15.4916C23.057 15.6896 22.97 15.8532 22.8341 15.9823C22.6472 16.1599 22.4297 16.2373 22.1816 16.2144C21.654 16.1016 21.405 15.7885 21.4346 15.2754C21.583 14.0026 21.465 12.7728 21.0808 11.586C20.6803 10.3822 20.0441 9.32162 19.1722 8.40424C18.3003 7.48687 17.2815 6.80614 16.1157 6.36206C14.9499 5.91798 13.7277 5.73772 12.4491 5.82128C11.9351 5.8248 11.6351 5.56021 11.5492 5.02753C11.5618 4.5305 11.8179 4.2386 12.3175 4.15183ZM9.25856 13.9464L7.76266 15.0771C8.67474 17.0234 10.0795 18.5014 11.9769 19.5111L13.2064 18.1001C13.496 17.7925 13.8295 17.718 14.2067 17.8768L17.1076 19.1939C17.4832 19.419 17.6324 19.746 17.5552 20.1751L16.865 22.8681C16.7385 23.2793 16.4595 23.496 16.0279 23.5182C13.7254 23.4431 11.6523 22.8268 9.80834 21.6692C7.99756 20.5125 6.56052 19.0005 5.49723 17.1333C4.43478 15.233 3.92453 13.1311 3.96648 10.8278C4.01057 10.3979 4.24117 10.1303 4.65831 10.0248L7.38287 9.47236C7.79917 9.40005 8.11823 9.56565 8.34007 9.96916L9.53234 12.9587C9.63863 13.3427 9.54737 13.6719 9.25856 13.9464Z" fill="#C3922E"/>
</svg>
