<svg width="157" height="46" viewBox="0 0 157 46" fill="none" xmlns="http://www.w3.org/2000/svg">
<path d="M67.913 9.84111V10.5811C67.0743 10.6058 66.433 10.7044 65.989 10.8771C65.5697 11.0251 65.286 11.3211 65.138 11.7651C64.99 12.1844 64.916 12.8504 64.916 13.7631V32.5591C64.916 33.3238 64.9653 33.8911 65.064 34.2611C65.1873 34.6311 65.4093 34.8778 65.73 35.0011C66.0753 35.1244 66.581 35.1861 67.247 35.1861H69.06C69.8987 35.1861 70.688 34.9888 71.428 34.5941C72.168 34.1994 72.834 33.6444 73.426 32.9291C74.018 32.1891 74.5113 31.3134 74.906 30.3021C75.3007 29.2908 75.5967 28.1684 75.794 26.9351H76.645C76.571 27.7738 76.534 28.8591 76.534 30.1911C76.534 30.7584 76.5463 31.5848 76.571 32.6701C76.5957 33.7554 76.6697 34.8778 76.793 36.0371C75.535 35.9878 74.1167 35.9631 72.538 35.9631C70.9593 35.9384 69.5533 35.9261 68.32 35.9261C67.7033 35.9261 66.914 35.9261 65.952 35.9261C64.99 35.9261 63.954 35.9384 62.844 35.9631C61.734 35.9631 60.6117 35.9754 59.477 36.0001C58.3423 36.0001 57.2693 36.0124 56.258 36.0371V35.2971C57.0473 35.2478 57.6393 35.1491 58.034 35.0011C58.4287 34.8531 58.6877 34.5571 58.811 34.1131C58.959 33.6691 59.033 33.0031 59.033 32.1151V13.7631C59.033 12.8504 58.959 12.1844 58.811 11.7651C58.6877 11.3211 58.4163 11.0251 57.997 10.8771C57.6023 10.7044 57.0227 10.6058 56.258 10.5811V9.84111C56.8747 9.86578 57.701 9.89044 58.737 9.91511C59.7977 9.93977 60.92 9.95211 62.104 9.95211C63.1893 9.95211 64.25 9.93977 65.286 9.91511C66.3467 9.89044 67.2223 9.86578 67.913 9.84111ZM83.6131 36.2961C82.5031 36.2961 81.5781 36.0864 80.8381 35.6671C80.0981 35.2478 79.5555 34.6928 79.2101 34.0021C78.8648 33.2868 78.6921 32.5098 78.6921 31.6711C78.6921 30.6104 78.9265 29.7471 79.3951 29.0811C79.8885 28.4151 80.5175 27.8724 81.2821 27.4531C82.0468 27.0338 82.8485 26.6884 83.6871 26.4171C84.5505 26.1458 85.3645 25.8868 86.1291 25.6401C86.9185 25.3688 87.5475 25.0604 88.0161 24.7151C88.5095 24.3451 88.7561 23.8764 88.7561 23.3091V20.4231C88.7561 19.7818 88.6451 19.2144 88.4231 18.7211C88.2258 18.2031 87.9051 17.8084 87.4611 17.5371C87.0418 17.2658 86.4868 17.1301 85.7961 17.1301C85.3028 17.1301 84.8095 17.2041 84.3161 17.3521C83.8228 17.4754 83.4158 17.6974 83.0951 18.0181C83.7858 18.2648 84.3161 18.6471 84.6861 19.1651C85.0808 19.6584 85.2781 20.2258 85.2781 20.8671C85.2781 21.7058 84.9821 22.3718 84.3901 22.8651C83.8228 23.3584 83.1445 23.6051 82.3551 23.6051C81.4671 23.6051 80.7888 23.3338 80.3201 22.7911C79.8761 22.2238 79.6541 21.5454 79.6541 20.7561C79.6541 20.0408 79.8268 19.4488 80.1721 18.9801C80.5421 18.5114 81.0478 18.0674 81.6891 17.6481C82.3798 17.2534 83.2061 16.9451 84.1681 16.7231C85.1548 16.5011 86.2155 16.3901 87.3501 16.3901C88.4848 16.3901 89.5085 16.5134 90.4211 16.7601C91.3338 16.9821 92.0985 17.4014 92.7151 18.0181C93.2825 18.5854 93.6525 19.2884 93.8251 20.1271C93.9978 20.9411 94.0841 21.9771 94.0841 23.2351V33.2991C94.0841 33.9158 94.1458 34.3474 94.2691 34.5941C94.3925 34.8161 94.6021 34.9271 94.8981 34.9271C95.1201 34.9271 95.3298 34.8654 95.5271 34.7421C95.7491 34.6188 95.9835 34.4708 96.2301 34.2981L96.6001 34.9271C96.0821 35.3711 95.4778 35.7164 94.7871 35.9631C94.1211 36.1851 93.3688 36.2961 92.5301 36.2961C91.6175 36.2961 90.8898 36.1728 90.3471 35.9261C89.8045 35.6548 89.4098 35.2971 89.1631 34.8531C88.9411 34.4091 88.8301 33.8911 88.8301 33.2991C88.2381 34.2364 87.5228 34.9764 86.6841 35.5191C85.8455 36.0371 84.8218 36.2961 83.6131 36.2961ZM86.2401 33.9281C86.7335 33.9281 87.1775 33.8171 87.5721 33.5951C87.9915 33.3484 88.3861 32.9538 88.7561 32.4111V24.8261C88.5341 25.1961 88.2258 25.5291 87.8311 25.8251C87.4365 26.1211 87.0171 26.4294 86.5731 26.7501C86.1291 27.0461 85.6975 27.3791 85.2781 27.7491C84.8835 28.1191 84.5628 28.5754 84.3161 29.1181C84.0695 29.6608 83.9461 30.3144 83.9461 31.0791C83.9461 32.0411 84.1558 32.7564 84.5751 33.2251C84.9945 33.6938 85.5495 33.9281 86.2401 33.9281ZM106.213 16.9081V17.6851C105.671 17.6851 105.19 17.7221 104.77 17.7961C104.376 17.8454 104.104 18.0181 103.956 18.3141C103.833 18.6101 103.882 19.0911 104.104 19.7571L107.619 30.7461L107.138 31.2641L111.467 16.8711L112.207 17.2041L106.546 36.1111C106.152 36.0864 105.757 36.0741 105.362 36.0741C104.968 36.0741 104.561 36.0864 104.141 36.1111L98.2952 19.7571C97.9499 18.7704 97.5675 18.1784 97.1482 17.9811C96.7535 17.7838 96.4205 17.6851 96.1492 17.6851V16.9081C96.9385 16.9821 97.7525 17.0438 98.5912 17.0931C99.4545 17.1178 100.392 17.1301 101.403 17.1301C102.168 17.1301 102.97 17.1054 103.808 17.0561C104.672 17.0068 105.473 16.9574 106.213 16.9081ZM125.527 16.9081V17.6481C125.059 17.7714 124.615 18.0551 124.195 18.4991C123.776 18.9431 123.381 19.7201 123.011 20.8301L118.09 36.1111C117.696 36.0864 117.289 36.0741 116.869 36.0741C116.475 36.0741 116.08 36.0864 115.685 36.1111L110.468 21.8661L111.467 16.8711C111.911 16.8958 112.355 16.9081 112.799 16.9081C113.268 16.8834 113.724 16.8711 114.168 16.8711L119.237 31.8191L118.83 31.4121L121.309 23.5681C121.729 22.2114 121.889 21.1138 121.79 20.2751C121.692 19.4364 121.396 18.8074 120.902 18.3881C120.409 17.9688 119.743 17.7221 118.904 17.6481V16.9081C119.299 16.9328 119.718 16.9574 120.162 16.9821C120.631 16.9821 121.087 16.9944 121.531 17.0191C122 17.0191 122.395 17.0191 122.715 17.0191C123.209 17.0191 123.714 17.0068 124.232 16.9821C124.775 16.9574 125.207 16.9328 125.527 16.9081ZM131.229 7.36211C132.265 7.36211 133.079 7.62111 133.671 8.13911C134.288 8.63244 134.596 9.32311 134.596 10.2111C134.596 11.0991 134.288 11.8021 133.671 12.3201C133.079 12.8134 132.265 13.0601 131.229 13.0601C130.193 13.0601 129.367 12.8134 128.75 12.3201C128.158 11.8021 127.862 11.0991 127.862 10.2111C127.862 9.32311 128.158 8.63244 128.75 8.13911C129.367 7.62111 130.193 7.36211 131.229 7.36211ZM134.115 16.5011V32.5961C134.115 33.6321 134.288 34.3351 134.633 34.7051C135.003 35.0751 135.62 35.2601 136.483 35.2601V36.0371C136.039 36.0124 135.349 35.9878 134.411 35.9631C133.474 35.9138 132.524 35.8891 131.562 35.8891C130.6 35.8891 129.626 35.9138 128.639 35.9631C127.653 35.9878 126.913 36.0124 126.419 36.0371V35.2601C127.283 35.2601 127.887 35.0751 128.232 34.7051C128.602 34.3351 128.787 33.6321 128.787 32.5961V20.9411C128.787 19.8311 128.615 19.0171 128.269 18.4991C127.949 17.9564 127.332 17.6851 126.419 17.6851V16.9081C127.209 16.9821 127.973 17.0191 128.713 17.0191C129.749 17.0191 130.711 16.9821 131.599 16.9081C132.512 16.8094 133.351 16.6738 134.115 16.5011ZM143.196 36.2961C142.086 36.2961 141.161 36.0864 140.421 35.6671C139.681 35.2478 139.138 34.6928 138.793 34.0021C138.448 33.2868 138.275 32.5098 138.275 31.6711C138.275 30.6104 138.509 29.7471 138.978 29.0811C139.471 28.4151 140.1 27.8724 140.865 27.4531C141.63 27.0338 142.431 26.6884 143.27 26.4171C144.133 26.1458 144.947 25.8868 145.712 25.6401C146.501 25.3688 147.13 25.0604 147.599 24.7151C148.092 24.3451 148.339 23.8764 148.339 23.3091V20.4231C148.339 19.7818 148.228 19.2144 148.006 18.7211C147.809 18.2031 147.488 17.8084 147.044 17.5371C146.625 17.2658 146.07 17.1301 145.379 17.1301C144.886 17.1301 144.392 17.2041 143.899 17.3521C143.406 17.4754 142.999 17.6974 142.678 18.0181C143.369 18.2648 143.899 18.6471 144.269 19.1651C144.664 19.6584 144.861 20.2258 144.861 20.8671C144.861 21.7058 144.565 22.3718 143.973 22.8651C143.406 23.3584 142.727 23.6051 141.938 23.6051C141.05 23.6051 140.372 23.3338 139.903 22.7911C139.459 22.2238 139.237 21.5454 139.237 20.7561C139.237 20.0408 139.41 19.4488 139.755 18.9801C140.125 18.5114 140.631 18.0674 141.272 17.6481C141.963 17.2534 142.789 16.9451 143.751 16.7231C144.738 16.5011 145.798 16.3901 146.933 16.3901C148.068 16.3901 149.091 16.5134 150.004 16.7601C150.917 16.9821 151.681 17.4014 152.298 18.0181C152.865 18.5854 153.235 19.2884 153.408 20.1271C153.581 20.9411 153.667 21.9771 153.667 23.2351V33.2991C153.667 33.9158 153.729 34.3474 153.852 34.5941C153.975 34.8161 154.185 34.9271 154.481 34.9271C154.703 34.9271 154.913 34.8654 155.11 34.7421C155.332 34.6188 155.566 34.4708 155.813 34.2981L156.183 34.9271C155.665 35.3711 155.061 35.7164 154.37 35.9631C153.704 36.1851 152.952 36.2961 152.113 36.2961C151.2 36.2961 150.473 36.1728 149.93 35.9261C149.387 35.6548 148.993 35.2971 148.746 34.8531C148.524 34.4091 148.413 33.8911 148.413 33.2991C147.821 34.2364 147.106 34.9764 146.267 35.5191C145.428 36.0371 144.405 36.2961 143.196 36.2961ZM145.823 33.9281C146.316 33.9281 146.76 33.8171 147.155 33.5951C147.574 33.3484 147.969 32.9538 148.339 32.4111V24.8261C148.117 25.1961 147.809 25.5291 147.414 25.8251C147.019 26.1211 146.6 26.4294 146.156 26.7501C145.712 27.0461 145.28 27.3791 144.861 27.7491C144.466 28.1191 144.146 28.5754 143.899 29.1181C143.652 29.6608 143.529 30.3144 143.529 31.0791C143.529 32.0411 143.739 32.7564 144.158 33.2251C144.577 33.6938 145.132 33.9281 145.823 33.9281Z" fill="white"/>
<g clip-path="url(#clip0_2_297)">
<mask id="mask0_2_297" style="mask-type:luminance" maskUnits="userSpaceOnUse" x="13" y="15" width="19" height="4">
<path d="M22.5 15.5393H15.1206C12.8009 15.5393 12.8166 17.8942 13.5863 18.2681C13.5863 17.7482 13.7244 17.39 13.9566 17.1652C14.2222 16.9069 14.6343 16.7955 15.1206 16.7955H22.5H29.8793C30.3667 16.7955 30.7777 16.9069 31.0433 17.1652C31.2755 17.39 31.4136 17.7482 31.4136 18.2681C32.1833 17.8952 32.199 15.5393 29.8793 15.5393H22.5Z" fill="white"/>
</mask>
<g mask="url(#mask0_2_297)">
<path d="M32.199 15.5393H12.7999V18.2681H32.199V15.5393Z" fill="white"/>
</g>
<mask id="mask1_2_297" style="mask-type:luminance" maskUnits="userSpaceOnUse" x="16" y="23" width="3" height="14">
<path d="M16.4038 24.5291V35.9139C17.1903 36.2195 18.005 36.4684 18.8427 36.6543V24.5291C18.8427 23.8559 18.2936 23.3044 17.6232 23.3044C16.9518 23.3044 16.4038 23.8559 16.4038 24.5291Z" fill="white"/>
</mask>
<g mask="url(#mask1_2_297)">
<path d="M18.8427 23.3044H16.4038V36.6543H18.8427V23.3044Z" fill="white"/>
</g>
<mask id="mask2_2_297" style="mask-type:luminance" maskUnits="userSpaceOnUse" x="21" y="22" width="3" height="16">
<path d="M21.2805 23.2594V37.0095C21.6832 37.0389 22.09 37.0536 22.5 37.0536C22.9099 37.0536 23.3168 37.0389 23.7194 37.0095V23.2594C23.7194 22.5861 23.1703 22.0347 22.5 22.0347C21.8296 22.0347 21.2805 22.5861 21.2805 23.2594Z" fill="white"/>
</mask>
<g mask="url(#mask2_2_297)">
<path d="M23.7194 22.0347H21.2805V37.0525H23.7194V22.0347Z" fill="white"/>
</g>
<mask id="mask3_2_297" style="mask-type:luminance" maskUnits="userSpaceOnUse" x="26" y="23" width="3" height="14">
<path d="M26.1583 24.5291V36.6543C26.996 36.4684 27.8107 36.2206 28.5972 35.9139V24.5291C28.5972 23.8559 28.0481 23.3044 27.3778 23.3044C26.7063 23.3044 26.1583 23.8559 26.1583 24.5291Z" fill="white"/>
</mask>
<g mask="url(#mask3_2_297)">
<path d="M28.5972 23.3044H26.1583V36.6543H28.5972V23.3044Z" fill="white"/>
</g>
<mask id="mask4_2_297" style="mask-type:luminance" maskUnits="userSpaceOnUse" x="31" y="32" width="11" height="8">
<path d="M31.5004 37.9873C33.8639 32.848 39.5229 33.9824 41.2527 32.7251C40.7267 37.3918 36.5036 40.6184 31.6792 38.6406C34.0888 38.1291 36.216 37.1281 38.0598 35.6377C36.0591 36.8172 33.8734 37.5998 31.5004 37.9873Z" fill="white"/>
</mask>
<g mask="url(#mask4_2_297)">
<path d="M41.2527 32.7251H31.5004V40.6185H41.2527V32.7251Z" fill="white"/>
</g>
<mask id="mask5_2_297" style="mask-type:luminance" maskUnits="userSpaceOnUse" x="37" y="25" width="7" height="8">
<path d="M37.4365 31.7882C37.8277 27.1772 42.4921 26.4661 43.4731 25.0166C44.3631 28.7506 42.012 32.4121 37.7555 32.2409C39.4665 31.1737 40.8229 29.8104 41.8269 28.1487C40.6169 29.6129 39.1538 30.8271 37.4365 31.7882Z" fill="white"/>
</mask>
<g mask="url(#mask5_2_297)">
<path d="M44.362 25.0156H37.4365V32.4111H44.362V25.0156Z" fill="white"/>
</g>
<mask id="mask6_2_297" style="mask-type:luminance" maskUnits="userSpaceOnUse" x="39" y="19" width="6" height="7">
<path d="M39.684 25.3757C39.5721 21.6112 43.2754 20.5997 43.9332 19.3362C45 22.2709 43.4396 25.4502 39.9831 25.7118C41.2663 24.6887 42.2369 23.4588 42.8937 22.0219C42.0528 23.3191 40.9829 24.4377 39.684 25.3757Z" fill="white"/>
</mask>
<g mask="url(#mask6_2_297)">
<path d="M45 19.3362H39.5721V25.7118H45V19.3362Z" fill="white"/>
</g>
<mask id="mask7_2_297" style="mask-type:luminance" maskUnits="userSpaceOnUse" x="40" y="13" width="5" height="8">
<path d="M40.6431 20.0377C39.4885 16.455 42.764 14.4446 43.0443 13.0466C44.8839 15.5654 44.27 19.0567 41.0238 20.2762C41.9713 18.9338 42.5611 17.4812 42.7923 15.9172C42.3457 17.4003 41.6293 18.7731 40.6431 20.0377Z" fill="white"/>
</mask>
<g mask="url(#mask7_2_297)">
<path d="M44.884 13.0466H39.4885V20.2762H44.884V13.0466Z" fill="white"/>
</g>
<mask id="mask8_2_297" style="mask-type:luminance" maskUnits="userSpaceOnUse" x="39" y="7" width="4" height="8">
<path d="M39.865 14.6591C38.1488 11.6876 40.6829 9.26134 40.6651 7.95996C42.7892 9.85058 42.9115 13.0815 40.2499 14.7977C40.8376 13.4176 41.0855 12.008 40.9903 10.568C40.8763 11.9775 40.5009 13.3409 39.865 14.6591Z" fill="white"/>
</mask>
<g mask="url(#mask8_2_297)">
<path d="M42.9105 7.95996H38.1478V14.7977H42.9105V7.95996Z" fill="white"/>
</g>
<mask id="mask9_2_297" style="mask-type:luminance" maskUnits="userSpaceOnUse" x="36" y="3" width="4" height="8">
<path d="M38.109 10.3095C35.7987 7.97978 37.5557 5.11339 37.2242 3.91284C39.6484 5.1428 40.5468 8.10372 38.5001 10.3431C38.7093 8.92194 38.5953 7.55649 38.1592 6.24671C38.3955 7.5796 38.3788 8.9335 38.109 10.3095Z" fill="white"/>
</mask>
<g mask="url(#mask9_2_297)">
<path d="M40.5457 3.91284H35.7987V10.3431H40.5457V3.91284Z" fill="white"/>
</g>
<mask id="mask10_2_297" style="mask-type:luminance" maskUnits="userSpaceOnUse" x="32" y="1" width="5" height="7">
<path d="M35.4788 7.14367C32.7439 5.84334 33.3788 2.79838 32.7157 1.85938C35.2069 2.16713 36.9105 4.46003 35.8291 7.05124C35.5677 5.74881 35.0437 4.59763 34.2562 3.59665C34.8764 4.67956 35.2843 5.86225 35.4788 7.14367Z" fill="white"/>
</mask>
<g mask="url(#mask10_2_297)">
<path d="M36.9105 1.8584H32.7157V7.14269H36.9105V1.8584Z" fill="white"/>
</g>
<mask id="mask11_2_297" style="mask-type:luminance" maskUnits="userSpaceOnUse" x="28" y="0" width="5" height="5">
<path d="M32.2053 4.5536C29.505 4.41706 28.9957 1.68616 28.1287 1.13788C30.2904 0.538129 32.4751 1.84686 32.4626 4.35719C31.8048 3.37196 30.9806 2.60101 29.9902 2.04328C30.8708 2.72495 31.6092 3.56208 32.2053 4.5536Z" fill="white"/>
</mask>
<g mask="url(#mask11_2_297)">
<path d="M32.4751 0.537109H28.1287V4.55364H32.4751V0.537109Z" fill="white"/>
</g>
<mask id="mask12_2_297" style="mask-type:luminance" maskUnits="userSpaceOnUse" x="24" y="38" width="13" height="7">
<path d="M25.0801 39.7718C30.4735 37.1575 34.3535 41.9239 36.6177 42.0657C33.0504 45.5382 27.4165 45.3228 24.7883 40.4293C27.109 41.6435 29.527 42.2642 32.0412 42.2905C29.6075 41.9029 27.2868 41.0626 25.0801 39.7718Z" fill="white"/>
</mask>
<g mask="url(#mask12_2_297)">
<path d="M36.6177 37.1575H24.7883V45.5382H36.6177V37.1575Z" fill="white"/>
</g>
<mask id="mask13_2_297" style="mask-type:luminance" maskUnits="userSpaceOnUse" x="3" y="32" width="11" height="8">
<path d="M13.5007 37.9873C11.1371 32.848 5.47809 33.9824 3.74829 32.7251C4.27434 37.3918 8.49741 40.6184 13.3218 38.6406C10.9112 38.1291 8.78501 37.1281 6.94121 35.6377C8.94084 36.8172 11.1266 37.5998 13.5007 37.9873Z" fill="white"/>
</mask>
<g mask="url(#mask13_2_297)">
<path d="M13.5007 32.7251H3.74829V40.6185H13.5007V32.7251Z" fill="white"/>
</g>
<mask id="mask14_2_297" style="mask-type:luminance" maskUnits="userSpaceOnUse" x="1" y="25" width="7" height="8">
<path d="M7.56341 31.7882C7.17227 27.1772 2.50787 26.4661 1.52688 25.0166C0.636875 28.7506 2.9879 32.4121 7.24443 32.2409C5.53345 31.1737 4.17701 29.8104 3.17301 28.1487C4.38304 29.6129 5.84616 30.8271 7.56341 31.7882Z" fill="white"/>
</mask>
<g mask="url(#mask14_2_297)">
<path d="M7.56343 25.0156H0.637939V32.4111H7.56343V25.0156Z" fill="white"/>
</g>
<mask id="mask15_2_297" style="mask-type:luminance" maskUnits="userSpaceOnUse" x="0" y="19" width="6" height="7">
<path d="M5.3159 25.3757C5.4278 21.6112 1.72451 20.5997 1.06669 19.3362C0.00098592 22.2709 1.56032 25.4502 5.01679 25.7118C3.73356 24.6887 2.76302 23.4588 2.10624 22.0219C2.94709 23.3191 4.01698 24.4377 5.3159 25.3757Z" fill="white"/>
</mask>
<g mask="url(#mask15_2_297)">
<path d="M5.42786 19.3362H0V25.7118H5.42786V19.3362Z" fill="white"/>
</g>
<mask id="mask16_2_297" style="mask-type:luminance" maskUnits="userSpaceOnUse" x="0" y="13" width="5" height="8">
<path d="M4.3569 20.0377C5.5115 16.455 2.23596 14.4446 1.95568 13.0466C0.116059 15.5654 0.729962 19.0567 3.97622 20.2762C3.02765 18.9338 2.43885 17.4812 2.20772 15.9172C2.65429 17.4003 3.37068 18.7731 4.3569 20.0377Z" fill="white"/>
</mask>
<g mask="url(#mask16_2_297)">
<path d="M5.51153 13.0466H0.116089V20.2762H5.51153V13.0466Z" fill="white"/>
</g>
<mask id="mask17_2_297" style="mask-type:luminance" maskUnits="userSpaceOnUse" x="2" y="7" width="4" height="8">
<path d="M5.13611 14.6591C6.85231 11.6876 4.31827 9.26134 4.33605 7.95996C2.21196 9.85058 2.0896 13.0815 4.75124 14.7977C4.16348 13.4176 3.91562 12.008 4.01079 10.568C4.12374 11.9775 4.49919 13.3409 5.13611 14.6591Z" fill="white"/>
</mask>
<g mask="url(#mask17_2_297)">
<path d="M6.85231 7.95996H2.0896V14.7977H6.85231V7.95996Z" fill="white"/>
</g>
<mask id="mask18_2_297" style="mask-type:luminance" maskUnits="userSpaceOnUse" x="5" y="3" width="4" height="8">
<path d="M6.89093 10.3095C9.20117 7.97978 7.44418 5.11339 7.77675 3.91284C5.35251 5.1428 4.45415 8.10372 6.50084 10.3431C6.29167 8.92194 6.40462 7.55649 6.84178 6.24671C6.60542 7.5796 6.62215 8.9335 6.89093 10.3095Z" fill="white"/>
</mask>
<g mask="url(#mask18_2_297)">
<path d="M9.20113 3.91284H4.4541V10.3431H9.20113V3.91284Z" fill="white"/>
</g>
<mask id="mask19_2_297" style="mask-type:luminance" maskUnits="userSpaceOnUse" x="8" y="1" width="5" height="7">
<path d="M9.52227 7.14367C12.2571 5.84334 11.6223 2.79838 12.2854 1.85938C9.79314 2.16608 8.08949 4.45898 9.17192 7.05019C9.43233 5.74776 9.95734 4.59658 10.7449 3.5956C10.1236 4.67956 9.7168 5.86225 9.52227 7.14367Z" fill="white"/>
</mask>
<g mask="url(#mask19_2_297)">
<path d="M12.2843 1.8584H8.08948V7.14269H12.2843V1.8584Z" fill="white"/>
</g>
<mask id="mask20_2_297" style="mask-type:luminance" maskUnits="userSpaceOnUse" x="12" y="0" width="5" height="5">
<path d="M12.7947 4.5536C15.495 4.41706 16.0043 1.68616 16.8713 1.13788C14.7096 0.538129 12.5249 1.84686 12.5374 4.35719C13.1952 3.37196 14.0194 2.60101 15.0098 2.04328C14.1292 2.72495 13.3908 3.56208 12.7947 4.5536Z" fill="white"/>
</mask>
<g mask="url(#mask20_2_297)">
<path d="M16.8714 0.537109H12.5249V4.55364H16.8714V0.537109Z" fill="white"/>
</g>
<mask id="mask21_2_297" style="mask-type:luminance" maskUnits="userSpaceOnUse" x="8" y="38" width="13" height="7">
<path d="M19.9199 39.7718C14.5266 37.1575 10.6465 41.9239 8.38232 42.0657C11.9497 45.5382 17.5835 45.3228 20.2117 40.4293C17.891 41.6435 15.4741 42.2642 12.9589 42.2905C15.3925 41.9029 17.7132 41.0626 19.9199 39.7718Z" fill="white"/>
</mask>
<g mask="url(#mask21_2_297)">
<path d="M20.2117 37.1575H8.38232V45.5382H20.2117V37.1575Z" fill="white"/>
</g>
<mask id="mask22_2_297" style="mask-type:luminance" maskUnits="userSpaceOnUse" x="5" y="3" width="35" height="32">
<path d="M22.5 3.12085C13.1701 3.12085 5.60669 10.717 5.60669 20.0871C5.60669 25.3315 7.9755 30.0202 11.6987 33.1335C14.3341 35.3371 13.965 34.9737 13.965 32.1199V21.7456C14.0089 21.4095 14.2013 21.1553 14.5423 20.9841L15.6843 20.3213C15.6895 20.3182 15.6958 20.315 15.701 20.3119C15.792 20.2552 15.8485 20.1554 15.8496 20.0461C15.8506 19.9316 15.7889 19.8245 15.6895 19.7688C15.6132 19.7258 15.5233 19.7163 15.4417 19.7415C15.4166 19.7489 15.3925 19.7604 15.3695 19.7741C14.9397 19.9642 14.4649 20.0692 13.965 20.0692C12.0385 20.0692 10.4761 18.5 10.4761 16.5653C10.4761 14.6305 12.0385 13.0613 13.965 13.0613H22.5H31.035C32.9614 13.0613 34.5239 14.6305 34.5239 16.5653C34.5239 18.5 32.9614 20.0692 31.035 20.0692C30.5351 20.0692 30.0603 19.9642 29.6305 19.7741C29.6075 19.7594 29.5834 19.7489 29.5583 19.7415C29.4767 19.7163 29.3868 19.7247 29.3104 19.7688C29.2111 19.8256 29.1494 19.9316 29.1504 20.0461C29.1515 20.1554 29.208 20.2552 29.2989 20.3119C29.3042 20.315 29.3094 20.3182 29.3157 20.3213L30.4577 20.9841C30.7987 21.1553 30.9911 21.4095 31.035 21.7456V32.1199C31.035 34.9737 30.6648 35.3371 33.3013 33.1335C37.0234 30.0213 39.3933 25.3325 39.3933 20.0871C39.3933 10.7159 31.8298 3.12085 22.5 3.12085Z" fill="white"/>
</mask>
<g mask="url(#mask22_2_297)">
<path d="M39.3923 3.12085H5.60669V35.336H39.3923V3.12085Z" fill="white"/>
</g>
</g>
<defs>
<clipPath id="clip0_2_297">
<rect width="45" height="45" fill="white" transform="translate(0 0.537109)"/>
</clipPath>
</defs>
</svg>
