<svg width="15" height="15" viewBox="0 0 15 15" fill="none" xmlns="http://www.w3.org/2000/svg">
<g clip-path="url(#clip0_2_223)">
<path d="M6.04883 11.26V13.9655C6.04883 14.1545 6.17016 14.3219 6.34983 14.3814C6.39474 14.396 6.44083 14.403 6.48633 14.403C6.62283 14.403 6.75466 14.3388 6.83866 14.2245L8.42125 12.0708L6.04883 11.26Z" fill="#C3922E"/>
<path d="M14.7606 1.06746C14.6264 0.97238 14.4503 0.959546 14.3044 1.03596L1.17945 7.89013C1.02428 7.97121 0.932695 8.13688 0.945529 8.3113C0.958945 8.4863 1.07503 8.63563 1.24011 8.69221L4.88886 9.93938L12.6594 3.29521L6.64644 10.5396L12.7615 12.6297C12.807 12.6449 12.8549 12.653 12.9027 12.653C12.982 12.653 13.0608 12.6315 13.1302 12.5895C13.241 12.5218 13.3163 12.408 13.3355 12.2803L14.9397 1.48863C14.9636 1.3253 14.8948 1.16313 14.7606 1.06746Z" fill="#C3922E"/>
</g>
<defs>
<clipPath id="clip0_2_223">
<rect width="14" height="14" fill="white" transform="translate(0.944336 0.986328)"/>
</clipPath>
</defs>
</svg>
