<svg width="45" height="45" viewBox="0 0 45 45" fill="none" xmlns="http://www.w3.org/2000/svg">
<mask id="mask0_3_185064" style="mask-type:luminance" maskUnits="userSpaceOnUse" x="13" y="15" width="19" height="3">
<path d="M22.4993 15.002H15.12C12.8003 15.002 12.816 17.3568 13.5857 17.7308C13.5857 17.2108 13.7238 16.8527 13.9559 16.6279C14.2216 16.3695 14.6336 16.2582 15.12 16.2582H22.4993H29.8787C30.3661 16.2582 30.7771 16.3695 31.0427 16.6279C31.2749 16.8527 31.413 17.2108 31.413 17.7308C32.1827 17.3579 32.1984 15.002 29.8787 15.002H22.4993Z" fill="white"/>
</mask>
<g mask="url(#mask0_3_185064)">
<path d="M32.1979 15.002H12.7988V17.7308H32.1979V15.002Z" fill="#C3922E"/>
</g>
<mask id="mask1_3_185064" style="mask-type:luminance" maskUnits="userSpaceOnUse" x="16" y="22" width="3" height="15">
<path d="M16.4043 23.9918V35.3765C17.1908 35.6822 18.0055 35.9311 18.8432 36.117V23.9918C18.8432 23.3185 18.2941 22.7671 17.6237 22.7671C16.9523 22.7671 16.4043 23.3185 16.4043 23.9918Z" fill="white"/>
</mask>
<g mask="url(#mask1_3_185064)">
<path d="M18.8432 22.7671H16.4043V36.117H18.8432V22.7671Z" fill="#C3922E"/>
</g>
<mask id="mask2_3_185064" style="mask-type:luminance" maskUnits="userSpaceOnUse" x="21" y="21" width="3" height="16">
<path d="M21.2812 22.7223V36.4724C21.6839 36.5018 22.0907 36.5165 22.5007 36.5165C22.9107 36.5165 23.3175 36.5018 23.7201 36.4724V22.7223C23.7201 22.049 23.1711 21.4976 22.5007 21.4976C21.8303 21.4976 21.2812 22.049 21.2812 22.7223Z" fill="white"/>
</mask>
<g mask="url(#mask2_3_185064)">
<path d="M23.7201 21.4976H21.2812V36.5154H23.7201V21.4976Z" fill="#C3922E"/>
</g>
<mask id="mask3_3_185064" style="mask-type:luminance" maskUnits="userSpaceOnUse" x="26" y="22" width="3" height="15">
<path d="M26.1582 23.992V36.1172C26.9959 35.9313 27.8106 35.6834 28.5971 35.3767V23.992C28.5971 23.3188 28.048 22.7673 27.3776 22.7673C26.7062 22.7673 26.1582 23.3188 26.1582 23.992Z" fill="white"/>
</mask>
<g mask="url(#mask3_3_185064)">
<path d="M28.5971 22.7673H26.1582V36.1172H28.5971V22.7673Z" fill="#C3922E"/>
</g>
<mask id="mask4_3_185064" style="mask-type:luminance" maskUnits="userSpaceOnUse" x="31" y="32" width="11" height="7">
<path d="M31.5 37.4502C33.8636 32.3109 39.5226 33.4453 41.2524 32.188C40.7263 36.8547 36.5033 40.0813 31.6788 38.1035C34.0884 37.592 36.2157 36.591 38.0594 35.1006C36.0588 36.2801 33.873 37.0626 31.5 37.4502Z" fill="white"/>
</mask>
<g mask="url(#mask4_3_185064)">
<path d="M41.2524 32.188H31.5V40.0813H41.2524V32.188Z" fill="#C3922E"/>
</g>
<mask id="mask5_3_185064" style="mask-type:luminance" maskUnits="userSpaceOnUse" x="37" y="24" width="7" height="8">
<path d="M37.4375 31.2511C37.8286 26.6401 42.493 25.929 43.474 24.4795C44.364 28.2135 42.013 31.875 37.7565 31.7038C39.4675 30.6366 40.8239 29.2733 41.8279 27.6116C40.6179 29.0758 39.1548 30.29 37.4375 31.2511Z" fill="white"/>
</mask>
<g mask="url(#mask5_3_185064)">
<path d="M44.363 24.4785H37.4375V31.874H44.363V24.4785Z" fill="#C3922E"/>
</g>
<mask id="mask6_3_185064" style="mask-type:luminance" maskUnits="userSpaceOnUse" x="39" y="18" width="6" height="8">
<path d="M39.6841 24.8386C39.5722 21.0741 43.2755 20.0626 43.9333 18.7991C45.0001 21.7337 43.4397 24.9131 39.9832 25.1747C41.2665 24.1516 42.237 22.9217 42.8938 21.4848C42.0529 22.782 40.983 23.9006 39.6841 24.8386Z" fill="white"/>
</mask>
<g mask="url(#mask6_3_185064)">
<path d="M45.0001 18.7991H39.5723V25.1747H45.0001V18.7991Z" fill="#C3922E"/>
</g>
<mask id="mask7_3_185064" style="mask-type:luminance" maskUnits="userSpaceOnUse" x="40" y="12" width="5" height="8">
<path d="M40.644 19.5009C39.4894 15.9181 42.765 13.9078 43.0453 12.5098C44.8849 15.0285 44.271 18.5198 41.0247 19.7393C41.9723 18.397 42.5621 16.9443 42.7932 15.3804C42.3467 16.8635 41.6303 18.2363 40.644 19.5009Z" fill="white"/>
</mask>
<g mask="url(#mask7_3_185064)">
<path d="M44.8857 12.5098H39.4902V19.7393H44.8857V12.5098Z" fill="#C3922E"/>
</g>
<mask id="mask8_3_185064" style="mask-type:luminance" maskUnits="userSpaceOnUse" x="39" y="7" width="4" height="8">
<path d="M39.8642 14.122C38.148 11.1505 40.682 8.72423 40.6642 7.42285C42.7883 9.31348 42.9107 12.5443 40.249 14.2606C40.8368 12.8805 41.0847 11.4709 40.9895 10.0309C40.8755 11.4404 40.5 12.8038 39.8642 14.122Z" fill="white"/>
</mask>
<g mask="url(#mask8_3_185064)">
<path d="M42.9092 7.42285H38.1465V14.2606H42.9092V7.42285Z" fill="#C3922E"/>
</g>
<mask id="mask9_3_185064" style="mask-type:luminance" maskUnits="userSpaceOnUse" x="36" y="3" width="4" height="7">
<path d="M38.1093 9.77259C35.7991 7.44292 37.5561 4.57652 37.2246 3.37598C39.6488 4.60593 40.5472 7.56686 38.5005 9.8062C38.7096 8.38508 38.5956 7.01963 38.1595 5.70985C38.3959 7.04274 38.3792 8.39663 38.1093 9.77259Z" fill="white"/>
</mask>
<g mask="url(#mask9_3_185064)">
<path d="M40.5459 3.37598H35.7988V9.8062H40.5459V3.37598Z" fill="#C3922E"/>
</g>
<mask id="mask10_3_185064" style="mask-type:luminance" maskUnits="userSpaceOnUse" x="32" y="1" width="5" height="6">
<path d="M35.4779 6.60656C32.7431 5.30623 33.3779 2.26128 32.7148 1.32227C35.206 1.63002 36.9097 3.92292 35.8283 6.51413C35.5668 5.2117 35.0429 4.06052 34.2554 3.05954C34.8755 4.14245 35.2834 5.32514 35.4779 6.60656Z" fill="white"/>
</mask>
<g mask="url(#mask10_3_185064)">
<path d="M36.9097 1.32129H32.7148V6.60558H36.9097V1.32129Z" fill="#C3922E"/>
</g>
<mask id="mask11_3_185064" style="mask-type:luminance" maskUnits="userSpaceOnUse" x="28" y="0" width="5" height="5">
<path d="M32.2056 4.01649C29.5052 3.87995 28.9959 1.14905 28.1289 0.600767C30.2906 0.00101945 32.4754 1.30975 32.4628 3.82008C31.805 2.83485 30.9809 2.0639 29.9905 1.50617C30.8711 2.18784 31.6094 3.02497 32.2056 4.01649Z" fill="white"/>
</mask>
<g mask="url(#mask11_3_185064)">
<path d="M32.4754 0H28.1289V4.01653H32.4754V0Z" fill="#C3922E"/>
</g>
<mask id="mask12_3_185064" style="mask-type:luminance" maskUnits="userSpaceOnUse" x="24" y="38" width="13" height="6">
<path d="M25.0808 39.2347C30.4742 36.6203 34.3542 41.3868 36.6185 41.5286C33.0511 45.0011 27.4172 44.7857 24.7891 39.8922C27.1098 41.1064 29.5277 41.7271 32.0419 41.7534C29.6082 41.3658 27.2876 40.5255 25.0808 39.2347Z" fill="white"/>
</mask>
<g mask="url(#mask12_3_185064)">
<path d="M36.6185 36.6204H24.7891V45.0011H36.6185V36.6204Z" fill="#C3922E"/>
</g>
<mask id="mask13_3_185064" style="mask-type:luminance" maskUnits="userSpaceOnUse" x="3" y="32" width="11" height="7">
<path d="M13.5004 37.4502C11.1368 32.3109 5.47785 33.4453 3.74805 32.188C4.2741 36.8547 8.49716 40.0813 13.3216 38.1035C10.9109 37.592 8.78477 36.591 6.94097 35.1006C8.9406 36.2801 11.1264 37.0626 13.5004 37.4502Z" fill="white"/>
</mask>
<g mask="url(#mask13_3_185064)">
<path d="M13.5004 32.188H3.74805V40.0813H13.5004V32.188Z" fill="#C3922E"/>
</g>
<mask id="mask14_3_185064" style="mask-type:luminance" maskUnits="userSpaceOnUse" x="1" y="24" width="7" height="8">
<path d="M7.56329 31.2511C7.17215 26.6401 2.50774 25.929 1.52676 24.4795C0.636753 28.2135 2.98778 31.875 7.24431 31.7038C5.53333 30.6366 4.17689 29.2733 3.17289 27.6116C4.38292 29.0758 5.84604 30.29 7.56329 31.2511Z" fill="white"/>
</mask>
<g mask="url(#mask14_3_185064)">
<path d="M7.56416 24.4785H0.638672V31.874H7.56416V24.4785Z" fill="#C3922E"/>
</g>
<mask id="mask15_3_185064" style="mask-type:luminance" maskUnits="userSpaceOnUse" x="0" y="18" width="6" height="8">
<path d="M5.31639 24.8388C5.42829 21.0744 1.725 20.0629 1.06718 18.7993C0.0014742 21.734 1.56081 24.9134 5.01728 25.1749C3.73404 24.1519 2.76351 22.9219 2.10673 21.4851C2.94758 22.7822 4.01746 23.9008 5.31639 24.8388Z" fill="white"/>
</mask>
<g mask="url(#mask15_3_185064)">
<path d="M5.42786 18.7993H0V25.1749H5.42786V18.7993Z" fill="#C3922E"/>
</g>
<mask id="mask16_3_185064" style="mask-type:luminance" maskUnits="userSpaceOnUse" x="0" y="12" width="5" height="8">
<path d="M4.35617 19.5009C5.51077 15.9181 2.23523 13.9078 1.95494 12.5098C0.115327 15.0285 0.729229 18.5198 3.97549 19.7393C3.02692 18.397 2.43812 16.9443 2.20699 15.3804C2.65356 16.8635 3.36995 18.2363 4.35617 19.5009Z" fill="white"/>
</mask>
<g mask="url(#mask16_3_185064)">
<path d="M5.51067 12.5098H0.115234V19.7393H5.51067V12.5098Z" fill="#C3922E"/>
</g>
<mask id="mask17_3_185064" style="mask-type:luminance" maskUnits="userSpaceOnUse" x="2" y="7" width="4" height="8">
<path d="M5.13684 14.122C6.85305 11.1505 4.319 8.72423 4.33678 7.42285C2.2127 9.31348 2.09033 12.5443 4.75197 14.2606C4.16422 12.8805 3.91635 11.4709 4.01152 10.0309C4.12447 11.4404 4.49993 12.8038 5.13684 14.122Z" fill="white"/>
</mask>
<g mask="url(#mask17_3_185064)">
<path d="M6.85256 7.42285H2.08984V14.2606H6.85256V7.42285Z" fill="#C3922E"/>
</g>
<mask id="mask18_3_185064" style="mask-type:luminance" maskUnits="userSpaceOnUse" x="5" y="3" width="4" height="7">
<path d="M6.89069 9.77259C9.20093 7.44292 7.44393 4.57652 7.77651 3.37598C5.35227 4.60593 4.4539 7.56686 6.50059 9.8062C6.29143 8.38508 6.40438 7.01963 6.84153 5.70985C6.60517 7.04274 6.62191 8.39663 6.89069 9.77259Z" fill="white"/>
</mask>
<g mask="url(#mask18_3_185064)">
<path d="M9.20015 3.37598H4.45312V9.8062H9.20015V3.37598Z" fill="#C3922E"/>
</g>
<mask id="mask19_3_185064" style="mask-type:luminance" maskUnits="userSpaceOnUse" x="8" y="1" width="5" height="6">
<path d="M9.52203 6.60656C12.2569 5.30623 11.6221 2.26128 12.2851 1.32227C9.7929 1.62897 8.08924 3.92187 9.17168 6.51308C9.43209 5.21065 9.9571 4.05947 10.7446 3.05849C10.1234 4.14245 9.71656 5.32514 9.52203 6.60656Z" fill="white"/>
</mask>
<g mask="url(#mask19_3_185064)">
<path d="M12.2847 1.32129H8.08984V6.60558H12.2847V1.32129Z" fill="#C3922E"/>
</g>
<mask id="mask20_3_185064" style="mask-type:luminance" maskUnits="userSpaceOnUse" x="12" y="0" width="5" height="5">
<path d="M12.7944 4.01649C15.4948 3.87995 16.0041 1.14905 16.8711 0.600767C14.7094 0.00101945 12.5246 1.30975 12.5372 3.82008C13.195 2.83485 14.0191 2.0639 15.0095 1.50617C14.1289 2.18784 13.3906 3.02497 12.7944 4.01649Z" fill="white"/>
</mask>
<g mask="url(#mask20_3_185064)">
<path d="M16.8719 0H12.5254V4.01653H16.8719V0Z" fill="#C3922E"/>
</g>
<mask id="mask21_3_185064" style="mask-type:luminance" maskUnits="userSpaceOnUse" x="8" y="38" width="13" height="6">
<path d="M19.9204 39.2347C14.5271 36.6203 10.647 41.3868 8.38281 41.5286C11.9501 45.0011 17.584 44.7857 20.2122 39.8922C17.8915 41.1064 15.4746 41.7271 12.9594 41.7534C15.393 41.3658 17.7137 40.5255 19.9204 39.2347Z" fill="white"/>
</mask>
<g mask="url(#mask21_3_185064)">
<path d="M20.2122 36.6204H8.38281V45.0011H20.2122V36.6204Z" fill="#C3922E"/>
</g>
<mask id="mask22_3_185064" style="mask-type:luminance" maskUnits="userSpaceOnUse" x="5" y="2" width="35" height="33">
<path d="M22.5007 2.58398C13.1709 2.58398 5.60742 10.1801 5.60742 19.5502C5.60742 24.7946 7.97623 29.4834 11.6994 32.5966C14.3349 34.8002 13.9657 34.4368 13.9657 31.583V21.2087C14.0096 20.8726 14.2021 20.6184 14.543 20.4472L15.685 19.7845C15.6903 19.7813 15.6966 19.7782 15.7018 19.775C15.7928 19.7183 15.8492 19.6185 15.8503 19.5093C15.8513 19.3948 15.7896 19.2876 15.6903 19.232C15.6139 19.1889 15.524 19.1795 15.4424 19.2047C15.4173 19.212 15.3933 19.2236 15.3703 19.2372C14.9404 19.4273 14.4656 19.5324 13.9657 19.5324C12.0393 19.5324 10.4768 17.9632 10.4768 16.0284C10.4768 14.0937 12.0393 12.5245 13.9657 12.5245H22.5007H31.0357C32.9622 12.5245 34.5246 14.0937 34.5246 16.0284C34.5246 17.9632 32.9622 19.5324 31.0357 19.5324C30.5358 19.5324 30.061 19.4273 29.6312 19.2372C29.6082 19.2225 29.5841 19.212 29.559 19.2047C29.4775 19.1795 29.3875 19.1879 29.3112 19.232C29.2118 19.2887 29.1501 19.3948 29.1512 19.5093C29.1522 19.6185 29.2087 19.7183 29.2997 19.775C29.3049 19.7782 29.3101 19.7813 29.3164 19.7845L30.4585 20.4472C30.7994 20.6184 30.9918 20.8726 31.0357 21.2087V31.583C31.0357 34.4368 30.6655 34.8002 33.3021 32.5966C37.0242 29.4844 39.394 24.7957 39.394 19.5502C39.394 10.179 31.8306 2.58398 22.5007 2.58398Z" fill="white"/>
</mask>
<g mask="url(#mask22_3_185064)">
<path d="M39.393 2.58398H5.60742V34.7992H39.393V2.58398Z" fill="#C3922E"/>
</g>
</svg>
