<svg xmlns="http://www.w3.org/2000/svg" xmlns:xlink="http://www.w3.org/1999/xlink" width="46" height="45" viewBox="0 0 46 45"><defs><path id="zw4sa" d="M1399.16 1710l21.18-14.86a1.3 1.3 0 0 1 1.5 0l21.19 14.85c1.06.75.54 2.43-.75 2.43h-42.37c-1.29 0-1.8-1.68-.75-2.43zm20.18-6.07c0 .98.78 1.78 1.75 1.78s1.76-.8 1.76-1.78-.79-1.78-1.76-1.78-1.75.8-1.75 1.78zm24.25 30.02v4.62c0 .74-.59 1.33-1.31 1.33h-42.37c-.73 0-1.32-.6-1.32-1.33v-4.62c0-.74.6-1.34 1.32-1.34h42.37c.72 0 1.31.6 1.31 1.34zm-39.24-5.96v-10.05h-.43c-.73 0-1.32-.6-1.32-1.34v-1.5h11.42v1.5c0 .74-.59 1.34-1.32 1.34h-.44v10.05h4.88v-10.05h-.44c-.73 0-1.32-.6-1.32-1.34v-1.5h11.43v1.5c0 .74-.6 1.34-1.32 1.34h-.44v10.05h4.87v-10.05h-.44c-.72 0-1.32-.6-1.32-1.34v-1.5h11.43v1.5c0 .74-.59 1.34-1.32 1.34h-.44v10.05h.84c.73 0 1.32.6 1.32 1.33 0 .74-.59 1.34-1.32 1.34h-35.15c-.73 0-1.32-.6-1.32-1.34 0-.74.59-1.33 1.32-1.33z"/></defs><g><g transform="translate(-1398 -1695)"><use fill="#fff" xlink:href="#zw4sa"/></g></g></svg>