<svg xmlns="http://www.w3.org/2000/svg" xmlns:xlink="http://www.w3.org/1999/xlink" width="40" height="45" viewBox="0 0 40 45"><defs><path id="46xka" d="M1058.06 1701.14c-.84 3.68-2.85 13.91-2.06 16.9 1.27 4.84.8 8.65-1.5 11.98-2.66 3.87-7.86 7.12-15.92 9.94-.31.11-.66.11-.97 0-8.06-2.82-13.27-6.07-15.92-9.94-2.3-3.33-2.77-7.14-1.5-11.97.78-3-1.23-13.23-2.07-16.91a1.3 1.3 0 0 1 .72-1.45c.02 0 2.34-1.16 6.17-2.88.42-.2.92-.17 1.33.06 2.8 1.6 5.43 1.87 7.83.8a8.04 8.04 0 0 0 2.8-2.07c.55-.72 1.7-.72 2.25 0 0 0 1.06 1.32 2.89 2.11 2.37 1.03 4.98.74 7.74-.84.4-.23.9-.26 1.33-.06 3.83 1.72 6.14 2.87 6.17 2.88.55.28.85.87.71 1.45zm-8.18 1.57a13.53 13.53 0 0 1-11.1-.69 1.47 1.47 0 0 0-1.38 0 13.53 13.53 0 0 1-11.1.7c-1-.37-2.05.45-1.86 1.46.54 2.8 2.17 11.3 1.16 15.14-1.13 4.3-.18 6.45.77 7.83 1.75 2.56 5.52 4.96 11.2 7.14.34.13.71.13 1.05 0 5.67-2.18 9.44-4.58 11.2-7.14.95-1.38 1.9-3.52.76-7.83-.25-.95-1-3.83 1.17-15.14.19-1-.86-1.83-1.87-1.47zm-1.27 3.12c-.9 5.06-1.63 10.73-.74 14.12.52 1.95.82 4-.4 5.77-1.36 2-4.6 4.04-9.38 5.93-4.77-1.9-8.01-3.94-9.38-5.93-.72-1.05-1.27-2.47-.4-5.77.9-3.4.17-9.06-.73-14.12 3.61.78 7.26.39 10.51-1.17a16.23 16.23 0 0 0 10.52 1.17zm-3.96 7.88l-3.67-.5-1.64-3.14c-.5-.98-1.99-.98-2.5 0l-1.64 3.14-3.67.5c-1.14.16-1.6 1.49-.77 2.25l2.66 2.44-.63 3.45c-.2 1.08 1 1.9 2.02 1.4l3.28-1.64 3.28 1.63c1.02.5 2.22-.3 2.03-1.39l-.63-3.45 2.66-2.44c.82-.76.36-2.1-.78-2.25z"/></defs><g><g transform="translate(-1018 -1695)"><use fill="#fff" xlink:href="#46xka"/></g></g></svg>