<svg xmlns="http://www.w3.org/2000/svg" xmlns:xlink="http://www.w3.org/1999/xlink" width="29" height="27" viewBox="0 0 29 27"><defs><path id="k9yaa" d="M896.77 616.8c.23-.04.45.12.49.38.04.25-.12.48-.35.53l-2.56.46 4.66 9.7a.5.5 0 0 1 .05.24c-.01 3.13-2.35 5.66-5.23 5.66-2.88 0-5.23-2.55-5.23-5.68 0-.08.02-.15.05-.22l4.56-9.5-5.14.94v.08c0 1.65-1.12 3.01-2.58 3.24v16.45h5.17c.23 0 .42.2.42.46s-.19.46-.42.46h-11.2c-.23 0-.42-.2-.42-.46 0-.25.2-.46.43-.46h5.17v-16.45a3.1 3.1 0 0 1-2.45-2.25l-5.29.96 4.57 9.52a.5.5 0 0 1 .05.21c0 3.14-2.34 5.69-5.23 5.69-2.87 0-5.21-2.54-5.22-5.67a.5.5 0 0 1 .04-.23l4.46-9.28-2.22.4h-.07c-.2 0-.38-.15-.41-.38-.04-.25.11-.49.34-.53l8.84-1.6v-.08c0-1.65 1.13-3.02 2.59-3.24v-.7c0-.25.19-.46.42-.46.24 0 .43.21.43.47v.69a3.1 3.1 0 0 1 2.44 2.25zm-13.82 2.97a.5.5 0 0 1 0 .13 2.22 2.22 0 0 0 2.14 1.84c1.18-.02 2.14-1.07 2.14-2.35 0-1.3-.97-2.35-2.17-2.35s-2.16 1.05-2.16 2.35l.01.26a.5.5 0 0 1 .04.12zm6.52 8.78c.21 2.41 2.09 4.3 4.36 4.3 2.27 0 4.15-1.89 4.36-4.3zm4.36-9.47l-4.1 8.55h8.2zm-21.9 12.45c.22 2.41 2.1 4.3 4.36 4.3 2.28 0 4.15-1.89 4.36-4.3zm4.36-9.47l-4.1 8.55h8.2z"/></defs><g><g transform="translate(-871 -614)"><use fill="#cea05f" xlink:href="#k9yaa"/><use fill="#fff" fill-opacity="0" stroke="#cea05f" stroke-linecap="round" stroke-linejoin="round" stroke-miterlimit="50" xlink:href="#k9yaa"/></g></g></svg>