<svg xmlns="http://www.w3.org/2000/svg" xmlns:xlink="http://www.w3.org/1999/xlink" width="78" height="66" viewBox="0 0 78 66"><defs><path id="6cada" d="M545.67 3068.75a1.2 1.2 0 0 1 1.37 1c.1.66-.33 1.28-.98 1.4l-7.12 1.22 12.98 25.62c.1.2.14.42.13.62-.03 8.25-6.55 14.96-14.56 14.96-8.03 0-14.57-6.74-14.57-15.01 0-.21.05-.4.14-.58l12.7-25.06-14.3 2.46v.2a8.58 8.58 0 0 1-7.22 8.56v43.43h14.4c.66 0 1.19.55 1.19 1.22a1.2 1.2 0 0 1-1.18 1.22h-31.17a1.2 1.2 0 0 1-1.19-1.22c0-.67.53-1.22 1.19-1.22h14.4v-43.43a8.5 8.5 0 0 1-6.82-5.95l-14.73 2.54 12.74 25.14a1.27 1.27 0 0 1 .13.56c0 8.28-6.53 15.01-14.56 15.01-8.02 0-14.54-6.7-14.57-14.95 0-.2.03-.42.13-.62l12.42-24.5-6.17 1.06-.2.01a1.2 1.2 0 0 1-1.16-1.01c-.11-.67.32-1.3.97-1.4l24.61-4.24v-.2a8.58 8.58 0 0 1 7.21-8.56v-1.82c0-.68.53-1.22 1.18-1.22.65 0 1.18.54 1.18 1.22v1.82a8.5 8.5 0 0 1 6.82 5.95zm-38.5 7.85c.02.12.02.24.01.35a6.09 6.09 0 0 0 5.95 4.85 6.13 6.13 0 0 0 5.96-6.21c0-3.43-2.7-6.21-6.03-6.21a6.13 6.13 0 0 0-6 6.88c.06.1.1.22.11.34zm18.17 23.18c.6 6.36 5.82 11.35 12.15 11.35s11.54-4.99 12.14-11.35zm12.15-25l-11.44 22.56h22.87zm-61 32.87c.6 6.37 5.82 11.36 12.15 11.36s11.55-5 12.14-11.36zm12.15-25l-11.44 22.57h22.87z"/></defs><g><g transform="translate(-474 -3064)"><use fill="#fff" xlink:href="#6cada"/></g></g></svg>