<svg xmlns="http://www.w3.org/2000/svg" xmlns:xlink="http://www.w3.org/1999/xlink" width="182" height="190" viewBox="0 0 182 190"><defs><path id="gv88a" d="M463.33 8383.1a2.9 2.9 0 0 1 4.1.45 2.96 2.96 0 0 1-.35 4.14l-13.53 11.27 58.63 38.32c.45.3.8.69 1.04 1.14 10 17.46 4.42 39.57-12.5 49.33-16.93 9.78-38.93 3.51-49.02-13.97a3.03 3.03 0 0 1-.4-1.35l-3.79-68.45-27.19 22.63c.1.14.18.28.26.43 5.31 9.2 3.1 20.65-4.77 26.86l52.97 91.75 30.4-17.54a2.93 2.93 0 0 1 3.97 1.13 2.92 2.92 0 0 1-1.01 4.01l-65.76 37.97c-1.38.8-3.16.28-3.98-1.13a2.93 2.93 0 0 1 1-4.02l30.4-17.54-52.97-91.75c-7.37 2.93-15.81 1.16-21.64-4.26l-27.99 23.3 57.53 37.6a3.07 3.07 0 0 1 .97 1.02c10.1 17.48 4.52 39.66-12.41 49.44-16.91 9.76-38.85 3.55-48.97-13.84a3.06 3.06 0 0 1-.48-1.47l-3.7-66.89-11.72 9.76a2.9 2.9 0 0 1-4.1-.46 2.97 2.97 0 0 1 .35-4.14l46.77-38.92-.26-.44c-5.31-9.2-3.1-20.65 4.77-26.86l-2.22-3.85a2.93 2.93 0 0 1 1-4 2.93 2.93 0 0 1 3.98 1.12l2.22 3.85c7.37-2.93 15.81-1.16 21.65 4.27zm-71.64 63.48c.19.22.34.47.45.73 4.61 5.07 12.14 6.55 18.17 3.16a2.83 2.83 0 0 1 .3-.17c6.9-4.1 9.13-13.2 4.99-20.38-4.18-7.23-13.28-9.82-20.29-5.77-7.01 4.05-9.32 13.22-5.14 20.46.27.48.58.94.9 1.38.23.16.44.36.62.59zm66.6 26.83c9.02 12.72 26.12 16.9 39.47 9.2 13.35-7.71 18.27-24.61 11.77-38.78zm-4.87-67.61l3.4 61.6 48.25-27.85zm-88.58 143.75c9.02 12.71 26.12 16.9 39.48 9.19 13.35-7.7 18.27-24.6 11.77-38.78zm-4.87-67.62l3.4 61.6 48.24-27.84z"/></defs><g><g opacity=".09" transform="translate(-337 -8382)"><use fill="#fff" xlink:href="#gv88a"/></g></g></svg>