<svg width="40" height="40" viewBox="0 0 40 40" fill="none" xmlns="http://www.w3.org/2000/svg">
<g clip-path="url(#clip0_2_56428)">
<path d="M20.7812 7.95561C20.7812 8.38592 20.4303 8.73686 20 8.73686C19.5697 8.73686 19.2188 8.38592 19.2188 7.95561C19.2188 7.52529 19.5697 7.17436 20 7.17436C20.4303 7.17436 20.7812 7.52529 20.7812 7.95561ZM38.8468 23.7536C38.8702 23.8152 38.8823 23.8807 38.8824 23.9466C38.8859 25.6338 38.2362 27.2158 37.0534 28.4011C35.8777 29.5791 34.3127 30.2279 32.6463 30.2279C30.977 30.2279 29.4085 29.5776 28.2299 28.3965C27.053 27.2172 26.4067 25.6502 26.4102 23.9842C26.4103 23.918 26.4224 23.8524 26.446 23.7906L31.869 9.55701H23.5342C23.2155 10.2576 22.6951 10.8473 22.0469 11.2514V33.0163L29.5245 36.1004C29.7292 36.1848 29.8628 36.3845 29.8628 36.606V38.7417C29.8628 39.0437 29.618 39.2886 29.3159 39.2886H10.684C10.382 39.2886 10.1371 39.0437 10.1371 38.7417V36.6058C10.1371 36.3844 10.2707 36.1847 10.4755 36.1003L17.9531 33.0162V11.2513C17.3048 10.8472 16.7845 10.2575 16.4657 9.55693H8.14953L13.5412 23.7535C13.5646 23.8151 13.5766 23.8806 13.5768 23.9465C13.5802 25.6337 12.9306 27.2156 11.7478 28.4009C10.5721 29.579 9.00695 30.2278 7.34062 30.2278C5.67125 30.2278 4.10289 29.5774 2.9243 28.3965C1.74742 27.2171 1.10109 25.6501 1.10453 23.984C1.10469 23.9179 1.1168 23.8522 1.14039 23.7904L6.56328 9.55693H2.30445C1.42148 9.55693 0.703125 8.83857 0.703125 7.95561C0.703125 7.07264 1.42148 6.35428 2.30445 6.35428H16.4656C16.7843 5.65365 17.3048 5.06381 17.953 4.65975V2.7417C17.9531 1.61303 18.8714 0.694824 20 0.694824C21.1286 0.694824 22.0469 1.61303 22.0469 2.7417V4.65982C22.6951 5.06389 23.2155 5.65365 23.5342 6.35428H37.6955C38.5784 6.35428 39.2968 7.07264 39.2968 7.95561C39.2968 8.83857 38.5784 9.55693 37.6955 9.55693H33.4551L38.8468 23.7536ZM2.44492 23.4383H12.2514L7.35602 10.5483L2.44492 23.4383ZM12.452 24.532H2.22656C2.34672 25.6992 2.85797 26.7815 3.69844 27.6237C4.67031 28.5976 5.96383 29.134 7.34062 29.134C8.71445 29.134 10.0047 28.5992 10.9737 27.6283C11.8124 26.7879 12.3258 25.7048 12.452 24.532ZM19.0469 4.19287C19.352 4.11553 19.6712 4.07412 19.9999 4.07412C20.3287 4.07412 20.648 4.11561 20.9531 4.19287V2.7417C20.9531 2.21615 20.5255 1.78857 20 1.78857C19.4745 1.78857 19.0469 2.21615 19.0469 2.7417V4.19287ZM16.1528 8.46318C16.131 8.29693 16.1186 8.12771 16.1186 7.95553C16.1186 7.78342 16.131 7.61428 16.1528 7.44795H2.30445C2.02453 7.44795 1.79688 7.67568 1.79688 7.95553C1.79688 8.23537 2.02453 8.46311 2.30445 8.46311L16.1528 8.46318ZM28.7691 36.9719L20 33.3551L11.2309 36.9719V38.1948H28.7691V36.9719ZM20.9531 11.7182C20.648 11.7955 20.3287 11.8369 19.9999 11.8369C19.6712 11.8369 19.352 11.7955 19.0469 11.7182V32.565L19.7915 32.2579C19.925 32.2028 20.075 32.2028 20.2085 32.2579L20.9531 32.565V11.7182ZM22.7877 7.95561C22.7877 6.4185 21.5371 5.16787 19.9999 5.16787C18.4628 5.16787 17.2123 6.41842 17.2123 7.95561C17.2123 9.49279 18.4628 10.7433 19.9999 10.7433C21.5371 10.7433 22.7877 9.49271 22.7877 7.95561ZM23.8814 7.95561C23.8814 8.12772 23.869 8.29693 23.8472 8.46326H37.6956C37.9755 8.46326 38.2032 8.23553 38.2032 7.95568C38.2032 7.67584 37.9755 7.44811 37.6956 7.44811H23.8472C23.8689 7.61428 23.8814 7.7835 23.8814 7.95561ZM27.7506 23.4383H37.5572L32.6617 10.5482L27.7506 23.4383ZM37.7577 24.5321H27.5322C27.6523 25.6992 28.1636 26.7815 29.0041 27.6237C29.976 28.5977 31.2695 29.134 32.6463 29.134C34.0201 29.134 35.3103 28.5993 36.2793 27.6283C37.118 26.7879 37.6314 25.705 37.7577 24.5321Z" fill="#021C1B"/>
</g>
<defs>
<clipPath id="clip0_2_56428">
<rect width="40" height="40" fill="white" transform="translate(0 -0.00830078)"/>
</clipPath>
</defs>
</svg>
