<svg width="40" height="40" viewBox="0 0 40 40" fill="none" xmlns="http://www.w3.org/2000/svg">
<g clip-path="url(#clip0_2_56437)">
<path d="M10.4672 7.46039L9.65125 8.27602C9.01329 7.60789 8.14654 7.20534 7.22448 7.14891C6.30242 7.09248 5.39306 7.38635 4.67839 7.97169C3.96372 8.55704 3.49646 9.39069 3.37013 10.3058C3.2438 11.2209 3.46771 12.15 3.99706 12.9071C4.52641 13.6641 5.32214 14.1934 6.225 14.3889C7.12787 14.5844 8.07126 14.4317 8.86638 13.9614C9.6615 13.4912 10.2497 12.7379 10.5132 11.8525C10.7768 10.9672 10.6962 10.0149 10.2877 9.18633L11.2409 8.2332C11.3434 8.13064 11.401 7.99153 11.401 7.84648C11.401 7.70144 11.3434 7.56233 11.2409 7.45977C11.1383 7.3572 10.9992 7.29958 10.8541 7.29958C10.7091 7.29958 10.57 7.3572 10.4674 7.45977L10.4672 7.46039ZM9.5718 10.8073C9.57287 11.4097 9.36359 11.9936 8.98008 12.4581C8.59658 12.9227 8.06291 13.2388 7.4712 13.3519C6.87949 13.4649 6.26688 13.3679 5.7391 13.0774C5.21133 12.787 4.80152 12.3214 4.58041 11.761C4.3593 11.2006 4.34077 10.5807 4.52802 10.0081C4.71526 9.43552 5.09654 8.94628 5.60602 8.62484C6.11551 8.3034 6.72123 8.16991 7.31864 8.24744C7.91604 8.32496 8.46764 8.60862 8.8782 9.04945L6.98984 10.9374L6.04688 9.99414C5.94431 9.89158 5.8052 9.83396 5.66016 9.83396C5.51511 9.83396 5.376 9.89158 5.27344 9.99414C5.17087 10.0967 5.11325 10.2358 5.11325 10.3809C5.11325 10.5259 5.17087 10.665 5.27344 10.7676L6.60312 12.0975C6.65391 12.1483 6.7142 12.1886 6.78055 12.2161C6.8469 12.2435 6.91802 12.2577 6.98984 12.2577C7.06167 12.2577 7.13278 12.2435 7.19914 12.2161C7.26549 12.1886 7.32578 12.1483 7.37656 12.0975L9.45008 10.0241C9.53085 10.2773 9.57191 10.5415 9.5718 10.8073ZM10.4672 16.5353L9.65125 17.351C9.01329 16.6829 8.14654 16.2803 7.22448 16.2239C6.30242 16.1675 5.39306 16.4613 4.67839 17.0467C3.96372 17.632 3.49646 18.4657 3.37013 19.3808C3.2438 20.2959 3.46771 21.225 3.99706 21.9821C4.52641 22.7391 5.32214 23.2684 6.225 23.4639C7.12787 23.6594 8.07126 23.5067 8.86638 23.0364C9.6615 22.5662 10.2497 21.8129 10.5132 20.9275C10.7768 20.0422 10.6962 19.0899 10.2877 18.2613L11.2409 17.3082C11.3434 17.2056 11.401 17.0665 11.401 16.9215C11.401 16.7764 11.3434 16.6373 11.2409 16.5348C11.1383 16.4322 10.9992 16.3746 10.8541 16.3746C10.7091 16.3746 10.57 16.4322 10.4674 16.5348L10.4672 16.5353ZM9.5718 19.8823C9.57276 20.4847 9.36339 21.0685 8.97982 21.533C8.59625 21.9975 8.06256 22.3135 7.47085 22.4265C6.87915 22.5394 6.26657 22.4423 5.73884 22.1518C5.21112 21.8613 4.80137 21.3957 4.58032 20.8353C4.35927 20.275 4.34079 19.655 4.52807 19.0825C4.71535 18.5099 5.09664 18.0207 5.60612 17.6993C6.11561 17.3779 6.72131 17.2444 7.3187 17.322C7.91608 17.3995 8.46765 17.6832 8.8782 18.124L6.98984 20.0127L6.04688 19.0698C5.99609 19.019 5.9358 18.9787 5.86945 18.9512C5.80309 18.9237 5.73198 18.9096 5.66016 18.9096C5.58834 18.9096 5.51722 18.9237 5.45087 18.9512C5.38451 18.9787 5.32422 19.019 5.27344 19.0698C5.22265 19.1206 5.18237 19.1808 5.15488 19.2472C5.1274 19.3135 5.11325 19.3847 5.11325 19.4565C5.11325 19.5283 5.1274 19.5994 5.15488 19.6658C5.18237 19.7321 5.22265 19.7924 5.27344 19.8432L6.60312 21.1728C6.65391 21.2236 6.7142 21.2639 6.78055 21.2914C6.8469 21.3189 6.91802 21.333 6.98984 21.333C7.06167 21.333 7.13278 21.3189 7.19914 21.2914C7.26549 21.2639 7.32578 21.2236 7.37656 21.1728L9.45008 19.0993C9.53083 19.3524 9.57189 19.6166 9.5718 19.8823ZM10.4672 25.6102L9.65125 26.4263C9.01334 25.7582 8.14669 25.3558 7.22474 25.2994C6.3028 25.243 5.39357 25.5369 4.67902 26.1222C3.96447 26.7075 3.49732 27.5411 3.37104 28.4561C3.24477 29.3711 3.46869 30.3 3.998 31.057C4.52731 31.8139 5.32295 32.3431 6.22571 32.5385C7.12846 32.734 8.07172 32.5813 8.86672 32.111C9.66172 31.6408 10.2498 30.8876 10.5133 30.0023C10.7768 29.1171 10.6962 28.1649 10.2877 27.3365L11.2409 26.3834C11.3434 26.2808 11.401 26.1417 11.401 25.9966C11.401 25.8516 11.3434 25.7125 11.2409 25.6099C11.1383 25.5074 10.9992 25.4497 10.8541 25.4497C10.7091 25.4497 10.57 25.5074 10.4674 25.6099L10.4672 25.6102ZM9.5718 28.9575C9.57276 29.5599 9.36339 30.1437 8.97982 30.6082C8.59625 31.0727 8.06256 31.3887 7.47085 31.5017C6.87915 31.6147 6.26657 31.5175 5.73884 31.227C5.21112 30.9365 4.80137 30.4709 4.58032 29.9106C4.35927 29.3502 4.34079 28.7302 4.52807 28.1577C4.71535 27.5851 5.09664 27.096 5.60612 26.7745C6.11561 26.4531 6.72131 26.3197 7.3187 26.3972C7.91608 26.4747 8.46765 26.7584 8.8782 27.1992L6.98984 29.088L6.04688 28.1446C5.94431 28.042 5.8052 27.9844 5.66016 27.9844C5.51511 27.9844 5.376 28.042 5.27344 28.1446C5.17087 28.2472 5.11325 28.3863 5.11325 28.5313C5.11325 28.6764 5.17087 28.8155 5.27344 28.918L6.60312 30.248C6.65391 30.2988 6.7142 30.3391 6.78055 30.3666C6.8469 30.3941 6.91802 30.4082 6.98984 30.4082C7.06167 30.4082 7.13278 30.3941 7.19914 30.3666C7.26549 30.3391 7.32578 30.2988 7.37656 30.248L9.45008 28.1746C9.53086 28.4278 9.57192 28.692 9.5718 28.9578V28.9575ZM12.8999 8.27484C12.8999 8.1298 12.9575 7.9907 13.0601 7.88814C13.1627 7.78559 13.3018 7.72797 13.4468 7.72797H24.3736C24.5186 7.72797 24.6577 7.78559 24.7603 7.88814C24.8629 7.9907 24.9205 8.1298 24.9205 8.27484C24.9205 8.41988 24.8629 8.55898 24.7603 8.66154C24.6577 8.7641 24.5186 8.82172 24.3736 8.82172H13.4466C13.3016 8.82172 13.1625 8.76414 13.06 8.66165C12.9574 8.55916 12.8998 8.42014 12.8997 8.27516L12.8999 8.27484ZM12.8999 10.807C12.8999 10.6619 12.9575 10.5228 13.0601 10.4203C13.1627 10.3177 13.3018 10.2601 13.4468 10.2601H24.3736C24.5186 10.2601 24.6577 10.3177 24.7603 10.4203C24.8629 10.5228 24.9205 10.6619 24.9205 10.807C24.9205 10.952 24.8629 11.0911 24.7603 11.1937C24.6577 11.2962 24.5186 11.3538 24.3736 11.3538H13.4466C13.3016 11.3538 13.1625 11.2963 13.06 11.1938C12.9574 11.0913 12.8998 10.9523 12.8997 10.8073L12.8999 10.807ZM12.8999 13.3391C12.8999 13.194 12.9575 13.0549 13.0601 12.9524C13.1627 12.8498 13.3018 12.7922 13.4468 12.7922H24.3736C24.5186 12.7922 24.6577 12.8498 24.7603 12.9524C24.8629 13.0549 24.9205 13.194 24.9205 13.3391C24.9205 13.4841 24.8629 13.6232 24.7603 13.7258C24.6577 13.8283 24.5186 13.8859 24.3736 13.8859H13.4466C13.3016 13.8859 13.1625 13.8284 13.06 13.7259C12.9574 13.6234 12.8998 13.4844 12.8997 13.3394L12.8999 13.3391ZM12.8999 17.3501C12.8999 17.205 12.9575 17.0659 13.0601 16.9634C13.1627 16.8608 13.3018 16.8032 13.4468 16.8032H24.3736C24.5186 16.8032 24.6577 16.8608 24.7603 16.9634C24.8629 17.0659 24.9205 17.205 24.9205 17.3501C24.9205 17.4951 24.8629 17.6342 24.7603 17.7368C24.6577 17.8393 24.5186 17.897 24.3736 17.897H13.4466C13.3016 17.897 13.1625 17.8394 13.06 17.7369C12.9574 17.6344 12.8998 17.4954 12.8997 17.3504L12.8999 17.3501ZM12.8999 19.8823C12.8999 19.7372 12.9575 19.5981 13.0601 19.4956C13.1627 19.393 13.3018 19.3354 13.4468 19.3354H24.3736C24.5186 19.3354 24.6577 19.393 24.7603 19.4956C24.8629 19.5981 24.9205 19.7372 24.9205 19.8823C24.9205 20.0273 24.8629 20.1664 24.7603 20.269C24.6577 20.3715 24.5186 20.4291 24.3736 20.4291H13.4466C13.3015 20.4291 13.1624 20.3715 13.0599 20.269C12.9573 20.1664 12.8997 20.0273 12.8997 19.8823H12.8999ZM12.8999 22.4143C12.8999 22.2693 12.9575 22.1302 13.0601 22.0276C13.1627 21.925 13.3018 21.8674 13.4468 21.8674H21.9725C22.1175 21.8674 22.2566 21.925 22.3592 22.0276C22.4618 22.1302 22.5194 22.2693 22.5194 22.4143C22.5194 22.5593 22.4618 22.6984 22.3592 22.801C22.2566 22.9036 22.1175 22.9612 21.9725 22.9612H13.4466C13.3016 22.9612 13.1625 22.9036 13.06 22.8011C12.9574 22.6986 12.8998 22.5596 12.8997 22.4146L12.8999 22.4143ZM19.9037 26.4254C19.9037 26.5704 19.8461 26.7095 19.7435 26.8121C19.6409 26.9146 19.5018 26.9723 19.3568 26.9723H13.4466C13.3015 26.9723 13.1624 26.9146 13.0599 26.8121C12.9573 26.7095 12.8997 26.5704 12.8997 26.4254C12.8997 26.2803 12.9573 26.1413 13.0599 26.0387C13.1624 25.9361 13.3015 25.8785 13.4466 25.8785H19.3566C19.4284 25.8785 19.4995 25.8927 19.5659 25.9202C19.6323 25.9477 19.6926 25.988 19.7434 26.0388C19.7942 26.0896 19.8344 26.1499 19.8619 26.2163C19.8894 26.2827 19.9035 26.3539 19.9034 26.4257L19.9037 26.4254ZM19.9037 28.9575C19.9037 29.1025 19.8461 29.2416 19.7435 29.3442C19.6409 29.4468 19.5018 29.5044 19.3568 29.5044H13.4466C13.3015 29.5044 13.1624 29.4468 13.0599 29.3442C12.9573 29.2416 12.8997 29.1025 12.8997 28.9575C12.8997 28.8125 12.9573 28.6734 13.0599 28.5708C13.1624 28.4682 13.3015 28.4106 13.4466 28.4106H19.3566C19.4284 28.4106 19.4995 28.4248 19.5659 28.4523C19.6323 28.4798 19.6926 28.5201 19.7434 28.5709C19.7942 28.6217 19.8344 28.6821 19.8619 28.7484C19.8894 28.8148 19.9035 28.886 19.9034 28.9578L19.9037 28.9575ZM19.9037 31.4895C19.9037 31.6346 19.8461 31.7737 19.7435 31.8762C19.6409 31.9788 19.5018 32.0364 19.3568 32.0364H13.4466C13.3015 32.0364 13.1624 31.9788 13.0599 31.8762C12.9573 31.7737 12.8997 31.6346 12.8997 31.4895C12.8997 31.3445 12.9573 31.2054 13.0599 31.1028C13.1624 31.0003 13.3015 30.9427 13.4466 30.9427H19.3566C19.4284 30.9427 19.4995 30.9568 19.5659 30.9843C19.6323 31.0118 19.6926 31.0521 19.7434 31.1029C19.7942 31.1538 19.8344 31.2141 19.8619 31.2805C19.8894 31.3469 19.9035 31.418 19.9034 31.4898L19.9037 31.4895ZM39.0408 26.813C38.6937 26.6292 38.3225 26.4953 37.938 26.4153C37.9122 26.4098 37.8883 26.3977 37.8687 26.3802C37.849 26.3627 37.8342 26.3404 37.8256 26.3155C37.7312 26.0486 37.6225 25.7871 37.5 25.5319C37.4869 25.5068 37.4804 25.4789 37.481 25.4506C37.4817 25.4224 37.4895 25.3947 37.5037 25.3703C37.7129 25.0508 37.8793 24.7052 37.9986 24.3423C38.0692 24.1242 38.0779 23.8908 38.0237 23.668C37.9695 23.4452 37.8545 23.2419 37.6915 23.0806L36.2214 21.6106C36.0623 21.4506 35.8627 21.3369 35.644 21.2817C35.4252 21.2265 35.1956 21.2318 34.9796 21.2972C34.6041 21.4126 34.2467 21.5806 33.9181 21.7959C33.8959 21.8103 33.8704 21.8186 33.8441 21.8201C33.8177 21.8216 33.7914 21.8162 33.7677 21.8045C33.5122 21.6824 33.2503 21.574 32.9831 21.4798C32.9562 21.4714 32.9319 21.4563 32.9125 21.4359C32.8931 21.4154 32.8792 21.3904 32.8721 21.3631C32.7941 20.9895 32.6674 20.6277 32.4953 20.287C32.3994 20.0992 32.2568 19.9391 32.0813 19.8222L33.1476 17.2479H34.2864C34.7979 17.2473 35.2883 17.0439 35.65 16.6822C36.0117 16.3205 36.2151 15.8301 36.2157 15.3186V4.40938C36.2157 3.35469 35.872 2.39297 35.247 1.7007C34.5545 0.933125 33.5656 0.527344 32.3876 0.527344H4.13492C3.11895 0.528481 2.14491 0.932574 1.4265 1.65097C0.708084 2.36937 0.303971 3.3434 0.302813 4.35938V35.7436C0.303619 36.4204 0.572847 37.0693 1.05144 37.5478C1.53003 38.0264 2.1789 38.2956 2.8557 38.2963H21.7041L21.6349 38.8398C21.6197 38.9588 21.6441 39.0795 21.7044 39.1833C21.7646 39.2871 21.8573 39.3683 21.9681 39.4142C22.079 39.4601 22.2019 39.4683 22.3179 39.4375C22.4339 39.4066 22.5365 39.3385 22.6099 39.2436L23.3431 38.2963H27.0965C27.5632 38.2956 28.0208 38.1672 28.4197 37.925C28.5361 38.0453 28.6757 38.1408 28.8299 38.2058C28.9842 38.2709 29.15 38.3041 29.3174 38.3035H31.3955C31.6212 38.3042 31.8429 38.2434 32.0367 38.1277C32.2305 38.0121 32.3892 37.8458 32.4957 37.6469C32.6796 37.2998 32.8135 36.9286 32.8935 36.5441C32.8992 36.5184 32.9114 36.4946 32.9289 36.4749C32.9464 36.4553 32.9686 36.4404 32.9934 36.4317C33.2604 36.3373 33.5221 36.2285 33.7773 36.106C33.8024 36.0929 33.8303 36.0864 33.8586 36.0871C33.8868 36.0877 33.9144 36.0956 33.9388 36.1098C34.2584 36.3191 34.604 36.4854 34.9668 36.6047C35.1849 36.6753 35.4184 36.684 35.6411 36.6297C35.8639 36.5755 36.0672 36.4605 36.2284 36.2975L37.6985 34.8276C37.8586 34.6685 37.9723 34.4688 38.0275 34.25C38.0827 34.0311 38.0773 33.8014 38.0119 33.5854C37.8965 33.2099 37.7286 32.8526 37.5133 32.5241C37.4989 32.5018 37.4906 32.4763 37.4891 32.4498C37.4876 32.4234 37.493 32.3971 37.5047 32.3734C37.6268 32.1179 37.7351 31.856 37.8292 31.5889C37.8377 31.562 37.8529 31.5376 37.8734 31.5182C37.8939 31.4988 37.919 31.4849 37.9464 31.4778C38.3201 31.3998 38.6819 31.2731 39.0227 31.101C39.2267 30.9966 39.3978 30.8376 39.5169 30.6418C39.636 30.4459 39.6984 30.2209 39.6972 29.9916V27.9135C39.6978 27.6878 39.6371 27.4662 39.5214 27.2724C39.4057 27.0786 39.2395 26.9199 39.0405 26.8134L39.0408 26.813ZM27.3319 31.2885L28.5556 28.334V32.3246C28.0789 32.0699 27.6618 31.7167 27.3319 31.2885ZM29.6494 25.6934L29.8647 25.1736C30.0261 25.153 30.1886 25.1425 30.3513 25.1423C30.882 25.1425 31.4068 25.2533 31.8921 25.4678C32.3775 25.6823 32.8128 25.9956 33.1702 26.3879C33.5276 26.7801 33.7993 27.2425 33.9679 27.7457C34.1364 28.2489 34.1982 28.7817 34.1491 29.3101C34.1001 29.8384 33.9414 30.3508 33.6831 30.8143C33.4249 31.2779 33.0728 31.6825 32.6493 32.0023C32.2258 32.322 31.7403 32.55 31.2238 32.6715C30.7072 32.793 30.171 32.8054 29.6494 32.7079V25.6934ZM24.9062 34.2865L23.5164 33.7107L31.7087 13.9327L33.0985 14.5084L24.9062 34.2865ZM24.1062 24.7943C23.947 24.5521 23.8228 24.2887 23.7373 24.0118C23.7298 23.9854 23.7295 23.9574 23.7366 23.9309C23.7437 23.9043 23.7578 23.8802 23.7776 23.8611L25.2476 22.3911C25.2667 22.3713 25.2909 22.3571 25.3176 22.35C25.3442 22.343 25.3723 22.3433 25.3988 22.351C25.6704 22.4407 25.9291 22.5657 26.1683 22.7227C26.3578 22.8447 26.577 22.9127 26.8023 22.9195L23.5685 30.7268C23.4058 30.5786 23.2066 30.4761 22.9914 30.4299C22.7077 30.3713 22.4337 30.2728 22.1775 30.1374C22.1536 30.1239 22.1337 30.1042 22.12 30.0803C22.1062 30.0565 22.0991 30.0295 22.0994 30.002V27.9238C22.0989 27.8962 22.106 27.869 22.1198 27.8451C22.1337 27.8212 22.1538 27.8015 22.178 27.7882C22.4334 27.6597 22.7045 27.5651 22.9845 27.507C23.1949 27.4603 23.3899 27.3607 23.5511 27.2176C23.7122 27.0745 23.8342 26.8926 23.9053 26.6891C23.9864 26.4591 24.0797 26.2336 24.1848 26.0136C24.2766 25.8205 24.3176 25.6072 24.3038 25.3938C24.29 25.1805 24.222 24.9742 24.1062 24.7945V24.7943ZM23.2539 34.7859L24.332 35.2323L22.974 36.987L23.2539 34.7859ZM32.3878 1.62109C34.406 1.62109 35.1222 3.12313 35.1222 4.40938V15.3186C35.1219 15.5401 35.0338 15.7525 34.8772 15.9091C34.7205 16.0658 34.5082 16.1539 34.2866 16.1541H33.6008L34.3183 14.4218C34.3738 14.2878 34.3738 14.1372 34.3183 14.0032C34.2628 13.8692 34.1563 13.7628 34.0223 13.7073L31.622 12.713C31.5557 12.6855 31.4846 12.6713 31.4127 12.6713C31.3409 12.6713 31.2698 12.6855 31.2035 12.713C31.1371 12.7405 31.0768 12.7808 31.026 12.8315C30.9753 12.8823 30.935 12.9426 30.9075 13.009L29.6497 16.0462V4.35945C29.6505 3.63349 29.9393 2.93749 30.4526 2.42414C30.9659 1.91078 31.6618 1.62198 32.3878 1.62109ZM2.8557 37.2026C2.46886 37.2021 2.098 37.0482 1.82446 36.7747C1.55092 36.5011 1.39704 36.1303 1.39656 35.7434V4.35938C1.39741 3.63338 1.68619 2.93737 2.19955 2.42403C2.71291 1.91068 3.40893 1.62192 4.13492 1.62109H29.7096C29.3441 1.97734 29.0538 2.40319 28.8556 2.87351C28.6574 3.34383 28.5554 3.84908 28.5557 4.35945V18.687L27.3383 21.6261C27.1987 21.6835 27.0607 21.7446 26.9254 21.8095C26.9003 21.8226 26.8724 21.8291 26.8442 21.8285C26.8159 21.8278 26.7883 21.82 26.7639 21.8058C26.4444 21.5965 26.0988 21.4302 25.7359 21.3109C25.5178 21.2403 25.2844 21.2316 25.0616 21.2858C24.8389 21.34 24.6355 21.4551 24.4743 21.618L23.0043 23.088C22.8443 23.2471 22.7306 23.4467 22.6754 23.6655C22.6201 23.8842 22.6255 24.1139 22.6909 24.3298C22.8062 24.7054 22.9741 25.0627 23.1895 25.3913C23.2038 25.4135 23.2121 25.439 23.2136 25.4654C23.2151 25.4918 23.2098 25.5181 23.1981 25.5418C23.0759 25.7973 22.9676 26.0592 22.8735 26.3263C22.865 26.3533 22.8498 26.3776 22.8293 26.397C22.8088 26.4165 22.7837 26.4304 22.7563 26.4374C22.3828 26.5154 22.021 26.6421 21.6804 26.8142C21.4762 26.9185 21.3049 27.0774 21.1857 27.2733C21.0665 27.4692 21.004 27.6943 21.0052 27.9236V30.0017C21.0045 30.2274 21.0652 30.449 21.1808 30.6428C21.2964 30.8366 21.4626 30.9953 21.6615 31.1019C22.0085 31.2858 22.3798 31.4198 22.7644 31.4998C22.7901 31.5055 22.8138 31.5176 22.8335 31.5351C22.8532 31.5526 22.868 31.5748 22.8767 31.5996C22.9256 31.7379 22.9786 31.8752 23.0357 32.0115L22.2969 33.7973C22.2783 33.8422 22.2658 33.8893 22.2596 33.9375L21.8438 37.2026H2.8557ZM24.1897 37.2026L24.7338 36.4995C24.8815 36.5866 25.0458 36.6422 25.2161 36.6626C25.3864 36.6831 25.5591 36.6679 25.7232 36.6181C26.0987 36.5028 26.4561 36.3349 26.7846 36.1195C26.8068 36.1051 26.8324 36.0968 26.8587 36.0953C26.8851 36.0938 26.9115 36.0991 26.9352 36.1109C27.1906 36.233 27.4525 36.3414 27.7197 36.4354C27.7466 36.4439 27.771 36.4591 27.7904 36.4796C27.8098 36.5001 27.8237 36.5252 27.8308 36.5526C27.859 36.6848 27.8943 36.8131 27.933 36.9396C27.6882 37.112 27.3959 37.2039 27.0965 37.2027L24.1897 37.2026ZM38.6038 29.9916C38.6042 30.0193 38.5972 30.0465 38.5833 30.0704C38.5695 30.0943 38.5494 30.114 38.5252 30.1273C38.2698 30.2559 37.9986 30.3504 37.7186 30.4085C37.5082 30.4551 37.3131 30.5547 37.152 30.6977C36.9908 30.8408 36.8688 31.0226 36.7975 31.226C36.7165 31.456 36.6232 31.6815 36.518 31.9016C36.4262 32.0946 36.3852 32.3078 36.3988 32.5211C36.4125 32.7344 36.4804 32.9406 36.5961 33.1203C36.7553 33.3625 36.8794 33.6259 36.9649 33.9028C36.9725 33.9292 36.9728 33.9572 36.9657 33.9838C36.9586 34.0103 36.9444 34.0345 36.9247 34.0536L35.4547 35.5236C35.4355 35.5434 35.4113 35.5575 35.3847 35.5646C35.358 35.5717 35.33 35.5713 35.3035 35.5637C35.0319 35.4739 34.7732 35.3489 34.534 35.192C34.3521 35.0761 34.1436 35.0086 33.9282 34.9959C33.7129 34.9832 33.4979 35.0257 33.3037 35.1195C33.0838 35.225 32.8584 35.3186 32.6285 35.3999C32.4273 35.4716 32.2477 35.5935 32.1067 35.754C31.9658 35.9145 31.8681 36.1083 31.823 36.3171C31.7644 36.6008 31.6659 36.8748 31.5306 37.1309C31.5171 37.1549 31.4974 37.1747 31.4735 37.1885C31.4497 37.2022 31.4227 37.2093 31.3952 37.2091H29.317C29.2894 37.2096 29.2622 37.2025 29.2383 37.1887C29.2144 37.1748 29.1947 37.1547 29.1814 37.1305C29.0528 36.875 28.9583 36.6039 28.9002 36.3239C28.8535 36.1135 28.7539 35.9185 28.6108 35.7573C28.4676 35.5962 28.2858 35.4743 28.0823 35.403C27.8523 35.3221 27.6268 35.2288 27.4068 35.1235C27.2137 35.0317 27.0004 34.9908 26.787 35.0045C26.5737 35.0183 26.3674 35.0863 26.1877 35.2021C25.964 35.3483 25.7224 35.4649 25.4689 35.5491L25.6346 35.335C25.6643 35.2966 25.6887 35.2544 25.7073 35.2095L26.8655 32.4136C27.4344 32.9877 28.1363 33.4124 28.9089 33.65C29.6814 33.8876 30.5007 33.9308 31.2939 33.7758C32.0871 33.6207 32.8298 33.2722 33.456 32.7612C34.0822 32.2501 34.5725 31.5924 34.8835 30.8463C35.1944 30.1003 35.3163 29.289 35.2383 28.4845C35.1604 27.68 34.885 26.9072 34.4367 26.2347C33.9883 25.5622 33.3809 25.0109 32.6682 24.6295C31.9556 24.2482 31.1598 24.0487 30.3516 24.0488C30.3446 24.0488 30.3377 24.0488 30.3308 24.0488L31.6067 20.9682C31.6919 21.1689 31.7573 21.3774 31.802 21.5908C31.8487 21.8012 31.9482 21.9962 32.0914 22.1573C32.2345 22.3185 32.4163 22.4404 32.6198 22.5116C32.8498 22.5926 33.0754 22.686 33.2955 22.7912C33.4885 22.883 33.7017 22.924 33.915 22.9103C34.1283 22.8967 34.3345 22.8288 34.5142 22.713C34.7564 22.5539 35.0199 22.4297 35.2968 22.3442C35.3232 22.3367 35.3512 22.3364 35.3777 22.3435C35.4042 22.3506 35.4284 22.3648 35.4475 22.3845L36.9175 23.8545C36.9373 23.8736 36.9515 23.8978 36.9586 23.9245C36.9656 23.9511 36.9653 23.9792 36.9576 24.0056C36.8678 24.2773 36.7428 24.536 36.5858 24.7752C36.4699 24.9571 36.4025 25.1656 36.3898 25.3809C36.3771 25.5963 36.4197 25.8113 36.5134 26.0055C36.6189 26.2254 36.7125 26.4508 36.7938 26.6807C36.8656 26.8819 36.9874 27.0614 37.1479 27.2024C37.3084 27.3433 37.5022 27.4409 37.711 27.486C37.9947 27.5448 38.2687 27.6432 38.5248 27.7785C38.5488 27.7921 38.5686 27.8118 38.5824 27.8356C38.5961 27.8594 38.6032 27.8865 38.603 27.914L38.6038 29.9916Z" fill="#021C1B"/>
</g>
<defs>
<clipPath id="clip0_2_56437">
<rect width="40" height="40" fill="white" transform="translate(0 -0.00830078)"/>
</clipPath>
</defs>
</svg>
