<svg width="139" height="28" viewBox="0 0 139 28" fill="none" xmlns="http://www.w3.org/2000/svg">
<path d="M31.3867 20.7853H41.8351V17.0017H35.1003V2.75H31.3867V20.7853Z" fill="white"/>
<path d="M48.0258 18.2628C46.5362 18.2628 45.7599 16.6989 45.7599 14.3531C45.7599 12.0072 46.5362 10.4181 48.0258 10.4181C49.5154 10.4181 50.3127 12.0072 50.3127 14.3531C50.3127 16.6989 49.5154 18.2628 48.0258 18.2628ZM48.0468 21.1888C51.5086 21.1888 53.7745 18.2376 53.7745 14.3531C53.7745 10.4686 51.5086 7.51733 48.0468 7.51733C44.6059 7.51733 42.298 10.4686 42.298 14.3531C42.298 18.2376 44.6059 21.1888 48.0468 21.1888Z" fill="white"/>
<path d="M59.7671 25.25C61.3615 25.25 62.7672 24.8212 63.7114 23.8123C64.5716 22.879 65.1381 21.4664 65.1381 19.5241V7.87055H61.8651V9.25787H61.8231C61.1937 8.17324 60.2286 7.49219 58.8019 7.49219C56.1374 7.49219 54.291 10.166 54.291 13.9496C54.291 17.9097 56.536 20.0791 58.9488 20.0791C60.2495 20.0791 61.0678 19.4484 61.6973 18.5908H61.7812V19.8773C61.7812 21.4411 61.1727 22.3492 59.725 22.3492C58.5921 22.3492 58.0256 21.7691 57.8368 21.088H54.5218C54.8576 23.7871 56.8087 25.25 59.7671 25.25ZM59.746 17.027C58.4662 17.027 57.627 15.7657 57.627 13.8234C57.627 11.856 58.4662 10.5948 59.746 10.5948C61.1728 10.5948 61.9281 12.0577 61.9281 13.7982C61.9281 15.6144 61.2356 17.027 59.746 17.027Z" fill="white"/>
<path d="M71.8673 18.263C70.3777 18.263 69.6014 16.6992 69.6014 14.3533C69.6014 12.0075 70.3777 10.4184 71.8673 10.4184C73.357 10.4184 74.1542 12.0075 74.1542 14.3533C74.1542 16.6992 73.357 18.263 71.8673 18.263ZM71.8883 21.1891C75.3502 21.1891 77.6161 18.2378 77.6161 14.3533C77.6161 10.4688 75.3502 7.51758 71.8883 7.51758C68.4475 7.51758 66.1396 10.4688 66.1396 14.3533C66.1396 18.2378 68.4475 21.1891 71.8883 21.1891Z" fill="white"/>
<path d="M78.6143 20.7853H82.0341V7.87052H78.6143V20.7853ZM78.6143 6.0796H82.0341V2.75H78.6143V6.0796Z" fill="white"/>
<path d="M83.5186 25.0482H86.9384V19.4484H86.9803C87.6518 20.5331 88.6378 21.1889 90.0225 21.1889C92.834 21.1889 94.7013 18.5152 94.7013 14.328C94.7013 10.4434 92.9599 7.49219 90.1065 7.49219C88.6378 7.49219 87.5888 8.27413 86.8544 9.43444H86.7916V7.87055H83.5186V25.0482ZM89.1413 18.0107C87.6727 18.0107 86.8335 16.5729 86.8335 14.4793C86.8335 12.3857 87.5888 10.7966 89.0784 10.7966C90.5471 10.7966 91.2394 12.2595 91.2394 14.4793C91.2394 16.6738 90.4422 18.0107 89.1413 18.0107Z" fill="white"/>
<path d="M100.269 21.1889C103.081 21.1889 105.158 19.7259 105.158 16.9008C105.158 13.5965 102.934 13.0163 101.045 12.6379C99.6817 12.3353 98.4649 12.2091 98.4649 11.301C98.4649 10.4939 99.1153 10.1155 99.9544 10.1155C100.899 10.1155 101.549 10.4686 101.675 11.629H104.822C104.654 9.08131 103.018 7.49219 99.9755 7.49219C97.4367 7.49219 95.3387 8.90474 95.3387 11.629C95.3387 14.6559 97.3319 15.2613 99.1991 15.6396C100.626 15.9423 101.927 16.0685 101.927 17.2288C101.927 18.0612 101.276 18.5152 100.248 18.5152C99.1153 18.5152 98.4019 17.8845 98.276 16.5981H95.0449C95.1498 19.4484 97.1221 21.1889 100.269 21.1889Z" fill="white"/>
<path d="M109.803 21.1638C111.293 21.1638 112.236 20.4575 113.013 19.1962H113.076V20.7854H116.349V7.87061H112.929V15.0847C112.929 16.6234 112.216 17.6828 111.041 17.6828C109.95 17.6828 109.425 16.9009 109.425 15.4884V7.87061H106.026V16.3459C106.026 19.2216 107.327 21.1638 109.803 21.1638Z" fill="white"/>
<path d="M117.836 20.7854H121.256V13.546C121.256 12.0073 121.886 10.9227 122.956 10.9227C123.984 10.9227 124.467 11.7298 124.467 13.1171V20.7854H127.887V13.546C127.887 12.0073 128.494 10.9227 129.586 10.9227C130.614 10.9227 131.096 11.7298 131.096 13.1171V20.7854H134.516V12.3857C134.516 9.4849 133.299 7.49219 130.865 7.49219C129.481 7.49219 128.327 8.19846 127.488 9.76236H127.445C126.9 8.37503 125.83 7.49219 124.424 7.49219C122.872 7.49219 121.844 8.37503 121.172 9.71191H121.109V7.87055H117.836V20.7854Z" fill="white"/>
<path fill-rule="evenodd" clip-rule="evenodd" d="M14.573 25.25C20.764 25.25 25.7826 20.2132 25.7826 14C25.7826 7.78679 20.764 2.75 14.573 2.75C8.38202 2.75 3.36328 7.78679 3.36328 14C3.36328 20.2132 8.38202 25.25 14.573 25.25ZM16.3032 11.4421C17.2587 10.4831 17.2587 8.92826 16.3032 7.96925C15.3475 7.01025 13.7984 7.01025 12.8427 7.96925C11.8872 8.92826 11.8872 10.4831 12.8427 11.4421L14.573 13.1784L16.3032 11.4421ZM17.1217 15.7364C18.0773 16.6954 19.6265 16.6954 20.5821 15.7364C21.5376 14.7774 21.5376 13.2226 20.5821 12.2636C19.6265 11.3047 18.0773 11.3047 17.1217 12.2636L15.3916 14L17.1217 15.7364ZM16.3032 20.0308C17.2587 19.0717 17.2587 17.517 16.3032 16.5579L14.573 14.8216L12.8427 16.5579C11.8872 17.517 11.8872 19.0717 12.8427 20.0308C13.7984 20.9897 15.3475 20.9897 16.3032 20.0308ZM8.56381 15.7364C7.60827 14.7774 7.60827 13.2226 8.56381 12.2636C9.5194 11.3047 11.0686 11.3047 12.0242 12.2636L13.7543 14L12.0242 15.7364C11.0686 16.6954 9.5194 16.6954 8.56381 15.7364Z" fill="white"/>
</svg>
