<svg width="134" height="36" viewBox="0 0 134 36" fill="none" xmlns="http://www.w3.org/2000/svg">
<path d="M38.9603 23.697C38.9603 24.44 38.8286 25.0108 38.5654 25.4095C38.3091 25.8084 37.8807 26.0077 37.2802 26.0077C36.7133 26.0077 36.3119 25.8084 36.0757 25.4095C35.8462 25.0108 35.7316 24.44 35.7316 23.697V11.2988C35.7316 10.5559 35.8462 9.98507 36.0757 9.58624C36.3119 9.18744 36.7133 8.98804 37.2802 8.98804C37.8807 8.98804 38.3091 9.18744 38.5654 9.58624C38.8286 9.98507 38.9603 10.5559 38.9603 11.2988V23.697Z" fill="white"/>
<path d="M39.9404 20.0961C39.9404 19.2671 40.0551 18.4851 40.2846 17.75C40.5207 17.0071 40.8716 16.3581 41.3371 15.803C41.8095 15.2477 42.3966 14.8059 43.0984 14.4775C43.8068 14.149 44.6368 13.9849 45.5882 13.9849C46.4991 13.9849 47.3055 14.1373 48.0071 14.4423C48.7089 14.7473 49.2993 15.1734 49.7783 15.7209C50.2574 16.2604 50.6218 16.9055 50.8715 17.6562C51.1211 18.399 51.2459 19.2124 51.2459 20.0961C51.2459 20.9171 51.1278 21.6952 50.8917 22.4302C50.6556 23.1574 50.3012 23.7987 49.8289 24.3539C49.3567 24.9012 48.7662 25.3391 48.0577 25.6677C47.3491 25.9883 46.526 26.1485 45.5882 26.1485C44.6637 26.1485 43.8473 25.9961 43.1387 25.6911C42.4371 25.3782 41.8467 24.9521 41.3675 24.4125C40.8952 23.8651 40.5376 23.224 40.2947 22.489C40.0585 21.7461 39.9404 20.9483 39.9404 20.0961ZM43.3109 20.0961C43.3109 20.6121 43.3512 21.1049 43.4322 21.5739C43.5133 22.0353 43.6414 22.442 43.8169 22.7938C43.999 23.1458 44.2353 23.4272 44.5253 23.6384C44.8156 23.8417 45.1698 23.9434 45.5882 23.9434C45.9728 23.9434 46.3067 23.8495 46.5901 23.6618C46.8803 23.4742 47.1164 23.2121 47.2986 22.8759C47.4876 22.5397 47.6293 22.137 47.7237 21.6678C47.8181 21.1908 47.8654 20.6668 47.8654 20.0961C47.8654 19.5799 47.8215 19.0912 47.7339 18.6298C47.6529 18.1607 47.5214 17.75 47.3391 17.3981C47.157 17.0385 46.9208 16.757 46.6306 16.5537C46.3472 16.3425 45.9997 16.2369 45.5882 16.2369C45.1765 16.2369 44.8257 16.3386 44.5355 16.5419C44.2454 16.7452 44.0092 17.0227 43.8271 17.3747C43.6449 17.7266 43.5133 18.1371 43.4322 18.6064C43.3512 19.0756 43.3109 19.572 43.3109 20.0961Z" fill="white"/>
<path d="M59.5542 23.744C59.3721 24.1349 59.1494 24.4673 58.8862 24.741C58.6299 25.0147 58.343 25.2415 58.026 25.4213C57.7156 25.5933 57.3815 25.7224 57.024 25.8085C56.673 25.8866 56.312 25.9257 55.9409 25.9257C55.3202 25.9257 54.7534 25.7967 54.2405 25.5386C53.7278 25.2805 53.2859 24.909 52.9146 24.4244C52.5504 23.9316 52.267 23.3295 52.0645 22.618C51.862 21.9063 51.7607 21.0931 51.7607 20.1782C51.7607 19.3179 51.8553 18.5125 52.0443 17.7618C52.2331 17.0111 52.5064 16.3583 52.864 15.803C53.2284 15.2477 53.6737 14.8098 54.2002 14.4893C54.7264 14.1687 55.327 14.0083 56.0017 14.0083C56.7709 14.0083 57.4524 14.1804 58.0462 14.5244C58.6467 14.8685 59.1629 15.4315 59.5948 16.2135V15.9086C59.5948 15.3455 59.7263 14.9233 59.9895 14.6417C60.2593 14.3524 60.6306 14.2077 61.1029 14.2077C61.3862 14.2077 61.6258 14.2624 61.8214 14.3719C62.0171 14.4736 62.1723 14.63 62.2869 14.8412C62.4017 15.0445 62.4826 15.2986 62.5299 15.6036C62.5839 15.9007 62.6109 16.2409 62.6109 16.624V24.4829C62.6109 25.4369 62.5063 26.2893 62.2971 27.04C62.0948 27.7907 61.7775 28.4242 61.3457 28.9402C60.9138 29.4564 60.3606 29.8473 59.6859 30.1132C59.0111 30.3869 58.2081 30.5237 57.277 30.5237C56.6225 30.5237 56.0422 30.4885 55.5361 30.418C55.0368 30.3557 54.6049 30.2578 54.2405 30.125C53.8762 29.9763 53.5996 29.8121 53.4106 29.6323C53.2284 29.4524 53.1373 29.2177 53.1373 28.9285C53.1373 28.7642 53.1576 28.608 53.198 28.4592C53.2386 28.3108 53.2993 28.1778 53.3802 28.0605C53.468 27.951 53.5793 27.8611 53.7143 27.7907C53.856 27.7283 54.028 27.6969 54.2304 27.6969C54.4463 27.6969 54.6622 27.7125 54.8782 27.7439C55.1008 27.7751 55.3304 27.8064 55.5665 27.8376C55.8093 27.8767 56.0624 27.9119 56.3256 27.9432C56.5954 27.9744 56.8856 27.9902 57.1959 27.9902C57.567 27.9902 57.8977 27.9471 58.1879 27.8611C58.478 27.7751 58.7243 27.6226 58.9268 27.4035C59.1291 27.1848 59.2843 26.8914 59.3923 26.5238C59.5002 26.1641 59.5542 25.7028 59.5542 25.1397V23.744ZM59.5542 20.0961C59.5542 19.5252 59.5171 19.0052 59.4429 18.536C59.3754 18.0668 59.2573 17.6681 59.0887 17.3395C58.9199 17.0033 58.6939 16.7452 58.4106 16.5654C58.1271 16.3777 57.7729 16.284 57.3478 16.284C56.9294 16.284 56.582 16.3817 56.3053 16.5771C56.0355 16.7726 55.8195 17.0424 55.6575 17.3864C55.4956 17.7306 55.381 18.1333 55.3134 18.5947C55.2527 19.056 55.2224 19.5487 55.2224 20.0725C55.2224 21.269 55.4046 22.1683 55.769 22.7704C56.1332 23.3725 56.6629 23.6737 57.3579 23.6737C57.6818 23.6659 57.9754 23.5954 58.2384 23.4624C58.5084 23.3217 58.7412 23.1068 58.9368 22.8173C59.1325 22.5279 59.2843 22.1604 59.3923 21.7147C59.5002 21.269 59.5542 20.7295 59.5542 20.0961Z" fill="white"/>
<path d="M63.54 20.0961C63.54 19.2671 63.6548 18.4851 63.8842 17.75C64.1203 17.0071 64.4712 16.3581 64.9369 15.803C65.4092 15.2477 65.9961 14.8059 66.6979 14.4775C67.4064 14.149 68.2364 13.9849 69.1878 13.9849C70.0986 13.9849 70.905 14.1373 71.6067 14.4423C72.3085 14.7473 72.8988 15.1734 73.378 15.7209C73.857 16.2604 74.2215 16.9055 74.4711 17.6562C74.7207 18.399 74.8455 19.2124 74.8455 20.0961C74.8455 20.9171 74.7274 21.6952 74.4913 22.4302C74.2551 23.1574 73.901 23.7987 73.4286 24.3539C72.9563 24.9012 72.3658 25.3391 71.6573 25.6677C70.9489 25.9883 70.1256 26.1485 69.1878 26.1485C68.2633 26.1485 67.4469 25.9961 66.7384 25.6911C66.0367 25.3782 65.4462 24.9521 64.9671 24.4125C64.4949 23.8651 64.1372 23.224 63.8943 22.489C63.6582 21.7461 63.54 20.9483 63.54 20.0961ZM66.9104 20.0961C66.9104 20.6121 66.951 21.1049 67.032 21.5739C67.1129 22.0353 67.241 22.442 67.4165 22.7938C67.5988 23.1458 67.8349 23.4272 68.1251 23.6384C68.4152 23.8417 68.7694 23.9434 69.1878 23.9434C69.5724 23.9434 69.9064 23.8495 70.1898 23.6618C70.4799 23.4742 70.7161 23.2121 70.8983 22.8759C71.0872 22.5397 71.2288 22.137 71.3233 21.6678C71.4179 21.1908 71.465 20.6668 71.465 20.0961C71.465 19.5799 71.4212 19.0912 71.3334 18.6298C71.2525 18.1607 71.1208 17.75 70.9387 17.3981C70.7566 17.0385 70.5203 16.757 70.2302 16.5537C69.9469 16.3425 69.5993 16.2369 69.1878 16.2369C68.7762 16.2369 68.4252 16.3386 68.1351 16.5419C67.845 16.7452 67.6088 17.0227 67.4267 17.3747C67.2445 17.7266 67.1129 18.1371 67.032 18.6064C66.951 19.0756 66.9104 19.572 66.9104 20.0961Z" fill="white"/>
<path d="M79.1863 10.0317C79.1863 10.2898 79.1357 10.5205 79.0344 10.7238C78.9333 10.9193 78.8016 11.0835 78.6397 11.2165C78.4778 11.3494 78.2888 11.451 78.073 11.5214C77.8638 11.5839 77.6479 11.6153 77.4252 11.6153C77.1891 11.6153 76.963 11.58 76.7471 11.5097C76.5379 11.4393 76.3524 11.3377 76.1904 11.2047C76.0285 11.0639 75.9002 10.8958 75.8058 10.7003C75.7113 10.5048 75.6641 10.282 75.6641 10.0317C75.6641 9.80497 75.708 9.59774 75.7956 9.41007C75.8901 9.21459 76.0149 9.04646 76.1702 8.90569C76.3254 8.76494 76.511 8.65546 76.7269 8.57727C76.9428 8.49907 77.1789 8.45996 77.4353 8.45996C77.6581 8.45996 77.8739 8.49516 78.0831 8.56553C78.299 8.63591 78.4879 8.73756 78.6499 8.87051C78.8118 9.00345 78.9401 9.16765 79.0344 9.36315C79.1357 9.55865 79.1863 9.78151 79.1863 10.0317ZM79.0344 23.6968C79.0344 24.4397 78.9029 25.0105 78.6397 25.4093C78.3833 25.8082 77.9548 26.0075 77.3543 26.0075C76.7876 26.0075 76.386 25.8082 76.1499 25.4093C75.9205 25.0105 75.8058 24.4397 75.8058 23.6968V16.5182C75.8058 15.7753 75.9205 15.2044 76.1499 14.8057C76.386 14.407 76.7876 14.2075 77.3543 14.2075C77.9548 14.2075 78.3833 14.407 78.6397 14.8057C78.9029 15.2044 79.0344 15.7753 79.0344 16.5182V23.6968Z" fill="white"/>
<path d="M83.6881 20.0725C83.6881 20.5965 83.7217 21.0853 83.7893 21.5389C83.8635 21.9924 83.9848 22.3911 84.1536 22.7352C84.329 23.0715 84.5584 23.3373 84.8418 23.5327C85.1319 23.7284 85.4896 23.8261 85.9147 23.8261C86.306 23.8261 86.6333 23.7322 86.8967 23.5446C87.1662 23.3491 87.3821 23.0832 87.5445 22.747C87.7059 22.4029 87.8208 22.0002 87.8882 21.5389C87.9625 21.0773 87.9996 20.5769 87.9996 20.0374C87.9996 19.6073 87.9728 19.1694 87.9185 18.7238C87.8649 18.2701 87.7639 17.8596 87.6154 17.4921C87.4667 17.1245 87.2611 16.8234 86.9977 16.5888C86.7343 16.3543 86.3906 16.237 85.9653 16.237C85.5402 16.237 85.1792 16.3152 84.8824 16.4716C84.5922 16.628 84.3561 16.8665 84.1739 17.1871C83.9984 17.5077 83.8735 17.9104 83.7993 18.3952C83.7252 18.8722 83.6881 19.4313 83.6881 20.0725ZM83.678 16.5185C83.8466 16.104 84.0625 15.7404 84.3257 15.4276C84.5888 15.1148 84.879 14.8529 85.1962 14.6417C85.5133 14.4306 85.8438 14.2742 86.188 14.1726C86.5392 14.0631 86.8863 14.0083 87.2301 14.0083C87.8511 14.0083 88.4117 14.1687 88.9108 14.4893C89.4101 14.8098 89.8349 15.2477 90.1857 15.803C90.5431 16.3503 90.817 16.9993 91.0062 17.7502C91.1944 18.493 91.2894 19.2907 91.2894 20.1429C91.2894 21.0266 91.1875 21.836 90.9853 22.571C90.7902 23.3061 90.5095 23.9394 90.145 24.4711C89.7875 24.9951 89.3556 25.4056 88.8495 25.7028C88.3503 26 87.794 26.1485 87.18 26.1485C86.4243 26.1485 85.7494 25.9453 85.1556 25.5386C84.5618 25.1319 84.0693 24.5612 83.678 23.8261V28.0487C83.678 28.7916 83.5464 29.3625 83.2832 29.7612C83.0267 30.1601 82.5983 30.3595 81.9977 30.3595C81.431 30.3595 81.0295 30.1601 80.7933 29.7612C80.564 29.3625 80.4492 28.7916 80.4492 28.0487V16.5185C80.4492 15.7756 80.564 15.2047 80.7933 14.8059C81.0295 14.4072 81.431 14.2077 81.9977 14.2077C82.5983 14.2077 83.0267 14.4072 83.2832 14.8059C83.5464 15.2047 83.678 15.7756 83.678 16.5185Z" fill="white"/>
<path d="M94.8508 17.3513C94.8508 17.6562 94.9656 17.8947 95.1945 18.0668C95.4243 18.231 95.7411 18.3679 96.1462 18.4773C96.5306 18.579 96.9253 18.6767 97.3304 18.7706C97.7355 18.8644 98.1302 18.9739 98.5144 19.099C98.8988 19.2162 99.2599 19.357 99.5976 19.5212C99.9343 19.6854 100.232 19.8926 100.488 20.1429C100.745 20.3854 100.947 20.6826 101.095 21.0344C101.244 21.3785 101.318 21.793 101.318 22.2777C101.318 22.8877 101.21 23.4312 100.994 23.9081C100.778 24.3773 100.472 24.7762 100.073 25.1046C99.6822 25.433 99.2132 25.6872 98.6664 25.867C98.1198 26.047 97.516 26.1407 96.8545 26.1485C96.2275 26.1485 95.6229 26.1017 95.0425 26.0078C94.4629 25.9218 93.9464 25.7849 93.4939 25.5972C93.0491 25.4096 92.6915 25.1789 92.4212 24.9052C92.1517 24.6237 92.0169 24.2953 92.0169 23.92C92.0169 23.5914 92.1076 23.3373 92.2899 23.1574C92.4722 22.9776 92.7044 22.8877 92.9887 22.8877C93.0966 22.8877 93.2244 22.9111 93.3729 22.958C93.5216 23.005 93.683 23.0637 93.8583 23.134C94.0336 23.2043 94.2194 23.2826 94.4154 23.3687C94.6175 23.4468 94.8266 23.5171 95.0425 23.5797C95.3128 23.6657 95.5892 23.7362 95.8725 23.7909C96.1626 23.8377 96.4598 23.8613 96.7638 23.8613C96.9521 23.8613 97.1377 23.8417 97.32 23.8026C97.5022 23.7556 97.6647 23.6893 97.8062 23.6032C97.9549 23.5093 98.0757 23.3921 98.1708 23.2513C98.2649 23.1106 98.3219 22.9385 98.3426 22.7353C98.3625 22.6883 98.3797 22.6414 98.3927 22.5944C98.4065 22.5475 98.4134 22.4928 98.4134 22.4302C98.4134 22.2112 98.3254 22.0158 98.15 21.8436C97.9816 21.6718 97.7415 21.5348 97.4314 21.4333C96.9115 21.2925 96.4157 21.1634 95.9433 21.0461C95.4718 20.9289 95.0329 20.8037 94.628 20.6708C94.2298 20.5379 93.8653 20.3854 93.5345 20.2132C93.2107 20.0414 92.9342 19.8301 92.7044 19.5799C92.4825 19.3297 92.3063 19.0286 92.1785 18.6767C92.0568 18.3247 91.9962 17.8986 91.9962 17.3981C91.9962 16.8587 92.1008 16.3777 92.3098 15.9554C92.5258 15.5254 92.8332 15.1656 93.2314 14.8763C93.6295 14.5869 94.1114 14.368 94.6788 14.2195C95.2455 14.063 95.8863 13.9849 96.6015 13.9849C97.8832 13.9849 98.8583 14.1647 99.5268 14.5244C100.201 14.8763 100.539 15.3376 100.539 15.9085C100.539 16.2291 100.447 16.4755 100.265 16.6474C100.083 16.8118 99.8636 16.8937 99.6079 16.8937C99.4723 16.8937 99.3307 16.8665 99.1821 16.8118C99.0405 16.7491 98.8686 16.6827 98.6664 16.6124C98.4636 16.5341 98.2209 16.4677 97.9375 16.4129C97.6612 16.3503 97.3165 16.319 96.9054 16.319C96.5945 16.319 96.3113 16.3346 96.0547 16.3659C95.8052 16.3973 95.5892 16.452 95.407 16.5301C95.2316 16.6084 95.0935 16.7139 94.9924 16.8469C94.8974 16.9799 94.8508 17.148 94.8508 17.3513Z" fill="white"/>
<path d="M105.426 21.6559C105.426 22.0234 105.466 22.3441 105.547 22.6177C105.635 22.8914 105.753 23.1221 105.902 23.3098C106.05 23.4896 106.222 23.6265 106.417 23.7204C106.62 23.8064 106.836 23.8494 107.065 23.8494C107.335 23.8494 107.595 23.8025 107.845 23.7086C108.094 23.6149 108.314 23.4701 108.503 23.2745C108.698 23.0791 108.854 22.8327 108.969 22.5356C109.083 22.2386 109.14 21.8904 109.14 21.4917V16.5182C109.14 15.7754 109.255 15.2045 109.484 14.8058C109.721 14.407 110.122 14.2075 110.689 14.2075C111.289 14.2075 111.718 14.407 111.974 14.8058C112.238 15.2045 112.369 15.7754 112.369 16.5182V23.6968C112.369 24.4397 112.238 25.0106 111.974 25.4093C111.718 25.8082 111.289 26.0076 110.689 26.0076C110.122 26.0076 109.721 25.8082 109.484 25.4093C109.255 25.0106 109.14 24.4397 109.14 23.6968C108.999 24.0566 108.813 24.385 108.583 24.6822C108.36 24.9794 108.098 25.2375 107.794 25.4563C107.497 25.6675 107.167 25.8316 106.802 25.949C106.445 26.0663 106.056 26.125 105.638 26.125C105.186 26.125 104.751 26.0349 104.332 25.8551C103.921 25.6675 103.557 25.3937 103.24 25.034C102.923 24.6666 102.67 24.213 102.48 23.6734C102.291 23.1339 102.197 22.5043 102.197 21.7849V16.5182C102.197 15.7754 102.312 15.2045 102.541 14.8058C102.778 14.407 103.178 14.2075 103.746 14.2075C104.346 14.2075 104.774 14.407 105.031 14.8058C105.294 15.2045 105.426 15.7754 105.426 16.5182V21.6559Z" fill="white"/>
<path d="M113.835 16.5185C113.835 15.7756 113.95 15.2047 114.18 14.8059C114.415 14.4072 114.817 14.2077 115.384 14.2077C115.985 14.2077 116.413 14.4072 116.67 14.8059C116.932 15.2047 117.064 15.7756 117.064 16.5185C117.199 16.1432 117.381 15.803 117.611 15.498C117.847 15.1852 118.114 14.9194 118.41 14.7004C118.714 14.4814 119.041 14.3133 119.392 14.196C119.742 14.0709 120.107 14.0083 120.485 14.0083C120.836 14.0083 121.18 14.0631 121.517 14.1726C121.861 14.2742 122.179 14.4423 122.469 14.6769C122.765 14.9036 123.025 15.193 123.248 15.5449C123.471 15.8967 123.643 16.3191 123.765 16.8117C123.974 16.2878 124.22 15.8461 124.503 15.4863C124.787 15.1266 125.094 14.8372 125.424 14.6183C125.755 14.3993 126.099 14.2429 126.457 14.149C126.822 14.0553 127.185 14.0083 127.55 14.0083C127.982 14.0083 128.394 14.0983 128.784 14.2781C129.183 14.4579 129.53 14.7317 129.827 15.0992C130.131 15.4588 130.37 15.9164 130.545 16.4716C130.727 17.0189 130.818 17.6603 130.818 18.3952V23.6971C130.818 24.4399 130.688 25.0108 130.423 25.4096C130.168 25.8085 129.739 26.0078 129.138 26.0078C128.572 26.0078 128.17 25.8085 127.934 25.4096C127.705 25.0108 127.59 24.4399 127.59 23.6971V18.5594C127.59 18.2075 127.55 17.8948 127.469 17.6211C127.387 17.3395 127.273 17.105 127.124 16.9174C126.983 16.7218 126.814 16.5771 126.618 16.4833C126.423 16.3817 126.214 16.3308 125.991 16.3308C125.714 16.3308 125.452 16.3817 125.202 16.4833C124.952 16.5849 124.733 16.7414 124.544 16.9524C124.361 17.1637 124.214 17.4334 124.098 17.7618C123.99 18.0902 123.937 18.4852 123.937 18.9465V23.6971C123.937 24.4399 123.804 25.0108 123.542 25.4096C123.285 25.8085 122.857 26.0078 122.256 26.0078C121.689 26.0078 121.288 25.8085 121.052 25.4096C120.822 25.0108 120.707 24.4399 120.707 23.6971V18.7823C120.707 17.9769 120.562 17.3669 120.273 16.9524C119.989 16.5381 119.601 16.3308 119.109 16.3308C118.818 16.3308 118.548 16.3855 118.299 16.495C118.049 16.6046 117.833 16.7648 117.651 16.9759C117.468 17.1871 117.323 17.449 117.215 17.7618C117.114 18.0746 117.064 18.4343 117.064 18.8409V23.6971C117.064 24.4399 116.932 25.0108 116.67 25.4096C116.413 25.8085 115.985 26.0078 115.384 26.0078C114.817 26.0078 114.415 25.8085 114.18 25.4096C113.95 25.0108 113.835 24.4399 113.835 23.6971V16.5185Z" fill="white"/>
<path fill-rule="evenodd" clip-rule="evenodd" d="M27.6383 18.0005C27.6383 18.5935 27.6066 19.178 27.5449 19.7515C26.9632 18.8939 26.0783 18.3007 25.1371 18.1474C24.1182 17.9813 23.2065 18.3034 22.4445 18.867C22.4708 18.5824 22.4843 18.2933 22.4843 18.0005C22.4843 13.5601 19.3782 9.96036 15.5467 9.96036C11.7152 9.96036 8.6091 13.5601 8.6091 18.0005C8.6091 18.389 8.6329 18.7713 8.67888 19.1451C7.90044 18.6129 6.97975 18.3282 5.96672 18.5352C5.03043 18.7265 4.1636 19.3555 3.60821 20.2366C3.50744 19.5085 3.45508 18.7615 3.45508 18.0005C3.45508 10.2612 8.86869 3.9873 15.5467 3.9873C22.2247 3.9873 27.6383 10.2612 27.6383 18.0005ZM15.5467 23.6056C12.8755 23.6056 10.7101 21.0961 10.7101 18.0005C10.7101 14.9047 12.8755 12.3952 15.5467 12.3952C18.2179 12.3952 20.3833 14.9047 20.3833 18.0005C20.3833 21.0961 18.2179 23.6056 15.5467 23.6056ZM6.17669 19.915C4.77506 20.2015 3.81433 21.7706 4.35237 23.2977C5.10354 25.4295 6.30192 27.329 7.85554 28.8132C10.0771 30.9355 12.8791 32.0695 15.7577 32.0113C18.6364 31.9531 21.4026 30.7064 23.5589 28.4956C25.0669 26.9494 26.2074 25.0026 26.8939 22.8416C27.3856 21.2938 26.3781 19.7645 24.9687 19.535C23.5594 19.3054 22.294 20.4943 21.5979 21.933C21.2205 22.7127 20.7306 23.4202 20.1438 24.022C18.9066 25.2905 17.3195 26.0057 15.6679 26.0392C14.0162 26.0725 12.4085 25.4219 11.1339 24.2042C10.5292 23.6266 10.0184 22.9393 9.6178 22.1753C8.87876 20.7657 7.57832 19.6286 6.17669 19.915Z" fill="white"/>
</svg>
