<svg width="88" height="22" viewBox="0 0 88 22" fill="none" xmlns="http://www.w3.org/2000/svg">
<path fill-rule="evenodd" clip-rule="evenodd" d="M8.11926 15.05C7.44793 15.05 6.80408 14.7833 6.32935 14.3086C5.85462 13.8339 5.58793 13.19 5.58793 12.5188V0.875H0.525391V12.5188C0.525391 16.7125 3.92543 20.1125 8.11926 20.1125H13.688V15.05H8.11926ZM23.3069 5.9375C22.7086 5.9375 22.1161 6.05536 21.5633 6.28433C21.0105 6.5133 20.5082 6.84891 20.0852 7.272C19.662 7.69508 19.3264 8.19736 19.0975 8.75011C18.8685 9.30294 18.7506 9.89536 18.7506 10.4938C18.7506 11.0921 18.8685 11.6846 19.0975 12.2374C19.3264 12.7901 19.662 13.2924 20.0852 13.7155C20.5082 14.1386 21.0105 14.4742 21.5633 14.7032C22.1161 14.9321 22.7086 15.05 23.3069 15.05C24.5153 15.05 25.6743 14.57 26.5287 13.7155C27.3832 12.8611 27.8632 11.7021 27.8632 10.4938C27.8632 9.28539 27.3832 8.12646 26.5287 7.272C25.6743 6.41754 24.5153 5.9375 23.3069 5.9375ZM13.688 10.4938C13.688 5.18167 17.9948 0.875 23.3069 0.875C28.6191 0.875 32.9257 5.18167 32.9257 10.4938C32.9257 15.8059 28.6191 20.1125 23.3069 20.1125C17.9948 20.1125 13.688 15.8059 13.688 10.4938ZM77.9825 5.9375C76.7741 5.9375 75.6151 6.41754 74.7606 7.272C73.9062 8.12646 73.4262 9.28539 73.4262 10.4938C73.4262 11.7021 73.9062 12.8611 74.7606 13.7155C75.6151 14.57 76.7741 15.05 77.9825 15.05C79.1909 15.05 80.3497 14.57 81.2042 13.7155C82.0587 12.8611 82.5388 11.7021 82.5388 10.4938C82.5388 9.28539 82.0587 8.12646 81.2042 7.272C80.3497 6.41754 79.1909 5.9375 77.9825 5.9375ZM68.3636 10.4938C68.3636 5.18167 72.6703 0.875 77.9825 0.875C83.2945 0.875 87.6013 5.18167 87.6013 10.4938C87.6013 15.8059 83.2945 20.1125 77.9825 20.1125C72.6703 20.1125 68.3636 15.8059 68.3636 10.4938ZM43.5571 0.875C38.245 0.875 33.9382 5.18167 33.9382 10.4938C33.9382 15.8059 38.245 20.1125 43.5571 20.1125H57.7322C58.7291 20.1125 59.6904 19.9606 60.5946 19.6791L63.3011 21.125L66.2211 15.6555C66.9629 14.2632 67.3509 12.7098 67.351 11.1321V10.4938C67.351 5.18167 63.0444 0.875 57.7322 0.875H43.5571ZM62.2885 10.4938C62.2885 9.28539 61.8085 8.12646 60.954 7.272C60.0996 6.41754 58.9406 5.9375 57.7322 5.9375H43.5571C42.9587 5.9375 42.3663 6.05536 41.8135 6.28433C41.2607 6.5133 40.7584 6.84891 40.3353 7.272C39.9122 7.69508 39.5766 8.19736 39.3476 8.75011C39.1186 9.30294 39.0008 9.89536 39.0008 10.4938C39.0008 11.0921 39.1186 11.6846 39.3476 12.2374C39.5766 12.7901 39.9122 13.2924 40.3353 13.7155C40.7584 14.1386 41.2607 14.4742 41.8135 14.7032C42.3663 14.9321 42.9587 15.05 43.5571 15.05H57.7322C58.9346 15.05 60.0881 14.5749 60.9416 13.728C61.795 12.8812 62.2792 11.7315 62.2885 10.5292V10.4938Z" fill="white"/>
</svg>
