<svg width="145" height="28" viewBox="0 0 145 28" fill="none" xmlns="http://www.w3.org/2000/svg">
<g clip-path="url(#clip0_2_68824)">
<mask id="mask0_2_68824" style="mask-type:luminance" maskUnits="userSpaceOnUse" x="0" y="0" width="145" height="28">
<path d="M144.14 0.5H0.263611V27.5H144.14V0.5Z" fill="white"/>
</mask>
<g mask="url(#mask0_2_68824)">
<path fill-rule="evenodd" clip-rule="evenodd" d="M48.9603 24.125C47.4429 24.125 46.2814 23.6938 45.4759 22.8313C44.6703 21.9687 44.2675 20.75 44.2675 19.175V8.825C44.2675 7.25 44.6703 6.03125 45.4759 5.16875C46.2814 4.30625 47.4429 3.875 48.9603 3.875C50.4778 3.875 51.6393 4.30625 52.4448 5.16875C53.2503 6.03125 53.6532 7.25 53.6532 8.825V19.175C53.6532 20.75 53.2503 21.9687 52.4448 22.8313C51.6393 23.6938 50.4778 24.125 48.9603 24.125ZM48.9603 21.3125C50.0282 21.3125 50.5621 20.6656 50.5621 19.3719V8.62812C50.5621 7.33437 50.0282 6.6875 48.9603 6.6875C47.8925 6.6875 47.3586 7.33437 47.3586 8.62812V19.3719C47.3586 20.6656 47.8925 21.3125 48.9603 21.3125Z" fill="white"/>
<path d="M34.9423 4.15625H38.0334V21.0312H43.1196V23.8437H34.9423V4.15625Z" fill="white"/>
<path d="M56.6997 22.8594C57.4866 23.7031 58.6293 24.125 60.128 24.125C61.6268 24.125 62.7695 23.7031 63.5563 22.8594C64.3432 21.997 64.7365 20.7688 64.7365 19.175V12.7344H60.2685V15.5469H61.814V19.4C61.814 20.6751 61.2801 21.3125 60.2123 21.3125C59.1446 21.3125 58.6106 20.6751 58.6106 19.4V8.62812C58.6106 7.33437 59.1446 6.6875 60.2123 6.6875C61.2801 6.6875 61.814 7.33437 61.814 8.62812V10.5125H64.7365V8.825C64.7365 7.23126 64.3432 6.0125 63.5563 5.16875C62.7695 4.30625 61.6268 3.875 60.128 3.875C58.6293 3.875 57.4866 4.30625 56.6997 5.16875C55.9129 6.0125 55.5195 7.23126 55.5195 8.825V19.175C55.5195 20.7688 55.9129 21.997 56.6997 22.8594Z" fill="white"/>
<path fill-rule="evenodd" clip-rule="evenodd" d="M71.1887 24.125C69.6713 24.125 68.5098 23.6938 67.7044 22.8313C66.8988 21.9687 66.4959 20.75 66.4959 19.175V8.825C66.4959 7.25 66.8988 6.03125 67.7044 5.16875C68.5098 4.30625 69.6713 3.875 71.1887 3.875C72.7063 3.875 73.8678 4.30625 74.6732 5.16875C75.4789 6.03125 75.8817 7.25 75.8817 8.825V19.175C75.8817 20.75 75.4789 21.9687 74.6732 22.8313C73.8678 23.6938 72.7063 24.125 71.1887 24.125ZM71.1887 21.3125C72.2566 21.3125 72.7905 20.6656 72.7905 19.3719V8.62812C72.7905 7.33437 72.2566 6.6875 71.1887 6.6875C70.121 6.6875 69.5871 7.33437 69.5871 8.62812V19.3719C69.5871 20.6656 70.121 21.3125 71.1887 21.3125Z" fill="white"/>
<path d="M81.0695 4.15625H77.9785V23.8437H81.0695V4.15625Z" fill="white"/>
<path fill-rule="evenodd" clip-rule="evenodd" d="M83.3839 4.15625H87.9362C89.4722 4.15625 90.6244 4.56874 91.3927 5.39375C92.1611 6.21875 92.545 7.42812 92.545 9.02186V10.9625C92.545 12.5563 92.1611 13.7657 91.3927 14.5906C90.6244 15.4156 89.4722 15.8281 87.9362 15.8281H86.4752V23.8437H83.3839V4.15625ZM87.9362 13.0156C88.4423 13.0156 88.8168 12.875 89.0605 12.5937C89.3228 12.3125 89.4536 11.8344 89.4536 11.1594V8.825C89.4536 8.14999 89.3228 7.67186 89.0605 7.39061C88.8168 7.10936 88.4423 6.96875 87.9362 6.96875H86.4752V13.0156H87.9362Z" fill="white"/>
<path d="M94.952 22.8594C95.7204 23.7031 96.854 24.125 98.3521 24.125C99.8695 24.125 101.022 23.6938 101.809 22.8313C102.614 21.9687 103.017 20.7312 103.017 19.1187C103.017 17.8812 102.774 16.8032 102.287 15.8844C101.799 14.9657 100.909 13.9437 99.6172 12.8187C98.6051 11.9374 97.9025 11.1875 97.5094 10.5687C97.1349 9.95 96.9476 9.28437 96.9476 8.57188C96.9476 7.31562 97.4622 6.6875 98.4929 6.6875C98.999 6.6875 99.3827 6.84688 99.645 7.16563C99.9074 7.46562 100.038 7.95312 100.038 8.62812V9.64062H102.961V8.825C102.961 7.23126 102.577 6.0125 101.809 5.16875C101.06 4.30625 99.9445 3.875 98.465 3.875C96.9661 3.875 95.8232 4.30625 95.0363 5.16875C94.2494 6.0125 93.8563 7.2125 93.8563 8.76875C93.8563 9.9125 94.1093 10.9437 94.6146 11.8625C95.1206 12.7625 96.0105 13.775 97.2842 14.9C98.2963 15.7812 98.9896 16.5406 99.3641 17.1781C99.7387 17.7969 99.9259 18.5188 99.9259 19.3438C99.9259 20.0375 99.7851 20.5438 99.5042 20.8625C99.242 21.1625 98.8488 21.3125 98.3242 21.3125C97.2564 21.3125 96.7225 20.6751 96.7225 19.4V18.05H93.7997V19.175C93.7997 20.7688 94.1843 21.997 94.952 22.8594Z" fill="white"/>
<path d="M109.285 24.125C107.786 24.125 106.644 23.7031 105.857 22.8594C105.07 21.9969 104.677 20.7688 104.677 19.175V4.15625H107.768V19.4C107.768 20.075 107.899 20.5625 108.161 20.8625C108.442 21.1625 108.836 21.3125 109.341 21.3125C109.847 21.3125 110.231 21.1625 110.493 20.8625C110.774 20.5625 110.915 20.075 110.915 19.4V4.15625H113.894V19.175C113.894 20.7688 113.5 21.9969 112.713 22.8594C111.926 23.7031 110.784 24.125 109.285 24.125Z" fill="white"/>
<path d="M120.507 4.15625H116.094V23.8437H118.793V8.9375H118.848L121.096 23.8437H123.682L125.931 8.9375H125.986V23.8437H128.91V4.15625H124.498L122.53 18.2469H122.474L120.507 4.15625Z" fill="white"/>
<path fill-rule="evenodd" clip-rule="evenodd" d="M12.9142 10.6293C7.05378 10.6293 2.22744 6.19763 1.59815 0.5H9.74049C10.2432 1.76123 11.4747 2.65245 12.9142 2.65245C14.3537 2.65245 15.5853 1.76123 16.0879 0.5H24.2303C23.601 6.19763 18.7746 10.6293 12.9142 10.6293ZM0.263611 23.2908C4.45568 23.2908 7.85398 19.8895 7.85398 15.6939C7.85398 11.4982 4.45568 8.09697 0.263611 8.09697V13.4148C1.52121 13.4148 2.54071 14.4352 2.54071 15.6939C2.54071 16.9526 1.52121 17.9729 0.263611 17.9729V23.2908ZM25.5649 10.6292C24.2677 10.218 22.8865 9.99611 21.4534 9.99611C13.9426 9.99611 7.854 16.0901 7.854 23.6073C7.854 24.3618 7.91534 25.1019 8.03329 25.8231H16.483C16.1815 25.1462 16.0138 24.3964 16.0138 23.6073C16.0138 20.6004 18.4491 18.1628 21.4534 18.1628C23.0954 18.1628 24.5674 18.8909 25.5649 20.0423V10.6292Z" fill="white"/>
</g>
</g>
<defs>
<clipPath id="clip0_2_68824">
<rect width="145" height="27" fill="white" transform="translate(0 0.5)"/>
</clipPath>
</defs>
</svg>
