<svg width="150" height="32" viewBox="0 0 150 32" fill="none" xmlns="http://www.w3.org/2000/svg">
<path d="M41.624 22.3735H51.9271V19.1731H45.2859V7.11816H41.624V22.3735Z" fill="white"/>
<path d="M58.031 20.2401C56.562 20.2401 55.7966 18.9172 55.7966 16.933C55.7966 14.9487 56.562 13.6045 58.031 13.6045C59.4998 13.6045 60.286 14.9487 60.286 16.933C60.286 18.9172 59.4998 20.2401 58.031 20.2401ZM58.0517 22.7151C61.4653 22.7151 63.6997 20.2188 63.6997 16.933C63.6997 13.6472 61.4653 11.1509 58.0517 11.1509C54.6586 11.1509 52.3828 13.6472 52.3828 16.933C52.3828 20.2188 54.6586 22.7151 58.0517 22.7151Z" fill="white"/>
<path d="M69.6085 26.1504C71.181 26.1504 72.5671 25.7876 73.4981 24.9342C74.3463 24.1448 74.9049 22.95 74.9049 21.307V11.4497H71.6775V12.6232H71.6361C71.0153 11.7057 70.0637 11.1296 68.6569 11.1296C66.0294 11.1296 64.2088 13.3913 64.2088 16.5918C64.2088 19.9415 66.4224 21.7765 68.8017 21.7765C70.0844 21.7765 70.8913 21.243 71.512 20.5176H71.5947V21.6058C71.5947 22.9286 70.9947 23.6966 69.5672 23.6966C68.45 23.6966 67.8914 23.206 67.7052 22.6298H64.4363C64.7673 24.9129 66.6914 26.1504 69.6085 26.1504ZM69.5879 19.1947C68.3259 19.1947 67.4982 18.1279 67.4982 16.4851C67.4982 14.8208 68.3259 13.754 69.5879 13.754C70.9947 13.754 71.7395 14.9916 71.7395 16.4637C71.7395 17.9999 71.0568 19.1947 69.5879 19.1947Z" fill="white"/>
<path d="M81.5416 20.2401C80.0727 20.2401 79.3072 18.9172 79.3072 16.933C79.3072 14.9487 80.0727 13.6045 81.5416 13.6045C83.0105 13.6045 83.7968 14.9487 83.7968 16.933C83.7968 18.9172 83.0105 20.2401 81.5416 20.2401ZM81.5623 22.7151C84.9761 22.7151 87.2104 20.2188 87.2104 16.933C87.2104 13.6472 84.9761 11.1509 81.5623 11.1509C78.1694 11.1509 75.8936 13.6472 75.8936 16.933C75.8936 20.2188 78.1694 22.7151 81.5623 22.7151Z" fill="white"/>
<path d="M88.1944 22.3738H91.5667V11.4497H88.1944V22.3738ZM88.1944 9.93479H91.5667V7.11841H88.1944V9.93479Z" fill="white"/>
<path d="M93.0305 25.9797H96.4028V21.243H96.4441C97.1061 22.1605 98.0786 22.7152 99.444 22.7152C102.216 22.7152 104.058 20.4536 104.058 16.9118C104.058 13.626 102.34 11.1296 99.5267 11.1296C98.0786 11.1296 97.0441 11.7911 96.32 12.7725H96.2579V11.4497H93.0305V25.9797ZM98.5751 20.0269C97.1269 20.0269 96.2993 18.8106 96.2993 17.0398C96.2993 15.2689 97.0441 13.9246 98.513 13.9246C99.9612 13.9246 100.644 15.1622 100.644 17.0398C100.644 18.896 99.8577 20.0269 98.5751 20.0269Z" fill="white"/>
<path d="M109.548 22.7152C112.32 22.7152 114.369 21.4778 114.369 19.0881C114.369 16.293 112.176 15.8023 110.314 15.4822C108.969 15.2262 107.769 15.1196 107.769 14.3515C107.769 13.6687 108.41 13.3486 109.238 13.3486C110.169 13.3486 110.81 13.6473 110.934 14.6288H114.038C113.872 12.4738 112.258 11.1296 109.258 11.1296C106.755 11.1296 104.686 12.3245 104.686 14.6288C104.686 17.1891 106.652 17.7012 108.493 18.0212C109.9 18.2772 111.182 18.3839 111.182 19.3655C111.182 20.0695 110.541 20.4536 109.527 20.4536C108.41 20.4536 107.707 19.9202 107.583 18.8321H104.396C104.5 21.243 106.445 22.7152 109.548 22.7152Z" fill="white"/>
<path d="M118.95 22.6939C120.418 22.6939 121.349 22.0965 122.115 21.0297H122.177V22.3738H125.405V11.4497H122.032V17.5519C122.032 18.8534 121.329 19.7496 120.17 19.7496C119.094 19.7496 118.577 19.0881 118.577 17.8933V11.4497H115.225V18.6187C115.225 21.051 116.508 22.6939 118.95 22.6939Z" fill="white"/>
<path d="M126.871 22.374H130.244V16.2506C130.244 14.949 130.864 14.0316 131.919 14.0316C132.933 14.0316 133.409 14.7143 133.409 15.8878V22.374H136.781V16.2506C136.781 14.949 137.381 14.0316 138.457 14.0316C139.471 14.0316 139.947 14.7143 139.947 15.8878V22.374H143.319V15.2692C143.319 12.8155 142.119 11.1299 139.719 11.1299C138.354 11.1299 137.216 11.7273 136.388 13.0502H136.347C135.809 11.8767 134.754 11.1299 133.367 11.1299C131.836 11.1299 130.823 11.8767 130.161 13.0075H130.099V11.4499H126.871V22.374Z" fill="white"/>
<path fill-rule="evenodd" clip-rule="evenodd" d="M21.2452 28.6879C28.2438 28.6879 33.9173 23.0073 33.9173 16C33.9173 8.99262 28.2438 3.31201 21.2452 3.31201C14.2467 3.31201 8.57324 8.99262 8.57324 16C8.57324 23.0073 14.2467 28.6879 21.2452 28.6879ZM25.1985 9.2226C25.3909 8.53822 24.7276 8.13353 24.1218 8.56565L15.6652 14.5977C15.0082 15.0663 15.1116 16 15.8204 16H18.0473V15.9827H22.3874L18.851 17.232L17.2921 22.7774C17.0996 23.4618 17.7629 23.8664 18.3688 23.4342L26.8253 17.4022C27.4823 16.9337 27.3789 16 26.6701 16H23.2931L25.1985 9.2226Z" fill="white"/>
</svg>
