<svg width="136" height="28" viewBox="0 0 136 28" fill="none" xmlns="http://www.w3.org/2000/svg">
<g clip-path="url(#clip0_2_68861)">
<mask id="mask0_2_68861" style="mask-type:luminance" maskUnits="userSpaceOnUse" x="0" y="0" width="136" height="28">
<path d="M135.736 0.5H0.860413V27.5H135.736V0.5Z" fill="white"/>
</mask>
<g mask="url(#mask0_2_68861)">
<path fill-rule="evenodd" clip-rule="evenodd" d="M17.924 8.38758C16.826 7.64589 15.535 7.25 14.2145 7.25V0.5C16.8557 0.5 19.4376 1.29176 21.6336 2.77517C23.8297 4.25856 25.5413 6.36698 26.552 8.83375C27.5627 11.3005 24.4738 14.0812 23.9586 16.7C23.4434 19.3188 32.0581 18.3482 30.1906 20.2362C28.323 22.1242 18.9817 24.2791 16.3913 24.8C13.8009 25.3209 11.5442 27.4942 9.10408 26.4724C6.66396 25.4506 4.57833 23.7202 3.11098 21.5001C1.64361 19.2801 0.860413 16.6701 0.860413 14L17.924 8.38758C17.924 9.72259 7.92905 16.64 8.66273 17.7501C9.3964 18.8601 10.4392 19.7252 11.6593 20.2362C12.8793 20.7471 14.2219 20.8807 15.5171 20.6203C16.8123 20.3598 18.002 19.717 18.9358 18.773C19.8696 17.8289 20.5056 16.6262 20.7632 15.3168C21.0209 14.0075 20.8886 12.6502 20.3833 11.4169C19.8778 10.1835 19.022 9.12927 17.924 8.38758Z" fill="white"/>
<path d="M84.7367 10.2554H81.4969V20.6587H84.7367V10.2554Z" fill="white"/>
<path d="M81.8574 8.30755C82.1959 8.65005 82.6193 8.8213 83.1274 8.8213C83.6355 8.8213 84.0522 8.65005 84.3767 8.30755C84.7018 7.95082 84.8641 7.52266 84.8641 7.0232C84.8641 6.50947 84.7018 6.08134 84.3767 5.73885C84.0522 5.39635 83.6355 5.2251 83.1274 5.2251C82.6193 5.2251 82.1959 5.39635 81.8574 5.73885C81.5322 6.08134 81.3701 6.50947 81.3701 7.0232C81.3701 7.52266 81.5322 7.95082 81.8574 8.30755Z" fill="white"/>
<path d="M35.0175 20.6588V5.54614H38.342V17.7048H44.9697V20.6588H35.0175Z" fill="white"/>
<path fill-rule="evenodd" clip-rule="evenodd" d="M50.9567 20.8943C49.898 20.8943 48.9382 20.6589 48.077 20.1879C47.23 19.7027 46.5595 19.0463 46.0654 18.2185C45.5713 17.3908 45.3243 16.4633 45.3243 15.4357C45.3243 14.4082 45.5713 13.4879 46.0654 12.6744C46.5595 11.8609 47.23 11.2188 48.077 10.7479C48.924 10.2626 49.884 10.02 50.9567 10.02C52.0296 10.02 52.9895 10.2555 53.8364 10.7264C54.6834 11.1974 55.354 11.8467 55.8481 12.6744C56.3422 13.4879 56.5892 14.4082 56.5892 15.4357C56.5892 16.4633 56.3422 17.3908 55.8481 18.2185C55.354 19.0463 54.6834 19.7027 53.8364 20.1879C52.9895 20.6589 52.0296 20.8943 50.9567 20.8943ZM50.9567 17.9189C51.4226 17.9189 51.8319 17.819 52.1849 17.6192C52.5378 17.4051 52.806 17.1126 52.9895 16.7415C53.1871 16.3563 53.2859 15.9209 53.2859 15.4357C53.2859 14.9506 53.1871 14.5295 52.9895 14.1728C52.7918 13.8018 52.5167 13.5163 52.1636 13.3165C51.8249 13.1025 51.4226 12.9955 50.9567 12.9955C50.505 12.9955 50.1027 13.1025 49.7498 13.3165C49.3969 13.5163 49.1216 13.8018 48.924 14.1728C48.7263 14.5439 48.6276 14.972 48.6276 15.4572C48.6276 15.9281 48.7263 16.3563 48.924 16.7415C49.1216 17.1126 49.3969 17.4051 49.7498 17.6192C50.1027 17.819 50.505 17.9189 50.9567 17.9189Z" fill="white"/>
<path fill-rule="evenodd" clip-rule="evenodd" d="M59.1547 24.7258C60.0158 25.1254 61.0109 25.3252 62.1403 25.3252C63.2413 25.3252 64.2225 25.104 65.0835 24.6615C65.9447 24.2192 66.6222 23.6056 67.1163 22.8207C67.6103 22.0358 67.8577 21.1082 67.8577 20.0379V10.2554H64.6811V10.9543C64.445 10.7533 64.1767 10.5846 63.8766 10.448C63.326 10.1769 62.6978 10.0413 61.9921 10.0413C61.0462 10.0413 60.2063 10.2696 59.4723 10.7262C58.7382 11.1686 58.1594 11.7823 57.7359 12.5672C57.3124 13.3378 57.1008 14.2083 57.1008 15.1788C57.1008 16.1349 57.3124 17.0053 57.7359 17.7903C58.1594 18.5752 58.7382 19.1959 59.4723 19.6526C60.2063 20.1092 61.0462 20.3376 61.9921 20.3376C62.6837 20.3376 63.3119 20.202 63.8766 19.9309C64.1501 19.7995 64.3971 19.6447 64.6177 19.4665V20.1235C64.6177 20.8513 64.3847 21.415 63.919 21.8146C63.4673 22.2142 62.8391 22.4139 62.0344 22.4139C61.3851 22.4139 60.8275 22.2998 60.3616 22.0714C59.9099 21.8432 59.5004 21.5077 59.1335 21.0654L57.1431 23.0775C57.6371 23.7911 58.3077 24.3406 59.1547 24.7258ZM63.7707 17.1266C63.446 17.3264 63.0579 17.4263 62.6061 17.4263C62.1544 17.4263 61.7592 17.3264 61.4203 17.1266C61.0956 16.9268 60.8416 16.6557 60.6581 16.3132C60.4745 15.9565 60.3828 15.5783 60.3828 15.1788C60.3828 14.7506 60.4745 14.3653 60.6581 14.0229C60.8416 13.6803 61.1027 13.4092 61.4415 13.2094C61.7803 13.0096 62.1685 12.9097 62.6061 12.9097C63.0579 12.9097 63.446 13.0096 63.7707 13.2094C64.1095 13.4092 64.3636 13.6803 64.533 14.0229C64.7165 14.3653 64.8083 14.7506 64.8083 15.1788C64.8083 15.6069 64.7165 15.9922 64.533 16.3346C64.3636 16.6629 64.1095 16.9268 63.7707 17.1266Z" fill="white"/>
<path fill-rule="evenodd" clip-rule="evenodd" d="M74.6757 20.8943C73.6167 20.8943 72.6565 20.6589 71.7959 20.1879C70.9485 19.7027 70.2782 19.0463 69.7841 18.2185C69.29 17.3908 69.043 16.4633 69.043 15.4357C69.043 14.4082 69.29 13.4879 69.7841 12.6744C70.2782 11.8609 70.9485 11.2188 71.7959 10.7479C72.6426 10.2626 73.6027 10.02 74.6757 10.02C75.748 10.02 76.7082 10.2555 77.5549 10.7264C78.4021 11.1974 79.0726 11.8467 79.5667 12.6744C80.0608 13.4879 80.3078 14.4082 80.3078 15.4357C80.3078 16.4633 80.0608 17.3908 79.5667 18.2185C79.0726 19.0463 78.4021 19.7027 77.5549 20.1879C76.7082 20.6589 75.748 20.8943 74.6757 20.8943ZM74.6757 17.9189C75.1411 17.9189 75.5504 17.819 75.9036 17.6192C76.2561 17.4051 76.5245 17.1126 76.7082 16.7415C76.9058 16.3563 77.0047 15.9209 77.0047 15.4357C77.0047 14.9506 76.9058 14.5295 76.7082 14.1728C76.5105 13.8018 76.2355 13.5163 75.8822 13.3165C75.5438 13.1025 75.1411 12.9955 74.6757 12.9955C74.2237 12.9955 73.8211 13.1025 73.4685 13.3165C73.1153 13.5163 72.8402 13.8018 72.6426 14.1728C72.4449 14.5439 72.3461 14.972 72.3461 15.4572C72.3461 15.9281 72.4449 16.3563 72.6426 16.7415C72.8402 17.1126 73.1153 17.4051 73.4685 17.6192C73.8211 17.819 74.2237 17.9189 74.6757 17.9189Z" fill="white"/>
<path fill-rule="evenodd" clip-rule="evenodd" d="M92.5234 20.8728C91.8324 20.8728 91.1966 20.7372 90.6178 20.4661C90.3133 20.3233 90.0382 20.153 89.7925 19.9549V25.047H86.5948V10.2554H89.8345V10.9734C90.0695 10.779 90.3306 10.611 90.6178 10.4694C91.1966 10.184 91.8324 10.0413 92.5234 10.0413C93.4975 10.0413 94.3589 10.2768 95.1067 10.7477C95.8692 11.2186 96.4622 11.8608 96.8855 12.6742C97.3235 13.4877 97.5419 14.4153 97.5419 15.457C97.5419 16.4988 97.3235 17.4263 96.8855 18.2398C96.4622 19.0533 95.8692 19.6953 95.1067 20.1664C94.3589 20.6373 93.4975 20.8728 92.5234 20.8728ZM91.9312 17.9187C92.3965 17.9187 92.7992 17.8116 93.1376 17.5977C93.4909 17.3836 93.7659 17.091 93.9636 16.7199C94.1612 16.3489 94.2601 15.9279 94.2601 15.457C94.2601 14.9718 94.1612 14.5437 93.9636 14.1727C93.7659 13.8016 93.4909 13.5163 93.1376 13.3165C92.7992 13.1023 92.4039 12.9953 91.9518 12.9953C91.5005 12.9953 91.0979 13.1023 90.7453 13.3165C90.4061 13.5163 90.1383 13.8016 89.9407 14.1727C89.743 14.5437 89.6442 14.9718 89.6442 15.457C89.6442 15.9279 89.7357 16.3489 89.9194 16.7199C90.117 17.091 90.3921 17.3836 90.7453 17.5977C91.0979 17.8116 91.4932 17.9187 91.9312 17.9187Z" fill="white"/>
<path d="M100.713 20.6802C101.306 20.8373 101.905 20.9157 102.512 20.9157C103.797 20.9157 104.813 20.616 105.562 20.0166C106.323 19.4173 106.705 18.611 106.705 17.5977C106.705 16.9413 106.585 16.4133 106.345 16.0137C106.105 15.5999 105.795 15.2717 105.413 15.029C105.032 14.7865 104.629 14.5937 104.206 14.4511C103.783 14.3083 103.38 14.1871 103 14.0872C102.618 13.9873 102.308 13.8731 102.067 13.7446C101.828 13.6162 101.708 13.445 101.708 13.2309C101.708 13.0311 101.8 12.8813 101.983 12.7814C102.166 12.6672 102.441 12.6101 102.809 12.6101C103.19 12.6101 103.578 12.6887 103.973 12.8456C104.382 13.0025 104.75 13.2738 105.074 13.6591L106.916 11.7754C106.451 11.1759 105.844 10.7264 105.096 10.4268C104.362 10.1128 103.557 9.95581 102.682 9.95581C101.849 9.95581 101.122 10.0985 100.501 10.3839C99.8794 10.6694 99.3994 11.0618 99.0608 11.5612C98.7223 12.0464 98.5527 12.6244 98.5527 13.2952C98.5527 13.923 98.6728 14.444 98.9126 14.8578C99.1523 15.2574 99.4634 15.5714 99.844 15.7996C100.225 16.028 100.628 16.2064 101.051 16.3348C101.475 16.4633 101.877 16.5845 102.258 16.6987C102.639 16.7986 102.95 16.9199 103.19 17.0627C103.444 17.191 103.571 17.3837 103.571 17.6406C103.571 17.8404 103.465 17.9973 103.253 18.1115C103.056 18.2257 102.767 18.2827 102.385 18.2827C101.834 18.2827 101.326 18.1828 100.861 17.983C100.395 17.7691 99.9922 17.4764 99.6537 17.1054L97.8115 18.9891C98.1648 19.3744 98.5881 19.717 99.0822 20.0166C99.5903 20.302 100.134 20.5232 100.713 20.6802Z" fill="white"/>
<path d="M112.613 20.8941C111.667 20.8941 110.827 20.7014 110.093 20.3161C109.373 19.9165 108.809 19.3743 108.399 18.6893C107.989 17.9901 107.785 17.1909 107.785 16.2918V10.2554H111.025V16.249C111.025 16.6058 111.081 16.9127 111.194 17.1695C111.321 17.4263 111.505 17.6261 111.744 17.7689C111.985 17.9115 112.274 17.9829 112.613 17.9829C113.092 17.9829 113.473 17.833 113.757 17.5333C114.039 17.2194 114.179 16.7913 114.179 16.249V10.2554H117.42V16.2704C117.42 17.1838 117.215 17.9901 116.805 18.6893C116.396 19.3743 115.832 19.9165 115.111 20.3161C114.392 20.7014 113.559 20.8941 112.613 20.8941Z" fill="white"/>
<path d="M122.27 10.2554H119.03V20.6587H122.27V14.5794C122.27 14.2227 122.34 13.923 122.481 13.6803C122.637 13.4377 122.842 13.2521 123.096 13.1238C123.35 12.981 123.639 12.9097 123.963 12.9097C124.43 12.9097 124.818 13.0595 125.128 13.3592C125.453 13.6446 125.616 14.0513 125.616 14.5794V20.6587H128.855V14.5794C128.855 14.2227 128.926 13.923 129.066 13.6803C129.222 13.4377 129.427 13.2521 129.681 13.1238C129.935 12.981 130.225 12.9097 130.549 12.9097C131.015 12.9097 131.403 13.0595 131.713 13.3592C132.038 13.6446 132.2 14.0513 132.2 14.5794V20.6587H135.44V14.2155C135.44 13.3449 135.257 12.6029 134.89 11.9892C134.537 11.3613 134.05 10.8833 133.428 10.5551C132.821 10.2125 132.122 10.0413 131.332 10.0413C130.527 10.0413 129.8 10.2197 129.152 10.5765C128.729 10.8037 128.362 11.0971 128.046 11.4565C127.751 11.0806 127.393 10.773 126.97 10.5336C126.406 10.2054 125.764 10.0413 125.044 10.0413C124.282 10.0413 123.597 10.2054 122.99 10.5336C122.726 10.6702 122.485 10.8337 122.27 11.0243V10.2554Z" fill="white"/>
</g>
</g>
<defs>
<clipPath id="clip0_2_68861">
<rect width="136" height="27" fill="white" transform="translate(0 0.5)"/>
</clipPath>
</defs>
</svg>
