<svg width="31" height="25" viewBox="0 0 31 25" fill="none" xmlns="http://www.w3.org/2000/svg">
<path d="M3.0735 22.6196C1.34056 20.7003 0.410156 18.5476 0.410156 15.0582C0.410156 8.91788 4.54397 3.4144 10.5554 0.693359L12.0578 3.11089C6.44683 6.27579 5.34987 10.3828 4.91243 12.9722C5.81591 12.4845 6.99868 12.3143 8.1579 12.4266C11.1931 12.7196 13.5855 15.3178 13.5855 18.5476C13.5855 20.1762 12.9651 21.738 11.8608 22.8895C10.7565 24.041 9.25866 24.688 7.6969 24.688C6.83322 24.6801 5.97967 24.4932 5.18593 24.1381C4.39219 23.783 3.67411 23.2668 3.0735 22.6196ZM19.8981 22.6196C18.1652 20.7003 17.2348 18.5476 17.2348 15.0582C17.2348 8.91788 21.3686 3.4144 27.38 0.693359L28.8825 3.11089C23.2715 6.27579 22.1745 10.3828 21.7371 12.9722C22.6405 12.4845 23.8233 12.3143 24.9825 12.4266C28.0177 12.7196 30.4102 15.3178 30.4102 18.5476C30.4102 20.1762 29.7898 21.738 28.6854 22.8895C27.5811 24.041 26.0833 24.688 24.5215 24.688C23.6579 24.6801 22.8043 24.4932 22.0106 24.1381C21.2168 23.783 20.4987 23.2668 19.8981 22.6196Z" fill="#C3922E"/>
</svg>
