<svg width="11" height="15" viewBox="0 0 11 15" fill="none" xmlns="http://www.w3.org/2000/svg">
<path d="M5.45999 0.25C2.44987 0.25 0.000976562 2.77052 0.000976562 5.86868C0.000976562 7.37369 0.886869 9.3064 2.63403 11.6129C3.43449 12.6669 4.30134 13.6656 5.22898 14.6026C5.29118 14.6639 5.37393 14.698 5.45999 14.698C5.54605 14.698 5.6288 14.6639 5.691 14.6026C6.61864 13.6656 7.48549 12.6669 8.28595 11.6129C10.0331 9.3064 10.919 7.37369 10.919 5.86868C10.919 2.77052 8.47011 0.25 5.45999 0.25ZM5.45999 9.88203C3.30981 9.88203 1.56069 8.08176 1.56069 5.86868C1.56069 3.65561 3.30981 1.85534 5.45999 1.85534C7.61017 1.85534 9.35929 3.65561 9.35929 5.86868C9.35929 8.08176 7.61017 9.88203 5.45999 9.88203Z" fill="white"/>
<path d="M8.13584 5.38475L5.68486 3.09141C5.62333 3.03385 5.54318 3.00195 5.46003 3.00195C5.37689 3.00195 5.29673 3.03385 5.23521 3.09141L2.78423 5.38475C2.72712 5.4382 2.68974 5.51033 2.67842 5.5889C2.6671 5.66748 2.68254 5.74767 2.72212 5.81587C2.75334 5.8678 2.7971 5.91051 2.84913 5.93985C2.90117 5.96919 2.9597 5.98415 3.01902 5.98329H3.34327V8.16196C3.34327 8.25319 3.37849 8.34069 3.44117 8.40521C3.50385 8.46972 3.58886 8.50596 3.6775 8.50596H4.45736C4.546 8.50596 4.63101 8.46972 4.69369 8.40521C4.75637 8.34069 4.79158 8.25319 4.79158 8.16196V6.90062C4.79158 6.80939 4.8268 6.72189 4.88948 6.65738C4.95216 6.59286 5.03717 6.55662 5.12581 6.55662H5.79426C5.8829 6.55662 5.96791 6.59286 6.03059 6.65738C6.09327 6.72189 6.12848 6.80939 6.12848 6.90062V8.16196C6.12848 8.25319 6.1637 8.34069 6.22638 8.40521C6.28906 8.46972 6.37407 8.50596 6.46271 8.50596H7.24257C7.33121 8.50596 7.41622 8.46972 7.4789 8.40521C7.54158 8.34069 7.5768 8.25319 7.5768 8.16196V5.98329H7.90105C7.96037 5.98415 8.0189 5.96919 8.07093 5.93985C8.12297 5.91051 8.16673 5.8678 8.19795 5.81587C8.23753 5.74767 8.25297 5.66748 8.24165 5.5889C8.23033 5.51033 8.19294 5.4382 8.13584 5.38475Z" fill="white"/>
</svg>
