<svg width="157" height="46" viewBox="0 0 157 46" fill="none" xmlns="http://www.w3.org/2000/svg">
<path d="M67.913 10.2791V11.0191C67.0743 11.0438 66.433 11.1424 65.989 11.3151C65.5697 11.4631 65.286 11.7591 65.138 12.2031C64.99 12.6224 64.916 13.2884 64.916 14.2011V32.9971C64.916 33.7618 64.9653 34.3291 65.064 34.6991C65.1873 35.0691 65.4093 35.3158 65.73 35.4391C66.0753 35.5624 66.581 35.6241 67.247 35.6241H69.06C69.8987 35.6241 70.688 35.4268 71.428 35.0321C72.168 34.6374 72.834 34.0824 73.426 33.3671C74.018 32.6271 74.5113 31.7514 74.906 30.7401C75.3007 29.7288 75.5967 28.6064 75.794 27.3731H76.645C76.571 28.2118 76.534 29.2971 76.534 30.6291C76.534 31.1964 76.5463 32.0228 76.571 33.1081C76.5957 34.1934 76.6697 35.3158 76.793 36.4751C75.535 36.4258 74.1167 36.4011 72.538 36.4011C70.9593 36.3764 69.5533 36.3641 68.32 36.3641C67.7033 36.3641 66.914 36.3641 65.952 36.3641C64.99 36.3641 63.954 36.3764 62.844 36.4011C61.734 36.4011 60.6117 36.4134 59.477 36.4381C58.3423 36.4381 57.2693 36.4504 56.258 36.4751V35.7351C57.0473 35.6858 57.6393 35.5871 58.034 35.4391C58.4287 35.2911 58.6877 34.9951 58.811 34.5511C58.959 34.1071 59.033 33.4411 59.033 32.5531V14.2011C59.033 13.2884 58.959 12.6224 58.811 12.2031C58.6877 11.7591 58.4163 11.4631 57.997 11.3151C57.6023 11.1424 57.0227 11.0438 56.258 11.0191V10.2791C56.8747 10.3038 57.701 10.3284 58.737 10.3531C59.7977 10.3778 60.92 10.3901 62.104 10.3901C63.1893 10.3901 64.25 10.3778 65.286 10.3531C66.3467 10.3284 67.2223 10.3038 67.913 10.2791ZM83.6131 36.7341C82.5031 36.7341 81.5781 36.5244 80.8381 36.1051C80.0981 35.6858 79.5555 35.1308 79.2101 34.4401C78.8648 33.7248 78.6921 32.9478 78.6921 32.1091C78.6921 31.0484 78.9265 30.1851 79.3951 29.5191C79.8885 28.8531 80.5175 28.3104 81.2821 27.8911C82.0468 27.4718 82.8485 27.1264 83.6871 26.8551C84.5505 26.5838 85.3645 26.3248 86.1291 26.0781C86.9185 25.8068 87.5475 25.4984 88.0161 25.1531C88.5095 24.7831 88.7561 24.3144 88.7561 23.7471V20.8611C88.7561 20.2198 88.6451 19.6524 88.4231 19.1591C88.2258 18.6411 87.9051 18.2464 87.4611 17.9751C87.0418 17.7038 86.4868 17.5681 85.7961 17.5681C85.3028 17.5681 84.8095 17.6421 84.3161 17.7901C83.8228 17.9134 83.4158 18.1354 83.0951 18.4561C83.7858 18.7028 84.3161 19.0851 84.6861 19.6031C85.0808 20.0964 85.2781 20.6638 85.2781 21.3051C85.2781 22.1438 84.9821 22.8098 84.3901 23.3031C83.8228 23.7964 83.1445 24.0431 82.3551 24.0431C81.4671 24.0431 80.7888 23.7718 80.3201 23.2291C79.8761 22.6618 79.6541 21.9834 79.6541 21.1941C79.6541 20.4788 79.8268 19.8868 80.1721 19.4181C80.5421 18.9494 81.0478 18.5054 81.6891 18.0861C82.3798 17.6914 83.2061 17.3831 84.1681 17.1611C85.1548 16.9391 86.2155 16.8281 87.3501 16.8281C88.4848 16.8281 89.5085 16.9514 90.4211 17.1981C91.3338 17.4201 92.0985 17.8394 92.7151 18.4561C93.2825 19.0234 93.6525 19.7264 93.8251 20.5651C93.9978 21.3791 94.0841 22.4151 94.0841 23.6731V33.7371C94.0841 34.3538 94.1458 34.7854 94.2691 35.0321C94.3925 35.2541 94.6021 35.3651 94.8981 35.3651C95.1201 35.3651 95.3298 35.3034 95.5271 35.1801C95.7491 35.0568 95.9835 34.9088 96.2301 34.7361L96.6001 35.3651C96.0821 35.8091 95.4778 36.1544 94.7871 36.4011C94.1211 36.6231 93.3688 36.7341 92.5301 36.7341C91.6175 36.7341 90.8898 36.6108 90.3471 36.3641C89.8045 36.0928 89.4098 35.7351 89.1631 35.2911C88.9411 34.8471 88.8301 34.3291 88.8301 33.7371C88.2381 34.6744 87.5228 35.4144 86.6841 35.9571C85.8455 36.4751 84.8218 36.7341 83.6131 36.7341ZM86.2401 34.3661C86.7335 34.3661 87.1775 34.2551 87.5721 34.0331C87.9915 33.7864 88.3861 33.3918 88.7561 32.8491V25.2641C88.5341 25.6341 88.2258 25.9671 87.8311 26.2631C87.4365 26.5591 87.0171 26.8674 86.5731 27.1881C86.1291 27.4841 85.6975 27.8171 85.2781 28.1871C84.8835 28.5571 84.5628 29.0134 84.3161 29.5561C84.0695 30.0988 83.9461 30.7524 83.9461 31.5171C83.9461 32.4791 84.1558 33.1944 84.5751 33.6631C84.9945 34.1318 85.5495 34.3661 86.2401 34.3661ZM106.213 17.3461V18.1231C105.671 18.1231 105.19 18.1601 104.77 18.2341C104.376 18.2834 104.104 18.4561 103.956 18.7521C103.833 19.0481 103.882 19.5291 104.104 20.1951L107.619 31.1841L107.138 31.7021L111.467 17.3091L112.207 17.6421L106.546 36.5491C106.152 36.5244 105.757 36.5121 105.362 36.5121C104.968 36.5121 104.561 36.5244 104.141 36.5491L98.2952 20.1951C97.9499 19.2084 97.5675 18.6164 97.1482 18.4191C96.7535 18.2218 96.4205 18.1231 96.1492 18.1231V17.3461C96.9385 17.4201 97.7525 17.4818 98.5912 17.5311C99.4545 17.5558 100.392 17.5681 101.403 17.5681C102.168 17.5681 102.97 17.5434 103.808 17.4941C104.672 17.4448 105.473 17.3954 106.213 17.3461ZM125.527 17.3461V18.0861C125.059 18.2094 124.615 18.4931 124.195 18.9371C123.776 19.3811 123.381 20.1581 123.011 21.2681L118.09 36.5491C117.696 36.5244 117.289 36.5121 116.869 36.5121C116.475 36.5121 116.08 36.5244 115.685 36.5491L110.468 22.3041L111.467 17.3091C111.911 17.3338 112.355 17.3461 112.799 17.3461C113.268 17.3214 113.724 17.3091 114.168 17.3091L119.237 32.2571L118.83 31.8501L121.309 24.0061C121.729 22.6494 121.889 21.5518 121.79 20.7131C121.692 19.8744 121.396 19.2454 120.902 18.8261C120.409 18.4068 119.743 18.1601 118.904 18.0861V17.3461C119.299 17.3708 119.718 17.3954 120.162 17.4201C120.631 17.4201 121.087 17.4324 121.531 17.4571C122 17.4571 122.395 17.4571 122.715 17.4571C123.209 17.4571 123.714 17.4448 124.232 17.4201C124.775 17.3954 125.207 17.3708 125.527 17.3461ZM131.229 7.8001C132.265 7.8001 133.079 8.0591 133.671 8.5771C134.288 9.07043 134.596 9.7611 134.596 10.6491C134.596 11.5371 134.288 12.2401 133.671 12.7581C133.079 13.2514 132.265 13.4981 131.229 13.4981C130.193 13.4981 129.367 13.2514 128.75 12.7581C128.158 12.2401 127.862 11.5371 127.862 10.6491C127.862 9.7611 128.158 9.07043 128.75 8.5771C129.367 8.0591 130.193 7.8001 131.229 7.8001ZM134.115 16.9391V33.0341C134.115 34.0701 134.288 34.7731 134.633 35.1431C135.003 35.5131 135.62 35.6981 136.483 35.6981V36.4751C136.039 36.4504 135.349 36.4258 134.411 36.4011C133.474 36.3518 132.524 36.3271 131.562 36.3271C130.6 36.3271 129.626 36.3518 128.639 36.4011C127.653 36.4258 126.913 36.4504 126.419 36.4751V35.6981C127.283 35.6981 127.887 35.5131 128.232 35.1431C128.602 34.7731 128.787 34.0701 128.787 33.0341V21.3791C128.787 20.2691 128.615 19.4551 128.269 18.9371C127.949 18.3944 127.332 18.1231 126.419 18.1231V17.3461C127.209 17.4201 127.973 17.4571 128.713 17.4571C129.749 17.4571 130.711 17.4201 131.599 17.3461C132.512 17.2474 133.351 17.1118 134.115 16.9391ZM143.196 36.7341C142.086 36.7341 141.161 36.5244 140.421 36.1051C139.681 35.6858 139.138 35.1308 138.793 34.4401C138.448 33.7248 138.275 32.9478 138.275 32.1091C138.275 31.0484 138.509 30.1851 138.978 29.5191C139.471 28.8531 140.1 28.3104 140.865 27.8911C141.63 27.4718 142.431 27.1264 143.27 26.8551C144.133 26.5838 144.947 26.3248 145.712 26.0781C146.501 25.8068 147.13 25.4984 147.599 25.1531C148.092 24.7831 148.339 24.3144 148.339 23.7471V20.8611C148.339 20.2198 148.228 19.6524 148.006 19.1591C147.809 18.6411 147.488 18.2464 147.044 17.9751C146.625 17.7038 146.07 17.5681 145.379 17.5681C144.886 17.5681 144.392 17.6421 143.899 17.7901C143.406 17.9134 142.999 18.1354 142.678 18.4561C143.369 18.7028 143.899 19.0851 144.269 19.6031C144.664 20.0964 144.861 20.6638 144.861 21.3051C144.861 22.1438 144.565 22.8098 143.973 23.3031C143.406 23.7964 142.727 24.0431 141.938 24.0431C141.05 24.0431 140.372 23.7718 139.903 23.2291C139.459 22.6618 139.237 21.9834 139.237 21.1941C139.237 20.4788 139.41 19.8868 139.755 19.4181C140.125 18.9494 140.631 18.5054 141.272 18.0861C141.963 17.6914 142.789 17.3831 143.751 17.1611C144.738 16.9391 145.798 16.8281 146.933 16.8281C148.068 16.8281 149.091 16.9514 150.004 17.1981C150.917 17.4201 151.681 17.8394 152.298 18.4561C152.865 19.0234 153.235 19.7264 153.408 20.5651C153.581 21.3791 153.667 22.4151 153.667 23.6731V33.7371C153.667 34.3538 153.729 34.7854 153.852 35.0321C153.975 35.2541 154.185 35.3651 154.481 35.3651C154.703 35.3651 154.913 35.3034 155.11 35.1801C155.332 35.0568 155.566 34.9088 155.813 34.7361L156.183 35.3651C155.665 35.8091 155.061 36.1544 154.37 36.4011C153.704 36.6231 152.952 36.7341 152.113 36.7341C151.2 36.7341 150.473 36.6108 149.93 36.3641C149.387 36.0928 148.993 35.7351 148.746 35.2911C148.524 34.8471 148.413 34.3291 148.413 33.7371C147.821 34.6744 147.106 35.4144 146.267 35.9571C145.428 36.4751 144.405 36.7341 143.196 36.7341ZM145.823 34.3661C146.316 34.3661 146.76 34.2551 147.155 34.0331C147.574 33.7864 147.969 33.3918 148.339 32.8491V25.2641C148.117 25.6341 147.809 25.9671 147.414 26.2631C147.019 26.5591 146.6 26.8674 146.156 27.1881C145.712 27.4841 145.28 27.8171 144.861 28.1871C144.466 28.5571 144.146 29.0134 143.899 29.5561C143.652 30.0988 143.529 30.7524 143.529 31.5171C143.529 32.4791 143.739 33.1944 144.158 33.6631C144.577 34.1318 145.132 34.3661 145.823 34.3661Z" fill="white"/>
<mask id="mask0_2_160225" style="mask-type:luminance" maskUnits="userSpaceOnUse" x="13" y="15" width="19" height="4">
<path d="M22.5001 15.9773H15.1207C12.801 15.9773 12.8167 18.3322 13.5865 18.7061C13.5865 18.1862 13.7245 17.828 13.9567 17.6032C14.2223 17.3448 14.6344 17.2335 15.1207 17.2335H22.5001H29.8795C30.3668 17.2335 30.7778 17.3448 31.0435 17.6032C31.2756 17.828 31.4137 18.1862 31.4137 18.7061C32.1834 18.3332 32.1991 15.9773 29.8795 15.9773H22.5001Z" fill="white"/>
</mask>
<g mask="url(#mask0_2_160225)">
<path d="M32.1992 15.9773H12.8V18.7061H32.1992V15.9773Z" fill="#C3922E"/>
</g>
<mask id="mask1_2_160225" style="mask-type:luminance" maskUnits="userSpaceOnUse" x="16" y="23" width="3" height="15">
<path d="M16.4038 24.9671V36.3518C17.1903 36.6575 18.005 36.9064 18.8427 37.0923V24.9671C18.8427 24.2939 18.2936 23.7424 17.6232 23.7424C16.9518 23.7424 16.4038 24.2939 16.4038 24.9671Z" fill="white"/>
</mask>
<g mask="url(#mask1_2_160225)">
<path d="M18.8427 23.7424H16.4038V37.0923H18.8427V23.7424Z" fill="#C3922E"/>
</g>
<mask id="mask2_2_160225" style="mask-type:luminance" maskUnits="userSpaceOnUse" x="21" y="22" width="3" height="16">
<path d="M21.2805 23.6974V37.4474C21.6832 37.4769 22.09 37.4916 22.5 37.4916C22.9099 37.4916 23.3168 37.4769 23.7194 37.4474V23.6974C23.7194 23.0241 23.1703 22.4727 22.5 22.4727C21.8296 22.4727 21.2805 23.0241 21.2805 23.6974Z" fill="white"/>
</mask>
<g mask="url(#mask2_2_160225)">
<path d="M23.7194 22.4727H21.2805V37.4905H23.7194V22.4727Z" fill="#C3922E"/>
</g>
<mask id="mask3_2_160225" style="mask-type:luminance" maskUnits="userSpaceOnUse" x="26" y="23" width="3" height="15">
<path d="M26.1582 24.9671V37.0923C26.9959 36.9064 27.8106 36.6585 28.5971 36.3518V24.9671C28.5971 24.2939 28.048 23.7424 27.3776 23.7424C26.7062 23.7424 26.1582 24.2939 26.1582 24.9671Z" fill="white"/>
</mask>
<g mask="url(#mask3_2_160225)">
<path d="M28.5971 23.7424H26.1582V37.0923H28.5971V23.7424Z" fill="#C3922E"/>
</g>
<mask id="mask4_2_160225" style="mask-type:luminance" maskUnits="userSpaceOnUse" x="31" y="33" width="11" height="7">
<path d="M31.5005 38.4253C33.8641 33.286 39.5231 34.4204 41.2529 33.1631C40.7268 37.8298 36.5037 41.0564 31.6793 39.0786C34.0889 38.5671 36.2161 37.5661 38.0599 36.0757C36.0593 37.2552 33.8735 38.0377 31.5005 38.4253Z" fill="white"/>
</mask>
<g mask="url(#mask4_2_160225)">
<path d="M41.2529 33.1631H31.5005V41.0564H41.2529V33.1631Z" fill="#C3922E"/>
</g>
<mask id="mask5_2_160225" style="mask-type:luminance" maskUnits="userSpaceOnUse" x="37" y="25" width="7" height="8">
<path d="M37.4365 32.2262C37.8277 27.6152 42.4921 26.9041 43.4731 25.4546C44.3631 29.1886 42.012 32.8501 37.7555 32.6789C39.4665 31.6117 40.8229 30.2484 41.8269 28.5867C40.6169 30.0509 39.1538 31.2651 37.4365 32.2262Z" fill="white"/>
</mask>
<g mask="url(#mask5_2_160225)">
<path d="M44.362 25.4536H37.4365V32.8491H44.362V25.4536Z" fill="#C3922E"/>
</g>
<mask id="mask6_2_160225" style="mask-type:luminance" maskUnits="userSpaceOnUse" x="39" y="19" width="6" height="8">
<path d="M39.6841 25.8137C39.5722 22.0492 43.2755 21.0377 43.9333 19.7742C45.0001 22.7088 43.4397 25.8882 39.9832 26.1498C41.2665 25.1267 42.237 23.8968 42.8938 22.4599C42.0529 23.7571 40.983 24.8757 39.6841 25.8137Z" fill="white"/>
</mask>
<g mask="url(#mask6_2_160225)">
<path d="M45.0001 19.7742H39.5723V26.1498H45.0001V19.7742Z" fill="#C3922E"/>
</g>
<mask id="mask7_2_160225" style="mask-type:luminance" maskUnits="userSpaceOnUse" x="40" y="13" width="5" height="8">
<path d="M40.6431 20.4757C39.4885 16.893 42.764 14.8826 43.0443 13.4846C44.8839 16.0034 44.27 19.4947 41.0238 20.7142C41.9713 19.3718 42.5611 17.9192 42.7923 16.3552C42.3457 17.8383 41.6293 19.2111 40.6431 20.4757Z" fill="white"/>
</mask>
<g mask="url(#mask7_2_160225)">
<path d="M44.884 13.4846H39.4885V20.7142H44.884V13.4846Z" fill="#C3922E"/>
</g>
<mask id="mask8_2_160225" style="mask-type:luminance" maskUnits="userSpaceOnUse" x="39" y="8" width="4" height="8">
<path d="M39.8649 15.0971C38.1487 12.1256 40.6827 9.69933 40.665 8.39795C42.789 10.2886 42.9114 13.5194 40.2498 15.2357C40.8375 13.8556 41.0854 12.446 40.9902 11.006C40.8762 12.4155 40.5008 13.7789 39.8649 15.0971Z" fill="white"/>
</mask>
<g mask="url(#mask8_2_160225)">
<path d="M42.9104 8.39795H38.1477V15.2357H42.9104V8.39795Z" fill="#C3922E"/>
</g>
<mask id="mask9_2_160225" style="mask-type:luminance" maskUnits="userSpaceOnUse" x="36" y="4" width="4" height="7">
<path d="M38.1091 10.7474C35.7988 8.41777 37.5558 5.55138 37.2243 4.35083C39.6485 5.58079 40.5469 8.54171 38.5002 10.7811C38.7094 9.35993 38.5954 7.99448 38.1593 6.6847C38.3956 8.01759 38.3789 9.37149 38.1091 10.7474Z" fill="white"/>
</mask>
<g mask="url(#mask9_2_160225)">
<path d="M40.5459 4.35083H35.7988V10.7811H40.5459V4.35083Z" fill="#C3922E"/>
</g>
<mask id="mask10_2_160225" style="mask-type:luminance" maskUnits="userSpaceOnUse" x="32" y="2" width="5" height="6">
<path d="M35.4787 7.58166C32.7438 6.28133 33.3786 3.23637 32.7156 2.29736C35.2067 2.60511 36.9104 4.89802 35.829 7.48923C35.5676 6.1868 35.0436 5.03562 34.2561 4.03464C34.8763 5.11754 35.2841 6.30023 35.4787 7.58166Z" fill="white"/>
</mask>
<g mask="url(#mask10_2_160225)">
<path d="M36.9104 2.29639H32.7156V7.58068H36.9104V2.29639Z" fill="#C3922E"/>
</g>
<mask id="mask11_2_160225" style="mask-type:luminance" maskUnits="userSpaceOnUse" x="28" y="1" width="5" height="4">
<path d="M32.2053 4.99159C29.505 4.85505 28.9957 2.12415 28.1287 1.57587C30.2904 0.976117 32.4751 2.28485 32.4626 4.79518C31.8048 3.80995 30.9806 3.039 29.9902 2.48126C30.8708 3.16294 31.6092 4.00007 32.2053 4.99159Z" fill="white"/>
</mask>
<g mask="url(#mask11_2_160225)">
<path d="M32.4751 0.975098H28.1287V4.99162H32.4751V0.975098Z" fill="#C3922E"/>
</g>
<mask id="mask12_2_160225" style="mask-type:luminance" maskUnits="userSpaceOnUse" x="24" y="39" width="13" height="6">
<path d="M25.0801 40.2098C30.4735 37.5954 34.3535 42.3619 36.6177 42.5037C33.0504 45.9762 27.4165 45.7608 24.7883 40.8673C27.109 42.0815 29.527 42.7022 32.0412 42.7285C29.6075 42.3409 27.2868 41.5006 25.0801 40.2098Z" fill="white"/>
</mask>
<g mask="url(#mask12_2_160225)">
<path d="M36.6177 37.5955H24.7883V45.9762H36.6177V37.5955Z" fill="#C3922E"/>
</g>
<mask id="mask13_2_160225" style="mask-type:luminance" maskUnits="userSpaceOnUse" x="3" y="33" width="11" height="7">
<path d="M13.5007 38.4253C11.1371 33.286 5.47809 34.4204 3.74829 33.1631C4.27434 37.8298 8.49741 41.0564 13.3218 39.0786C10.9112 38.5671 8.78501 37.5661 6.94121 36.0757C8.94084 37.2552 11.1266 38.0377 13.5007 38.4253Z" fill="white"/>
</mask>
<g mask="url(#mask13_2_160225)">
<path d="M13.5007 33.1631H3.74829V41.0564H13.5007V33.1631Z" fill="#C3922E"/>
</g>
<mask id="mask14_2_160225" style="mask-type:luminance" maskUnits="userSpaceOnUse" x="1" y="25" width="7" height="8">
<path d="M7.56353 32.2262C7.17239 27.6152 2.50799 26.9041 1.527 25.4546C0.636998 29.1886 2.98802 32.8501 7.24455 32.6789C5.53358 31.6117 4.17713 30.2484 3.17314 28.5867C4.38316 30.0509 5.84628 31.2651 7.56353 32.2262Z" fill="white"/>
</mask>
<g mask="url(#mask14_2_160225)">
<path d="M7.56343 25.4536H0.637939V32.8491H7.56343V25.4536Z" fill="#C3922E"/>
</g>
<mask id="mask15_2_160225" style="mask-type:luminance" maskUnits="userSpaceOnUse" x="0" y="19" width="6" height="8">
<path d="M5.3159 25.8137C5.4278 22.0492 1.72451 21.0377 1.06669 19.7742C0.00098592 22.7088 1.56032 25.8882 5.01679 26.1498C3.73356 25.1267 2.76302 23.8968 2.10624 22.4599C2.94709 23.7571 4.01698 24.8757 5.3159 25.8137Z" fill="white"/>
</mask>
<g mask="url(#mask15_2_160225)">
<path d="M5.42786 19.7742H0V26.1498H5.42786V19.7742Z" fill="#C3922E"/>
</g>
<mask id="mask16_2_160225" style="mask-type:luminance" maskUnits="userSpaceOnUse" x="0" y="13" width="5" height="8">
<path d="M4.3569 20.4757C5.5115 16.893 2.23596 14.8826 1.95568 13.4846C0.116059 16.0034 0.729962 19.4947 3.97622 20.7142C3.02765 19.3718 2.43885 17.9192 2.20772 16.3552C2.65429 17.8383 3.37068 19.2111 4.3569 20.4757Z" fill="white"/>
</mask>
<g mask="url(#mask16_2_160225)">
<path d="M5.51141 13.4846H0.115967V20.7142H5.51141V13.4846Z" fill="#C3922E"/>
</g>
<mask id="mask17_2_160225" style="mask-type:luminance" maskUnits="userSpaceOnUse" x="2" y="8" width="4" height="8">
<path d="M5.13611 15.0971C6.85231 12.1256 4.31827 9.69933 4.33605 8.39795C2.21196 10.2886 2.0896 13.5194 4.75124 15.2357C4.16348 13.8556 3.91562 12.446 4.01079 11.006C4.12374 12.4155 4.49919 13.7789 5.13611 15.0971Z" fill="white"/>
</mask>
<g mask="url(#mask17_2_160225)">
<path d="M6.85231 8.39795H2.0896V15.2357H6.85231V8.39795Z" fill="#C3922E"/>
</g>
<mask id="mask18_2_160225" style="mask-type:luminance" maskUnits="userSpaceOnUse" x="5" y="4" width="4" height="7">
<path d="M6.89093 10.7474C9.20117 8.41777 7.44418 5.55138 7.77675 4.35083C5.35251 5.58079 4.45415 8.54171 6.50084 10.7811C6.29167 9.35993 6.40462 7.99448 6.84178 6.6847C6.60542 8.01759 6.62215 9.37149 6.89093 10.7474Z" fill="white"/>
</mask>
<g mask="url(#mask18_2_160225)">
<path d="M9.20113 4.35083H4.4541V10.7811H9.20113V4.35083Z" fill="#C3922E"/>
</g>
<mask id="mask19_2_160225" style="mask-type:luminance" maskUnits="userSpaceOnUse" x="8" y="2" width="5" height="6">
<path d="M9.52227 7.58166C12.2571 6.28133 11.6223 3.23637 12.2854 2.29736C9.79314 2.60406 8.08949 4.89697 9.17192 7.48818C9.43233 6.18575 9.95734 5.03457 10.7449 4.03359C10.1236 5.11754 9.7168 6.30023 9.52227 7.58166Z" fill="white"/>
</mask>
<g mask="url(#mask19_2_160225)">
<path d="M12.2844 2.29639H8.0896V7.58068H12.2844V2.29639Z" fill="#C3922E"/>
</g>
<mask id="mask20_2_160225" style="mask-type:luminance" maskUnits="userSpaceOnUse" x="12" y="1" width="5" height="4">
<path d="M12.7947 4.99159C15.495 4.85505 16.0043 2.12415 16.8713 1.57587C14.7096 0.976117 12.5249 2.28485 12.5374 4.79518C13.1952 3.80995 14.0194 3.039 15.0098 2.48126C14.1292 3.16294 13.3908 4.00007 12.7947 4.99159Z" fill="white"/>
</mask>
<g mask="url(#mask20_2_160225)">
<path d="M16.8714 0.975098H12.5249V4.99162H16.8714V0.975098Z" fill="#C3922E"/>
</g>
<mask id="mask21_2_160225" style="mask-type:luminance" maskUnits="userSpaceOnUse" x="8" y="39" width="13" height="6">
<path d="M19.9199 40.2098C14.5266 37.5954 10.6465 42.3619 8.38232 42.5037C11.9497 45.9762 17.5835 45.7608 20.2117 40.8673C17.891 42.0815 15.4741 42.7022 12.9589 42.7285C15.3925 42.3409 17.7132 41.5006 19.9199 40.2098Z" fill="white"/>
</mask>
<g mask="url(#mask21_2_160225)">
<path d="M20.2117 37.5955H8.38232V45.9762H20.2117V37.5955Z" fill="#C3922E"/>
</g>
<mask id="mask22_2_160225" style="mask-type:luminance" maskUnits="userSpaceOnUse" x="5" y="3" width="35" height="32">
<path d="M22.5 3.55884C13.1701 3.55884 5.60669 11.1549 5.60669 20.5251C5.60669 25.7695 7.9755 30.4582 11.6987 33.5714C14.3341 35.7751 13.965 35.4116 13.965 32.5579V22.1836C14.0089 21.8475 14.2013 21.5933 14.5423 21.4221L15.6843 20.7593C15.6895 20.7562 15.6958 20.753 15.701 20.7499C15.792 20.6931 15.8485 20.5934 15.8496 20.4841C15.8506 20.3696 15.7889 20.2625 15.6895 20.2068C15.6132 20.1638 15.5233 20.1543 15.4417 20.1795C15.4166 20.1869 15.3925 20.1984 15.3695 20.2121C14.9397 20.4022 14.4649 20.5072 13.965 20.5072C12.0385 20.5072 10.4761 18.938 10.4761 17.0033C10.4761 15.0685 12.0385 13.4993 13.965 13.4993H22.5H31.035C32.9614 13.4993 34.5239 15.0685 34.5239 17.0033C34.5239 18.938 32.9614 20.5072 31.035 20.5072C30.5351 20.5072 30.0603 20.4022 29.6305 20.2121C29.6075 20.1974 29.5834 20.1869 29.5583 20.1795C29.4767 20.1543 29.3868 20.1627 29.3104 20.2068C29.2111 20.2636 29.1494 20.3696 29.1504 20.4841C29.1515 20.5934 29.208 20.6931 29.2989 20.7499C29.3042 20.753 29.3094 20.7562 29.3157 20.7593L30.4577 21.4221C30.7987 21.5933 30.9911 21.8475 31.035 22.1836V32.5579C31.035 35.4116 30.6648 35.7751 33.3013 33.5714C37.0234 30.4593 39.3933 25.7705 39.3933 20.5251C39.3933 11.1539 31.8298 3.55884 22.5 3.55884Z" fill="white"/>
</mask>
<g mask="url(#mask22_2_160225)">
<path d="M39.3923 3.55884H5.60669V35.774H39.3923V3.55884Z" fill="#C3922E"/>
</g>
</svg>
