<svg width="132" height="59" viewBox="0 0 132 59" fill="none" xmlns="http://www.w3.org/2000/svg">
<g clip-path="url(#clip0_2_160152)">
<path d="M50.4131 38.7805C50.2356 38.8634 50.0524 38.9356 49.8816 39.0303C47.6637 40.2614 45.4696 41.5381 43.2229 42.7144C41.8116 43.4536 40.3409 44.0914 38.862 44.6899C36.3139 45.7208 33.7611 46.7487 31.1687 47.6609C28.153 48.7216 25.0688 49.5611 21.92 50.1636C19.1567 50.6924 16.3795 51.063 13.562 51.0231C11.2869 50.9909 9.05926 50.6366 6.96731 49.7111C4.34748 48.5516 2.26379 46.7697 0.959291 44.2046C-0.00463494 42.308 -0.172341 40.2727 0.148623 38.1872C0.52635 35.7331 1.45054 33.4797 2.69157 31.3415C4.5286 28.1769 6.94874 25.4741 9.52987 22.9084C13.5378 18.9243 18.0003 15.5115 22.9717 12.7979C25.9403 11.1777 29.0236 9.77868 32.4117 9.212C33.8654 8.96885 35.3236 8.82142 36.7922 9.09068C38.378 9.38144 39.2294 10.4267 39.6329 11.8846C40.0457 13.3753 39.651 14.7922 39.0302 16.1293C37.9492 18.4585 36.2711 20.2901 34.063 21.6312C33.4247 22.0188 32.9639 22.0193 32.5583 21.6031C32.3901 21.4306 32.259 21.1659 32.2286 20.9279C32.1708 20.4779 32.5222 20.2005 33.0145 20.1949C33.2652 20.1918 33.5645 20.202 33.758 20.0781C36.0951 18.5808 37.7474 16.5588 38.4125 13.8401C38.5457 13.296 38.54 12.6986 38.4915 12.135C38.4012 11.0845 37.751 10.3151 36.704 10.1273C35.9413 9.9906 35.1368 9.96654 34.3628 10.0321C31.4803 10.2752 28.7743 11.1383 26.172 12.3817C23.1342 13.8329 20.2992 15.6026 17.5483 17.5243C15.6354 18.8603 13.8299 20.3208 12.0914 21.8683C10.2337 23.5222 8.52518 25.3175 6.97196 27.255C6.15664 28.2722 5.32585 29.2837 4.59362 30.3592C2.87579 32.8839 1.54446 35.5923 1.13525 38.6479C0.691992 41.9599 1.73332 44.759 4.3062 46.9571C6.2423 48.611 8.54633 49.407 11.0346 49.7551C13.3665 50.0817 15.6906 49.9343 18.0174 49.6574C24.1374 48.9294 29.9555 47.1286 35.6379 44.8337C35.7979 44.7692 35.9511 44.6868 36.0677 44.504C35.5548 44.6725 35.0352 44.8224 34.531 45.0134C32.1011 45.9333 29.6216 46.7011 27.0869 47.2709C25.0378 47.7316 22.966 48.0587 20.8462 47.9241C19.3884 47.8314 18.0793 47.3732 16.9306 46.4728C15.4713 45.3287 14.9883 43.5601 15.606 41.6077C16.1494 39.8903 17.0999 38.3981 18.2336 37.0175C21.5428 32.9857 25.6132 29.8667 30.1433 27.3072C34.256 24.9837 38.685 23.4695 43.227 22.2276C45.7901 21.5268 48.3769 20.9842 51.0354 20.8639C52.7388 20.7866 54.4628 20.7308 56.1043 21.2954C57.014 21.6082 57.9083 22.007 58.7448 22.48C61.3842 23.9727 62.9875 28.3305 60.0859 31.5555C59.3903 32.329 58.591 33.0108 57.8366 33.7311C57.6498 33.9097 57.4506 34.0756 57.2942 34.2138C57.3629 34.5322 57.5182 34.827 57.4459 35.0487C57.3835 35.2407 57.0543 35.3395 56.8582 35.4981C56.4149 35.857 55.981 36.2276 55.5702 36.6402C55.9067 36.631 56.1296 36.3843 56.3989 36.2409C57.3912 35.7137 58.3815 35.1823 59.3753 34.6566C59.4899 34.5957 59.6168 34.5496 59.7433 34.5199C60.3382 34.3791 60.7996 34.7533 60.749 35.363C60.7263 35.6384 60.62 35.9072 60.5137 36.3305C60.8491 36.1329 61.0849 35.9998 61.3145 35.857C62.0922 35.3727 62.8714 34.8905 63.6428 34.3965C64.4648 33.8703 64.8348 33.9635 65.3245 34.8383C65.3607 34.9023 65.4169 34.9555 65.532 35.0978C66.2425 34.7411 66.9722 34.4006 67.676 34.0136C68.5316 33.5432 68.6745 33.5478 69.4083 34.3228C69.7974 34.1268 70.2051 33.9077 70.6241 33.7132C71.4069 33.3507 72.1933 32.9965 72.9859 32.6545C73.1748 32.5731 73.3899 32.5419 73.5968 32.5112C74.3157 32.4058 74.6629 32.5906 74.9886 33.2412C75.0675 33.3994 75.1336 33.5637 75.2342 33.7889C75.7265 33.6 76.1904 33.4342 76.645 33.2458C78.7741 32.3633 80.8825 31.4275 83.0343 30.6028C84.5979 30.0039 86.2099 29.5243 87.8153 29.04C88.5516 28.8178 89.1032 28.4467 89.5656 27.8207C91.9228 24.63 94.2934 21.4475 96.7058 18.2972C100.309 13.5918 104.011 8.96322 108.138 4.69089C109.353 3.43314 110.611 2.21584 111.851 0.981647C111.925 0.907933 112.008 0.842922 112.092 0.78047C112.65 0.362758 113.182 0.270616 113.538 0.526566C113.872 0.766136 114.096 1.53348 113.896 2.04026C113.727 2.46923 113.459 2.86135 113.219 3.26115C112.939 3.728 112.663 4.19844 112.35 4.64328C110.895 6.70983 109.427 8.76716 107.965 10.8296C106.156 13.3835 104.375 15.9594 102.53 18.4871C101.424 20.0008 100.237 21.4572 99.0495 22.91C98.0598 24.1201 97.0159 25.2867 95.9983 26.4743C95.9498 26.5307 95.923 26.6059 95.8033 26.8219C96.2027 26.7032 96.4787 26.6064 96.7615 26.5394C97.3204 26.4063 97.8782 26.2353 98.4463 26.1805C99.0748 26.1201 99.4629 26.568 99.2859 27.167C99.1662 27.5739 98.9133 27.9732 98.6274 28.2952C97.729 29.3067 96.7873 30.2798 95.7862 31.3492C96.0179 31.2739 96.1748 31.2355 96.3208 31.1731C97.7646 30.5557 99.1884 29.8862 100.657 29.3354C101.304 29.0932 102.039 29.0328 102.74 28.9944C103.549 28.9499 103.966 29.3492 103.975 30.1646C103.984 30.8578 104.337 31.2268 104.93 31.4342C105.887 31.77 106.889 31.8032 107.885 31.7362C111.261 31.5079 114.635 31.2632 118.008 30.9996C120.757 30.7851 123.508 30.6663 126.264 30.7487C127.942 30.7989 129.618 30.9151 131.294 31.0139C131.531 31.0277 131.766 31.1137 132.002 31.1664C132 31.2263 131.999 31.2862 131.997 31.3461C131.84 31.3963 131.684 31.4782 131.523 31.49C131.157 31.5171 130.788 31.5058 130.421 31.5171C128.665 31.5714 126.909 31.6149 125.154 31.6876C123.663 31.7495 122.17 31.8114 120.684 31.9353C118.202 32.1421 115.725 32.4124 113.244 32.6295C111.442 32.7871 109.637 32.9269 107.831 33.0221C107.102 33.0605 106.357 33.017 105.635 32.9095C104.125 32.6853 102.942 32.0321 102.695 30.329C101.91 30.1616 101.212 30.436 100.542 30.6893C98.5789 31.4301 96.6924 32.3346 94.9069 33.4398C94.6639 33.5903 94.4059 33.73 94.1365 33.8207C93.685 33.9727 93.3031 33.8299 93.0286 33.4587C92.7515 33.0835 92.7324 32.7139 93.0813 32.3177C93.5286 31.8094 94.0364 31.3533 94.5153 30.8721C95.4183 29.9645 96.3224 29.0579 97.2182 28.1431C97.3766 27.9814 97.4968 27.7838 97.7172 27.4941C97.4432 27.5273 97.2966 27.5227 97.1656 27.5647C95.0019 28.2645 93.0085 29.2785 91.2112 30.6765C90.4702 31.253 89.6647 31.7469 88.8989 32.2921C88.0908 32.867 87.291 33.4536 86.4937 34.0428C85.4199 34.8358 84.7563 35.9804 83.9663 37.0098C82.1427 39.386 80.3665 41.7976 78.5548 44.1831C76.9293 46.3228 75.2982 48.459 73.6397 50.5737C72.5308 51.9875 71.3351 53.3354 70.2443 54.7626C69.4181 55.8437 68.5584 56.8854 67.5579 57.8099C67.386 57.9686 67.1972 58.1114 67.0016 58.2409C66.7101 58.4339 66.4138 58.4385 66.1285 58.2123C65.8359 57.9804 65.8307 57.6845 65.9278 57.364C65.9355 57.339 65.9448 57.3149 65.9556 57.2913C66.8225 55.45 67.803 53.6835 69.3366 52.18C69.5115 52.5639 69.35 52.8337 69.22 53.0917C68.7416 54.0428 68.2498 54.9873 67.8344 56.0182C68.0378 55.812 68.2597 55.621 68.4418 55.3978C70.1756 53.2745 71.942 51.1757 73.6216 49.0108C75.8137 46.1856 77.9361 43.3067 80.0868 40.4498C80.2236 40.2686 80.3459 40.0766 80.4444 39.8621C79.5755 40.4585 78.69 41.0052 78.0222 41.8575C77.4489 42.5895 76.7435 43.2192 76.0443 43.9486C75.8694 43.5724 76.0676 43.3871 76.2218 43.2059C77.4252 41.7971 78.5893 40.3515 79.8541 38.999C81.0652 37.7034 82.3578 36.479 83.6618 35.2729C84.5148 34.4846 85.2088 33.5785 85.9034 32.6648C86.1877 32.2906 86.4741 31.9174 86.7435 31.533C86.8849 31.3313 86.9922 31.1065 87.1929 30.7554C86.8549 30.8214 86.6811 30.8378 86.5185 30.8895C84.5953 31.4982 82.6602 32.0735 80.7577 32.7405C79.7731 33.0861 78.852 33.6077 77.8932 34.0295C76.9587 34.4406 76.0154 34.8317 75.0701 35.2166C74.8797 35.2939 74.6624 35.3277 74.4555 35.339C74.0107 35.364 73.6397 35.042 73.6108 34.5977C73.5943 34.3438 73.6361 34.0868 73.6598 33.7039C73.1918 33.8631 72.7609 33.9522 72.3863 34.1467C71.2263 34.7503 70.0874 35.3942 68.9408 36.0234C68.803 36.0991 68.6725 36.1882 68.5321 36.2578C67.8112 36.6161 67.675 36.5941 67.0816 36.0495C67.0062 35.9804 66.9242 35.9194 66.853 35.8616C66.0846 36.1867 65.3209 36.461 64.6037 36.8265C63.9081 37.1808 63.2765 37.3164 62.6856 36.6458C61.7717 37.1705 60.911 37.6635 60.0524 38.159C59.8939 38.2506 59.7427 38.3551 59.5864 38.4503C59.2241 38.6709 58.8702 38.7564 58.5038 38.4406C58.0946 38.0879 57.9676 37.6819 58.1668 37.19C58.2602 36.9591 58.3866 36.7416 58.558 36.3981C57.7767 36.869 57.0945 37.2448 56.45 37.6758C55.1693 38.5322 53.9143 39.426 52.6387 40.2901C52.2935 40.524 51.9225 40.7252 51.5468 40.9074C51.0127 41.1664 50.539 41.06 50.1205 40.6315C49.7345 40.2363 49.6907 39.8324 50.0364 39.3866C50.1752 39.2074 50.3305 39.0405 50.4786 38.868C50.4565 38.8398 50.4348 38.8102 50.4131 38.7805ZM21.7394 46.8834C22.7291 46.7774 23.7256 46.7108 24.7081 46.5588C27.6215 46.1078 30.4297 45.2576 33.208 44.2972C37.7691 42.7216 42.2533 40.954 46.6673 39.0118C48.202 38.3366 49.783 37.7434 51.248 36.9417C53.3152 35.8104 55.256 34.4626 57.0749 32.9607C58.1446 32.0771 59.1509 31.1306 59.9187 29.9558C61.0988 28.1498 60.8702 25.6748 59.3748 24.1145C58.0662 22.7492 56.3664 22.2481 54.5789 22.006C51.9534 21.6497 49.3517 21.9415 46.7504 22.375C45.1296 22.6453 43.5975 23.3692 41.9122 23.2934C41.8126 23.2888 41.7104 23.3456 41.6093 23.3727C39.1757 24.0295 36.7984 24.8445 34.5058 25.8913C34.013 26.116 33.4655 26.2568 33.1615 26.781C33.0924 26.8997 32.9097 26.9617 32.7699 27.0313C30.212 28.3146 27.7887 29.8022 25.5162 31.5452C23.0341 33.4485 20.7662 35.5545 18.8533 38.0254C17.9075 39.2468 17.0798 40.5332 16.5973 42.0172C15.9378 44.0454 16.7067 45.6399 18.7155 46.3837C19.6919 46.7451 20.7027 46.8414 21.7394 46.8834ZM90.2313 29.4895C90.3015 29.4777 90.366 29.4864 90.3995 29.4587C91.9878 28.1431 93.6659 26.9177 95.1381 25.4848C97.7239 22.9688 100.012 20.179 102.165 17.2898C104.097 14.696 105.985 12.0699 107.855 9.43058C109.362 7.30363 110.814 5.1388 112.28 2.98318C112.489 2.67502 112.635 2.32334 112.81 1.99214C112.759 1.95324 112.709 1.91433 112.659 1.87543C112.47 2.03156 112.267 2.17489 112.095 2.34638C111.576 2.86135 111.069 3.38656 110.558 3.90921C108.846 5.66248 107.086 7.37172 105.436 9.18129C103.697 11.0897 102.059 13.0897 100.389 15.0584C99.8834 15.6538 99.434 16.2957 98.9211 16.8839C98.5836 17.2704 98.1186 17.5545 97.8142 17.9614C96.2708 20.0249 94.7573 22.1109 93.2428 24.1954C92.9693 24.5716 92.7505 24.9873 92.4827 25.3686C91.72 26.4549 90.9449 27.5324 90.1745 28.6131C89.9516 28.9258 89.8974 29.2228 90.2313 29.4895Z" fill="#021C1B"/>
</g>
<defs>
<clipPath id="clip0_2_160152">
<rect width="132" height="58" fill="white" transform="translate(0 0.386475)"/>
</clipPath>
</defs>
</svg>
