<svg width="36" height="36" viewBox="0 0 36 36" fill="none" xmlns="http://www.w3.org/2000/svg">
<g clip-path="url(#clip0_2_160146)">
<path d="M34.9873 24.5563H29.4165C28.8354 23.9909 28.0846 23.5593 27.1701 23.2694C25.915 22.8715 24.7425 22.8767 24.4121 22.888C24.1002 22.8968 23.8034 22.7604 23.62 22.5176L20.9862 19.0335C20.5547 18.4622 19.8935 18.1265 19.1983 18.0954V4.89819H26.1565L22.6003 15.745H22.4038C22.207 15.745 22.018 15.8302 21.8855 15.9789C21.7473 16.1339 21.6819 16.3429 21.7059 16.5521C21.9237 18.4454 24.1779 19.8733 26.9496 19.8733C29.7213 19.8733 31.9755 18.4454 32.1933 16.5522C32.2174 16.3429 32.152 16.1339 32.0137 15.9789C31.8812 15.8302 31.6922 15.745 31.4954 15.745H31.3042L27.9079 4.89819H28.9409C29.8637 4.89819 30.6143 4.14754 30.6143 3.22195C30.6143 2.29924 29.8637 1.54858 28.9409 1.54858H18.9225C18.4058 0.844619 17.5729 0.386475 16.6347 0.386475C15.6964 0.386475 14.8635 0.844619 14.3468 1.54858H9.33941C9.05626 1.54858 8.82671 1.77807 8.82671 2.06128C8.82671 2.34449 9.05626 2.57397 9.33941 2.57397H13.8736C13.8245 2.78268 13.7977 2.99992 13.7977 3.22339C13.7977 3.44686 13.8245 3.6641 13.8736 3.8728H6.01072C6.00914 3.8728 6.00757 3.8728 6.006 3.8728H4.3288C3.97149 3.8728 3.68075 3.58207 3.68075 3.22195C3.68075 2.86464 3.97149 2.57397 4.3288 2.57397H7.02572C7.30886 2.57397 7.53841 2.34449 7.53841 2.06128C7.53841 1.77807 7.30886 1.54858 7.02572 1.54858H4.3288C3.40602 1.54858 2.65536 2.29924 2.65536 3.22476C2.65536 4.14754 3.40602 4.89819 4.3288 4.89819H4.95552L1.39865 15.745H1.20273C1.00592 15.745 0.816976 15.8302 0.684495 15.9789C0.546273 16.1339 0.480784 16.3429 0.504915 16.5521C0.72264 18.4454 2.97693 19.8733 5.74863 19.8733C8.52033 19.8733 10.7746 18.4454 10.9924 16.552C11.0164 16.3427 10.9509 16.1338 10.8127 15.9788C10.6802 15.8302 10.4913 15.745 10.2945 15.745H10.1033L6.70682 4.89819H14.0714V24.4189H13.1971C12.5697 24.4189 11.9622 24.6059 11.4475 24.9517L8.67543 22.7766C7.86667 22.142 6.79131 22.0731 5.92964 22.511L4.98006 22.0154C3.72922 21.363 2.17979 21.85 1.52634 23.1005C1.20909 23.7069 1.14715 24.4001 1.35189 25.0525C1.55642 25.7043 2.00267 26.2373 2.6082 26.5531L9.99094 30.4051C10.0777 30.4501 10.1672 30.4884 10.2572 30.5231L12.4617 32.2528C12.5556 32.3264 12.6671 32.3622 12.7779 32.3622C12.93 32.3622 13.0804 32.2949 13.1816 32.166C13.3564 31.9432 13.3175 31.6209 13.0947 31.4462L6.14518 25.9934C5.8228 25.7404 5.6184 25.3772 5.56959 24.9708C5.52078 24.5646 5.63337 24.1636 5.88644 23.8418C6.40946 23.1769 7.37667 23.061 8.04249 23.5833L11.138 26.0121C11.1388 26.0127 11.1396 26.0134 11.1404 26.014L16.0868 29.895C16.2623 30.0327 16.5068 30.0411 16.6914 29.9157C16.7297 29.8897 19.7104 27.8797 22.5891 26.8631C22.5918 26.8621 22.5944 26.8612 22.597 26.8602C23.4226 26.5691 24.2396 26.3598 24.9761 26.3029C26.6652 26.1725 28.142 26.6076 29.1361 27.528C30.0072 28.3345 30.4677 29.4722 30.4677 30.8184C30.4677 31.1016 30.6972 31.3311 30.9804 31.3311C31.2636 31.3311 31.4931 31.1016 31.4931 30.8184C31.4931 29.1791 30.919 27.7811 29.8328 26.7755C28.6265 25.6589 26.8744 25.1274 24.8971 25.2806C24.1867 25.3355 23.4205 25.5124 22.6472 25.7614C22.1344 25.0231 21.3348 24.5437 20.4391 24.4402L19.1985 22.8053V19.1214C19.5764 19.1509 19.9326 19.3396 20.1684 19.6515L22.802 23.1356C23.1863 23.6443 23.8014 23.9344 24.4472 23.9126C24.811 23.8998 28.0414 23.8558 29.2947 26.0549C29.3893 26.2208 29.5624 26.3137 29.7406 26.3137C29.8266 26.3137 29.9139 26.2921 29.994 26.2464C30.2287 26.1126 30.3171 25.8217 30.2029 25.5816H34.4746V28.8221C34.4746 29.1053 34.7041 29.3348 34.9873 29.3348C35.2705 29.3348 35.5 29.1053 35.5 28.8221V25.069C35.5 24.7859 35.2705 24.5563 34.9873 24.5563ZM5.93689 27.1332L3.08247 25.6438C2.7199 25.4547 2.45275 25.1356 2.33032 24.7454C2.20768 24.3546 2.24487 23.9391 2.43511 23.5755C2.82695 22.8254 3.75602 22.5333 4.50585 22.9244L5.07159 23.2197C4.65549 23.755 4.47065 24.4195 4.55152 25.0931C4.633 25.7717 4.97418 26.3779 5.51224 26.8001L5.93689 27.1332ZM26.9496 18.8478C24.959 18.8478 23.2038 17.9427 22.8011 16.7703H31.098C30.6954 17.9427 28.9402 18.8478 26.9496 18.8478ZM23.6794 15.745L27.0299 5.52573L30.2297 15.745H23.6794ZM28.9409 2.57397C29.2983 2.57397 29.589 2.86471 29.589 3.22476C29.589 3.58214 29.2982 3.8728 28.9409 3.8728H27.2118C27.2103 3.8728 27.2087 3.8728 27.2071 3.8728H26.8731C26.8718 3.8728 26.8705 3.8728 26.8692 3.8728H19.3956C19.4447 3.6641 19.4715 3.44686 19.4715 3.22339C19.4715 2.99992 19.4447 2.78268 19.3956 2.57397H28.9409ZM16.6347 1.41187C17.6335 1.41187 18.4461 2.22452 18.4461 3.22339C18.4461 4.22226 17.6335 5.03491 16.6347 5.03491C15.6358 5.03491 14.8231 4.22226 14.8231 3.22339C14.8231 2.22452 15.6358 1.41187 16.6347 1.41187ZM5.74856 18.8478C3.758 18.8478 2.00281 17.9427 1.6001 16.7703H9.89701C9.49438 17.9427 7.73911 18.8478 5.74856 18.8478ZM2.4777 15.745L5.82881 5.52566L9.02871 15.745H2.4777ZM15.0968 5.60544C15.5402 5.89269 16.0681 6.0603 16.6347 6.0603C17.2014 6.0603 17.7294 5.89255 18.1729 5.6051V18.6592V18.6604V24.4188H15.0968V5.60544ZM21.6291 26.1268C19.3639 27.018 17.22 28.3476 16.4291 28.8603L12.3192 25.6356C12.5924 25.5107 12.8912 25.4443 13.1971 25.4443H20.0727C20.6767 25.4443 21.2354 25.6965 21.6291 26.1268Z" fill="white"/>
<path d="M34.9872 30.4971C34.704 30.4971 34.4745 30.7266 34.4745 31.0098V32.456L29.2364 32.628C29.2176 32.6286 29.199 32.6304 29.1807 32.633C29.18 32.633 29.1792 32.633 29.1785 32.6332L17.5652 34.3447C17.4913 34.3555 17.4159 34.3611 17.3409 34.3611C16.9985 34.3611 16.6616 34.2447 16.3924 34.0335L14.8153 32.796C14.5925 32.6211 14.2702 32.6601 14.0954 32.8829C13.9207 33.1057 13.9596 33.428 14.1823 33.6027L15.7595 34.8403C16.2086 35.1925 16.7702 35.3865 17.341 35.3865C17.4658 35.3865 17.5916 35.3772 17.7148 35.3591L29.2993 33.6519L30.7115 33.6055C30.7118 33.6055 30.712 33.6054 30.7123 33.6054L35.0041 33.4646C35.2806 33.4555 35.5 33.2287 35.5 32.9521V31.0097C35.4999 30.7266 35.2704 30.4971 34.9872 30.4971Z" fill="white"/>
</g>
<defs>
<clipPath id="clip0_2_160146">
<rect width="35" height="35" fill="white" transform="translate(0.5 0.386475)"/>
</clipPath>
</defs>
</svg>
