<svg width="45" height="44" viewBox="0 0 45 44" fill="none" xmlns="http://www.w3.org/2000/svg">
<path d="M42.3 13.2H37.1667V3.66667C37.1667 2.69421 36.7804 1.76158 36.0927 1.07394C35.4051 0.386308 34.4725 0 33.5 0H4.16667C3.19421 0 2.26158 0.386308 1.57394 1.07394C0.886308 1.76158 0.5 2.69421 0.5 3.66667V40.3333C0.5 41.3058 0.886308 42.2384 1.57394 42.9261C2.26158 43.6137 3.19421 44 4.16667 44H42.3C42.8829 43.9983 43.4415 43.7659 43.8537 43.3537C44.2659 42.9415 44.4983 42.3829 44.5 41.8V15.4C44.4983 14.8171 44.2659 14.2585 43.8537 13.8463C43.4415 13.4341 42.8829 13.2017 42.3 13.2ZM33.5 1.46667C34.0829 1.46841 34.6415 1.70075 35.0537 2.11296C35.4659 2.52516 35.6983 3.08373 35.7 3.66667V13.2H34.2333V8.06667C34.235 7.88453 34.1667 7.7087 34.0427 7.57533L28.55 1.46667H33.5ZM27.6333 2.64733L31.85 7.33333H28.3667C28.1722 7.33333 27.9856 7.25607 27.8481 7.11855C27.7106 6.98102 27.6333 6.79449 27.6333 6.6V2.64733ZM22.632 42.5333H4.16667C3.58373 42.5316 3.02516 42.2992 2.61296 41.887C2.20075 41.4748 1.96841 40.9163 1.96667 40.3333V3.66667C1.96841 3.08373 2.20075 2.52516 2.61296 2.11296C3.02516 1.70075 3.58373 1.46841 4.16667 1.46667H26.1667V6.6C26.1684 7.18294 26.4008 7.74151 26.813 8.15371C27.2252 8.56592 27.7837 8.79826 28.3667 8.8H32.7667V13.2H24.7C24.1171 13.2017 23.5585 13.4341 23.1463 13.8463C22.7341 14.2585 22.5017 14.8171 22.5 15.4V41.8C22.502 42.0502 22.5466 42.2982 22.632 42.5333ZM43.0333 41.8C43.0333 41.9945 42.9561 42.181 42.8185 42.3185C42.681 42.4561 42.4945 42.5333 42.3 42.5333H24.7C24.5055 42.5333 24.319 42.4561 24.1815 42.3185C24.0439 42.181 23.9667 41.9945 23.9667 41.8V15.4C23.9667 15.2055 24.0439 15.019 24.1815 14.8815C24.319 14.7439 24.5055 14.6667 24.7 14.6667H42.3C42.4945 14.6667 42.681 14.7439 42.8185 14.8815C42.9561 15.019 43.0333 15.2055 43.0333 15.4V41.8Z" fill="#140D28"/>
<path d="M40.0965 16.1333H26.8965C26.5076 16.1333 26.1345 16.2878 25.8594 16.5629C25.5844 16.8379 25.4299 17.211 25.4299 17.6V22C25.4299 22.389 25.5844 22.762 25.8594 23.0371C26.1345 23.3121 26.5076 23.4666 26.8965 23.4666H40.0965C40.4855 23.4666 40.8586 23.3121 41.1336 23.0371C41.4087 22.762 41.5632 22.389 41.5632 22V17.6C41.5632 17.211 41.4087 16.8379 41.1336 16.5629C40.8586 16.2878 40.4855 16.1333 40.0965 16.1333ZM26.8965 22V17.6H40.0965V22H26.8965Z" fill="#140D28"/>
<path d="M37.1691 19.0667H35.7024V20.5333H37.1691V19.0667Z" fill="#140D28"/>
<path d="M34.2352 19.0667H32.7685V20.5333H34.2352V19.0667Z" fill="#140D28"/>
<path d="M31.3013 19.0667H29.8347V20.5333H31.3013V19.0667Z" fill="#140D28"/>
<path d="M29.0965 30.7998H26.1632C25.9687 30.7998 25.7822 30.8771 25.6447 31.0146C25.5071 31.1521 25.4299 31.3386 25.4299 31.5331V34.4665C25.4299 34.661 25.5071 34.8475 25.6447 34.985C25.7822 35.1225 25.9687 35.1998 26.1632 35.1998H29.0965C29.291 35.1998 29.4776 35.1225 29.6151 34.985C29.7526 34.8475 29.8299 34.661 29.8299 34.4665V31.5331C29.8299 31.3386 29.7526 31.1521 29.6151 31.0146C29.4776 30.8771 29.291 30.7998 29.0965 30.7998ZM28.3632 33.7331H26.8965V32.2665H28.3632V33.7331Z" fill="#140D28"/>
<path d="M29.0965 24.9333H26.1632C25.9687 24.9333 25.7822 25.0106 25.6447 25.1481C25.5071 25.2857 25.4299 25.4722 25.4299 25.6667V28.6C25.4299 28.7945 25.5071 28.981 25.6447 29.1186C25.7822 29.2561 25.9687 29.3333 26.1632 29.3333H29.0965C29.291 29.3333 29.4776 29.2561 29.6151 29.1186C29.7526 28.981 29.8299 28.7945 29.8299 28.6V25.6667C29.8299 25.4722 29.7526 25.2857 29.6151 25.1481C29.4776 25.0106 29.291 24.9333 29.0965 24.9333ZM28.3632 27.8667H26.8965V26.4H28.3632V27.8667Z" fill="#140D28"/>
<path d="M34.9643 24.9333H32.0309C31.8364 24.9333 31.6499 25.0106 31.5124 25.1481C31.3749 25.2857 31.2976 25.4722 31.2976 25.6667V28.6C31.2976 28.7945 31.3749 28.981 31.5124 29.1186C31.6499 29.2561 31.8364 29.3333 32.0309 29.3333H34.9643C35.1588 29.3333 35.3453 29.2561 35.4828 29.1186C35.6203 28.981 35.6976 28.7945 35.6976 28.6V25.6667C35.6976 25.4722 35.6203 25.2857 35.4828 25.1481C35.3453 25.0106 35.1588 24.9333 34.9643 24.9333ZM34.2309 27.8667H32.7643V26.4H34.2309V27.8667Z" fill="#140D28"/>
<path d="M40.832 24.9333H37.8987C37.7042 24.9333 37.5177 25.0106 37.3801 25.1481C37.2426 25.2857 37.1653 25.4722 37.1653 25.6667V28.6C37.1653 28.7945 37.2426 28.981 37.3801 29.1186C37.5177 29.2561 37.7042 29.3333 37.8987 29.3333H40.832C41.0265 29.3333 41.213 29.2561 41.3506 29.1186C41.4881 28.981 41.5653 28.7945 41.5653 28.6V25.6667C41.5653 25.4722 41.4881 25.2857 41.3506 25.1481C41.213 25.0106 41.0265 24.9333 40.832 24.9333ZM40.0987 27.8667H38.632V26.4H40.0987V27.8667Z" fill="#140D28"/>
<path d="M34.9643 30.7998H32.0309C31.8364 30.7998 31.6499 30.8771 31.5124 31.0146C31.3749 31.1521 31.2976 31.3386 31.2976 31.5331V34.4665C31.2976 34.661 31.3749 34.8475 31.5124 34.985C31.6499 35.1225 31.8364 35.1998 32.0309 35.1998H34.9643C35.1588 35.1998 35.3453 35.1225 35.4828 34.985C35.6203 34.8475 35.6976 34.661 35.6976 34.4665V31.5331C35.6976 31.3386 35.6203 31.1521 35.4828 31.0146C35.3453 30.8771 35.1588 30.7998 34.9643 30.7998ZM34.2309 33.7331H32.7643V32.2665H34.2309V33.7331Z" fill="#140D28"/>
<path d="M40.832 30.7998H37.8987C37.7042 30.7998 37.5177 30.8771 37.3801 31.0146C37.2426 31.1521 37.1653 31.3386 37.1653 31.5331V34.4665C37.1653 34.661 37.2426 34.8475 37.3801 34.985C37.5177 35.1225 37.7042 35.1998 37.8987 35.1998H40.832C41.0265 35.1998 41.213 35.1225 41.3506 34.985C41.4881 34.8475 41.5653 34.661 41.5653 34.4665V31.5331C41.5653 31.3386 41.4881 31.1521 41.3506 31.0146C41.213 30.8771 41.0265 30.7998 40.832 30.7998ZM40.0987 33.7331H38.632V32.2665H40.0987V33.7331Z" fill="#140D28"/>
<path d="M29.0965 36.6667H26.1632C25.9687 36.6667 25.7822 36.744 25.6447 36.8815C25.5071 37.0191 25.4299 37.2056 25.4299 37.4001V40.3334C25.4299 40.5279 25.5071 40.7144 25.6447 40.852C25.7822 40.9895 25.9687 41.0667 26.1632 41.0667H29.0965C29.291 41.0667 29.4776 40.9895 29.6151 40.852C29.7526 40.7144 29.8299 40.5279 29.8299 40.3334V37.4001C29.8299 37.2056 29.7526 37.0191 29.6151 36.8815C29.4776 36.744 29.291 36.6667 29.0965 36.6667ZM28.3632 39.6001H26.8965V38.1334H28.3632V39.6001Z" fill="#140D28"/>
<path d="M34.9643 36.6667H32.0309C31.8364 36.6667 31.6499 36.744 31.5124 36.8815C31.3749 37.0191 31.2976 37.2056 31.2976 37.4001V40.3334C31.2976 40.5279 31.3749 40.7144 31.5124 40.852C31.6499 40.9895 31.8364 41.0667 32.0309 41.0667H34.9643C35.1588 41.0667 35.3453 40.9895 35.4828 40.852C35.6203 40.7144 35.6976 40.5279 35.6976 40.3334V37.4001C35.6976 37.2056 35.6203 37.0191 35.4828 36.8815C35.3453 36.744 35.1588 36.6667 34.9643 36.6667ZM34.2309 39.6001H32.7643V38.1334H34.2309V39.6001Z" fill="#140D28"/>
<path d="M40.832 36.6667H37.8987C37.7042 36.6667 37.5177 36.744 37.3801 36.8815C37.2426 37.0191 37.1653 37.2056 37.1653 37.4001V40.3334C37.1653 40.5279 37.2426 40.7144 37.3801 40.852C37.5177 40.9895 37.7042 41.0667 37.8987 41.0667H40.832C41.0265 41.0667 41.213 40.9895 41.3506 40.852C41.4881 40.7144 41.5653 40.5279 41.5653 40.3334V37.4001C41.5653 37.2056 41.4881 37.0191 41.3506 36.8815C41.213 36.744 41.0265 36.6667 40.832 36.6667ZM40.0987 39.6001H38.632V38.1334H40.0987V39.6001Z" fill="#140D28"/>
<path d="M13.9169 4.61457L5.11664 13.4148L6.15373 14.4519L14.954 5.65166L13.9169 4.61457Z" fill="#140D28"/>
<path d="M7.1048 8.7999C7.53992 8.7999 7.96527 8.67088 8.32705 8.42914C8.68884 8.1874 8.97082 7.8438 9.13733 7.44181C9.30385 7.03981 9.34741 6.59746 9.26253 6.1707C9.17764 5.74395 8.96811 5.35194 8.66044 5.04427C8.35276 4.73659 7.96076 4.52706 7.534 4.44218C7.10724 4.35729 6.66489 4.40086 6.2629 4.56737C5.8609 4.73388 5.51731 5.01586 5.27557 5.37765C5.03383 5.73944 4.9048 6.16478 4.9048 6.5999C4.9048 7.18338 5.13659 7.74296 5.54917 8.15554C5.96175 8.56812 6.52132 8.7999 7.1048 8.7999ZM7.1048 5.86657C7.24984 5.86657 7.39162 5.90958 7.51222 5.99016C7.63281 6.07074 7.72681 6.18527 7.78231 6.31927C7.83782 6.45327 7.85234 6.60072 7.82404 6.74297C7.79575 6.88522 7.7259 7.01589 7.62334 7.11845C7.52079 7.22101 7.39012 7.29085 7.24787 7.31915C7.10561 7.34744 6.95816 7.33292 6.82417 7.27741C6.69017 7.22191 6.57564 7.12792 6.49506 7.00732C6.41448 6.88673 6.37147 6.74494 6.37147 6.5999C6.37147 6.40541 6.44873 6.21889 6.58626 6.08136C6.72378 5.94383 6.91031 5.86657 7.1048 5.86657Z" fill="#140D28"/>
<path d="M12.9685 10.2666C12.5334 10.2666 12.1081 10.3956 11.7463 10.6374C11.3845 10.8791 11.1025 11.2227 10.936 11.6247C10.7695 12.0267 10.7259 12.469 10.8108 12.8958C10.8957 13.3226 11.1052 13.7146 11.4129 14.0222C11.7206 14.3299 12.1126 14.5394 12.5393 14.6243C12.9661 14.7092 13.4084 14.6656 13.8104 14.4991C14.2124 14.3326 14.556 14.0506 14.7978 13.6889C15.0395 13.3271 15.1685 12.9017 15.1685 12.4666C15.1685 11.8831 14.9367 11.3235 14.5242 10.911C14.1116 10.4984 13.552 10.2666 12.9685 10.2666ZM12.9685 13.1999C12.8235 13.1999 12.6817 13.1569 12.5611 13.0763C12.4405 12.9958 12.3465 12.8812 12.291 12.7472C12.2355 12.6132 12.221 12.4658 12.2493 12.3235C12.2776 12.1813 12.3474 12.0506 12.45 11.9481C12.5525 11.8455 12.6832 11.7757 12.8255 11.7474C12.9677 11.7191 13.1152 11.7336 13.2492 11.7891C13.3832 11.8446 13.4977 11.9386 13.5783 12.0592C13.6588 12.1798 13.7019 12.3216 13.7019 12.4666C13.7019 12.6611 13.6246 12.8476 13.4871 12.9851C13.3495 13.1227 13.163 13.1999 12.9685 13.1999Z" fill="#140D28"/>
<path d="M24.6971 4.3999H17.3637V5.86657H24.6971V4.3999Z" fill="#140D28"/>
<path d="M24.6971 7.33325H17.3637V8.79992H24.6971V7.33325Z" fill="#140D28"/>
<path d="M24.6971 10.2666H17.3637V11.7333H24.6971V10.2666Z" fill="#140D28"/>
<path d="M7.83813 17.6001H4.9048V19.0668H7.83813V17.6001Z" fill="#140D28"/>
<path d="M19.5643 17.6001H9.29761V19.0668H19.5643V17.6001Z" fill="#140D28"/>
<path d="M7.83813 20.5334H4.9048V22.0001H7.83813V20.5334Z" fill="#140D28"/>
<path d="M19.5643 20.5334H9.29761V22.0001H19.5643V20.5334Z" fill="#140D28"/>
<path d="M7.83813 23.4666H4.9048V24.9332H7.83813V23.4666Z" fill="#140D28"/>
<path d="M19.5643 23.4666H9.29761V24.9332H19.5643V23.4666Z" fill="#140D28"/>
<path d="M7.83813 26.3999H4.9048V27.8666H7.83813V26.3999Z" fill="#140D28"/>
<path d="M19.5643 26.3999H9.29761V27.8666H19.5643V26.3999Z" fill="#140D28"/>
<path d="M7.83813 29.3333H4.9048V30.7999H7.83813V29.3333Z" fill="#140D28"/>
<path d="M19.5643 29.3333H9.29761V30.7999H19.5643V29.3333Z" fill="#140D28"/>
<path d="M7.83813 32.2666H4.9048V33.7333H7.83813V32.2666Z" fill="#140D28"/>
<path d="M19.5643 32.2666H9.29761V33.7333H19.5643V32.2666Z" fill="#140D28"/>
</svg>
