<svg width="16" height="17" viewBox="0 0 16 17" fill="none" xmlns="http://www.w3.org/2000/svg">
<path d="M8 0.667236C7.17591 0.667236 6.37033 0.911607 5.68512 1.36945C4.99992 1.82729 4.46587 2.47803 4.1505 3.23939C3.83514 4.00075 3.75262 4.83852 3.91339 5.64678C4.07417 6.45503 4.471 7.19746 5.05372 7.78018C5.63644 8.3629 6.37887 8.75974 7.18712 8.92051C7.99538 9.08128 8.83315 8.99877 9.59451 8.6834C10.3559 8.36804 11.0066 7.83398 11.4645 7.14878C11.9223 6.46357 12.1667 5.65799 12.1667 4.8339C12.1667 3.72883 11.7277 2.66903 10.9463 1.88762C10.1649 1.10622 9.10507 0.667236 8 0.667236ZM8 7.3339C7.50555 7.3339 7.0222 7.18728 6.61107 6.91258C6.19995 6.63787 5.87952 6.24743 5.6903 5.79061C5.50108 5.3338 5.45157 4.83113 5.54804 4.34618C5.6445 3.86122 5.8826 3.41577 6.23223 3.06614C6.58186 2.7165 7.02732 2.4784 7.51227 2.38194C7.99723 2.28548 8.49989 2.33499 8.95671 2.5242C9.41352 2.71342 9.80397 3.03385 10.0787 3.44498C10.3534 3.8561 10.5 4.33945 10.5 4.8339C10.5 5.49694 10.2366 6.13283 9.76777 6.60167C9.29893 7.07051 8.66304 7.3339 8 7.3339ZM15.5 16.5006V15.6672C15.5 14.1201 14.8854 12.6364 13.7915 11.5424C12.6975 10.4485 11.2138 9.8339 9.66667 9.8339H6.33333C4.78624 9.8339 3.30251 10.4485 2.20854 11.5424C1.11458 12.6364 0.5 14.1201 0.5 15.6672V16.5006H2.16667V15.6672C2.16667 14.5622 2.60565 13.5024 3.38705 12.721C4.16846 11.9396 5.22826 11.5006 6.33333 11.5006H9.66667C10.7717 11.5006 11.8315 11.9396 12.6129 12.721C13.3943 13.5024 13.8333 14.5622 13.8333 15.6672V16.5006H15.5Z" fill="#0B1B23"/>
</svg>
