<svg width="21" height="20" viewBox="0 0 21 20" fill="none" xmlns="http://www.w3.org/2000/svg">
<path d="M6.33333 9.16797H8V10.8346H6.33333V9.16797ZM18 5.0013V16.668C18 17.5846 17.25 18.3346 16.3333 18.3346H4.66667C4.22464 18.3346 3.80072 18.159 3.48816 17.8465C3.17559 17.5339 3 17.11 3 16.668L3.00833 5.0013C3.00833 4.08464 3.74167 3.33464 4.66667 3.33464H5.5V1.66797H7.16667V3.33464H13.8333V1.66797H15.5V3.33464H16.3333C17.25 3.33464 18 4.08464 18 5.0013ZM4.66667 6.66797H16.3333V5.0013H4.66667V6.66797ZM16.3333 16.668V8.33463H4.66667V16.668H16.3333ZM13 10.8346H14.6667V9.16797H13V10.8346ZM9.66667 10.8346H11.3333V9.16797H9.66667V10.8346Z" fill="#070812"/>
</svg>
