<svg width="35" height="24" viewBox="0 0 35 24" fill="none" xmlns="http://www.w3.org/2000/svg">
<path d="M4.04061 0C2.29062 0 0.856934 1.44103 0.856934 3.2V20.8C0.856934 22.559 2.29062 24 4.04061 24H31.1018C32.8518 24 34.2855 22.559 34.2855 20.8V3.2C34.2855 1.44103 32.8518 0 31.1018 0H4.04061ZM4.04061 1.6H31.1018C31.2516 1.6 31.3884 1.62572 31.5247 1.6625L18.6656 14.7C18.0395 15.3359 17.0769 15.3359 16.452 14.7L3.63021 1.65C3.76195 1.61584 3.89646 1.6 4.04061 1.6ZM2.51095 2.8L11.9874 12.4375L2.52339 21.2625C2.48026 21.115 2.44877 20.9638 2.44877 20.8V3.2C2.44877 3.05902 2.4787 2.92923 2.51095 2.8ZM32.6315 2.8C32.6637 2.92923 32.6937 3.05902 32.6937 3.2V20.8C32.6937 20.9638 32.6622 21.115 32.6191 21.2625L23.1551 12.425L32.6315 2.8ZM22.0234 13.5625L31.45 22.35C31.3369 22.3748 31.2236 22.4 31.1018 22.4H4.04061C3.9188 22.4 3.80557 22.3748 3.69239 22.35L13.1066 13.575L15.3203 15.825C16.5491 17.0754 18.5679 17.0737 19.7973 15.825L22.0234 13.5625Z" fill="#0A4D68"/>
</svg>
