<svg width="40" height="41" viewBox="0 0 40 41" fill="none" xmlns="http://www.w3.org/2000/svg">
<path d="M6.66927 33.8327C5.75261 33.8327 4.96761 33.506 4.31427 32.8527C3.66094 32.1994 3.33483 31.4149 3.33594 30.4994V10.4994C3.33594 9.58269 3.66261 8.79768 4.31594 8.14435C4.96927 7.49102 5.75372 7.16491 6.66927 7.16602H33.3359C34.2526 7.16602 35.0376 7.49268 35.6909 8.14602C36.3443 8.79935 36.6704 9.5838 36.6693 10.4994V30.4994C36.6693 31.416 36.3426 32.201 35.6893 32.8544C35.0359 33.5077 34.2515 33.8338 33.3359 33.8327H6.66927ZM33.3359 13.8327L20.8776 21.6244C20.7387 21.7077 20.5926 21.7705 20.4393 21.8127C20.2859 21.8549 20.1404 21.8755 20.0026 21.8744C19.8637 21.8744 19.7176 21.8538 19.5643 21.8127C19.4109 21.7716 19.2654 21.7088 19.1276 21.6244L6.66927 13.8327V30.4994H33.3359V13.8327ZM20.0026 18.8327L33.3359 10.4994H6.66927L20.0026 18.8327ZM6.66927 14.2494V11.791V11.8327V11.8127V14.2494Z" fill="#070812"/>
</svg>
