<svg width="62" height="56" viewBox="0 0 62 56" fill="none" xmlns="http://www.w3.org/2000/svg">
<g id="Group">
<g id="Group_2">
<path id="Vector" d="M31.4569 13.5377C31.083 13.6682 30.2379 13.8135 29.3337 12.9419C28.9073 12.5309 28.2476 12.3824 27.7693 12.7317C27.3354 13.0487 27.2134 13.6551 27.5584 14.0672C28.1026 14.7173 28.6896 15.1537 29.2779 15.4241C29.5934 15.5691 29.8258 15.8681 29.8258 16.2153C29.8258 16.6474 30.176 16.9976 30.6081 16.9976H31.0652C31.4853 16.9976 31.8259 16.657 31.8259 16.2368V15.9098C31.8259 15.7565 31.9333 15.6363 32.078 15.5857C33.5191 15.0777 34.4952 13.7377 34.4491 12.3248C34.4251 11.5778 34.0471 9.75583 31.0689 8.95286C29.7148 8.58787 29.2157 8.01289 29.2027 7.5949C29.1887 7.15791 29.6248 6.65893 30.1948 6.45794C30.5695 6.32745 31.4147 6.18221 32.3188 7.05356C32.7453 7.46464 33.4052 7.61318 33.8836 7.26377C34.3175 6.94683 34.4397 6.34044 34.094 5.92907C33.5516 5.28352 32.9659 4.85255 32.3793 4.58446C32.0606 4.43884 31.8259 4.13724 31.8259 3.78688C31.8259 3.35122 31.4728 2.99804 31.0371 2.99804H30.5886C30.1673 2.99804 29.8258 3.33956 29.8258 3.76085V4.08779C29.8258 4.24011 29.7193 4.35912 29.5757 4.41C28.1326 4.91798 27.1575 6.25794 27.2046 7.6709C27.2276 8.41787 27.6056 10.2398 30.5838 11.0428C31.9389 11.4078 32.437 11.9828 32.45 12.4008C32.465 12.8377 32.0279 13.3367 31.4569 13.5377Z" fill="#E5B472"/>
<path id="Vector_2" d="M12.7072 41.9987C14.0187 41.9987 14.9753 40.7576 14.6413 39.4894L11.1828 26.3558C10.8598 25.1293 11.7516 23.9036 12.9798 23.5873C14.5868 23.1735 16.1757 22.4977 17.7433 21.8263C21.6085 20.1669 25.2808 18.6053 29.1353 20.7841C29.699 21.1027 30.0063 21.724 30.0063 22.3715V27.4672C30.0063 28.418 29.3076 29.2022 28.4871 29.6825C27.0042 30.5506 26.006 32.1605 26.006 33.9989V44.9985C26.006 45.5508 25.5581 45.9986 25.0058 45.9986C24.4535 45.9986 24.0058 46.4463 24.0058 46.9985C24.0058 47.5508 24.4535 47.9985 25.0058 47.9985H37.007C37.5592 47.9985 38.0069 47.5508 38.0069 46.9985C38.0069 46.4463 37.5592 45.9986 37.0069 45.9986C36.4546 45.9986 36.0068 45.5508 36.0068 44.9985V33.9989C36.0068 32.1608 35.0088 30.5506 33.5264 29.6825C32.7057 29.2019 32.0064 28.4176 32.0064 27.4665V22.3715C32.0064 21.724 32.3138 21.1027 32.8776 20.7841C36.7311 18.6062 40.4034 20.167 44.2695 21.8263C45.837 22.4983 47.4259 23.1739 49.0329 23.5875C50.2611 23.9037 51.1529 25.1293 50.83 26.3558L47.3714 39.4894C47.0375 40.7576 47.994 41.9987 49.3055 41.9987H56.7116C58.0232 41.9987 58.9797 40.7575 58.6456 39.4892L54.749 24.6979C54.5898 24.0936 54.9394 23.4794 55.5089 23.2222C55.5597 23.1992 55.6106 23.1757 55.6614 23.1515C56.1603 22.9145 56.3009 22.2914 56.008 21.8231C55.7155 21.3554 55.1015 21.2222 54.5974 21.4465C51.5832 22.788 48.5367 21.48 45.0575 19.9894C44.19 19.6172 43.2997 19.2362 42.3893 18.8949C40.6748 18.2523 39.7001 15.2668 40.3534 13.5564C40.7758 12.4508 41.0072 11.2517 41.0072 9.99969C41.0072 4.48586 36.5208 0 31.0064 0C25.4919 0 21.0055 4.48586 21.0055 9.99969C21.0055 11.2526 21.2375 12.4526 21.6606 13.5591C22.3143 15.2688 21.34 18.251 19.6259 18.8933C18.7145 19.2348 17.8234 19.6164 16.9552 19.9894C13.4755 21.4817 10.4283 22.7864 7.41577 21.4465C6.91145 21.2222 6.29719 21.3555 6.00451 21.8235C5.71167 22.2917 5.85187 22.9147 6.35071 23.1516C6.40156 23.1758 6.45239 23.1993 6.50321 23.2223C7.07307 23.4795 7.4229 24.0939 7.26365 24.6985L3.36797 39.4893C3.03393 40.7576 3.99049 41.9987 5.30201 41.9987H12.7072ZM51.8999 39.9988C50.5884 39.9988 49.6318 38.7576 49.9659 37.4893L51.0742 33.2817C51.5976 31.2943 54.4187 31.2943 54.9422 33.2817L56.0505 37.4893C56.3846 38.7576 55.428 39.9988 54.1165 39.9988H51.8999ZM34.0066 33.9989V43.9986C34.0066 45.1031 33.1112 45.9986 32.0066 45.9986H30.0061C28.9016 45.9986 28.0061 45.1031 28.0061 43.9986V33.9989C28.0061 32.345 29.3522 30.999 31.0064 30.999C32.6605 30.999 34.0066 32.345 34.0066 33.9989ZM23.0057 9.99969C23.0057 5.58883 26.595 1.99994 31.0064 1.99994C35.4177 1.99994 39.007 5.58883 39.007 9.99969C39.007 14.4106 35.4177 17.9994 31.0064 17.9994C26.595 17.9994 23.0057 14.4106 23.0057 9.99969ZM7.89626 39.9988C6.58473 39.9988 5.62817 38.7576 5.96223 37.4893L7.07052 33.2817C7.59401 31.2943 10.4151 31.2943 10.9386 33.2817L12.0469 37.4893C12.3809 38.7576 11.4244 39.9988 10.1128 39.9988H7.89626Z" fill="#E5B472"/>
<path id="Vector_3" d="M20 53.9997C20 55.1043 20.8954 55.9997 22 55.9997H40.0018C41.1064 55.9997 42.0018 55.1043 42.0018 53.9997V51.9999C42.0018 50.8954 41.1064 49.9999 40.0018 49.9999H22C20.8954 49.9999 20 50.8954 20 51.9999V53.9997ZM22.0002 52.9998C22.0002 52.4476 22.4479 51.9999 23.0001 51.9999H39.0017C39.5539 51.9999 40.0016 52.4476 40.0016 52.9998C40.0016 53.5521 39.5539 53.9998 39.0017 53.9998H23.0001C22.4479 53.9998 22.0002 53.5521 22.0002 52.9998Z" fill="#E5B472"/>
<path id="Vector_4" d="M9.00074 48.9997C5.47897 48.9997 2.5565 46.3856 2.07099 42.997C1.99265 42.4503 1.55241 41.9999 1.00008 41.9999C0.447752 41.9999 -0.00584589 42.4494 0.0550252 42.9984C0.553408 47.4931 4.37573 50.9997 9.00074 50.9997C13.6258 50.9997 17.4481 47.4931 17.9465 42.9984C18.0073 42.4494 17.5537 41.9999 17.0014 41.9999C16.4491 41.9999 16.0088 42.4503 15.9305 42.997C15.445 46.3856 12.5225 48.9997 9.00074 48.9997Z" fill="#E5B472"/>
<path id="Vector_5" d="M60.9999 41.9999C60.4476 41.9999 60.0074 42.4503 59.929 42.997C59.4435 46.3856 56.521 48.9997 52.9993 48.9997C49.4775 48.9997 46.555 46.3856 46.0695 42.997C45.9912 42.4503 45.5509 41.9999 44.9986 41.9999C44.4463 41.9999 43.9927 42.4494 44.0536 42.9984C44.5519 47.4931 48.3743 50.9997 52.9993 50.9997C57.6243 50.9997 61.4466 47.4931 61.945 42.9984C62.0059 42.4494 61.5523 41.9999 60.9999 41.9999Z" fill="#E5B472"/>
</g>
</g>
</svg>
