<svg width="53" height="48" viewBox="0 0 53 48" fill="none" xmlns="http://www.w3.org/2000/svg">
<path d="M26.7887 11.6045C26.391 11.7442 25.3674 11.9036 24.4016 10.3599L22.9922 11.3962C23.7135 12.5482 24.5703 13.1525 25.3997 13.3976V14.5701H27.103V13.4147C27.1745 13.3959 27.2495 13.3839 27.3176 13.3599C28.5448 12.9245 29.376 11.7759 29.3368 10.5648C29.3164 9.9245 28.9945 8.3628 26.4583 7.67453C25.3052 7.36167 24.8802 6.86882 24.8692 6.51054C24.8573 6.13598 25.2286 5.70827 25.714 5.53599C26.1126 5.39627 27.1362 5.23685 28.102 6.78054L29.5114 5.74427C28.7909 4.59228 27.9325 3.99744 27.103 3.75315V2.57031H25.3997V3.72572C25.3299 3.74458 25.2541 3.75658 25.1868 3.78058C23.9579 4.216 23.1276 5.36456 23.1676 6.57569C23.1872 7.21596 23.5091 8.77766 26.0453 9.46593C27.1992 9.77878 27.6233 10.2716 27.6344 10.6299C27.6472 11.0045 27.275 11.4322 26.7887 11.6045Z" fill="white"/>
<path d="M13.0301 35.9995L8.98912 20.5531C11.0637 20.4434 13.1067 19.5717 15.1089 18.7086C18.6474 17.1795 21.9961 15.7472 25.5516 18.2912V24.9442C23.6107 25.3419 22.1451 27.0733 22.1451 29.1425V39.428H20.4418V41.1423H32.3646V39.428H30.6614V29.1425C30.6614 27.0733 29.1957 25.3411 27.2549 24.9442V18.2912C30.8096 15.7481 34.1582 17.1795 37.6975 18.7086C39.6997 19.5726 41.7428 20.4434 43.8173 20.5531L39.7764 35.9995H50.5026L46.379 20.2437C46.9658 20.0603 47.5543 19.804 48.1453 19.4329L47.2426 17.98C44.428 19.75 41.6201 18.5363 38.3686 17.134C36.3145 16.2469 34.1105 15.3015 31.8043 15.1926C33.7051 13.6198 34.9195 11.2353 34.9195 8.57131C34.9195 3.84509 31.0991 0 26.4032 0C21.7074 0 17.8869 3.84509 17.8869 8.57131C17.8869 11.2344 19.1014 13.619 21.0013 15.1926C18.6951 15.3015 16.4911 16.2461 14.4378 17.134C11.1855 18.538 8.3768 19.7483 5.56387 17.98L4.66114 19.4329C5.25218 19.8049 5.84065 20.0603 6.42742 20.2437L2.30469 35.9995H13.0301ZM41.9855 34.2852L45.1391 22.234L48.2927 34.2852H41.9855ZM28.9581 29.1425V39.428H23.8483V29.1425C23.8483 27.7248 24.9946 26.5711 26.4032 26.5711C27.8118 26.5711 28.9581 27.7248 28.9581 29.1425ZM19.5902 8.57131C19.5902 4.7905 22.6467 1.71426 26.4032 1.71426C30.1598 1.71426 33.2163 4.7905 33.2163 8.57131C33.2163 12.3521 30.1598 15.4284 26.4032 15.4284C22.6467 15.4284 19.5902 12.3521 19.5902 8.57131ZM4.51381 34.2852L7.6674 22.234L10.821 34.2852H4.51381Z" fill="white"/>
<path d="M17.0312 48.0002H35.7671V42.8574H17.0312V48.0002ZM18.7345 44.5717H34.0638V46.2859H18.7345V44.5717Z" fill="white"/>
<path d="M7.66466 41.9999C4.37737 41.9999 1.70326 39.3077 1.70326 36H0C0 40.2539 3.43888 43.7142 7.66466 43.7142C11.8904 43.7142 15.3293 40.2539 15.3293 36H13.6261C13.6261 39.3077 10.9519 41.9999 7.66466 41.9999Z" fill="white"/>
<path d="M51.0948 36C51.0948 39.3077 48.4207 41.9999 45.1334 41.9999C41.8461 41.9999 39.172 39.3077 39.172 36H37.4688C37.4688 40.2539 40.9076 43.7142 45.1334 43.7142C49.3592 43.7142 52.7981 40.2539 52.7981 36H51.0948Z" fill="white"/>
</svg>
