<svg width="56" height="56" viewBox="0 0 56 56" fill="none" xmlns="http://www.w3.org/2000/svg">
<g id="Group">
<g id="Group_2">
<path id="Vector" d="M55.2896 31.9712C53.8989 29.7158 50.9577 29.0374 48.7328 30.4133L39.8875 35.8042C38.6481 36.5595 36.8817 35.6875 35.7187 34.8192C35.0638 34.3302 34.2506 34.0392 33.3755 34.0392H33.2453C32.1407 34.0392 31.2452 33.1438 31.2452 32.0392V8.58823C31.2452 7.48367 32.1407 6.58824 33.2453 6.58824H37.5755C39.083 6.58824 40.0486 8.19277 39.3426 9.5248L35.9326 15.959C35.7658 16.2738 35.4387 16.4706 35.0825 16.4706C34.4771 16.4706 33.9862 16.9622 33.9862 17.5686C33.9862 21.8068 37.4288 25.2549 41.6604 25.2549H43.8531C48.0847 25.2549 51.5274 21.8068 51.5274 17.5686C51.5274 16.9622 51.0364 16.4706 50.431 16.4706C50.0725 16.4706 49.743 16.2733 49.5737 15.9572L45.5176 8.38591C45.0818 7.57248 45.6711 6.58824 46.5939 6.58824C48.4074 6.58824 49.8829 5.11049 49.8829 3.29412C49.8829 1.47774 48.4074 0 46.5939 0H9.31887C7.50533 0 6.02989 1.47774 6.02989 3.29412C6.02989 5.11049 7.50533 6.58824 9.31887 6.58824C10.2168 6.58824 10.7919 7.54392 10.3714 8.33729L6.33199 15.9589C6.16514 16.2737 5.83802 16.4706 5.48173 16.4706C4.87623 16.4706 4.38541 16.9622 4.38541 17.5686C4.38541 21.8068 7.82809 25.2549 12.0597 25.2549H14.2523C18.4839 25.2549 21.9266 21.8068 21.9266 17.5686C21.9266 16.9622 21.4358 16.4706 20.8303 16.4706C20.4717 16.4706 20.1422 16.2733 19.9729 15.9572L16.5311 9.53268C15.8174 8.20035 16.7826 6.58824 18.2941 6.58824H22.6673C23.7719 6.58824 24.6673 7.48367 24.6673 8.58823V32.0392C24.6673 33.1438 23.7719 34.0392 22.6673 34.0392H18.8874C17.871 34.0392 16.903 33.7766 16.0883 33.2796C14.0158 32.0154 11.5939 31.5828 9.27983 31.9854C8.48128 32.1244 7.67427 31.5556 7.67427 30.7451C7.67427 30.1387 7.18345 29.6471 6.57795 29.6471H1.09632C0.490825 29.6471 0 30.1387 0 30.7451V54.902C0 55.5084 0.490825 56 1.09632 56H6.57795C7.18345 56 7.67427 55.5084 7.67427 54.902C7.67427 54.3513 8.12065 53.9049 8.67129 53.9049H28.4058C28.7394 53.9049 29.0656 53.8122 29.3493 53.6366L53.739 38.5443C55.9757 37.1608 56.6713 34.2122 55.2896 31.9712ZM43.853 23.0588H41.6603C39.8779 23.0588 38.2914 22.2023 37.2896 20.8786C36.5264 19.87 37.4712 18.6667 38.736 18.6667C41.0623 18.6667 44.4507 18.6667 46.7773 18.6667C48.0421 18.6667 48.987 19.87 48.2237 20.8786C47.2219 22.2023 45.6354 23.0588 43.853 23.0588ZM41.4673 16.4706C39.9598 16.4706 38.9942 14.8661 39.7002 13.534L40.9696 11.1388C41.7192 9.72447 43.7439 9.71995 44.4997 11.1309L45.7829 13.5262C46.4966 14.8585 45.5314 16.4706 44.0199 16.4706H41.4673ZM8.22243 3.29412C8.22243 2.68866 8.71424 2.19608 9.31876 2.19608H46.5938C47.1983 2.19608 47.6901 2.68866 47.6901 3.29412C47.6901 3.89958 47.1983 4.39216 46.5938 4.39216C34.2156 4.39216 21.7752 4.39216 9.31876 4.39216C8.71424 4.39216 8.22243 3.89958 8.22243 3.29412ZM14.2522 23.0588H12.0596C10.2772 23.0588 8.69078 22.2023 7.68898 20.8787C6.92562 19.8701 7.87061 18.6667 9.13549 18.6667C11.4625 18.6667 14.8449 18.6667 17.1757 18.6667C18.4405 18.6667 19.3861 19.8701 18.6228 20.8786C17.6211 22.2023 16.0346 23.0588 14.2522 23.0588ZM11.8666 16.4706C10.3591 16.4706 9.3935 14.866 10.0995 13.534L11.3689 11.1388C12.1185 9.72445 14.1432 9.71996 14.899 11.1309L16.1822 13.5262C16.8959 14.8585 15.9306 16.4706 14.4192 16.4706H11.8666ZM26.86 7.68456C26.86 7.07908 27.3508 6.58824 27.9563 6.58824C28.5618 6.58824 29.0526 7.07908 29.0526 7.68456V32.9429C29.0526 33.5484 28.5618 34.0392 27.9563 34.0392C27.3508 34.0392 26.86 33.5484 26.86 32.9429V7.68456ZM5.48162 52.1594C5.48162 53.0677 4.74536 53.8039 3.83714 53.8039C2.92891 53.8039 2.19265 53.0677 2.19265 52.1594V33.4876C2.19265 32.5794 2.92891 31.8431 3.83714 31.8431C4.74536 31.8431 5.48162 32.5794 5.48162 33.4876V52.1594ZM52.5867 36.6759L28.7765 51.4096C28.4603 51.6052 28.0959 51.7089 27.7241 51.7089H9.67427C8.5697 51.7089 7.67427 50.8134 7.67427 49.7089V36.0427C7.67427 35.2715 8.11222 34.5464 8.85338 34.3334C10.8839 33.7498 13.0955 34.0254 14.9478 35.1553C16.1062 35.862 17.4685 36.2354 18.8875 36.2354H33.3755C34.2987 36.2354 35.0643 36.9589 35.0821 37.8482C35.1005 38.7735 34.3606 39.5295 33.4379 39.5295H25.2155C24.61 39.5295 24.1191 40.0211 24.1191 40.6276C24.1191 41.234 24.61 41.7256 25.2155 41.7256H33.4379C34.6706 41.7256 33.5537 42.2576 49.8788 32.2855C51.0899 31.5367 52.6758 31.9113 53.424 33.1251C54.1705 34.3357 53.795 35.9286 52.5867 36.6759Z" fill="#E5B472"/>
</g>
</g>
</svg>
