<svg width="45" height="48" viewBox="0 0 45 48" fill="none" xmlns="http://www.w3.org/2000/svg">
<path d="M43.5692 20.2529H0.830841C0.610489 20.2529 0.399162 20.1646 0.24335 20.0075C0.0875373 19.8504 3.09586e-06 19.6373 3.09586e-06 19.4151V12.7127C-0.000404855 12.562 0.039512 12.414 0.115547 12.2842C0.191583 12.1545 0.300921 12.0478 0.432039 11.9755L21.8012 0.112244C21.9275 0.0387115 22.0708 0 22.2166 0C22.3625 0 22.5057 0.0387115 22.632 0.112244L43.968 11.9755C44.0991 12.0478 44.2084 12.1545 44.2845 12.2842C44.3605 12.414 44.4004 12.562 44.4 12.7127V19.4151C44.4 19.6373 44.3125 19.8504 44.1567 20.0075C44.0008 20.1646 43.7895 20.2529 43.5692 20.2529ZM1.66168 18.5773H42.7383V13.207L22.2 1.8046L1.66168 13.207V18.5773Z" fill="white"/>
<path d="M43.5692 47.9987H0.830838C0.610486 47.9987 0.399159 47.9104 0.243347 47.7533C0.0875343 47.5962 0 47.3831 0 47.1609V41.246C0 41.0238 0.0875343 40.8107 0.243347 40.6536C0.399159 40.4965 0.610486 40.4082 0.830838 40.4082H43.5692C43.7895 40.4082 44.0008 40.4965 44.1567 40.6536C44.3125 40.8107 44.4 41.0238 44.4 41.246V47.1609C44.4 47.3831 44.3125 47.5962 44.1567 47.7533C44.0008 47.9104 43.7895 47.9987 43.5692 47.9987ZM1.66168 46.3231H42.7383V42.0838H1.66168V46.3231Z" fill="white"/>
<path d="M22.2011 16.6257C21.2572 16.6274 20.334 16.3465 19.5485 15.8188C18.763 15.291 18.1504 14.54 17.7884 13.661C17.4265 12.7819 17.3313 11.8143 17.5151 10.8806C17.6988 9.94702 18.1532 9.08938 18.8206 8.41633C19.4881 7.74328 20.3386 7.2851 21.2645 7.09981C22.1904 6.91452 23.1499 7.01046 24.0217 7.37548C24.8935 7.7405 25.6382 8.35817 26.1616 9.15028C26.685 9.9424 26.9635 10.8733 26.9618 11.8251C26.9596 13.0977 26.4574 14.3174 25.565 15.2172C24.6727 16.117 23.4631 16.6235 22.2011 16.6257ZM22.2011 8.69178C21.5862 8.69012 20.9846 8.87248 20.4725 9.21577C19.9605 9.55906 19.5609 10.0478 19.3244 10.6202C19.088 11.1926 19.0252 11.8229 19.1442 12.4313C19.2632 13.0397 19.5584 13.5987 19.9927 14.0378C20.4269 14.4768 20.9806 14.7761 21.5836 14.8977C22.1866 15.0193 22.8118 14.9577 23.38 14.7208C23.9483 14.4839 24.4341 14.0823 24.7759 13.5668C25.1177 13.0514 25.3002 12.4452 25.3002 11.8251C25.3002 10.9956 24.9739 10.1999 24.393 9.61248C23.812 9.0251 23.0238 8.694 22.2011 8.69178Z" fill="white"/>
<path d="M10.287 42.0848H3.26639C3.04603 42.0848 2.83471 41.9965 2.67889 41.8394C2.52308 41.6823 2.43555 41.4692 2.43555 41.247V19.414C2.43555 19.1918 2.52308 18.9787 2.67889 18.8216C2.83471 18.6644 3.04603 18.5762 3.26639 18.5762H10.287C10.5073 18.5762 10.7186 18.6644 10.8745 18.8216C11.0303 18.9787 11.1178 19.1918 11.1178 19.414V41.247C11.1178 41.4692 11.0303 41.6823 10.8745 41.8394C10.7186 41.9965 10.5073 42.0848 10.287 42.0848ZM4.09722 40.4092H9.45613V20.2518H4.09722V40.4092Z" fill="white"/>
<path d="M41.1346 42.0848H34.114C33.8937 42.0848 33.6824 41.9965 33.5265 41.8394C33.3707 41.6823 33.2832 41.4692 33.2832 41.247V19.414C33.2832 19.1918 33.3707 18.9787 33.5265 18.8216C33.6824 18.6644 33.8937 18.5762 34.114 18.5762H41.1346C41.355 18.5762 41.5663 18.6644 41.7221 18.8216C41.8779 18.9787 41.9655 19.1918 41.9655 19.414V41.247C41.9655 41.357 41.944 41.466 41.9022 41.5676C41.8605 41.6693 41.7993 41.7616 41.7221 41.8394C41.645 41.9172 41.5534 41.9789 41.4526 42.021C41.3518 42.0631 41.2437 42.0848 41.1346 42.0848ZM34.9449 40.4092H40.3038V20.2518H34.9449V40.4092Z" fill="white"/>
<path d="M22.2014 36.9337C21.1799 36.9769 20.1828 36.611 19.4279 35.9156C18.673 35.2203 18.2214 34.2521 18.1719 33.2222C18.1719 33 18.2594 32.7869 18.4152 32.6298C18.571 32.4727 18.7824 32.3844 19.0027 32.3844C19.2231 32.3844 19.4344 32.4727 19.5902 32.6298C19.746 32.7869 19.8336 33 19.8336 33.2222C19.8865 33.8062 20.1638 34.3461 20.6063 34.7265C21.0488 35.1069 21.6213 35.2977 22.2014 35.2581C22.7816 35.2977 23.3541 35.1069 23.7966 34.7265C24.2391 34.3461 24.5164 33.8062 24.5693 33.2222C24.5226 32.6345 24.2476 32.0891 23.8042 31.7047C23.3608 31.3203 22.7847 31.128 22.2014 31.1696C21.1785 31.2128 20.1803 30.8457 19.4251 30.1486C18.6699 29.4515 18.2193 28.4811 18.1719 27.4498C18.2193 26.4185 18.6699 25.4482 19.4251 24.751C20.1803 24.0539 21.1785 23.6868 22.2014 23.73C23.2244 23.6868 24.2226 24.0539 24.9778 24.751C25.733 25.4482 26.1836 26.4185 26.231 27.4498C26.231 27.672 26.1435 27.8851 25.9877 28.0422C25.8318 28.1993 25.6205 28.2876 25.4002 28.2876C25.1798 28.2876 24.9685 28.1993 24.8127 28.0422C24.6569 27.8851 24.5693 27.672 24.5693 27.4498C24.5205 26.8635 24.2447 26.3203 23.8015 25.9376C23.3583 25.555 22.7834 25.3639 22.2014 25.4056C21.6195 25.3639 21.0446 25.555 20.6014 25.9376C20.1582 26.3203 19.8823 26.8635 19.8336 27.4498C19.8844 28.0352 20.1609 28.5772 20.6036 28.9594C21.0463 29.3416 21.62 29.5336 22.2014 29.494C23.2257 29.4509 24.2252 29.8191 24.9806 30.5181C25.736 31.217 26.1857 32.1895 26.231 33.2222C26.1814 34.2521 25.7299 35.2203 24.975 35.9156C24.22 36.611 23.223 36.9769 22.2014 36.9337Z" fill="white"/>
<path d="M22.2019 39.153C21.9816 39.153 21.7703 39.0647 21.6144 38.9076C21.4586 38.7505 21.3711 38.5374 21.3711 38.3152V22.33C21.3711 22.1078 21.4586 21.8947 21.6144 21.7376C21.7703 21.5805 21.9816 21.4922 22.2019 21.4922C22.4223 21.4922 22.6336 21.5805 22.7894 21.7376C22.9452 21.8947 23.0328 22.1078 23.0328 22.33V38.3152C23.0328 38.5374 22.9452 38.7505 22.7894 38.9076C22.6336 39.0647 22.4223 39.153 22.2019 39.153Z" fill="white"/>
</svg>
