<svg width="21" height="21" viewBox="0 0 21 21" fill="none" xmlns="http://www.w3.org/2000/svg">
<g id="ant-design:file-pdf-outlined">
<path id="Vector" d="M10.877 12.1953L10.8828 12.168C10.9961 11.7012 11.1387 11.1191 11.0273 10.5918C10.9531 10.1758 10.6465 10.0137 10.3848 10.002C10.0762 9.98828 9.80078 10.1641 9.73242 10.4199C9.60352 10.8887 9.71875 11.5293 9.92969 12.3457C9.66406 12.9785 9.24023 13.8984 8.92969 14.4453C8.35156 14.7441 7.57617 15.2051 7.46094 15.7871C7.4375 15.8945 7.46484 16.0312 7.5293 16.1543C7.60156 16.291 7.7168 16.3965 7.85156 16.4473C7.91016 16.4688 7.98047 16.4863 8.0625 16.4863C8.40625 16.4863 8.96289 16.209 9.70508 14.9355C9.81836 14.8984 9.93555 14.8594 10.0488 14.8203C10.5801 14.6406 11.1309 14.4531 11.6289 14.3691C12.1797 14.6641 12.8066 14.8535 13.2324 14.8535C13.6543 14.8535 13.8203 14.6035 13.8828 14.4531C13.9922 14.1895 13.9395 13.8574 13.7617 13.6797C13.5039 13.4258 12.877 13.3594 11.9004 13.4805C11.4199 13.1875 11.1055 12.7891 10.877 12.1953ZM8.73438 15.1621C8.46289 15.5566 8.25781 15.7539 8.14648 15.8398C8.27734 15.5996 8.5332 15.3457 8.73438 15.1621ZM10.4453 10.5625C10.5469 10.7363 10.5332 11.2617 10.4551 11.5273C10.3594 11.1387 10.3457 10.5879 10.4023 10.5234C10.418 10.5254 10.4316 10.5371 10.4453 10.5625ZM10.4141 12.916C10.623 13.2773 10.8867 13.5879 11.1777 13.8184C10.7559 13.9141 10.3711 14.0723 10.0273 14.2129C9.94531 14.2461 9.86523 14.2793 9.78711 14.3105C10.0469 13.8398 10.2637 13.3066 10.4141 12.916ZM13.4531 14.1953C13.4551 14.1992 13.457 14.2051 13.4453 14.2129H13.4414L13.4375 14.2188C13.4219 14.2285 13.2617 14.3223 12.5723 14.0508C13.3652 14.0137 13.4512 14.1934 13.4531 14.1953ZM17.1914 6.61328L12.9883 2.41016C12.8711 2.29297 12.7129 2.22656 12.5469 2.22656H4.25C3.9043 2.22656 3.625 2.50586 3.625 2.85156V19.1016C3.625 19.4473 3.9043 19.7266 4.25 19.7266H16.75C17.0957 19.7266 17.375 19.4473 17.375 19.1016V7.05664C17.375 6.89062 17.3086 6.73047 17.1914 6.61328ZM15.9336 7.34375H12.2578V3.66797L15.9336 7.34375ZM15.9688 18.3203H5.03125V3.63281H10.9297V7.85156C10.9297 8.06912 11.0161 8.27777 11.17 8.43161C11.3238 8.58545 11.5324 8.67188 11.75 8.67188H15.9688V18.3203Z" fill="#070812"/>
</g>
</svg>
