<svg width="24" height="24" viewBox="0 0 24 24" fill="none" xmlns="http://www.w3.org/2000/svg">
<g id="ph:phone-call">
<path id="Vector" d="M14.2753 3.55575C14.3008 3.46056 14.3447 3.37133 14.4047 3.29315C14.4647 3.21496 14.5394 3.14935 14.6248 3.10008C14.7101 3.0508 14.8043 3.01882 14.902 3.00596C14.9996 2.99309 15.0989 2.99961 15.1941 3.02512C16.5844 3.38789 17.853 4.11473 18.869 5.13078C19.8851 6.14684 20.6119 7.41538 20.9747 8.80575C21.0002 8.90092 21.0067 9.00018 20.9939 9.09786C20.981 9.19555 20.949 9.28974 20.8997 9.37506C20.8505 9.46039 20.7849 9.53516 20.7067 9.59512C20.6285 9.65508 20.5393 9.69904 20.4441 9.7245C20.3807 9.74114 20.3155 9.74964 20.25 9.74981C20.0847 9.74981 19.9241 9.69521 19.793 9.59451C19.662 9.4938 19.5679 9.35263 19.5253 9.19293C19.2295 8.05792 18.6363 7.02235 17.8069 6.19296C16.9775 5.36356 15.9419 4.77036 14.8069 4.4745C14.7116 4.44914 14.6223 4.40525 14.544 4.34533C14.4657 4.28542 14.4 4.21066 14.3506 4.12533C14.3013 4.04 14.2692 3.94577 14.2563 3.84803C14.2433 3.7503 14.2498 3.65098 14.2753 3.55575ZM14.0569 7.4745C15.3497 7.8195 16.1803 8.65012 16.5253 9.94293C16.5679 10.1026 16.662 10.2438 16.793 10.3445C16.9241 10.4452 17.0847 10.4998 17.25 10.4998C17.3155 10.4996 17.3807 10.4911 17.4441 10.4745C17.5393 10.449 17.6285 10.4051 17.7067 10.3451C17.7849 10.2852 17.8505 10.2104 17.8997 10.1251C17.949 10.0397 17.981 9.94555 17.9939 9.84786C18.0067 9.75018 18.0002 9.65092 17.9747 9.55575C17.4947 7.7595 16.2403 6.50512 14.4441 6.02512C14.3489 5.9997 14.2497 5.99327 14.152 6.0062C14.0544 6.01913 13.9602 6.05117 13.8749 6.10049C13.7897 6.1498 13.7149 6.21543 13.655 6.29363C13.5951 6.37182 13.5512 6.46105 13.5258 6.55622C13.5004 6.65138 13.4939 6.75063 13.5069 6.84828C13.5198 6.94593 13.5518 7.04008 13.6012 7.12535C13.6505 7.21062 13.7161 7.28534 13.7943 7.34525C13.8725 7.40516 13.9617 7.44907 14.0569 7.4745ZM21.7388 16.4136C21.5716 17.6839 20.9477 18.85 19.9837 19.6939C19.0196 20.5379 17.7813 21.0021 16.5 20.9998C9.05626 20.9998 3.00001 14.9436 3.00001 7.49981C2.99771 6.21852 3.4619 4.98021 4.30588 4.01615C5.14986 3.05209 6.31592 2.42822 7.58626 2.26106C7.9075 2.22184 8.2328 2.28756 8.51362 2.44841C8.79444 2.60926 9.0157 2.85662 9.14438 3.15356L11.1244 7.57387V7.58512C11.2229 7.81242 11.2636 8.06059 11.2428 8.30744C11.222 8.5543 11.1404 8.79217 11.0053 8.99981C10.9884 9.02512 10.9706 9.04856 10.9519 9.072L9.00001 11.3857C9.7022 12.8126 11.1947 14.292 12.6403 14.9961L14.9222 13.0545C14.9446 13.0357 14.9681 13.0181 14.9925 13.002C15.2 12.8636 15.4387 12.7792 15.687 12.7562C15.9353 12.7333 16.1854 12.7727 16.4147 12.8707L16.4269 12.8764L20.8434 14.8554C21.1409 14.9837 21.3889 15.2047 21.5503 15.4856C21.7116 15.7664 21.7778 16.092 21.7388 16.4136ZM20.25 16.2261H20.2397L15.8334 14.2526L13.5506 16.1942C13.5285 16.2129 13.5053 16.2305 13.4813 16.2467C13.2654 16.3907 13.0159 16.4762 12.7571 16.495C12.4983 16.5137 12.239 16.465 12.0047 16.3536C10.2488 15.5051 8.49845 13.7679 7.64907 12.0307C7.5366 11.7981 7.48613 11.5404 7.50255 11.2825C7.51898 11.0246 7.60174 10.7754 7.74282 10.5589C7.75872 10.5335 7.77659 10.5093 7.79626 10.4867L9.75001 8.17012L7.78126 3.76387C7.78089 3.76013 7.78089 3.75636 7.78126 3.75262C6.87212 3.87122 6.03739 4.31715 5.43339 5.00692C4.8294 5.69669 4.49755 6.58297 4.50001 7.49981C4.50348 10.6813 5.76888 13.7316 8.01856 15.9813C10.2682 18.2309 13.3185 19.4963 16.5 19.4998C17.4163 19.503 18.3023 19.1723 18.9925 18.5696C19.6827 17.9669 20.1297 17.1335 20.25 16.2251V16.2261Z" fill="#0A141C"/>
</g>
</svg>
