<svg width="40" height="32" viewBox="0 0 40 32" fill="none" xmlns="http://www.w3.org/2000/svg">
<g id="Top Burlingame Realtor _ Burlingame Real Estate _ Burlingame Homes for Sale-13 (1) 1">
<path id="Vector" d="M17.4653 2.73296C15.8109 3.64176 13.9549 4.92496 12.2925 6.69776C11.1351 7.91663 10.2701 9.38275 9.7628 10.9852C9.25554 12.5877 9.11934 14.2845 9.3645 15.9474C9.38669 16.1058 9.463 16.2516 9.5805 16.3602C10.4395 16.0556 11.3547 15.942 12.2621 16.0274C13.8077 16.1714 15.1853 16.869 16.2413 17.9202C16.5199 18.1812 16.7683 18.4726 16.9821 18.789C17.9789 20.1714 18.5133 21.9458 18.3581 23.8258C18.0333 27.789 14.7757 30.7218 11.0845 30.3778L9.9997 30.277C7.4461 30.0386 2.4685 28.1282 2.4077 21.2882C2.3469 14.4466 4.1901 10.0162 9.4925 5.12016C11.9069 2.89296 14.7613 1.79536 17.1549 1.26096C17.9821 1.07536 18.2189 2.31696 17.4653 2.73296ZM37.2733 2.73296C35.6189 3.64176 33.7629 4.92496 32.1005 6.69776C30.9431 7.91663 30.0781 9.38275 29.5708 10.9852C29.0635 12.5877 28.9273 14.2845 29.1725 15.9474C29.1947 16.1058 29.271 16.2516 29.3885 16.3602C30.2475 16.0555 31.1627 15.9419 32.0701 16.0274C33.6157 16.1714 34.9933 16.869 36.0493 17.9202C36.3279 18.1812 36.5763 18.4726 36.7901 18.789C37.7869 20.1714 38.3213 21.9458 38.1661 23.8258C37.8413 27.789 34.5837 30.7218 30.8909 30.3778L29.8077 30.277C27.2541 30.0386 22.2765 28.1282 22.2157 21.2882C22.1549 14.4466 23.9981 10.0178 29.3005 5.12176C31.7149 2.89296 34.5693 1.79536 36.9597 1.26096C37.7885 1.07536 38.0269 2.31696 37.2733 2.73296Z" stroke="#FF7D00" stroke-width="1.5"/>
</g>
</svg>
