<svg width="45" height="48" viewBox="0 0 45 48" fill="none" xmlns="http://www.w3.org/2000/svg">
<path d="M43.5692 20.2529H0.830841C0.610489 20.2529 0.399162 20.1646 0.24335 20.0075C0.0875373 19.8504 3.09586e-06 19.6373 3.09586e-06 19.4151V12.7127C-0.000404855 12.562 0.039512 12.414 0.115547 12.2842C0.191583 12.1545 0.300921 12.0478 0.432039 11.9755L21.8012 0.112244C21.9275 0.0387115 22.0708 0 22.2166 0C22.3625 0 22.5057 0.0387115 22.632 0.112244L43.968 11.9755C44.0991 12.0478 44.2084 12.1545 44.2845 12.2842C44.3605 12.414 44.4004 12.562 44.4 12.7127V19.4151C44.4 19.6373 44.3125 19.8504 44.1567 20.0075C44.0008 20.1646 43.7895 20.2529 43.5692 20.2529ZM1.66168 18.5773H42.7383V13.207L22.2 1.8046L1.66168 13.207V18.5773Z" fill="#FF7D00"/>
<path d="M43.5692 47.9987H0.830838C0.610486 47.9987 0.399159 47.9104 0.243347 47.7533C0.0875343 47.5962 0 47.3831 0 47.1609V41.246C0 41.0238 0.0875343 40.8107 0.243347 40.6536C0.399159 40.4965 0.610486 40.4082 0.830838 40.4082H43.5692C43.7895 40.4082 44.0008 40.4965 44.1567 40.6536C44.3125 40.8107 44.4 41.0238 44.4 41.246V47.1609C44.4 47.3831 44.3125 47.5962 44.1567 47.7533C44.0008 47.9104 43.7895 47.9987 43.5692 47.9987ZM1.66168 46.3231H42.7383V42.0838H1.66168V46.3231Z" fill="#FF7D00"/>
<path d="M22.1992 16.6257C21.2553 16.6274 20.3321 16.3465 19.5465 15.8188C18.761 15.291 18.1485 14.54 17.7865 13.661C17.4245 12.7819 17.3294 11.8143 17.5131 10.8806C17.6969 9.94702 18.1512 9.08938 18.8187 8.41633C19.4861 7.74328 20.3367 7.2851 21.2625 7.09981C22.1884 6.91452 23.148 7.01046 24.0197 7.37548C24.8915 7.7405 25.6362 8.35817 26.1596 9.15028C26.683 9.9424 26.9615 10.8733 26.9599 11.8251C26.9577 13.0977 26.4554 14.3174 25.5631 15.2172C24.6708 16.117 23.4611 16.6235 22.1992 16.6257ZM22.1992 8.69178C21.5843 8.69012 20.9827 8.87248 20.4706 9.21577C19.9585 9.55906 19.5589 10.0478 19.3225 10.6202C19.086 11.1926 19.0233 11.8229 19.1422 12.4313C19.2612 13.0397 19.5565 13.5987 19.9907 14.0378C20.425 14.4768 20.9786 14.7761 21.5816 14.8977C22.1846 15.0193 22.8098 14.9577 23.3781 14.7208C23.9464 14.4839 24.4321 14.0823 24.774 13.5668C25.1158 13.0514 25.2982 12.4452 25.2982 11.8251C25.2982 10.9956 24.972 10.1999 24.391 9.61248C23.8101 9.0251 23.0219 8.694 22.1992 8.69178Z" fill="#FF7D00"/>
<path d="M10.2889 42.0848H3.26834C3.04799 42.0848 2.83666 41.9965 2.68085 41.8394C2.52503 41.6823 2.4375 41.4692 2.4375 41.247V19.414C2.4375 19.1918 2.52503 18.9787 2.68085 18.8216C2.83666 18.6644 3.04799 18.5762 3.26834 18.5762H10.2889C10.5093 18.5762 10.7206 18.6644 10.8764 18.8216C11.0322 18.9787 11.1198 19.1918 11.1198 19.414V41.247C11.1198 41.4692 11.0322 41.6823 10.8764 41.8394C10.7206 41.9965 10.5093 42.0848 10.2889 42.0848ZM4.09918 40.4092H9.45808V20.2518H4.09918V40.4092Z" fill="#FF7D00"/>
<path d="M41.1327 42.0848H34.1121C33.8917 42.0848 33.6804 41.9965 33.5246 41.8394C33.3688 41.6823 33.2812 41.4692 33.2812 41.247V19.414C33.2812 19.1918 33.3688 18.9787 33.5246 18.8216C33.6804 18.6644 33.8917 18.5762 34.1121 18.5762H41.1327C41.353 18.5762 41.5644 18.6644 41.7202 18.8216C41.876 18.9787 41.9635 19.1918 41.9635 19.414V41.247C41.9635 41.357 41.942 41.466 41.9003 41.5676C41.8585 41.6693 41.7973 41.7616 41.7202 41.8394C41.643 41.9172 41.5514 41.9789 41.4506 42.021C41.3498 42.0631 41.2418 42.0848 41.1327 42.0848ZM34.9429 40.4092H40.3018V20.2518H34.9429V40.4092Z" fill="#FF7D00"/>
<path d="M22.2014 36.9337C21.1799 36.9769 20.1828 36.611 19.4279 35.9156C18.673 35.2203 18.2214 34.2521 18.1719 33.2222C18.1719 33 18.2594 32.7869 18.4152 32.6298C18.571 32.4727 18.7824 32.3844 19.0027 32.3844C19.2231 32.3844 19.4344 32.4727 19.5902 32.6298C19.746 32.7869 19.8336 33 19.8336 33.2222C19.8865 33.8062 20.1638 34.3461 20.6063 34.7265C21.0488 35.1069 21.6213 35.2977 22.2014 35.2581C22.7816 35.2977 23.3541 35.1069 23.7966 34.7265C24.2391 34.3461 24.5164 33.8062 24.5693 33.2222C24.5226 32.6345 24.2476 32.0891 23.8042 31.7047C23.3608 31.3203 22.7847 31.128 22.2014 31.1696C21.1785 31.2128 20.1803 30.8457 19.4251 30.1486C18.6699 29.4515 18.2193 28.4811 18.1719 27.4498C18.2193 26.4185 18.6699 25.4482 19.4251 24.751C20.1803 24.0539 21.1785 23.6868 22.2014 23.73C23.2244 23.6868 24.2226 24.0539 24.9778 24.751C25.733 25.4482 26.1836 26.4185 26.231 27.4498C26.231 27.672 26.1435 27.8851 25.9877 28.0422C25.8318 28.1993 25.6205 28.2876 25.4002 28.2876C25.1798 28.2876 24.9685 28.1993 24.8127 28.0422C24.6569 27.8851 24.5693 27.672 24.5693 27.4498C24.5205 26.8635 24.2447 26.3203 23.8015 25.9376C23.3583 25.555 22.7834 25.3639 22.2014 25.4056C21.6195 25.3639 21.0446 25.555 20.6014 25.9376C20.1582 26.3203 19.8823 26.8635 19.8336 27.4498C19.8844 28.0352 20.1609 28.5772 20.6036 28.9594C21.0463 29.3416 21.62 29.5336 22.2014 29.494C23.2257 29.4509 24.2252 29.8191 24.9806 30.5181C25.736 31.217 26.1857 32.1895 26.231 33.2222C26.1814 34.2521 25.7299 35.2203 24.975 35.9156C24.22 36.611 23.223 36.9769 22.2014 36.9337Z" fill="#FF7D00"/>
<path d="M22.2019 39.153C21.9816 39.153 21.7703 39.0647 21.6144 38.9076C21.4586 38.7505 21.3711 38.5374 21.3711 38.3152V22.33C21.3711 22.1078 21.4586 21.8947 21.6144 21.7376C21.7703 21.5805 21.9816 21.4922 22.2019 21.4922C22.4223 21.4922 22.6336 21.5805 22.7894 21.7376C22.9452 21.8947 23.0328 22.1078 23.0328 22.33V38.3152C23.0328 38.5374 22.9452 38.7505 22.7894 38.9076C22.6336 39.0647 22.4223 39.153 22.2019 39.153Z" fill="#FF7D00"/>
</svg>
