<svg width="48" height="49" viewBox="0 0 48 49" fill="none" xmlns="http://www.w3.org/2000/svg">
<path d="M11.6128 0.53125C5.20951 0.53125 0 5.74076 0 12.1441C0 18.5474 5.20951 23.7569 11.6128 23.7569H23.2256V12.1441C23.2256 5.74076 18.0161 0.53125 11.6128 0.53125ZM21.6772 22.2085H11.6128C6.06343 22.2085 1.54837 17.6934 1.54837 12.1441C1.54837 6.59468 6.06343 2.07962 11.6128 2.07962C17.1622 2.07962 21.6772 6.59468 21.6772 12.1441V22.2085Z" fill="#FF7D00"/>
<path d="M14.1676 4.01953L13.7031 5.49668C15.8732 6.18029 17.5764 7.88427 18.2608 10.0543L19.7371 9.58826C18.9018 6.93667 16.8192 4.85488 14.1676 4.01953Z" fill="#FF7D00"/>
<path d="M0 36.9194C0 43.3228 5.20951 48.5323 11.6128 48.5323C18.0161 48.5323 23.2256 43.3228 23.2256 36.9194V25.3066H11.6128C5.20951 25.3066 0 30.5161 0 36.9194ZM21.6772 36.9194C21.6772 42.4688 17.1622 46.9839 11.6128 46.9839C6.06343 46.9839 1.54837 42.4688 1.54837 36.9194C1.54837 31.3701 6.06343 26.855 11.6128 26.855H21.6772V36.9194Z" fill="#FF7D00"/>
<path d="M9.5223 30.2721L9.05778 28.7949C6.40619 29.6303 4.3244 31.7128 3.48828 34.3637L4.96466 34.8297C5.64904 32.6597 7.35302 30.9557 9.5223 30.2721Z" fill="#FF7D00"/>
<path d="M47.9991 12.1441C47.9991 5.74076 42.7895 0.53125 36.3862 0.53125C29.9829 0.53125 24.7734 5.74076 24.7734 12.1441V23.7569H36.3862C42.7895 23.7569 47.9991 18.5474 47.9991 12.1441ZM26.3218 12.1441C26.3218 6.59468 30.8369 2.07962 36.3862 2.07962C41.9356 2.07962 46.4507 6.59468 46.4507 12.1441C46.4507 17.6934 41.9356 22.2085 36.3862 22.2085H26.3218V12.1441Z" fill="#FF7D00"/>
<path d="M38.4766 18.792L38.9418 20.2692C41.5934 19.4338 43.6752 17.3513 44.5113 14.7004L43.035 14.2344C42.3498 16.4044 40.6458 18.1084 38.4766 18.792Z" fill="#FF7D00"/>
<path d="M36.3862 25.3066H24.7734V36.9194C24.7734 43.3228 29.9829 48.5323 36.3862 48.5323C42.7895 48.5323 47.9991 43.3228 47.9991 36.9194C47.9991 30.5161 42.7895 25.3066 36.3862 25.3066ZM41.9743 45.2838L40.9648 44.2742L42.3529 42.8861L41.2582 41.7914L39.8701 43.1795L38.6422 41.9517L40.0303 40.5635L38.9356 39.4688L37.5475 40.857L35.9326 39.242L38.7088 36.4658L44.7506 42.5075C44.0159 43.6046 43.0713 44.5491 41.9743 45.2838ZM35.6121 34.9174L36.8399 36.1453L35.6121 37.3731L34.3842 36.1453L35.6121 34.9174ZM45.5309 41.0985L38.7088 34.2764L37.9346 35.0506L35.6121 32.728L34.4508 33.8893L29.1917 28.6302L28.097 29.7249L33.3561 34.984L32.1948 36.1453L34.5174 38.4678L33.7432 39.242L40.5653 46.0641C39.2902 46.6487 37.8781 46.9839 36.3862 46.9839C30.8369 46.9839 26.3218 42.4688 26.3218 36.9194V26.855H36.3862C41.9356 26.855 46.4507 31.3701 46.4507 36.9194C46.4507 38.4113 46.1155 39.8234 45.5309 41.0985Z" fill="#FF7D00"/>
<path d="M38.9411 28.7949L38.4766 30.2721C40.6466 30.9557 42.3498 32.6597 43.0342 34.8297L44.5106 34.3637C43.6752 31.7121 41.5927 29.6303 38.9411 28.7949Z" fill="#FF7D00"/>
<path d="M11.5727 6.36338C10.8055 5.59771 9.78668 5.17578 8.70359 5.17578C6.46542 5.17578 4.64453 6.99667 4.64453 9.23407C4.64453 10.3187 5.06646 11.3383 5.83368 12.104L11.6517 17.9235C12.4189 18.6892 13.4377 19.1111 14.5208 19.1111C16.759 19.1111 18.5799 17.2903 18.5799 15.0529C18.5799 13.9682 18.158 12.9486 17.3907 12.1829L11.5727 6.36338ZM6.19291 9.23407C6.19291 7.84982 7.31935 6.72416 8.70359 6.72416C9.37404 6.72416 10.0042 6.98506 10.4788 7.45886L12.8401 9.8209L9.28965 13.3713L6.92761 11.0085C6.45381 10.5355 6.19291 9.90529 6.19291 9.23407ZM14.5208 17.5628C13.8504 17.5628 13.2202 17.3019 12.7456 16.8281L10.3844 14.466L13.9348 10.9156L16.2968 13.2784C16.7706 13.7515 17.0315 14.3816 17.0315 15.0529C17.0315 16.4371 15.9051 17.5628 14.5208 17.5628Z" fill="#FF7D00"/>
<path d="M41.805 11.3693C41.805 7.95434 39.0264 5.17578 35.6115 5.17578C32.1965 5.17578 29.418 7.95434 29.418 11.3693C29.418 14.7842 32.1965 17.5628 35.6115 17.5628C39.0264 17.5628 41.805 14.7842 41.805 11.3693ZM35.6115 6.72416C36.6133 6.72416 37.5392 7.04622 38.2987 7.58737L31.8296 14.0565C31.2884 13.297 30.9663 12.3711 30.9663 11.3693C30.9663 8.80749 33.0497 6.72416 35.6115 6.72416ZM35.6115 16.0144C34.6097 16.0144 33.6837 15.6923 32.9243 15.1512L39.3934 8.68208C39.9345 9.44155 40.2566 10.3675 40.2566 11.3693C40.2566 13.9311 38.1733 16.0144 35.6115 16.0144Z" fill="#FF7D00"/>
<path d="M6.19531 39.2407C6.19531 41.3751 7.93181 43.1116 10.0662 43.1116C14.7617 43.1116 18.5823 39.291 18.5823 34.5955C18.5823 32.4611 16.8458 30.7246 14.7114 30.7246C10.0159 30.7246 6.19531 34.5452 6.19531 39.2407ZM14.7114 32.273C15.9919 32.273 17.0339 33.315 17.0339 34.5955C17.0339 38.4378 13.9078 41.5632 10.0662 41.5632C8.78574 41.5632 7.74369 40.5212 7.74369 39.2407C7.74369 35.3984 10.8699 32.273 14.7114 32.273Z" fill="#FF7D00"/>
<path d="M13.3859 34.8212L10.2891 37.918L11.3839 39.0128L14.4807 35.916L13.3859 34.8212Z" fill="#FF7D00"/>
</svg>
