<svg width="60" height="61" viewBox="0 0 60 61" fill="none" xmlns="http://www.w3.org/2000/svg">
<g id="Group">
<path id="Vector" d="M14.5161 0.531982C6.51194 0.531982 0 7.04392 0 15.0481C0 23.0523 6.51194 29.5642 14.5161 29.5642H29.0323V15.0481C29.0323 7.04392 22.5203 0.531982 14.5161 0.531982ZM27.0968 27.6288H14.5161C7.57935 27.6288 1.93548 21.9849 1.93548 15.0481C1.93548 8.11134 7.57935 2.46747 14.5161 2.46747C21.4529 2.46747 27.0968 8.11134 27.0968 15.0481V27.6288Z" fill="#027B7A"/>
<path id="Vector_2" d="M17.71 4.89294L17.1294 6.7394C19.842 7.59391 21.971 9.72391 22.8265 12.4365L24.672 11.8539C23.6278 8.5394 21.0246 5.93714 17.71 4.89294Z" fill="#027B7A"/>
<path id="Vector_3" d="M0 46.0164C0 54.0206 6.51194 60.5325 14.5161 60.5325C22.5203 60.5325 29.0323 54.0206 29.0323 46.0164V31.5002H14.5161C6.51194 31.5002 0 38.0122 0 46.0164ZM27.0968 46.0164C27.0968 52.9531 21.4529 58.597 14.5161 58.597C7.57935 58.597 1.93548 52.9531 1.93548 46.0164C1.93548 39.0796 7.57935 33.4357 14.5161 33.4357H27.0968V46.0164Z" fill="#027B7A"/>
<path id="Vector_4" d="M11.9034 37.7075L11.3228 35.8611C8.00826 36.9053 5.406 39.5085 4.36084 42.8221L6.20632 43.4046C7.06181 40.692 9.19181 38.5621 11.9034 37.7075Z" fill="#027B7A"/>
<path id="Vector_5" d="M59.9995 15.0481C59.9995 7.04392 53.4876 0.531982 45.4834 0.531982C37.4792 0.531982 30.9673 7.04392 30.9673 15.0481V29.5642H45.4834C53.4876 29.5642 59.9995 23.0523 59.9995 15.0481ZM32.9028 15.0481C32.9028 8.11134 38.5466 2.46747 45.4834 2.46747C52.4202 2.46747 58.0641 8.11134 58.0641 15.0481C58.0641 21.9849 52.4202 27.6288 45.4834 27.6288H32.9028V15.0481Z" fill="#027B7A"/>
<path id="Vector_6" d="M48.0967 23.3576L48.6783 25.2041C51.9928 24.1599 54.5951 21.5567 55.6402 18.2431L53.7947 17.6605C52.9383 20.3731 50.8083 22.5031 48.0967 23.3576Z" fill="#027B7A"/>
<path id="Vector_7" d="M45.4834 31.5002H30.9673V46.0164C30.9673 54.0206 37.4792 60.5325 45.4834 60.5325C53.4876 60.5325 59.9995 54.0206 59.9995 46.0164C59.9995 38.0122 53.4876 31.5002 45.4834 31.5002ZM52.4686 56.4719L51.2066 55.2099L52.9418 53.4748L51.5734 52.1064L49.8383 53.8415L48.3034 52.3067L50.0386 50.5715L48.6702 49.2031L46.935 50.9383L44.9163 48.9196L48.3866 45.4493L55.9389 53.0015C55.0205 54.3728 53.8399 55.5535 52.4686 56.4719ZM44.5157 43.5138L46.0505 45.0486L44.5157 46.5835L42.9808 45.0486L44.5157 43.5138ZM56.9144 51.2402L48.3866 42.7125L47.4189 43.6802L44.5157 40.777L43.0641 42.2286L36.4902 35.6548L35.1218 37.0231L41.6957 43.597L40.2441 45.0486L43.1473 47.9519L42.1795 48.9196L50.7073 57.4473C49.1134 58.178 47.3483 58.597 45.4834 58.597C38.5466 58.597 32.9028 52.9531 32.9028 46.0164V33.4357H45.4834C52.4202 33.4357 58.0641 39.0796 58.0641 46.0164C58.0641 47.8812 57.645 49.6464 56.9144 51.2402Z" fill="#027B7A"/>
<path id="Vector_8" d="M48.6773 35.8611L48.0967 37.7075C50.8093 38.5621 52.9383 40.692 53.7938 43.4046L55.6393 42.8221C54.5951 39.5075 51.9918 36.9053 48.6773 35.8611Z" fill="#027B7A"/>
<path id="Vector_9" d="M14.467 7.82204C13.5079 6.86494 12.2344 6.33752 10.8805 6.33752C8.08277 6.33752 5.80664 8.61365 5.80664 11.4104C5.80664 12.7662 6.33406 14.0408 7.29309 14.9978L14.5657 22.2724C15.5247 23.2295 16.7983 23.7569 18.1521 23.7569C20.9499 23.7569 23.226 21.4807 23.226 18.684C23.226 17.3282 22.6986 16.0537 21.7395 15.0966L14.467 7.82204ZM7.74212 11.4104C7.74212 9.6801 9.15019 8.27301 10.8805 8.27301C11.7186 8.27301 12.5063 8.59914 13.0995 9.1914L16.0512 12.144L11.6131 16.582L8.66051 13.6285C8.06825 13.0372 7.74212 12.2495 7.74212 11.4104ZM18.1521 21.8214C17.3141 21.8214 16.5263 21.4953 15.9331 20.903L12.9815 17.9504L17.4195 13.5124L20.3721 16.4659C20.9644 17.0572 21.2905 17.8449 21.2905 18.684C21.2905 20.4143 19.8824 21.8214 18.1521 21.8214Z" fill="#027B7A"/>
<path id="Vector_10" d="M52.2578 14.0795C52.2578 9.81075 48.7846 6.33752 44.5159 6.33752C40.2472 6.33752 36.7739 9.81075 36.7739 14.0795C36.7739 18.3482 40.2472 21.8214 44.5159 21.8214C48.7846 21.8214 52.2578 18.3482 52.2578 14.0795ZM44.5159 8.27301C45.7681 8.27301 46.9255 8.67559 47.8749 9.35204L39.7884 17.4385C39.112 16.4891 38.7094 15.3317 38.7094 14.0795C38.7094 10.8772 41.3136 8.27301 44.5159 8.27301ZM44.5159 19.8859C43.2636 19.8859 42.1062 19.4833 41.1568 18.8069L49.2433 10.7204C49.9197 11.6698 50.3223 12.8272 50.3223 14.0795C50.3223 17.2817 47.7181 19.8859 44.5159 19.8859Z" fill="#027B7A"/>
<path id="Vector_11" d="M7.74219 48.9192C7.74219 51.5873 9.91283 53.7579 12.5809 53.7579C18.4503 53.7579 23.2261 48.9821 23.2261 43.1128C23.2261 40.4447 21.0554 38.274 18.3873 38.274C12.518 38.274 7.74219 43.0499 7.74219 48.9192ZM18.3873 40.2095C19.988 40.2095 21.2906 41.5121 21.2906 43.1128C21.2906 47.9157 17.3828 51.8224 12.5809 51.8224C10.9803 51.8224 9.67767 50.5199 9.67767 48.9192C9.67767 44.1163 13.5854 40.2095 18.3873 40.2095Z" fill="#027B7A"/>
<path id="Vector_12" d="M16.7348 43.3957L12.8638 47.2667L14.2324 48.6353L18.1034 44.7643L16.7348 43.3957Z" fill="#027B7A"/>
</g>
</svg>
