<svg width="48" height="48" viewBox="0 0 48 48" fill="none" xmlns="http://www.w3.org/2000/svg">
<g id="038-tax">
<g id="Group">
<path id="Vector" fill-rule="evenodd" clip-rule="evenodd" d="M24 24.8437C29.1636 24.8437 33.375 20.6323 33.375 15.4687C32.8955 3.05023 15.1029 3.0536 14.6251 15.4688C14.6251 20.6324 18.8365 24.8437 24 24.8437Z" fill="#2B495A"/>
<g id="Group_2">
<path id="Vector_2" d="M43.6874 3.74999H40.8749V0.937496C40.8749 0.419811 40.455 0 39.9374 0H8.06248C5.4778 0 3.375 2.1028 3.375 4.68748V43.3125C3.375 45.8972 5.4778 48 8.06248 48H43.6873C44.205 48 44.6248 47.5802 44.6248 47.0625V4.68748C44.6249 4.1698 44.2052 3.74999 43.6874 3.74999ZM38.9999 38.625H8.99998V1.87499H38.9999V38.625ZM5.25009 4.68748C5.25009 3.46527 6.03383 2.42258 7.12508 2.03568V38.7193C6.43274 38.8603 5.79533 39.1545 5.25009 39.5647V4.68748ZM8.06257 46.125C4.33565 45.9832 4.33846 40.6406 8.06257 40.5H39V42.375H8.06257C6.82002 42.4212 6.82096 44.2044 8.06257 44.25H39V46.125H8.06257ZM42.7499 46.125H40.8749V5.62498H42.7499V46.125Z" fill="#2B495A"/>
<path id="Vector_3" d="M22.002 35.3437C22.5197 35.3437 22.9395 34.9238 22.9395 34.4062V33.4686H24.8145V34.4062C24.8606 35.6487 26.6437 35.6478 26.6895 34.4062V30.6562C26.5476 26.9292 21.205 26.9321 21.0645 30.6562V34.4062C21.0645 34.9238 21.4842 35.3437 22.002 35.3437ZM22.9395 30.6562C22.9868 29.414 24.7676 29.4148 24.8145 30.6562V31.5936H22.9395V30.6562Z" fill="#2B495A"/>
<path id="Vector_4" d="M28.2681 35.2159C28.7076 35.4746 29.2879 35.3298 29.5503 34.8785L30.3811 33.4542L31.212 34.8785C31.4744 35.3298 32.0546 35.4744 32.4942 35.2159C32.9415 34.9551 33.0925 34.381 32.8316 33.9337L31.4665 31.5936L32.8315 29.2536C33.0924 28.8063 32.9414 28.2323 32.4941 27.9714C32.0467 27.7104 31.4727 27.8616 31.2119 28.3088L30.3811 29.7331L29.5502 28.3088C29.2895 27.8617 28.7158 27.7107 28.268 27.9714C27.8207 28.2322 27.6697 28.8063 27.9306 29.2536L29.2956 31.5936L27.9305 33.9337C27.6698 34.3809 27.8208 34.9549 28.2681 35.2159Z" fill="#2B495A"/>
<path id="Vector_5" d="M15.9785 29.7188H16.6816V34.4062C16.7278 35.6487 18.511 35.6478 18.5566 34.4062V29.7188H19.2598C20.5023 29.6726 20.5014 27.8894 19.2598 27.8438H15.9785C14.7359 27.8899 14.7369 29.6731 15.9785 29.7188Z" fill="#2B495A"/>
<path id="Vector_6" d="M23.1359 16.1257L24.1465 16.5443C24.374 16.6385 24.5518 16.8175 24.6475 17.0482C24.7431 17.279 24.7437 17.5314 24.6494 17.759C24.5552 17.9866 24.3762 18.1644 24.1455 18.26C23.9147 18.3557 23.6623 18.3563 23.4348 18.2622L22.9296 18.053C22.4514 17.855 21.9028 18.082 21.7047 18.5602C21.5065 19.0386 21.7336 19.587 22.2119 19.7851L22.7172 19.9944C22.8306 20.0413 22.9458 20.0805 23.0623 20.112V20.6251C23.1085 21.8676 24.8917 21.8667 24.9373 20.6251V19.9602C25.595 19.6659 26.106 19.1418 26.3817 18.4765C26.6676 17.7862 26.6668 17.0242 26.3796 16.3307C26.0924 15.6372 25.554 15.0979 24.8638 14.812L23.8533 14.3933C23.6259 14.2991 23.4479 14.1201 23.3523 13.8894C23.2567 13.6586 23.256 13.4062 23.3503 13.1786C23.4446 12.9511 23.6235 12.7732 23.8542 12.6776C24.085 12.582 24.3374 12.5814 24.565 12.6755L25.0702 12.8847C25.5484 13.083 26.097 12.8557 26.295 12.3774C26.4932 11.899 26.2661 11.3507 25.7877 11.1526L25.2824 10.9432C25.1692 10.8964 25.0539 10.8572 24.9373 10.8258V10.3127C24.8912 9.07011 23.108 9.07105 23.0623 10.3127V10.9775C22.4047 11.2717 21.8936 11.7959 21.618 12.4612C21.3321 13.1515 21.3328 13.9135 21.6201 14.6071C21.9074 15.3005 22.4457 15.8398 23.1359 16.1257Z" fill="white"/>
</g>
</g>
</g>
</svg>
