<svg width="40" height="40" viewBox="0 0 40 40" fill="none" xmlns="http://www.w3.org/2000/svg">
<path fill-rule="evenodd" clip-rule="evenodd" d="M12.1879 18.0449H27.8167C28.6763 18.0449 29.3796 18.7483 29.3796 19.6078V28.9851C29.3796 29.8446 28.6762 30.548 27.8167 30.548H12.1879C11.3284 30.548 10.625 29.8447 10.625 28.9851V19.6078C10.625 18.7481 11.3283 18.0449 12.1879 18.0449Z" fill="#FF5722"/>
<path d="M39.2235 36.4098L39.2235 34.0655C39.2235 33.6339 38.8735 33.284 38.442 33.284H37.6526L37.2781 15.3109H38.4419C38.8735 15.3109 39.2234 14.961 39.2234 14.5294V11.4037C40.2591 11.3652 40.2583 9.87883 39.2234 9.84077H38.6007L20.3048 2.08832C20.1099 2.00572 19.89 2.00572 19.6951 2.08832L1.39907 9.84085H0.7765C-0.259224 9.8793 -0.258442 11.3657 0.7765 11.4037H0.776578V14.5295C0.776578 14.9611 1.12651 15.3109 1.55802 15.3109H2.72182L2.34735 33.2841H1.55802C1.12651 33.2841 0.776578 33.634 0.776578 34.0656V36.4099H0.7765C-0.259224 36.4483 -0.258442 37.9347 0.7765 37.9728H39.2235C40.2592 37.9342 40.2584 36.4479 39.2235 36.4098ZM36.0893 33.2841H32.9802L33.3547 15.3109H35.7149L36.0893 33.2841ZM8.58303 33.2841L8.20856 15.3109H31.7914L31.4169 33.2841H8.58303ZM20 3.65651L34.595 9.84085H27.9045L20.3048 6.62068C20.1099 6.53808 19.89 6.53808 19.6951 6.62068L12.0955 9.84085H5.40498L20 3.65651ZM23.8985 9.84085H16.1014L20 8.18896L23.8985 9.84085ZM2.33946 11.4037H37.6606V13.7481H2.33946V11.4037ZM4.2851 15.3109H6.64537L7.01983 33.284H3.91063L4.2851 15.3109ZM2.33946 34.847H37.6606V36.4099H2.33946V34.847Z" fill="#FF5722"/>
<path d="M19.8966 21.1719C18.6039 21.1719 17.5522 22.2235 17.5522 23.5162V26.642C17.5907 27.6777 19.0771 27.6769 19.1151 26.642V25.8605H20.678V26.642C20.7165 27.6777 22.2028 27.6769 22.2409 26.642V23.5162C22.2409 22.2235 21.1892 21.1719 19.8966 21.1719ZM20.678 24.2976H19.1151V23.5162C19.1545 22.4807 20.6389 22.4815 20.678 23.5162V24.2976Z" fill="white"/>
<path d="M26.2241 24.2968L27.362 22.3462C27.8524 21.4344 26.5637 20.6836 26.0121 21.5588L25.3195 22.746L24.627 21.5588C24.4097 21.186 23.9315 21.06 23.5582 21.2775C23.1854 21.495 23.0595 21.9735 23.277 22.3462L24.4149 24.2968L23.277 26.2473C23.0595 26.6202 23.1854 27.0987 23.5582 27.316C23.9246 27.5315 24.4083 27.411 24.627 27.0348L25.3195 25.8476L26.0121 27.0348C26.2308 27.4111 26.7144 27.5315 27.0808 27.316C27.4537 27.0986 27.5795 26.6201 27.3621 26.2473L26.2241 24.2968Z" fill="white"/>
<path d="M16.0471 21.1719H13.3121C12.2764 21.2103 12.2772 22.6967 13.3121 22.7348H13.8981V26.642C13.9366 27.6777 15.423 27.6769 15.461 26.642V22.7348H16.0471C17.0828 22.6963 17.0821 21.2099 16.0471 21.1719Z" fill="white"/>
</svg>
