<svg width="45" height="40" viewBox="0 0 45 40" fill="none" xmlns="http://www.w3.org/2000/svg">
<path d="M22.832 9.67077C22.493 9.7872 21.6206 9.92005 20.7975 8.63364L19.5962 9.4972C20.211 10.4572 20.9412 10.9607 21.6482 11.165V12.1422H23.0999V11.1793C23.1608 11.1636 23.2247 11.1536 23.2828 11.1336C24.3287 10.7707 25.0371 9.81362 25.0037 8.80436C24.9863 8.27079 24.712 6.96939 22.5504 6.39583C21.5676 6.13512 21.2054 5.72441 21.196 5.42585C21.1858 5.11371 21.5023 4.75729 21.916 4.61372C22.2557 4.49729 23.1282 4.36444 23.9513 5.65084L25.1525 4.78729C24.5385 3.8273 23.8068 3.3316 23.0999 3.12803V2.14233H21.6482V3.10517C21.5886 3.12089 21.524 3.13089 21.4667 3.15089C20.4193 3.51374 19.7116 4.47086 19.7457 5.48013C19.7624 6.01369 20.0368 7.3151 22.1984 7.88866C23.1819 8.14937 23.5433 8.56007 23.5528 8.85864C23.5637 9.17078 23.2465 9.5272 22.832 9.67077Z" fill="#FF5722"/>
<path d="M11.1057 29.9995L7.66153 17.1275C9.42969 17.0361 11.171 16.3097 12.8775 15.5904C15.8934 14.3162 18.7474 13.1226 21.7778 15.2426V20.7868C20.1236 21.1182 18.8744 22.561 18.8744 24.2853V32.8565H17.4227V34.2851H27.5846V32.8565H26.1329V24.2853C26.1329 22.561 24.8837 21.1175 23.2295 20.7868V15.2426C26.2592 13.1233 29.1132 14.3162 32.1298 15.5904C33.8363 16.3104 35.5776 17.0361 37.3457 17.1275L33.9016 29.9995H43.0436L39.5291 16.8697C40.0292 16.7168 40.5308 16.5033 41.0345 16.194L40.2651 14.9833C37.8662 16.4583 35.4731 15.4469 32.7018 14.2783C30.951 13.539 29.0725 12.7512 27.107 12.6605C28.727 11.3498 29.7621 9.36269 29.7621 7.14273C29.7621 3.20423 26.506 0 22.5036 0C18.5013 0 15.2452 3.20423 15.2452 7.14273C15.2452 9.36197 16.2802 11.3491 17.8996 12.6605C15.934 12.7512 14.0555 13.5383 12.3055 14.2783C9.53348 15.4483 7.13964 16.4568 4.74217 14.9833L3.97277 16.194C4.47651 16.504 4.97807 16.7168 5.47818 16.8697L1.96436 29.9995H11.1057ZM35.7845 28.5709L38.4723 18.5282L41.1601 28.5709H35.7845ZM24.6812 24.2853V32.8565H20.3261V24.2853C20.3261 23.1039 21.3031 22.1425 22.5036 22.1425C23.7042 22.1425 24.6812 23.1039 24.6812 24.2853ZM16.6969 7.14273C16.6969 3.99207 19.3019 1.42855 22.5036 1.42855C25.7053 1.42855 28.3104 3.99207 28.3104 7.14273C28.3104 10.2934 25.7053 12.8569 22.5036 12.8569C19.3019 12.8569 16.6969 10.2934 16.6969 7.14273ZM3.8472 28.5709L6.53501 18.5282L9.22282 28.5709H3.8472Z" fill="#FF5722"/>
<path d="M14.5156 39.9997H30.4842V35.7141H14.5156V39.9997ZM15.9673 37.1427H29.0326V38.5712H15.9673V37.1427Z" fill="#FF5722"/>
<path d="M6.53262 34.9999C3.73085 34.9999 1.45169 32.7564 1.45169 30H0C0 33.5449 2.93097 36.4285 6.53262 36.4285C10.1343 36.4285 13.0652 33.5449 13.0652 30H11.6135C11.6135 32.7564 9.33439 34.9999 6.53262 34.9999Z" fill="#FF5722"/>
<path d="M43.5481 30C43.5481 32.7564 41.269 34.9999 38.4672 34.9999C35.6654 34.9999 33.3863 32.7564 33.3863 30H31.9346C31.9346 33.5449 34.8655 36.4285 38.4672 36.4285C42.0688 36.4285 44.9998 33.5449 44.9998 30H43.5481Z" fill="#FF5722"/>
</svg>
