<svg width="48" height="48" viewBox="0 0 48 48" fill="none" xmlns="http://www.w3.org/2000/svg">
<path d="M47.3911 27.4039C46.1991 25.4707 43.678 24.8892 41.771 26.0685L31.925 32.0693C31.7221 30.4463 30.3 29.1765 28.6076 29.1765H26.7816V5.64706H35.0562L30.567 14.1176H30.0707C29.5518 14.1176 29.131 14.539 29.131 15.0588C29.131 18.6916 32.0819 21.6471 35.709 21.6471H37.5884C41.2154 21.6471 44.1663 18.6916 44.1663 15.0588C44.1663 14.539 43.7455 14.1176 43.2266 14.1176H42.7274L38.1896 5.64706H39.9376C41.4921 5.64706 42.7568 4.38042 42.7568 2.82353C42.7568 1.26664 41.4921 0 39.9376 0H7.9876C6.43314 0 5.16848 1.26664 5.16848 2.82353C5.16848 4.38042 6.43314 5.64706 7.9876 5.64706H9.68434L5.19498 14.1176H4.69863C4.17963 14.1176 3.75892 14.539 3.75892 15.0588C3.75892 18.6916 6.70979 21.6471 10.3369 21.6471H12.2163C15.8434 21.6471 18.7942 18.6916 18.7942 15.0588C18.7942 14.539 18.3735 14.1176 17.8545 14.1176H17.3554L12.8175 5.64706H21.1434V29.1765H16.1892C15.318 29.1765 14.4883 28.9513 13.79 28.5254C11.5966 27.1875 8.94676 26.9362 6.57795 27.7774V26.3529C6.57795 25.8331 6.15724 25.4118 5.63824 25.4118H0.939707C0.420707 25.4118 0 25.8331 0 26.3529V47.0588C0 47.5786 0.420707 48 0.939707 48H5.63824C6.15724 48 6.57795 47.5786 6.57795 47.0588V46.2042H24.3478C24.6338 46.2042 24.9134 46.1247 25.1565 45.9742L46.062 33.0379C47.9792 31.8521 48.5754 29.3247 47.3911 27.4039ZM37.5883 19.7647H35.7089C33.4398 19.7647 31.5413 18.1453 31.1048 16C32.3061 16 40.988 16 42.1924 16C41.7559 18.1453 39.8573 19.7647 37.5883 19.7647ZM32.6947 14.1176L36.6234 6.70485L40.5945 14.1176H32.6947ZM7.0478 2.82353C7.0478 2.30456 7.46935 1.88235 7.98751 1.88235H39.9375C40.4557 1.88235 40.8772 2.30456 40.8772 2.82353C40.8772 3.34249 40.4557 3.76471 39.9375 3.76471C29.3277 3.76471 18.6645 3.76471 7.98751 3.76471C7.46935 3.76471 7.0478 3.34249 7.0478 2.82353ZM12.2162 19.7647H10.3368C8.06776 19.7647 6.16927 18.1453 5.73259 16C6.97516 16 15.5389 16 16.8203 16C16.3837 18.1453 14.4852 19.7647 12.2162 19.7647ZM7.32267 14.1176L11.2514 6.70485L15.2224 14.1176H7.32267ZM23.0228 5.64706H24.9022V29.1765H23.0228V5.64706ZM4.69853 46.1176H1.87941V27.2941H4.69853V46.1176ZM45.0744 31.4365L24.251 44.3219H6.57795V29.8118C8.56731 28.8636 10.9107 28.9731 12.8124 30.1331C13.8053 30.7388 14.973 31.0589 16.1893 31.0589H28.6076C29.3989 31.0589 30.0551 31.6791 30.0703 32.4413C30.0861 33.2344 29.4519 33.8825 28.6611 33.8825H21.6133C21.0943 33.8825 20.6735 34.3038 20.6735 34.8236C20.6735 35.3434 21.0943 35.7648 21.6133 35.7648H28.6611C29.7177 35.7648 28.7603 36.2208 42.7533 27.6733C43.7914 27.0314 45.1507 27.3526 45.792 28.3929C46.4319 29.4306 46.11 30.796 45.0744 31.4365Z" fill="#FF7D00"/>
</svg>
