<svg width="40" height="40" viewBox="0 0 40 40" fill="none" xmlns="http://www.w3.org/2000/svg">
<path d="M36.6663 31.3335H35.333V30.0002C35.333 29.6315 35.0343 29.3335 34.6663 29.3335H31.9997C31.6317 29.3335 31.333 29.6315 31.333 30.0002V31.3335H29.9997C29.6317 31.3335 29.333 31.6315 29.333 32.0002V34.6668C29.333 35.0355 29.6317 35.3335 29.9997 35.3335H31.333V36.6668C31.333 37.0355 31.6317 37.3335 31.9997 37.3335H34.6663C35.0343 37.3335 35.333 37.0355 35.333 36.6668V35.3335H36.6663C37.0343 35.3335 37.333 35.0355 37.333 34.6668V32.0002C37.333 31.6315 37.0343 31.3335 36.6663 31.3335ZM35.9996 34.0001H34.6663C34.2983 34.0001 33.9997 34.2981 33.9997 34.6668V36.0001H32.6663V34.6668C32.6663 34.2981 32.3677 34.0001 31.9997 34.0001H30.6663V32.6668H31.9997C32.3677 32.6668 32.6663 32.3688 32.6663 32.0002V30.6668H33.9997V32.0002C33.9997 32.3688 34.2983 32.6668 34.6663 32.6668H35.9996V34.0001Z" fill="#FF5722"/>
<path d="M13.9997 15.333H25.9996C26.3676 15.333 26.6663 15.035 26.6663 14.6663C26.6663 10.9903 23.6756 7.99969 19.9996 7.99969C16.3237 7.99969 13.333 10.9903 13.333 14.6663C13.333 15.035 13.6317 15.333 13.9997 15.333ZM25.2916 13.9997H20.6663V9.37969C23.0743 9.68235 24.9896 11.5917 25.2916 13.9997ZM19.333 9.37969V13.9997H14.7077C15.0097 11.5917 16.925 9.68235 19.333 9.37969Z" fill="#FF5722"/>
<path d="M39.9226 32.374C39.8986 32.2067 39.8713 32.04 39.8346 31.8774C39.8153 31.79 39.7906 31.704 39.768 31.6174C39.7293 31.4714 39.6866 31.3274 39.6386 31.186C39.6073 31.0934 39.5733 31.0027 39.538 30.912C39.4873 30.782 39.4313 30.6547 39.3726 30.5287C39.3286 30.4347 39.2853 30.3407 39.2373 30.2487C39.176 30.132 39.1086 30.0194 39.0406 29.9067C38.9853 29.814 38.9326 29.72 38.8726 29.63C38.7886 29.5047 38.696 29.3854 38.6033 29.266C38.4933 29.1234 38.3766 28.986 38.2546 28.8527C38.1713 28.7614 38.09 28.6694 38.002 28.5834C37.92 28.5027 37.8326 28.4274 37.746 28.3507C37.652 28.2674 37.5566 28.1854 37.4573 28.1067C37.4146 28.0727 37.3766 28.034 37.3326 28.0014V20.6667H39.3326C39.602 20.6667 39.8453 20.5047 39.9486 20.2554C40.052 20.0061 39.9946 19.7194 39.804 19.5288L34 13.7241V2.00016C34 1.63149 33.7013 1.33349 33.3333 1.33349H26.6667C26.2987 1.33349 26 1.63149 26 2.00016V5.72414L20.4714 0.195499C20.2107 -0.0651664 19.7894 -0.0651664 19.5287 0.195499L0.195459 19.5288C0.00479281 19.7194 -0.0525403 20.0061 0.0507926 20.2554C0.154126 20.5047 0.397458 20.6667 0.66679 20.6667H2.66678V36.6667C2.66678 37.0353 2.96545 37.3333 3.33345 37.3333H7.33343H19.3334H28.0013C28.0327 37.3747 28.0687 37.4107 28.1007 37.4513C28.1833 37.556 28.27 37.6567 28.358 37.756C28.4307 37.838 28.5027 37.9213 28.5787 37.9993C28.6713 38.094 28.77 38.182 28.8687 38.2707C28.9853 38.3767 29.1047 38.4787 29.228 38.576C29.3593 38.6793 29.492 38.7813 29.6313 38.8747C29.7187 38.9333 29.81 38.984 29.9 39.038C30.0147 39.1073 30.13 39.176 30.2493 39.2387C30.3407 39.2867 30.434 39.3293 30.5273 39.3727C30.654 39.432 30.782 39.4873 30.912 39.5387C31.0027 39.574 31.0933 39.6073 31.1853 39.6387C31.3273 39.6873 31.4713 39.7293 31.6173 39.768C31.704 39.7907 31.7893 39.8153 31.8767 39.8347C32.04 39.8713 32.206 39.898 32.3733 39.9227C32.448 39.9333 32.5207 39.9487 32.596 39.9567C32.8387 39.9833 33.084 40 33.3333 40C37.0093 40 40 37.0093 40 33.3334C40 33.084 39.984 32.838 39.9566 32.596C39.9486 32.5214 39.9333 32.448 39.9226 32.374ZM27.3333 2.66682H32.6667V12.3908L27.3333 7.05747V2.66682ZM20 1.60949L26.1953 7.8048L32.862 14.4714L37.724 19.3334H36.6666H3.33345H2.27612L20 1.60949ZM8.00009 36V28.6667C8.00009 25.7261 10.3927 23.3334 13.3334 23.3334C16.2741 23.3334 18.6667 25.7261 18.6667 28.6667V36H8.00009ZM20 36V28.6667C20 24.9907 17.0094 22.0001 13.3334 22.0001C9.65742 22.0001 6.66676 24.9907 6.66676 28.6667V36H4.00011V20.6667H36V27.2274C35.576 27.0414 35.1306 26.8961 34.6666 26.8014V23.3334C34.6666 22.9647 34.368 22.6667 34 22.6667H23.3334C22.9654 22.6667 22.6667 22.9647 22.6667 23.3334V30C22.6667 30.3687 22.9654 30.6667 23.3334 30.6667H27.2273C26.8687 31.484 26.6667 32.3854 26.6667 33.3334C26.6667 34.2814 26.8687 35.1827 27.2273 36H20ZM32.596 26.7101C32.5213 26.7181 32.448 26.7334 32.3733 26.7441C32.206 26.7681 32.04 26.7954 31.8767 26.8321C31.7893 26.8514 31.704 26.8761 31.6173 26.8987C31.4713 26.9374 31.3273 26.9801 31.1853 27.0281C31.0933 27.0594 31.0027 27.0927 30.9127 27.1281C30.782 27.1794 30.654 27.2354 30.5273 27.2941C30.434 27.3374 30.3407 27.3807 30.2493 27.4281C30.1307 27.4901 30.016 27.5587 29.902 27.6281C29.8113 27.6827 29.7193 27.7334 29.632 27.7927C29.4967 27.8834 29.3673 27.9834 29.2393 28.0834C29.11 28.184 28.986 28.2907 28.864 28.4014C28.768 28.4881 28.672 28.574 28.5813 28.666C28.5033 28.746 28.43 28.8307 28.3553 28.9147C28.2693 29.012 28.1847 29.11 28.104 29.212C28.0713 29.2534 28.034 29.2907 28.002 29.3327H24V23.9994H33.3333V26.6661C33.084 26.6667 32.8387 26.6834 32.596 26.7101ZM33.3333 38.6667C33.1273 38.6667 32.9233 38.652 32.7213 38.6287C32.66 38.622 32.6007 38.61 32.54 38.6007C32.3993 38.5793 32.2593 38.554 32.1213 38.522C32.0533 38.506 31.986 38.488 31.9187 38.47C31.7893 38.4347 31.662 38.3933 31.5367 38.3487C31.4713 38.3253 31.4053 38.3027 31.3413 38.2773C31.204 38.222 31.0707 38.1593 30.9387 38.0927C30.8927 38.0693 30.8447 38.05 30.7993 38.0253C30.6347 37.9367 30.4767 37.8373 30.322 37.7313C30.2553 37.686 30.1927 37.6353 30.1287 37.5867C30.0367 37.5173 29.9453 37.446 29.858 37.3707C29.792 37.314 29.7287 37.2553 29.6653 37.196C29.5793 37.1147 29.4967 37.0293 29.416 36.9413C29.3633 36.884 29.3093 36.8287 29.2593 36.7693C29.136 36.6227 29.0173 36.4707 28.9087 36.3093C28.3353 35.458 28 34.434 28 33.3334C28 32.2314 28.336 31.2067 28.9107 30.356C29.0187 30.196 29.136 30.0454 29.2587 29.9C29.31 29.8387 29.3653 29.7814 29.42 29.7227C29.4993 29.6367 29.58 29.5527 29.6647 29.4727C29.7287 29.412 29.7933 29.3527 29.86 29.2954C29.9467 29.2207 30.0367 29.15 30.128 29.0814C30.1927 29.032 30.256 28.9814 30.3233 28.9354C30.4773 28.8294 30.636 28.7307 30.8 28.642C30.8453 28.6174 30.894 28.598 30.94 28.5747C31.072 28.5087 31.2053 28.4454 31.342 28.39C31.406 28.364 31.472 28.3421 31.5373 28.3187C31.6633 28.2734 31.7907 28.2327 31.9193 28.1974C31.9867 28.1787 32.054 28.1607 32.122 28.1454C32.26 28.1134 32.3993 28.088 32.5407 28.0667C32.6013 28.0574 32.6607 28.046 32.722 28.0387C32.9233 28.0147 33.1273 28.0001 33.3333 28.0001C33.534 28.0001 33.732 28.0141 33.9273 28.0354C34.8033 28.1327 35.6166 28.4414 36.3126 28.912C36.4713 29.0187 36.6206 29.1354 36.7653 29.2567C36.8286 29.31 36.8886 29.368 36.9493 29.424C37.0326 29.5007 37.114 29.5794 37.1913 29.6607C37.254 29.726 37.3146 29.7927 37.374 29.8614C37.4466 29.9454 37.5146 30.0327 37.5813 30.1214C37.632 30.1887 37.6853 30.254 37.7326 30.324C37.8373 30.4774 37.936 30.6347 38.024 30.798C38.05 30.846 38.0706 30.8974 38.0953 30.946C38.16 31.0754 38.222 31.206 38.276 31.34C38.3026 31.4054 38.3253 31.4727 38.3493 31.5394C38.394 31.664 38.4346 31.79 38.47 31.918C38.4886 31.986 38.5066 32.054 38.5226 32.1227C38.5546 32.26 38.58 32.3994 38.6006 32.5394C38.61 32.6 38.6213 32.66 38.6286 32.7214C38.652 32.9234 38.6666 33.1274 38.6666 33.3334C38.6666 36.274 36.274 38.6667 33.3333 38.6667Z" fill="#FF5722"/>
<path d="M15.333 28.6662C14.2303 28.6662 13.333 29.5635 13.333 30.6662C13.333 31.7689 14.2303 32.6662 15.333 32.6662C16.4357 32.6662 17.333 31.7689 17.333 30.6662C17.333 29.5635 16.4357 28.6662 15.333 28.6662ZM15.333 31.3329C14.9657 31.3329 14.6663 31.0342 14.6663 30.6662C14.6663 30.2982 14.9657 29.9995 15.333 29.9995C15.7003 29.9995 15.9997 30.2982 15.9997 30.6662C15.9997 31.0342 15.7003 31.3329 15.333 31.3329Z" fill="#FF5722"/>
</svg>
