<svg width="48" height="48" viewBox="0 0 48 48" fill="none" xmlns="http://www.w3.org/2000/svg">
<path fill-rule="evenodd" clip-rule="evenodd" d="M14.6255 21.6543H33.3801C34.4116 21.6543 35.2555 22.4983 35.2555 23.5298V34.7825C35.2555 35.8139 34.4115 36.658 33.3801 36.658H14.6255C13.5941 36.658 12.75 35.814 12.75 34.7825V23.5298C12.75 22.4982 13.594 21.6543 14.6255 21.6543Z" fill="#FF7D00"/>
<path d="M47.0682 43.6918L47.0682 40.8786C47.0682 40.3607 46.6482 39.9408 46.1304 39.9408H45.1831L44.7338 18.373H46.1303C46.6481 18.373 47.0681 17.9532 47.0681 17.4353V13.6844C48.3109 13.6383 48.31 11.8546 47.0681 11.8089H46.3209L24.3658 2.50598C24.1319 2.40686 23.8679 2.40686 23.6341 2.50598L1.67889 11.809H0.9318C-0.311069 11.8552 -0.310131 13.6388 0.9318 13.6845H0.931893V17.4354C0.931893 17.9533 1.35181 18.3731 1.86962 18.3731H3.26619L2.81683 39.9409H1.86962C1.35181 39.9409 0.931893 40.3608 0.931893 40.8787V43.6919H0.9318C-0.311069 43.738 -0.310131 45.5217 0.9318 45.5673H47.0682C48.311 45.5211 48.3101 43.7374 47.0682 43.6918ZM43.3072 39.9409H39.5762L40.0256 18.3731H42.8579L43.3072 39.9409ZM10.2996 39.9409L9.85028 18.3731H38.1497L37.7003 39.9409H10.2996ZM24 4.38782L41.514 11.809H33.4854L24.3658 7.94482C24.1319 7.8457 23.8679 7.8457 23.6341 7.94482L14.5146 11.809H6.48598L24 4.38782ZM28.6782 11.809H19.3217L24 9.82675L28.6782 11.809ZM2.80735 13.6845H45.1927V16.4977H2.80735V13.6845ZM5.14212 18.373H7.97444L8.4238 39.9408H4.69276L5.14212 18.373ZM2.80735 41.8164H45.1927V43.6919H2.80735V41.8164Z" fill="#FF7D00"/>
<path d="M23.8757 25.4062C22.3245 25.4062 21.0625 26.6682 21.0625 28.2194V31.9704C21.1086 33.2132 22.8923 33.2123 22.938 31.9704V31.0325H24.8134V31.9704C24.8596 33.2132 26.6432 33.2123 26.6889 31.9704V28.2194C26.6889 26.6682 25.4269 25.4062 23.8757 25.4062ZM24.8134 29.1571H22.938V28.2194C22.9852 26.9769 24.7665 26.9778 24.8134 28.2194V29.1571Z" fill="white"/>
<path d="M31.4692 29.1565L32.8346 26.8159C33.4231 25.7216 31.8766 24.8207 31.2147 25.8709L30.3836 27.2956L29.5526 25.8709C29.2918 25.4236 28.7179 25.2724 28.2701 25.5334C27.8227 25.7944 27.6716 26.3686 27.9326 26.8159L29.298 29.1565L27.9326 31.4972C27.6716 31.9446 27.8227 32.5188 28.2701 32.7797C28.7097 33.0382 29.2902 32.8936 29.5526 32.4422L30.3836 31.0175L31.2147 32.4422C31.4771 32.8937 32.0575 33.0382 32.4972 32.7797C32.9446 32.5187 33.0957 31.9445 32.8347 31.4972L31.4692 29.1565Z" fill="white"/>
<path d="M19.2567 25.4062H15.9748C14.7319 25.4524 14.7328 27.236 15.9748 27.2817H16.678V31.9704C16.7241 33.2132 18.5078 33.2123 18.5534 31.9704V27.2817H19.2567C20.4996 27.2356 20.4987 25.4519 19.2567 25.4062Z" fill="white"/>
</svg>
