<svg width="48" height="48" viewBox="0 0 48 48" fill="none" xmlns="http://www.w3.org/2000/svg">
<path fill-rule="evenodd" clip-rule="evenodd" d="M23.9988 39.2418C29.3468 39.2418 33.7087 34.88 33.7087 29.5319C33.212 16.6699 14.7838 16.6734 14.2891 29.532C14.2891 34.88 18.6509 39.2418 23.9988 39.2418Z" fill="#FF7D00"/>
<path d="M43.4129 9.64959L34.038 0.274594C33.8621 0.0988125 33.6237 0 33.3751 0H5.25C4.73222 0 4.3125 0.419813 4.3125 0.9375V47.0625C4.3125 47.5802 4.73222 48 5.25 48H42.75C43.2677 48 43.6875 47.5802 43.6875 47.0625V10.3125C43.6875 10.0639 43.5887 9.82547 43.4129 9.64959ZM34.3126 3.20091L40.4866 9.375H34.3125V3.20091H34.3126ZM6.1875 46.125V1.875H32.4375V10.3125C32.4375 10.8302 32.8573 11.25 33.375 11.25H41.8125V46.125H6.1875Z" fill="#FF7D00"/>
<path d="M9.70501 5.625V11.2499C9.75113 12.4925 11.5344 12.4915 11.58 11.2499V5.625H12.2831C13.5257 5.57887 13.5248 3.79566 12.2831 3.75H9.00188C7.75932 3.79612 7.76026 5.57934 9.00188 5.625H9.70501Z" fill="#FF7D00"/>
<path d="M15.0234 12.1867C15.5412 12.1867 15.9609 11.7669 15.9609 11.2492V9.84288H17.8359V11.2492C17.8821 12.4918 19.6653 12.4909 19.7109 11.2492V6.56173C19.5691 2.83479 14.2265 2.8376 14.0859 6.56173V11.2492C14.0859 11.7669 14.5057 12.1867 15.0234 12.1867ZM15.9609 6.56173C16.0082 5.31945 17.7891 5.32038 17.8359 6.56173V7.96788H15.9609V6.56173Z" fill="#FF7D00"/>
<path d="M21.3426 12.0888C21.7958 12.3182 22.368 12.1373 22.6005 11.6695L23.4026 10.0652L24.2047 11.6695C24.437 12.1373 25.0094 12.3182 25.4625 12.0888C25.9256 11.8573 26.1133 11.2941 25.8818 10.8311L24.4507 7.969L25.8817 5.107C26.1133 4.64397 25.9256 4.08081 25.4624 3.84925C24.9992 3.61759 24.4362 3.80528 24.2046 4.26859L23.4026 5.87265L22.6006 4.26859C22.369 3.80546 21.806 3.61787 21.3427 3.84925C20.8796 4.08081 20.6919 4.64397 20.9235 5.107L22.3545 7.969L20.9235 10.8311C20.6918 11.2942 20.8795 11.8574 21.3426 12.0888Z" fill="#FF7D00"/>
<path d="M38.0644 15H9.93938C8.69682 15.0461 8.69776 16.8293 9.93938 16.875H38.0644C39.3069 16.8289 39.3059 15.0457 38.0644 15Z" fill="#FF7D00"/>
<path d="M38.0644 42.1875H9.93938C8.69682 42.2336 8.69776 44.0168 9.93938 44.0625H38.0644C39.3069 44.0164 39.3059 42.2332 38.0644 42.1875Z" fill="#FF7D00"/>
<path d="M14.6813 18.8848H9.93938C8.69682 18.9309 8.69776 20.7141 9.93938 20.7598H14.6813C15.9238 20.7136 15.9229 18.9304 14.6813 18.8848Z" fill="#FF7D00"/>
<path d="M9.93938 24.6426H11.8649C13.1075 24.5965 13.1065 22.8132 11.8649 22.7676H9.93938C8.69682 22.8137 8.69776 24.5969 9.93938 24.6426Z" fill="#FF7D00"/>
<path d="M9.93938 28.5273H10.6821C11.9246 28.4812 11.9237 26.698 10.6821 26.6523H9.93938C8.69682 26.6985 8.69776 28.4817 9.93938 28.5273Z" fill="#FF7D00"/>
<path d="M9.93938 32.4102H10.6821C11.9246 32.364 11.9237 30.5808 10.6821 30.5352H9.93938C8.69682 30.5813 8.69776 32.3645 9.93938 32.4102Z" fill="#FF7D00"/>
<path d="M9.93938 36.2949H11.8649C13.1075 36.2488 13.1065 34.4656 11.8649 34.4199H9.93938C8.69682 34.466 8.69776 36.2492 9.93938 36.2949Z" fill="#FF7D00"/>
<path d="M9.93938 40.1777H14.6813C15.9238 40.1316 15.9229 38.3484 14.6813 38.3027H9.93938C8.69682 38.3489 8.69776 40.1321 9.93938 40.1777Z" fill="#FF7D00"/>
<path d="M21.1877 34.4018C21.6281 34.6583 22.2079 34.5112 22.4683 34.0586L27.1558 25.9396C27.4147 25.4912 27.2611 24.9179 26.8127 24.659C26.3641 24.4 25.7909 24.5538 25.532 25.0021L20.8445 33.1211C20.5856 33.5695 20.7393 34.1428 21.1877 34.4018Z" fill="white"/>
<path d="M21.6585 26.4102C22.9011 26.364 22.9001 24.5808 21.6585 24.5352H21.6578C20.4152 24.5815 20.4169 26.3647 21.6585 26.4102Z" fill="white"/>
<path d="M26.3441 32.6523H26.3434C25.8257 32.6523 25.4062 33.0722 25.4062 33.5898C25.4524 34.8318 27.2358 34.8319 27.2816 33.5898C27.2816 33.0721 26.8618 32.6523 26.3441 32.6523Z" fill="white"/>
<path d="M38.0641 18.8848H33.3222C32.0796 18.9309 32.0806 20.714 33.3222 20.7598H38.0641C39.3066 20.7135 39.3056 18.9304 38.0641 18.8848Z" fill="#FF7D00"/>
<path d="M38.0601 22.7676H36.1347C34.8921 22.8137 34.8931 24.5968 36.1347 24.6426H38.0601C39.3027 24.5965 39.3017 22.8133 38.0601 22.7676Z" fill="#FF7D00"/>
<path d="M38.0649 26.6523H37.3222C36.0796 26.6985 36.0806 28.4816 37.3222 28.5273H38.0649C39.3074 28.4812 39.3064 26.6981 38.0649 26.6523Z" fill="#FF7D00"/>
<path d="M38.0649 30.5352H37.3222C36.0796 30.5813 36.0806 32.3644 37.3222 32.4102H38.0649C39.3074 32.3639 39.3064 30.5809 38.0649 30.5352Z" fill="#FF7D00"/>
<path d="M38.0601 34.4199H36.1347C34.8921 34.466 34.8931 36.2492 36.1347 36.2949H38.0601C39.3027 36.2487 39.3017 34.4656 38.0601 34.4199Z" fill="#FF7D00"/>
<path d="M38.064 38.3027H33.3222C32.0796 38.3489 32.0806 40.132 33.3222 40.1777H38.064C39.3065 40.1316 39.3055 38.3485 38.064 38.3027Z" fill="#FF7D00"/>
</svg>
