<svg width="60" height="60" viewBox="0 0 60 60" fill="none" xmlns="http://www.w3.org/2000/svg">
<path d="M55 47H53V45C53 44.447 52.552 44 52 44H48C47.448 44 47 44.447 47 45V47H45C44.448 47 44 47.447 44 48V52C44 52.553 44.448 53 45 53H47V55C47 55.553 47.448 56 48 56H52C52.552 56 53 55.553 53 55V53H55C55.552 53 56 52.553 56 52V48C56 47.447 55.552 47 55 47ZM54 51H52C51.448 51 51 51.447 51 52V54H49V52C49 51.447 48.552 51 48 51H46V49H48C48.552 49 49 48.553 49 48V46H51V48C51 48.553 51.448 49 52 49H54V51Z" fill="#027B7A"/>
<path d="M21 23H39C39.552 23 40 22.553 40 22C40 16.486 35.514 12 30 12C24.486 12 20 16.486 20 22C20 22.553 20.448 23 21 23ZM37.938 21H31V14.07C34.612 14.524 37.485 17.388 37.938 21ZM29 14.07V21H22.062C22.515 17.388 25.388 14.524 29 14.07Z" fill="#027B7A"/>
<path d="M59.8842 48.5613C59.8482 48.3103 59.8072 48.0603 59.7522 47.8163C59.7232 47.6853 59.6862 47.5563 59.6522 47.4263C59.5942 47.2073 59.5302 46.9913 59.4582 46.7793C59.4112 46.6403 59.3602 46.5043 59.3072 46.3683C59.2312 46.1733 59.1472 45.9823 59.0592 45.7933C58.9932 45.6523 58.9282 45.5113 58.8562 45.3733C58.7642 45.1983 58.6632 45.0293 58.5612 44.8603C58.4782 44.7213 58.3992 44.5803 58.3092 44.4453C58.1832 44.2573 58.0442 44.0783 57.9052 43.8993C57.7402 43.6853 57.5652 43.4793 57.3822 43.2793C57.2572 43.1423 57.1352 43.0043 57.0032 42.8753C56.8802 42.7543 56.7492 42.6413 56.6192 42.5263C56.4782 42.4013 56.3352 42.2783 56.1862 42.1603C56.1222 42.1093 56.0652 42.0513 55.9992 42.0023V31.0002H58.9992C59.4032 31.0002 59.7682 30.7572 59.9232 30.3832C60.0782 30.0092 59.9922 29.5792 59.7062 29.2932L51.0002 20.5863V3.00025C51.0002 2.44725 50.5522 2.00025 50.0002 2.00025H40.0002C39.4482 2.00025 39.0002 2.44725 39.0002 3.00025V8.58625L30.7072 0.29325C30.3162 -0.09775 29.6842 -0.09775 29.2932 0.29325L0.293189 29.2932C0.00718924 29.5792 -0.0788107 30.0092 0.0761893 30.3832C0.231189 30.7572 0.596189 31.0002 1.00019 31.0002H4.00019V55.0003C4.00019 55.5533 4.44819 56.0003 5.00019 56.0003H11.0002H29.0002H42.0022C42.0492 56.0623 42.1032 56.1162 42.1512 56.1772C42.2752 56.3342 42.4052 56.4853 42.5372 56.6343C42.6462 56.7573 42.7542 56.8823 42.8682 56.9993C43.0072 57.1413 43.1552 57.2732 43.3032 57.4062C43.4782 57.5652 43.6572 57.7183 43.8422 57.8643C44.0392 58.0193 44.2382 58.1723 44.4472 58.3123C44.5782 58.4003 44.7152 58.4763 44.8502 58.5573C45.0222 58.6613 45.1952 58.7643 45.3742 58.8583C45.5112 58.9303 45.6512 58.9942 45.7912 59.0592C45.9812 59.1482 46.1732 59.2313 46.3682 59.3083C46.5042 59.3613 46.6402 59.4113 46.7782 59.4583C46.9912 59.5313 47.2072 59.5943 47.4262 59.6523C47.5562 59.6863 47.6842 59.7233 47.8152 59.7523C48.0602 59.8073 48.3092 59.8473 48.5602 59.8843C48.6722 59.9003 48.7812 59.9233 48.8942 59.9353C49.2582 59.9753 49.6262 60.0003 50.0002 60.0003C55.5142 60.0003 60.0002 55.5143 60.0002 50.0003C60.0002 49.6263 59.9762 49.2573 59.9352 48.8943C59.9232 48.7823 59.9002 48.6723 59.8842 48.5613ZM41.0002 4.00025H49.0002V18.5863L41.0002 10.5863V4.00025ZM30.0002 2.41425L39.2932 11.7072L49.2932 21.7073L56.5862 29.0002H55.0002H5.00019H3.41419L30.0002 2.41425ZM12.0002 54.0003V43.0003C12.0002 38.5893 15.5892 35.0003 20.0002 35.0003C24.4112 35.0003 28.0002 38.5893 28.0002 43.0003V54.0003H12.0002ZM30.0002 54.0003V43.0003C30.0002 37.4863 25.5142 33.0003 20.0002 33.0003C14.4862 33.0003 10.0002 37.4863 10.0002 43.0003V54.0003H6.00019V31.0002H54.0002V40.8413C53.3642 40.5623 52.6962 40.3443 52.0002 40.2023V35.0003C52.0002 34.4473 51.5522 34.0003 51.0002 34.0003H35.0002C34.4482 34.0003 34.0002 34.4473 34.0002 35.0003V45.0003C34.0002 45.5533 34.4482 46.0003 35.0002 46.0003H40.8412C40.3032 47.2263 40.0002 48.5783 40.0002 50.0003C40.0002 51.4223 40.3032 52.7743 40.8412 54.0003H30.0002ZM48.8942 40.0653C48.7822 40.0773 48.6722 40.1003 48.5602 40.1163C48.3092 40.1523 48.0602 40.1933 47.8152 40.2483C47.6842 40.2773 47.5562 40.3143 47.4262 40.3483C47.2072 40.4063 46.9912 40.4703 46.7782 40.5423C46.6402 40.5893 46.5042 40.6393 46.3692 40.6923C46.1732 40.7693 45.9812 40.8533 45.7912 40.9413C45.6512 41.0063 45.5112 41.0713 45.3742 41.1423C45.1962 41.2353 45.0242 41.3383 44.8532 41.4423C44.7172 41.5243 44.5792 41.6003 44.4482 41.6893C44.2452 41.8253 44.0512 41.9753 43.8592 42.1253C43.6652 42.2763 43.4792 42.4363 43.2962 42.6023C43.1522 42.7323 43.0082 42.8613 42.8722 42.9993C42.7552 43.1193 42.6452 43.2463 42.5332 43.3723C42.4042 43.5183 42.2772 43.6653 42.1562 43.8183C42.1072 43.8803 42.0512 43.9363 42.0032 43.9993H36.0002V35.9993H50.0002V39.9993C49.6262 40.0003 49.2582 40.0253 48.8942 40.0653ZM50.0002 58.0003C49.6912 58.0003 49.3852 57.9783 49.0822 57.9433C48.9902 57.9333 48.9012 57.9153 48.8102 57.9013C48.5992 57.8693 48.3892 57.8313 48.1822 57.7833C48.0802 57.7593 47.9792 57.7323 47.8782 57.7053C47.6842 57.6523 47.4932 57.5903 47.3052 57.5233C47.2072 57.4883 47.1082 57.4543 47.0122 57.4163C46.8062 57.3333 46.6062 57.2393 46.4082 57.1393C46.3392 57.1043 46.2672 57.0752 46.1992 57.0382C45.9522 56.9052 45.7152 56.7563 45.4832 56.5973C45.3832 56.5293 45.2892 56.4533 45.1932 56.3803C45.0552 56.2763 44.9182 56.1693 44.7872 56.0563C44.6882 55.9713 44.5932 55.8833 44.4982 55.7943C44.3692 55.6723 44.2452 55.5443 44.1242 55.4123C44.0452 55.3263 43.9642 55.2433 43.8892 55.1543C43.7042 54.9343 43.5262 54.7063 43.3632 54.4643C42.5032 53.1873 42.0002 51.6513 42.0002 50.0003C42.0002 48.3473 42.5042 46.8103 43.3662 45.5343C43.5282 45.2943 43.7042 45.0683 43.8882 44.8503C43.9652 44.7583 44.0482 44.6723 44.1302 44.5843C44.2492 44.4553 44.3702 44.3293 44.4972 44.2093C44.5932 44.1183 44.6902 44.0293 44.7902 43.9433C44.9202 43.8313 45.0552 43.7253 45.1922 43.6223C45.2892 43.5483 45.3842 43.4723 45.4852 43.4033C45.7162 43.2443 45.9542 43.0963 46.2002 42.9633C46.2682 42.9263 46.3412 42.8973 46.4102 42.8623C46.6082 42.7633 46.8082 42.6683 47.0132 42.5853C47.1092 42.5463 47.2082 42.5133 47.3062 42.4783C47.4952 42.4103 47.6862 42.3493 47.8792 42.2963C47.9802 42.2683 48.0812 42.2413 48.1832 42.2183C48.3902 42.1703 48.5992 42.1323 48.8112 42.1003C48.9022 42.0863 48.9912 42.0693 49.0832 42.0583C49.3852 42.0223 49.6912 42.0003 50.0002 42.0003C50.3012 42.0003 50.5982 42.0213 50.8912 42.0533C52.2052 42.1993 53.4252 42.6623 54.4692 43.3683C54.7072 43.5283 54.9312 43.7033 55.1482 43.8853C55.2432 43.9653 55.3332 44.0523 55.4242 44.1363C55.5492 44.2513 55.6712 44.3693 55.7872 44.4913C55.8812 44.5893 55.9722 44.6893 56.0612 44.7923C56.1702 44.9183 56.2722 45.0493 56.3722 45.1823C56.4482 45.2833 56.5282 45.3813 56.5992 45.4863C56.7562 45.7163 56.9042 45.9523 57.0362 46.1973C57.0752 46.2693 57.1062 46.3463 57.1432 46.4193C57.2402 46.6133 57.3332 46.8093 57.4142 47.0103C57.4542 47.1083 57.4882 47.2092 57.5242 47.3092C57.5912 47.4962 57.6522 47.6853 57.7052 47.8773C57.7332 47.9793 57.7602 48.0812 57.7842 48.1842C57.8322 48.3902 57.8702 48.5992 57.9012 48.8092C57.9152 48.9002 57.9322 48.9903 57.9432 49.0823C57.9782 49.3853 58.0002 49.6913 58.0002 50.0003C58.0002 54.4113 54.4112 58.0003 50.0002 58.0003Z" fill="#027B7A"/>
<path d="M23 43C21.346 43 20 44.346 20 46C20 47.654 21.346 49 23 49C24.654 49 26 47.654 26 46C26 44.346 24.654 43 23 43ZM23 47C22.449 47 22 46.552 22 46C22 45.448 22.449 45 23 45C23.551 45 24 45.448 24 46C24 46.552 23.551 47 23 47Z" fill="#027B7A"/>
</svg>
