<svg width="48" height="48" viewBox="0 0 48 48" fill="none" xmlns="http://www.w3.org/2000/svg">
<g id="048-tax">
<g id="Group">
<path id="Vector" fill-rule="evenodd" clip-rule="evenodd" d="M24.0008 39.2411C29.3488 39.2411 33.7107 34.8793 33.7107 29.5312C33.214 16.6692 14.7857 16.6726 14.291 29.5313C14.291 34.8793 18.6528 39.2411 24.0008 39.2411Z" fill="#2B495A"/>
<g id="Group_2">
<path id="Vector_2" d="M43.4129 9.64959L34.038 0.274594C33.8621 0.0988125 33.6237 0 33.3751 0H5.25C4.73222 0 4.3125 0.419813 4.3125 0.9375V47.0625C4.3125 47.5802 4.73222 48 5.25 48H42.75C43.2677 48 43.6875 47.5802 43.6875 47.0625V10.3125C43.6875 10.0639 43.5887 9.82547 43.4129 9.64959ZM34.3126 3.20091L40.4866 9.375H34.3125V3.20091H34.3126ZM6.1875 46.125V1.875H32.4375V10.3125C32.4375 10.8302 32.8573 11.25 33.375 11.25H41.8125V46.125H6.1875Z" fill="#2B495A"/>
<path id="Vector_3" d="M9.70321 5.62512V11.25C9.74933 12.4926 11.5326 12.4917 11.5782 11.25V5.62512H12.2813C13.5239 5.579 13.523 3.79578 12.2813 3.75012H9.00008C7.75752 3.79625 7.75846 5.57947 9.00008 5.62512H9.70321Z" fill="#2B495A"/>
<path id="Vector_4" d="M15.0235 12.1875C15.5413 12.1875 15.961 11.7676 15.961 11.25V9.84362H17.836V11.25C17.8822 12.4925 19.6654 12.4916 19.711 11.25V6.56246C19.5692 2.83552 14.2266 2.83833 14.086 6.56246V11.25C14.086 11.7676 14.5057 12.1875 15.0235 12.1875ZM15.961 6.56246C16.0083 5.32018 17.7892 5.32112 17.836 6.56246V7.96862H15.961V6.56246Z" fill="#2B495A"/>
<path id="Vector_5" d="M21.3425 12.0885C21.7957 12.3179 22.3678 12.1369 22.6003 11.6691L23.4024 10.0649L24.2046 11.6691C24.4369 12.1369 25.0092 12.3179 25.4623 12.0885C25.9254 11.8569 26.1131 11.2938 25.8817 10.8307L24.4506 7.96863L25.8816 5.10663C26.1131 4.6436 25.9254 4.08044 25.4622 3.84888C24.9991 3.61722 24.436 3.80491 24.2045 4.26822L23.4024 5.87229L22.6004 4.26822C22.3688 3.8051 21.8059 3.61751 21.3426 3.84888C20.8794 4.08044 20.6918 4.6436 20.9233 5.10663L22.3543 7.96863L20.9233 10.8307C20.6917 11.2938 20.8793 11.857 21.3425 12.0885Z" fill="#2B495A"/>
<path id="Vector_6" d="M38.0625 15H9.93749C8.69493 15.0461 8.69587 16.8293 9.93749 16.875H38.0625C39.3051 16.8289 39.304 15.0457 38.0625 15Z" fill="#2B495A"/>
<path id="Vector_7" d="M38.0625 42.1875H9.93749C8.69493 42.2336 8.69587 44.0168 9.93749 44.0625H38.0625C39.3051 44.0164 39.304 42.2332 38.0625 42.1875Z" fill="#2B495A"/>
<path id="Vector_8" d="M14.6794 18.8839H9.93749C8.69493 18.93 8.69587 20.7133 9.93749 20.7589H14.6794C15.9219 20.7128 15.921 18.9296 14.6794 18.8839Z" fill="#2B495A"/>
<path id="Vector_9" d="M9.93749 24.6427H11.863C13.1056 24.5966 13.1046 22.8134 11.863 22.7677H9.93749C8.69493 22.8138 8.69587 24.597 9.93749 24.6427Z" fill="#2B495A"/>
<path id="Vector_10" d="M9.93749 28.5267H10.6802C11.9227 28.4806 11.9218 26.6974 10.6802 26.6517H9.93749C8.69493 26.6979 8.69587 28.4811 9.93749 28.5267Z" fill="#2B495A"/>
<path id="Vector_11" d="M9.93749 32.4106H10.6802C11.9227 32.3645 11.9218 30.5813 10.6802 30.5356H9.93749C8.69493 30.5818 8.69587 32.365 9.93749 32.4106Z" fill="#2B495A"/>
<path id="Vector_12" d="M9.93749 36.2947H11.863C13.1056 36.2486 13.1046 34.4653 11.863 34.4197H9.93749C8.69493 34.4658 8.69587 36.2489 9.93749 36.2947Z" fill="#2B495A"/>
<path id="Vector_13" d="M9.93749 40.1785H14.6794C15.9219 40.1323 15.921 38.3491 14.6794 38.3035H9.93749C8.69493 38.3496 8.69587 40.1328 9.93749 40.1785Z" fill="#2B495A"/>
<path id="Vector_14" d="M21.1875 34.4026C21.6279 34.6592 22.2078 34.512 22.4681 34.0595L27.1556 25.9405C27.4146 25.492 27.2609 24.9188 26.8125 24.6598C26.3639 24.4009 25.7907 24.5546 25.5319 25.003L20.8444 33.122C20.5854 33.5704 20.7391 34.1437 21.1875 34.4026Z" fill="white"/>
<path id="Vector_15" d="M21.6566 26.4093C22.8991 26.3632 22.8982 24.58 21.6566 24.5343H21.6558C20.4132 24.5806 20.4149 26.3638 21.6566 26.4093Z" fill="white"/>
<path id="Vector_16" d="M26.3441 32.6532H26.3434C25.8257 32.6532 25.4062 33.073 25.4062 33.5907C25.4524 34.8327 27.2358 34.8328 27.2816 33.5907C27.2816 33.0729 26.8618 32.6532 26.3441 32.6532Z" fill="white"/>
<path id="Vector_17" d="M38.0621 18.8839H33.3202C32.0777 18.93 32.0786 20.7132 33.3202 20.7589H38.0621C39.3047 20.7127 39.3036 18.9296 38.0621 18.8839Z" fill="#2B495A"/>
<path id="Vector_18" d="M38.0621 22.7677H36.1366C34.8941 22.8138 34.895 24.5969 36.1366 24.6427H38.0621C39.3046 24.5966 39.3036 22.8135 38.0621 22.7677Z" fill="#2B495A"/>
<path id="Vector_19" d="M38.0629 26.6517H37.3202C36.0777 26.6979 36.0786 28.481 37.3202 28.5267H38.0629C39.3055 28.4806 39.3045 26.6975 38.0629 26.6517Z" fill="#2B495A"/>
<path id="Vector_20" d="M38.0629 30.5356H37.3202C36.0777 30.5818 36.0786 32.3649 37.3202 32.4106H38.0629C39.3055 32.3644 39.3045 30.5814 38.0629 30.5356Z" fill="#2B495A"/>
<path id="Vector_21" d="M38.0621 34.4197H36.1366C34.8941 34.4658 34.895 36.2489 36.1366 36.2947H38.0621C39.3046 36.2485 39.3036 34.4653 38.0621 34.4197Z" fill="#2B495A"/>
<path id="Vector_22" d="M38.062 38.3035H33.3202C32.0777 38.3496 32.0786 40.1327 33.3202 40.1785H38.062C39.3046 40.1323 39.3036 38.3492 38.062 38.3035Z" fill="#2B495A"/>
</g>
</g>
</g>
</svg>
