<svg width="56" height="56" viewBox="0 0 56 56" fill="none" xmlns="http://www.w3.org/2000/svg">
<g id="Group 2560" opacity="0.5">
<path id="Vector" d="M31.8182 21.2404L46.0318 7.0268L48.9707 9.96571L34.7546 24.1818L33.0475 25.8889H35.4617H55V30.1111H35.4618H33.0476L34.7547 31.8182L48.9818 46.0453L46.0453 48.9818L31.8182 34.7547L30.1111 33.0476V35.4618V55H25.8889V35.4618V33.0475L24.1818 34.7546L9.95556 48.9809L7.01666 46.042L21.2404 31.8182L22.9475 30.1111H20.5333H1V25.8889H20.5382H22.9524L21.2453 24.1818L7.02842 9.96491L9.9649 7.02843L24.1818 21.2453L25.8889 22.9524V20.5382V1H30.1111V20.5333V22.9475L31.8182 21.2404Z" stroke="white" stroke-width="2"/>
</g>
</svg>
