<svg width="20" height="20" viewBox="0 0 20 20" fill="none" xmlns="http://www.w3.org/2000/svg">
<path d="M17.8391 9.64935L10.3391 2.14935C10.0266 1.83942 9.60418 1.66566 9.16406 1.66602H3.33073C2.8887 1.66602 2.46478 1.84161 2.15222 2.15417C1.83966 2.46673 1.66406 2.89066 1.66406 3.33268V9.16602C1.66389 9.38594 1.70724 9.60373 1.79163 9.80682C1.87601 10.0099 1.99976 10.1943 2.15573 10.3493L9.65573 17.8493C9.96822 18.1593 10.3906 18.333 10.8307 18.3327C11.272 18.3308 11.6946 18.154 12.0057 17.841L17.8391 12.0077C18.1521 11.6966 18.3289 11.274 18.3307 10.8327C18.3309 10.6128 18.2875 10.395 18.2032 10.1919C18.1188 9.98878 17.995 9.8044 17.8391 9.64935ZM10.8307 16.666L3.33073 9.16602V3.33268H9.16406L16.6641 10.8327M5.41406 4.16602C5.66129 4.16602 5.90296 4.23933 6.10853 4.37668C6.31409 4.51403 6.4743 4.70925 6.56891 4.93766C6.66352 5.16607 6.68828 5.4174 6.64004 5.65988C6.59181 5.90236 6.47276 6.12508 6.29795 6.2999C6.12313 6.47472 5.9004 6.59377 5.65793 6.642C5.41545 6.69023 5.16412 6.66547 4.93571 6.57087C4.7073 6.47626 4.51208 6.31604 4.37473 6.11048C4.23737 5.90492 4.16406 5.66324 4.16406 5.41602C4.16406 5.0845 4.29576 4.76655 4.53018 4.53213C4.7646 4.29771 5.08254 4.16602 5.41406 4.16602Z" fill="#070812"/>
</svg>
