<svg width="48" height="48" viewBox="0 0 48 48" fill="none" xmlns="http://www.w3.org/2000/svg">
<path fill-rule="evenodd" clip-rule="evenodd" d="M24 24.8437C29.1636 24.8437 33.375 20.6323 33.375 15.4687C32.8955 3.05023 15.1029 3.0536 14.6251 15.4688C14.6251 20.6324 18.8365 24.8437 24 24.8437Z" fill="#573AA9"/>
<path d="M43.6874 3.74999H40.8749V0.937496C40.8749 0.419811 40.455 0 39.9374 0H8.06248C5.4778 0 3.375 2.1028 3.375 4.68748V43.3125C3.375 45.8972 5.4778 48 8.06248 48H43.6873C44.205 48 44.6248 47.5802 44.6248 47.0625V4.68748C44.6249 4.1698 44.2052 3.74999 43.6874 3.74999ZM38.9999 38.625H8.99998V1.87499H38.9999V38.625ZM5.25009 4.68748C5.25009 3.46527 6.03383 2.42258 7.12508 2.03568V38.7193C6.43274 38.8603 5.79533 39.1545 5.25009 39.5647V4.68748ZM8.06257 46.125C4.33565 45.9832 4.33846 40.6406 8.06257 40.5H39V42.375H8.06257C6.82002 42.4212 6.82096 44.2044 8.06257 44.25H39V46.125H8.06257ZM42.7499 46.125H40.8749V5.62498H42.7499V46.125Z" fill="#573AA9"/>
<path d="M22 35.3437C22.5178 35.3437 22.9375 34.9238 22.9375 34.4062V33.4686H24.8125V34.4062C24.8586 35.6487 26.6417 35.6478 26.6875 34.4062V30.6562C26.5457 26.9292 21.203 26.9321 21.0625 30.6562V34.4062C21.0625 34.9238 21.4822 35.3437 22 35.3437ZM22.9375 30.6562C22.9848 29.414 24.7656 29.4148 24.8125 30.6562V31.5936H22.9375V30.6562Z" fill="#573AA9"/>
<path d="M28.2701 35.2159C28.7096 35.4746 29.2899 35.3298 29.5523 34.8785L30.3831 33.4542L31.2139 34.8785C31.4763 35.3298 32.0565 35.4744 32.4961 35.2159C32.9434 34.9551 33.0944 34.381 32.8335 33.9337L31.4684 31.5936L32.8334 29.2536C33.0943 28.8063 32.9433 28.2323 32.496 27.9714C32.0487 27.7104 31.4746 27.8616 31.2138 28.3088L30.383 29.7331L29.5522 28.3088C29.2915 27.8617 28.7177 27.7107 28.27 27.9714C27.8227 28.2322 27.6717 28.8063 27.9326 29.2536L29.2976 31.5936L27.9325 33.9337C27.6718 34.3809 27.8228 34.9549 28.2701 35.2159Z" fill="#573AA9"/>
<path d="M15.9785 29.7188H16.6816V34.4062C16.7278 35.6487 18.511 35.6478 18.5566 34.4062V29.7188H19.2598C20.5023 29.6726 20.5014 27.8894 19.2598 27.8438H15.9785C14.7359 27.8899 14.7369 29.6731 15.9785 29.7188Z" fill="#573AA9"/>
<path d="M23.1342 16.1257L24.1447 16.5443C24.3722 16.6385 24.5501 16.8175 24.6457 17.0482C24.7413 17.279 24.742 17.5314 24.6477 17.759C24.5534 17.9866 24.3745 18.1644 24.1438 18.26C23.9129 18.3557 23.6606 18.3563 23.433 18.2622L22.9278 18.053C22.4496 17.855 21.9011 18.082 21.7029 18.5602C21.5047 19.0386 21.7319 19.587 22.2102 19.7851L22.7155 19.9944C22.8288 20.0413 22.944 20.0805 23.0606 20.112V20.6251C23.1067 21.8676 24.8899 21.8667 24.9356 20.6251V19.9602C25.5932 19.6659 26.1043 19.1418 26.3799 18.4765C26.6658 17.7862 26.6651 17.0242 26.3778 16.3307C26.0907 15.6372 25.5523 15.0979 24.8621 14.812L23.8515 14.3933C23.6241 14.2991 23.4462 14.1201 23.3505 13.8894C23.2549 13.6586 23.2543 13.4062 23.3486 13.1786C23.4428 12.9511 23.6218 12.7732 23.8525 12.6776C24.0832 12.582 24.3357 12.5814 24.5632 12.6755L25.0684 12.8847C25.5466 13.083 26.0953 12.8557 26.2933 12.3774C26.4914 11.899 26.2643 11.3507 25.786 11.1526L25.2807 10.9432C25.1674 10.8964 25.0521 10.8572 24.9356 10.8258V10.3127C24.8894 9.07011 23.1062 9.07105 23.0606 10.3127V10.9775C22.4029 11.2717 21.8918 11.7959 21.6163 12.4612C21.3303 13.1515 21.3311 13.9135 21.6183 14.6071C21.9057 15.3005 22.444 15.8398 23.1342 16.1257Z" fill="white"/>
</svg>
