<svg width="39" height="44" viewBox="0 0 39 44" fill="none" xmlns="http://www.w3.org/2000/svg">
<path d="M13.3328 10.0435C14.4101 10.0435 15.2871 9.16519 15.2871 8.08514C15.2871 7.00508 14.4106 6.12678 13.3328 6.12678C12.2555 6.12678 11.3786 7.00508 11.3786 8.08514C11.3786 9.16519 12.2555 10.0435 13.3328 10.0435ZM13.3328 7.54632C13.6295 7.54632 13.8705 7.78784 13.8705 8.08514C13.8705 8.38243 13.629 8.62395 13.3328 8.62395C13.0362 8.62395 12.7951 8.38195 12.7951 8.08514C12.7951 7.78833 13.0362 7.54632 13.3328 7.54632ZM12.287 13.8506L17.5075 6.57005C17.7359 6.2519 18.1783 6.17916 18.4958 6.40758C18.8133 6.6365 18.8858 7.07977 18.6579 7.39792L13.4374 14.679C13.2989 14.872 13.0816 14.9748 12.8614 14.9748C12.7182 14.9748 12.574 14.9316 12.4486 14.8414C12.1316 14.6125 12.059 14.1688 12.287 13.8506ZM15.6123 13.1668C15.6123 14.2463 16.4888 15.1251 17.5666 15.1251C18.6439 15.1251 19.5208 14.2468 19.5208 13.1668C19.5208 12.0867 18.6443 11.2084 17.5666 11.2084C16.4888 11.2084 15.6123 12.0867 15.6123 13.1668ZM18.1042 13.1668C18.1042 13.4641 17.8627 13.7056 17.5666 13.7056C17.2699 13.7056 17.0289 13.4641 17.0289 13.1668C17.0289 12.8695 17.2704 12.628 17.5666 12.628C17.8627 12.6275 18.1042 12.8695 18.1042 13.1668ZM15.4497 17.9036C19.454 17.9036 22.7121 14.6387 22.7121 10.626C22.7121 6.61322 19.454 3.34832 15.4497 3.34832C11.4454 3.34832 8.18731 6.61322 8.18731 10.626C8.18731 14.6387 11.4454 17.9036 15.4497 17.9036ZM15.4497 4.76786C18.6729 4.76786 21.2955 7.39598 21.2955 10.626C21.2955 13.8559 18.6729 16.4841 15.4497 16.4841C12.2265 16.4841 9.60387 13.8559 9.60387 10.626C9.60387 7.39598 12.2265 4.76786 15.4497 4.76786ZM6.46729 24.9063C6.46729 24.5144 6.78429 24.1967 7.17534 24.1967H23.7236C24.1146 24.1967 24.4316 24.5144 24.4316 24.9063C24.4316 25.2981 24.1146 25.6158 23.7236 25.6158H7.17534C6.78429 25.6158 6.46729 25.2981 6.46729 24.9063ZM6.46729 20.5419C6.46729 20.15 6.78429 19.8324 7.17534 19.8324H23.7236C24.1146 19.8324 24.4316 20.15 24.4316 20.5419C24.4316 20.9338 24.1146 21.2514 23.7236 21.2514H7.17534C6.78429 21.2514 6.46729 20.9338 6.46729 20.5419ZM30.3994 26.3743V5.64325C30.3994 5.24896 30.2523 4.89298 29.974 4.61412L25.7949 0.426299C25.5167 0.147435 25.1614 0 24.768 0H1.95238C1.15142 0 0.5 0.652786 0.5 1.45543V36.9585C0.5 37.7612 1.15142 38.414 1.95238 38.414H21.4978C22.79 41.6823 25.9755 44 29.6913 44C34.5484 44 38.5 40.0401 38.5 35.1728C38.5005 30.5442 34.9269 26.7366 30.3994 26.3743ZM27.982 4.62479H25.7848V2.42346L27.982 4.62479ZM1.95238 36.9949C1.93351 36.9949 1.91608 36.9775 1.91608 36.959V1.45592C1.91608 1.437 1.93351 1.41954 1.95238 1.41954H24.3687V4.96137C24.3687 5.55838 24.8531 6.04385 25.4489 6.04385H28.9833V26.3738C27.0218 26.5309 25.2393 27.335 23.8494 28.5722C23.8087 28.565 23.7671 28.5606 23.724 28.5606H7.17534C6.78429 28.5606 6.46729 28.8783 6.46729 29.2701C6.46729 29.662 6.78429 29.9797 7.17534 29.9797H22.5727C21.9358 30.8541 21.4552 31.8493 21.1726 32.9245H7.17534C6.78429 32.9245 6.46729 33.2421 6.46729 33.634C6.46729 34.0259 6.78429 34.3435 7.17534 34.3435H20.9214C20.8958 34.6161 20.8822 34.8925 20.8822 35.1719C20.8822 35.7965 20.9475 36.4057 21.0714 36.9939H1.95238V36.9949ZM29.6913 42.5809C25.6149 42.5809 22.2988 39.2578 22.2988 35.1728C22.2988 31.0878 25.6149 27.7647 29.6913 27.7647C33.7678 27.7647 37.0839 31.0878 37.0839 35.1728C37.0839 39.2578 33.7678 42.5809 29.6913 42.5809ZM29.6913 28.597C26.0732 28.597 23.1293 31.5471 23.1293 35.1728C23.1293 38.7986 26.0732 41.7487 29.6913 41.7487C33.3095 41.7487 36.2534 38.7986 36.2534 35.1728C36.2534 31.5471 33.31 28.597 29.6913 28.597ZM29.6913 40.3297C26.8539 40.3297 24.5458 38.0163 24.5458 35.1733C24.5458 32.3299 26.8543 30.017 29.6913 30.017C32.5283 30.017 34.8369 32.3304 34.8369 35.1733C34.8373 38.0163 32.5288 40.3297 29.6913 40.3297ZM32.2622 36.4605C32.3285 37.0085 32.1804 37.5105 31.8339 37.912C31.5019 38.2971 30.9889 38.5721 30.3999 38.6948V38.8849C30.3999 39.2768 30.0829 39.5944 29.6918 39.5944C29.3008 39.5944 28.9838 39.2768 28.9838 38.8849V38.6827C28.0555 38.4615 27.3485 37.8136 27.1268 36.9227C27.0324 36.5424 27.2633 36.1574 27.6427 36.0623C28.0221 35.9682 28.4064 36.1991 28.5013 36.5793C28.6469 37.1637 29.2659 37.3601 29.7514 37.346C30.1782 37.3359 30.5847 37.1904 30.7628 36.9838C30.8219 36.9154 30.879 36.8198 30.8562 36.6317C30.835 36.4576 30.7856 36.0502 29.5825 35.8523C27.6679 35.5371 27.332 34.4488 27.3015 33.8275C27.2522 32.8134 27.9239 31.9613 28.9833 31.6761V31.4608C28.9833 31.0689 29.3003 30.7513 29.6913 30.7513C30.0824 30.7513 30.3994 31.0689 30.3994 31.4608V31.6698C31.0832 31.8464 31.7255 32.2993 32.0676 33.1165C32.2191 33.4778 32.0492 33.8939 31.6887 34.0457C31.3286 34.1975 30.9134 34.0278 30.7614 33.666C30.4773 32.988 29.7741 32.9497 29.4039 33.0341C29.2359 33.0724 28.6905 33.2373 28.7157 33.7591C28.7224 33.9007 28.7408 34.2761 29.8114 34.4522C31.3059 34.6976 32.1305 35.3731 32.2622 36.4605Z" fill="#140D28"/>
</svg>
