<svg width="48" height="48" viewBox="0 0 48 48" fill="none" xmlns="http://www.w3.org/2000/svg">
<path fill-rule="evenodd" clip-rule="evenodd" d="M23.9988 39.2411C29.3468 39.2411 33.7087 34.8793 33.7087 29.5312C33.212 16.6692 14.7838 16.6726 14.2891 29.5313C14.2891 34.8793 18.6509 39.2411 23.9988 39.2411Z" fill="#573AA9"/>
<path d="M43.4129 9.64959L34.038 0.274594C33.8621 0.0988125 33.6237 0 33.3751 0H5.25C4.73222 0 4.3125 0.419813 4.3125 0.9375V47.0625C4.3125 47.5802 4.73222 48 5.25 48H42.75C43.2677 48 43.6875 47.5802 43.6875 47.0625V10.3125C43.6875 10.0639 43.5887 9.82547 43.4129 9.64959ZM34.3126 3.20091L40.4866 9.375H34.3125V3.20091H34.3126ZM6.1875 46.125V1.875H32.4375V10.3125C32.4375 10.8302 32.8573 11.25 33.375 11.25H41.8125V46.125H6.1875Z" fill="#573AA9"/>
<path d="M9.70501 5.62512V11.25C9.75113 12.4926 11.5344 12.4917 11.58 11.25V5.62512H12.2831C13.5257 5.579 13.5248 3.79578 12.2831 3.75012H9.00188C7.75932 3.79625 7.76026 5.57947 9.00188 5.62512H9.70501Z" fill="#573AA9"/>
<path d="M15.0236 12.1875C15.5413 12.1875 15.9611 11.7676 15.9611 11.25V9.84362H17.8361V11.25C17.8822 12.4925 19.6654 12.4916 19.7111 11.25V6.56246C19.5692 2.83552 14.2266 2.83833 14.0861 6.56246V11.25C14.0861 11.7676 14.5058 12.1875 15.0236 12.1875ZM15.9611 6.56246C16.0083 5.32018 17.7892 5.32112 17.8361 6.56246V7.96862H15.9611V6.56246Z" fill="#573AA9"/>
<path d="M21.3424 12.0885C21.7956 12.3179 22.3678 12.1369 22.6003 11.6691L23.4024 10.0649L24.2045 11.6691C24.4368 12.1369 25.0092 12.3179 25.4623 12.0885C25.9254 11.8569 26.1131 11.2938 25.8816 10.8307L24.4505 7.96863L25.8815 5.10663C26.1131 4.6436 25.9254 4.08044 25.4622 3.84888C24.9991 3.61722 24.436 3.80491 24.2044 4.26822L23.4024 5.87229L22.6004 4.26822C22.3688 3.8051 21.8058 3.61751 21.3425 3.84888C20.8794 4.08044 20.6917 4.6436 20.9233 5.10663L22.3543 7.96863L20.9233 10.8307C20.6916 11.2938 20.8793 11.857 21.3424 12.0885Z" fill="#573AA9"/>
<path d="M38.0644 15H9.93938C8.69682 15.0461 8.69776 16.8293 9.93938 16.875H38.0644C39.3069 16.8289 39.3059 15.0457 38.0644 15Z" fill="#573AA9"/>
<path d="M38.0644 42.1875H9.93938C8.69682 42.2336 8.69776 44.0168 9.93938 44.0625H38.0644C39.3069 44.0164 39.3059 42.2332 38.0644 42.1875Z" fill="#573AA9"/>
<path d="M14.6813 18.884H9.93938C8.69682 18.9302 8.69776 20.7134 9.93938 20.759H14.6813C15.9238 20.7129 15.9229 18.9297 14.6813 18.884Z" fill="#573AA9"/>
<path d="M9.93938 24.6428H11.8649C13.1075 24.5967 13.1065 22.8135 11.8649 22.7678H9.93938C8.69682 22.8139 8.69776 24.5972 9.93938 24.6428Z" fill="#573AA9"/>
<path d="M9.93938 28.5267H10.6821C11.9246 28.4806 11.9237 26.6974 10.6821 26.6517H9.93938C8.69682 26.6979 8.69776 28.4811 9.93938 28.5267Z" fill="#573AA9"/>
<path d="M9.93938 32.4106H10.6821C11.9246 32.3645 11.9237 30.5813 10.6821 30.5356H9.93938C8.69682 30.5818 8.69776 32.365 9.93938 32.4106Z" fill="#573AA9"/>
<path d="M9.93938 36.2947H11.8649C13.1075 36.2486 13.1065 34.4653 11.8649 34.4197H9.93938C8.69682 34.4658 8.69776 36.2489 9.93938 36.2947Z" fill="#573AA9"/>
<path d="M9.93938 40.1785H14.6813C15.9238 40.1323 15.9229 38.3491 14.6813 38.3035H9.93938C8.69682 38.3496 8.69776 40.1328 9.93938 40.1785Z" fill="#573AA9"/>
<path d="M21.1875 34.4026C21.6279 34.6592 22.2078 34.512 22.4681 34.0595L27.1556 25.9405C27.4145 25.492 27.2609 24.9188 26.8125 24.6598C26.3639 24.4009 25.7907 24.5546 25.5319 25.003L20.8444 33.122C20.5854 33.5704 20.7391 34.1437 21.1875 34.4026Z" fill="white"/>
<path d="M21.6585 26.4093C22.9011 26.3632 22.9001 24.58 21.6585 24.5343H21.6578C20.4152 24.5806 20.4169 26.3638 21.6585 26.4093Z" fill="white"/>
<path d="M26.3441 32.6532H26.3434C25.8257 32.6532 25.4062 33.073 25.4062 33.5907C25.4524 34.8327 27.2358 34.8328 27.2816 33.5907C27.2816 33.0729 26.8618 32.6532 26.3441 32.6532Z" fill="white"/>
<path d="M38.0641 18.8839H33.3222C32.0796 18.93 32.0806 20.7132 33.3222 20.7589H38.0641C39.3066 20.7127 39.3056 18.9296 38.0641 18.8839Z" fill="#573AA9"/>
<path d="M38.0601 22.7677H36.1347C34.8921 22.8138 34.8931 24.5969 36.1347 24.6427H38.0601C39.3027 24.5966 39.3017 22.8135 38.0601 22.7677Z" fill="#573AA9"/>
<path d="M38.0649 26.6517H37.3222C36.0796 26.6979 36.0806 28.481 37.3222 28.5267H38.0649C39.3074 28.4806 39.3064 26.6975 38.0649 26.6517Z" fill="#573AA9"/>
<path d="M38.0649 30.5356H37.3222C36.0796 30.5818 36.0806 32.3649 37.3222 32.4106H38.0649C39.3074 32.3644 39.3064 30.5814 38.0649 30.5356Z" fill="#573AA9"/>
<path d="M38.0601 34.4197H36.1347C34.8921 34.4658 34.8931 36.2489 36.1347 36.2947H38.0601C39.3027 36.2485 39.3017 34.4653 38.0601 34.4197Z" fill="#573AA9"/>
<path d="M38.064 38.3035H33.3222C32.0796 38.3496 32.0806 40.1327 33.3222 40.1785H38.064C39.3065 40.1323 39.3055 38.3492 38.064 38.3035Z" fill="#573AA9"/>
</svg>
