<svg width="20" height="20" viewBox="0 0 20 20" fill="none" xmlns="http://www.w3.org/2000/svg">
<path d="M5.41602 6.25033C5.41602 6.47134 5.50381 6.6833 5.66009 6.83958C5.81637 6.99586 6.02834 7.08366 6.24935 7.08366C6.47036 7.08366 6.68232 6.99586 6.8386 6.83958C6.99488 6.6833 7.08268 6.47134 7.08268 6.25033C7.08268 6.02931 6.99488 5.81735 6.8386 5.66107C6.68232 5.50479 6.47036 5.41699 6.24935 5.41699C6.02834 5.41699 5.81637 5.50479 5.66009 5.66107C5.50381 5.81735 5.41602 6.02931 5.41602 6.25033Z" stroke="#0B1B23" stroke-width="2" stroke-linecap="round" stroke-linejoin="round"/>
<path d="M2.5 5.00049V9.31049C2.50009 9.75248 2.67575 10.1763 2.98833 10.4888L9.41333 16.9138C9.78996 17.2904 10.3007 17.5019 10.8333 17.5019C11.3659 17.5019 11.8767 17.2904 12.2533 16.9138L16.9133 12.2538C17.2899 11.8772 17.5015 11.3664 17.5015 10.8338C17.5015 10.3012 17.2899 9.79045 16.9133 9.41382L10.4883 2.98882C10.1758 2.67624 9.75199 2.50058 9.31 2.50049H5C4.33696 2.50049 3.70107 2.76388 3.23223 3.23272C2.76339 3.70156 2.5 4.33745 2.5 5.00049Z" stroke="#0B1B23" stroke-width="2" stroke-linecap="round" stroke-linejoin="round"/>
</svg>
