<svg width="62" height="56" viewBox="0 0 62 56" fill="none" xmlns="http://www.w3.org/2000/svg">
<path d="M31.4567 13.5377C30.9896 13.7007 29.7875 13.8867 28.6534 12.0858L26.9983 13.2947C27.8454 14.6387 28.8514 15.3437 29.8255 15.6297V16.9976H31.8257V15.6497C31.9097 15.6277 31.9977 15.6137 32.0777 15.5857C33.5188 15.0777 34.4949 13.7377 34.4489 12.3248C34.4249 11.5778 34.0469 9.75584 31.0686 8.95286C29.7145 8.58787 29.2155 8.01289 29.2025 7.5949C29.1885 7.15792 29.6245 6.65893 30.1946 6.45794C30.6626 6.29494 31.8647 6.10895 32.9988 7.90989L34.6539 6.70093C33.8079 5.35697 32.7998 4.663 31.8257 4.378V2.99805H29.8255V4.346C29.7435 4.368 29.6545 4.382 29.5755 4.41C28.1324 4.91799 27.1573 6.25795 27.2043 7.6709C27.2273 8.41788 27.6053 10.2398 30.5836 11.0428C31.9387 11.4078 32.4367 11.9828 32.4497 12.4008C32.4647 12.8377 32.0277 13.3367 31.4567 13.5377Z" fill="white"/>
<path d="M15.3021 41.9987L10.5567 23.9783C12.9929 23.8503 15.3921 22.8333 17.7433 21.8263C21.8986 20.0424 25.8309 18.3714 30.0063 21.3393V29.1011C27.7271 29.5651 26.006 31.585 26.006 33.9989V45.9986H24.0058V47.9985H38.0069V45.9986H36.0068V33.9989C36.0068 31.585 34.2856 29.5641 32.0064 29.1011V21.3393C36.1808 18.3724 40.1131 20.0424 44.2695 21.8263C46.6207 22.8343 49.0199 23.8503 51.4561 23.9783L46.7107 41.9987H59.3067L54.4643 23.6173C55.1534 23.4033 55.8444 23.1043 56.5385 22.6713L55.4784 20.9763C52.1731 23.0413 48.8758 21.6253 45.0575 19.9894C42.6453 18.9544 40.0571 17.8514 37.3489 17.7244C39.5811 15.8895 41.0072 13.1076 41.0072 9.99969C41.0072 4.48586 36.5208 0 31.0064 0C25.4919 0 21.0055 4.48586 21.0055 9.99969C21.0055 13.1066 22.4317 15.8885 24.6628 17.7244C21.9546 17.8514 19.3664 18.9534 16.9552 19.9894C13.1359 21.6273 9.83762 23.0393 6.53435 20.9763L5.47426 22.6713C6.16832 23.1053 6.85937 23.4033 7.54843 23.6173L2.70703 41.9987H15.3021ZM49.3049 39.9988L53.0082 25.9392L56.7115 39.9988H49.3049ZM34.0066 33.9989V45.9986H28.0061V33.9989C28.0061 32.345 29.3522 30.999 31.0064 30.999C32.6605 30.999 34.0066 32.345 34.0066 33.9989ZM23.0057 9.99969C23.0057 5.58883 26.595 1.99994 31.0064 1.99994C35.4177 1.99994 39.007 5.58883 39.007 9.99969C39.007 14.4106 35.4177 17.9994 31.0064 17.9994C26.595 17.9994 23.0057 14.4106 23.0057 9.99969ZM5.30125 39.9988L9.00455 25.9392L12.7079 39.9988H5.30125Z" fill="white"/>
<path d="M20.0002 55.9998H42.0021V49.9999H20.0002V55.9998ZM22.0004 51.9999H40.0019V53.9998H22.0004V51.9999Z" fill="white"/>
<path d="M9.00074 48.9997C5.14042 48.9997 2.00016 45.8588 2.00016 41.9999H0C0 46.9628 4.03833 50.9997 9.00074 50.9997C13.9632 50.9997 18.0015 46.9628 18.0015 41.9999H16.0013C16.0013 45.8588 12.8611 48.9997 9.00074 48.9997Z" fill="white"/>
<path d="M59.9999 41.9999C59.9999 45.8588 56.8596 48.9997 52.9993 48.9997C49.139 48.9997 45.9987 45.8588 45.9987 41.9999H43.9985C43.9985 46.9628 48.0369 50.9997 52.9993 50.9997C57.9617 50.9997 62 46.9628 62 41.9999H59.9999Z" fill="white"/>
</svg>
