<svg width="32" height="32" viewBox="0 0 32 32" fill="none" xmlns="http://www.w3.org/2000/svg">
<path d="M31.5941 18.2692C30.7994 16.9805 29.1187 16.5928 27.8473 17.379L21.2834 21.3795C21.1481 20.2975 20.2 19.451 19.0717 19.451H17.8544V3.76471H23.3708L20.378 9.41177H20.0471C19.7012 9.41177 19.4207 9.69267 19.4207 10.0392C19.4207 12.4611 21.3879 14.4314 23.806 14.4314H25.0589C27.477 14.4314 29.4442 12.4611 29.4442 10.0392C29.4442 9.69267 29.1637 9.41177 28.8177 9.41177H28.485L25.4597 3.76471H26.6251C27.6614 3.76471 28.5045 2.92028 28.5045 1.88235C28.5045 0.844424 27.6614 0 26.6251 0H5.32507C4.28876 0 3.44565 0.844424 3.44565 1.88235C3.44565 2.92028 4.28876 3.76471 5.32507 3.76471H6.45622L3.46332 9.41177H3.13242C2.78642 9.41177 2.50595 9.69267 2.50595 10.0392C2.50595 12.4611 4.47319 14.4314 6.89125 14.4314H8.14419C10.5622 14.4314 12.5295 12.4611 12.5295 10.0392C12.5295 9.69267 12.249 9.41177 11.903 9.41177H11.5702L8.545 3.76471H14.0956V19.451H10.7928C10.212 19.451 9.65887 19.3009 9.19334 19.0169C7.73109 18.125 5.96451 17.9575 4.3853 18.5183V17.5686C4.3853 17.2221 4.10483 16.9412 3.75883 16.9412H0.626471C0.280471 16.9412 0 17.2221 0 17.5686V31.3726C0 31.7191 0.280471 32 0.626471 32H3.75883C4.10483 32 4.3853 31.7191 4.3853 31.3726V30.8028H16.2319C16.4225 30.8028 16.6089 30.7498 16.771 30.6495L30.708 22.0253C31.9861 21.2348 32.3836 19.5498 31.5941 18.2692ZM25.0588 13.1765H23.8059C22.2932 13.1765 21.0275 12.0969 20.7365 10.6667C21.5374 10.6667 27.3254 10.6667 28.1282 10.6667C27.8372 12.0969 26.5715 13.1765 25.0588 13.1765ZM21.7965 9.41177L24.4156 4.4699L27.063 9.41177H21.7965ZM4.69853 1.88235C4.69853 1.53638 4.97957 1.2549 5.32501 1.2549H26.625C26.9705 1.2549 27.2515 1.53638 27.2515 1.88235C27.2515 2.22833 26.9705 2.5098 26.625 2.5098C19.5518 2.5098 12.443 2.5098 5.32501 2.5098C4.97957 2.5098 4.69853 2.22833 4.69853 1.88235ZM8.14413 13.1765H6.89118C5.37851 13.1765 4.11285 12.0969 3.82173 10.6667C4.65011 10.6667 10.3593 10.6667 11.2135 10.6667C10.9225 12.0969 9.6568 13.1765 8.14413 13.1765ZM4.88178 9.41177L7.50093 4.4699L10.1483 9.41177H4.88178ZM15.3485 3.76471H16.6015V19.451H15.3485V3.76471ZM3.13236 30.7451H1.25294V18.1961H3.13236V30.7451ZM30.0496 20.9577L16.1673 29.5479H4.3853V19.8745C5.71154 19.2424 7.27383 19.3154 8.54162 20.0887C9.20355 20.4925 9.982 20.7059 10.7928 20.7059H19.0717C19.5993 20.7059 20.0367 21.1194 20.0469 21.6275C20.0574 22.1563 19.6346 22.5883 19.1074 22.5883H14.4088C14.0628 22.5883 13.7824 22.8692 13.7824 23.2158C13.7824 23.5623 14.0628 23.8432 14.4088 23.8432H19.1074C19.8118 23.8432 19.1735 24.1472 28.5022 18.4489C29.1942 18.021 30.1004 18.235 30.528 18.9286C30.9546 19.6204 30.74 20.5306 30.0496 20.9577Z" fill="#FF5722"/>
</svg>
