<svg width="56" height="56" viewBox="0 0 56 56" fill="none" xmlns="http://www.w3.org/2000/svg">
<path d="M55.2896 31.9712C53.8989 29.7158 50.9577 29.0374 48.7328 30.4133L37.2459 37.4142C37.0092 35.5207 35.35 34.0392 33.3755 34.0392H31.2452V6.58824H40.8989L35.6615 16.4706H35.0825C34.4771 16.4706 33.9862 16.9622 33.9862 17.5686C33.9862 21.8068 37.4288 25.2549 41.6604 25.2549H43.8531C48.0847 25.2549 51.5274 21.8068 51.5274 17.5686C51.5274 16.9622 51.0364 16.4706 50.431 16.4706H49.8487L44.5545 6.58824H46.5939C48.4074 6.58824 49.8829 5.11049 49.8829 3.29412C49.8829 1.47774 48.4074 0 46.5939 0H9.31887C7.50533 0 6.02989 1.47774 6.02989 3.29412C6.02989 5.11049 7.50533 6.58824 9.31887 6.58824H11.2984L6.06081 16.4706H5.48173C4.87623 16.4706 4.38541 16.9622 4.38541 17.5686C4.38541 21.8068 7.82809 25.2549 12.0597 25.2549H14.2523C18.4839 25.2549 21.9266 21.8068 21.9266 17.5686C21.9266 16.9622 21.4358 16.4706 20.8303 16.4706H20.2479L14.9538 6.58824H24.6673V34.0392H18.8874C17.871 34.0392 16.903 33.7766 16.0883 33.2796C13.5294 31.7187 10.4379 31.4256 7.67427 32.407V30.7451C7.67427 30.1387 7.18345 29.6471 6.57795 29.6471H1.09632C0.490825 29.6471 0 30.1387 0 30.7451V54.902C0 55.5084 0.490825 56 1.09632 56H6.57795C7.18345 56 7.67427 55.5084 7.67427 54.902V53.9049H28.4058C28.7394 53.9049 29.0656 53.8122 29.3493 53.6366L53.739 38.5443C55.9757 37.1608 56.6713 34.2122 55.2896 31.9712ZM43.853 23.0588H41.6603C39.0131 23.0588 36.7981 21.1695 36.2889 18.6667C37.6904 18.6667 47.8194 18.6667 49.2244 18.6667C48.7152 21.1695 46.5002 23.0588 43.853 23.0588ZM38.1439 16.4706L42.7273 7.82232L47.3602 16.4706H38.1439ZM8.22243 3.29412C8.22243 2.68866 8.71424 2.19608 9.31876 2.19608H46.5938C47.1983 2.19608 47.6901 2.68866 47.6901 3.29412C47.6901 3.89958 47.1983 4.39216 46.5938 4.39216C34.2156 4.39216 21.7752 4.39216 9.31876 4.39216C8.71424 4.39216 8.22243 3.89958 8.22243 3.29412ZM14.2522 23.0588H12.0596C9.41238 23.0588 7.19748 21.1695 6.68802 18.6667C8.13769 18.6667 18.1287 18.6667 19.6237 18.6667C19.1143 21.1695 16.8994 23.0588 14.2522 23.0588ZM8.54311 16.4706L13.1266 7.82232L17.7595 16.4706H8.54311ZM26.86 6.58824H29.0526V34.0392H26.86V6.58824ZM5.48162 53.8039H2.19265V31.8431H5.48162V53.8039ZM52.5867 36.6759L28.2928 51.7089H7.67427V34.7804C9.99519 33.6742 12.7292 33.8019 14.9478 35.1553C16.1062 35.862 17.4685 36.2354 18.8875 36.2354H33.3755C34.2987 36.2354 35.0643 36.9589 35.0821 37.8482C35.1005 38.7735 34.3606 39.5295 33.4379 39.5295H25.2155C24.61 39.5295 24.1191 40.0211 24.1191 40.6276C24.1191 41.234 24.61 41.7256 25.2155 41.7256H33.4379C34.6706 41.7256 33.5537 42.2576 49.8788 32.2855C51.0899 31.5367 52.6758 31.9113 53.424 33.1251C54.1705 34.3357 53.795 35.9286 52.5867 36.6759Z" fill="white"/>
</svg>
