<svg width="30" height="32" viewBox="0 0 30 32" fill="none" xmlns="http://www.w3.org/2000/svg">
<path d="M29.4386 13.5023H0.561379C0.412493 13.5023 0.269704 13.4435 0.164425 13.3387C0.0591469 13.234 2.0918e-06 13.0919 2.0918e-06 12.9438V8.47539C-0.000273551 8.37492 0.0266973 8.27622 0.0780726 8.18972C0.129448 8.10321 0.203325 8.0321 0.291918 7.98387L14.7305 0.0748312C14.8159 0.0258084 14.9127 0 15.0112 0C15.1098 0 15.2066 0.0258084 15.2919 0.0748312L29.7081 7.98387C29.7967 8.0321 29.8706 8.10321 29.9219 8.18972C29.9733 8.27622 30.0003 8.37492 30 8.47539V12.9438C30 13.0919 29.9409 13.234 29.8356 13.3387C29.7303 13.4435 29.5875 13.5023 29.4386 13.5023ZM1.12276 12.3852H28.8772V8.80494L15 1.2031L1.12276 8.80494V12.3852Z" fill="#FF5722"/>
<path d="M29.4386 31.9999H0.561377C0.412491 31.9999 0.269702 31.941 0.164423 31.8363C0.0591448 31.7316 0 31.5895 0 31.4413V27.498C0 27.3499 0.0591448 27.2078 0.164423 27.103C0.269702 26.9983 0.412491 26.9395 0.561377 26.9395H29.4386C29.5875 26.9395 29.7303 26.9983 29.8356 27.103C29.9409 27.2078 30 27.3499 30 27.498V31.4413C30 31.5895 29.9409 31.7316 29.8356 31.8363C29.7303 31.941 29.5875 31.9999 29.4386 31.9999ZM1.12275 30.8828H28.8772V28.0565H1.12275V30.8828Z" fill="#FF5722"/>
<path d="M15.0004 11.084C14.3626 11.0851 13.7388 10.8979 13.208 10.546C12.6773 10.1941 12.2634 9.69349 12.0188 9.10743C11.7742 8.52137 11.71 7.87627 11.8341 7.25384C11.9583 6.6314 12.2653 6.05962 12.7163 5.61091C13.1672 5.1622 13.7419 4.85674 14.3675 4.73321C14.9931 4.60968 15.6415 4.67364 16.2305 4.91699C16.8195 5.16034 17.3227 5.57214 17.6764 6.10023C18.03 6.62832 18.2182 7.24895 18.2171 7.88352C18.2156 8.73189 17.8762 9.54509 17.2733 10.145C16.6704 10.7449 15.853 11.0825 15.0004 11.084ZM15.0004 5.79455C14.5849 5.79345 14.1784 5.91502 13.8324 6.14389C13.4864 6.37276 13.2164 6.69862 13.0566 7.08023C12.8969 7.46184 12.8545 7.88204 12.9349 8.28763C13.0152 8.69321 13.2148 9.06595 13.5082 9.35866C13.8016 9.65137 14.1757 9.85088 14.5831 9.93193C14.9905 10.013 15.413 9.97195 15.7969 9.81401C16.1809 9.65606 16.5091 9.38832 16.7401 9.04467C16.971 8.70102 17.0943 8.29692 17.0943 7.88352C17.0943 7.33046 16.8739 6.79997 16.4814 6.40837C16.0888 6.01677 15.5562 5.79603 15.0004 5.79455Z" fill="#FF5722"/>
<path d="M6.95052 28.0576H2.20688C2.058 28.0576 1.91521 27.9988 1.80993 27.894C1.70465 27.7893 1.64551 27.6472 1.64551 27.4991V12.9433C1.64551 12.7952 1.70465 12.6531 1.80993 12.5484C1.91521 12.4436 2.058 12.3848 2.20688 12.3848H6.95052C7.09941 12.3848 7.2422 12.4436 7.34748 12.5484C7.45275 12.6531 7.5119 12.7952 7.5119 12.9433V27.4991C7.5119 27.6472 7.45275 27.7893 7.34748 27.894C7.2422 27.9988 7.09941 28.0576 6.95052 28.0576ZM2.76826 26.9405H6.38914V13.5019H2.76826V26.9405Z" fill="#FF5722"/>
<path d="M27.7933 28.0576H23.0497C22.9008 28.0576 22.758 27.9988 22.6527 27.894C22.5474 27.7893 22.4883 27.6472 22.4883 27.4991V12.9433C22.4883 12.7952 22.5474 12.6531 22.6527 12.5484C22.758 12.4436 22.9008 12.3848 23.0497 12.3848H27.7933C27.9422 12.3848 28.085 12.4436 28.1902 12.5484C28.2955 12.6531 28.3547 12.7952 28.3547 12.9433V27.4991C28.3547 27.5724 28.3402 27.6451 28.3119 27.7128C28.2837 27.7806 28.2424 27.8422 28.1902 27.894C28.1381 27.9459 28.0762 27.987 28.0081 28.0151C27.94 28.0432 27.867 28.0576 27.7933 28.0576ZM23.611 26.9405H27.2319V13.5019H23.611V26.9405Z" fill="#FF5722"/>
<path d="M15.001 24.6234C14.3108 24.6522 13.6371 24.4082 13.127 23.9446C12.6169 23.4811 12.3118 22.8355 12.2783 22.149C12.2783 22.0009 12.3375 21.8588 12.4427 21.754C12.548 21.6493 12.6908 21.5904 12.8397 21.5904C12.9886 21.5904 13.1314 21.6493 13.2367 21.754C13.3419 21.8588 13.4011 22.0009 13.4011 22.149C13.4368 22.5383 13.6242 22.8982 13.9232 23.1518C14.2222 23.4055 14.609 23.5327 15.001 23.5063C15.393 23.5327 15.7798 23.4055 16.0788 23.1518C16.3778 22.8982 16.5652 22.5383 16.6009 22.149C16.5694 21.7571 16.3836 21.3935 16.0839 21.1373C15.7843 20.881 15.3951 20.7528 15.001 20.7805C14.3098 20.8093 13.6353 20.5646 13.1251 20.0998C12.6148 19.6351 12.3104 18.9881 12.2783 18.3006C12.3104 17.613 12.6148 16.9661 13.1251 16.5014C13.6353 16.0366 14.3098 15.7918 15.001 15.8206C15.6922 15.7918 16.3667 16.0366 16.8769 16.5014C17.3872 16.9661 17.6916 17.613 17.7237 18.3006C17.7237 18.4487 17.6645 18.5908 17.5593 18.6955C17.454 18.8003 17.3112 18.8591 17.1623 18.8591C17.0134 18.8591 16.8706 18.8003 16.7653 18.6955C16.6601 18.5908 16.6009 18.4487 16.6009 18.3006C16.568 17.9097 16.3816 17.5475 16.0821 17.2924C15.7826 17.0374 15.3942 16.9099 15.001 16.9377C14.6078 16.9099 14.2194 17.0374 13.9199 17.2924C13.6204 17.5475 13.434 17.9097 13.4011 18.3006C13.4354 18.6909 13.6222 19.0522 13.9214 19.307C14.2205 19.5618 14.6081 19.6898 15.001 19.6635C15.6931 19.6347 16.3684 19.8802 16.8788 20.3461C17.3892 20.8121 17.6931 21.4605 17.7237 22.149C17.6902 22.8355 17.3851 23.4811 16.875 23.9446C16.3649 24.4082 15.6912 24.6522 15.001 24.6234Z" fill="#FF5722"/>
<path d="M15.0008 26.1023C14.8519 26.1023 14.7092 26.0435 14.6039 25.9387C14.4986 25.834 14.4395 25.6919 14.4395 25.5438V14.8867C14.4395 14.7385 14.4986 14.5965 14.6039 14.4917C14.7092 14.387 14.8519 14.3281 15.0008 14.3281C15.1497 14.3281 15.2925 14.387 15.3978 14.4917C15.5031 14.5965 15.5622 14.7385 15.5622 14.8867V25.5438C15.5622 25.6919 15.5031 25.834 15.3978 25.9387C15.2925 26.0435 15.1497 26.1023 15.0008 26.1023Z" fill="#FF5722"/>
</svg>
