<svg width="14" height="16" viewBox="0 0 14 16" fill="none" xmlns="http://www.w3.org/2000/svg">
<path fill-rule="evenodd" clip-rule="evenodd" d="M12.277 3.53494C12.277 3.38692 12.2182 3.24495 12.1136 3.14028C12.0089 3.03561 11.8669 2.97681 11.7189 2.97681H1.30033C1.1523 2.97681 1.01033 3.03561 0.905663 3.14028C0.800992 3.24495 0.742189 3.38692 0.742189 3.53494V13.5814C0.741895 13.8991 0.804253 14.2138 0.925695 14.5073C1.04714 14.8009 1.22528 15.0676 1.44992 15.2923C1.67457 15.5169 1.94131 15.6951 2.23488 15.8165C2.52845 15.938 2.84309 16.0003 3.16079 16H9.85845C10.1761 16.0003 10.4908 15.938 10.7844 15.8165C11.0779 15.6951 11.3447 15.5169 11.5693 15.2923C11.794 15.0676 11.9721 14.8009 12.0935 14.5073C12.215 14.2138 12.2773 13.8991 12.277 13.5814V3.53494ZM11.1608 4.09308V13.5814C11.1608 13.9267 11.0238 14.2579 10.779 14.502C10.6582 14.6231 10.5147 14.7191 10.3568 14.7846C10.1988 14.8501 10.0295 14.8838 9.85845 14.8838H3.16079C2.81549 14.8838 2.48432 14.7468 2.24023 14.502C2.11915 14.3812 2.0231 14.2377 1.95758 14.0798C1.89207 13.9218 1.85839 13.7524 1.85846 13.5814V4.09308H11.1608Z" fill="#C3922E"/>
<path fill-rule="evenodd" clip-rule="evenodd" d="M9.86126 4.09301C10.0093 4.09301 10.1513 4.03421 10.2559 3.92954C10.3606 3.82487 10.4194 3.6829 10.4194 3.53488V2.04651C10.4194 1.504 10.2036 0.983067 9.82033 0.599068C9.43617 0.215661 8.91565 0.000227881 8.3729 0H4.65198C4.10947 0 3.58854 0.215813 3.20454 0.599068C2.82113 0.983233 2.6057 1.50375 2.60547 2.04651V3.53488C2.60547 3.84297 2.85551 4.09301 3.16361 4.09301H9.86126ZM9.30313 2.97674H3.72175V2.04651C3.72214 1.79992 3.82027 1.56354 3.99464 1.38917C4.16901 1.2148 4.40538 1.11667 4.65198 1.11628H8.3729C8.61949 1.11667 8.85587 1.2148 9.03023 1.38917C9.2046 1.56354 9.30273 1.79992 9.30313 2.04651V2.97674Z" fill="#C3922E"/>
<path fill-rule="evenodd" clip-rule="evenodd" d="M12.4651 2.97681H0.558138C0.410111 2.97681 0.268146 3.03561 0.163475 3.14028C0.0588036 3.24495 0 3.38692 0 3.53494C0 3.68297 0.0588036 3.82494 0.163475 3.92961C0.268146 4.03428 0.410111 4.09308 0.558138 4.09308H12.4651C12.6131 4.09308 12.7551 4.03428 12.8597 3.92961C12.9644 3.82494 13.0232 3.68297 13.0232 3.53494C13.0232 3.38692 12.9644 3.24495 12.8597 3.14028C12.7551 3.03561 12.6131 2.97681 12.4651 2.97681ZM4.09301 6.88377V12.0931C4.09301 12.2411 4.15182 12.3831 4.25649 12.4877C4.36116 12.5924 4.50312 12.6512 4.65115 12.6512C4.79918 12.6512 4.94114 12.5924 5.04581 12.4877C5.15049 12.3831 5.20929 12.2411 5.20929 12.0931V6.88377C5.20929 6.73575 5.15049 6.59378 5.04581 6.48911C4.94114 6.38444 4.79918 6.32564 4.65115 6.32564C4.50312 6.32564 4.36116 6.38444 4.25649 6.48911C4.15182 6.59378 4.09301 6.73575 4.09301 6.88377ZM7.81393 6.88377V12.0931C7.81393 12.2411 7.87274 12.3831 7.97741 12.4877C8.08208 12.5924 8.22404 12.6512 8.37207 12.6512C8.5201 12.6512 8.66206 12.5924 8.76674 12.4877C8.87141 12.3831 8.93021 12.2411 8.93021 12.0931V6.88377C8.93021 6.73575 8.87141 6.59378 8.76674 6.48911C8.66206 6.38444 8.5201 6.32564 8.37207 6.32564C8.22404 6.32564 8.08208 6.38444 7.97741 6.48911C7.87274 6.59378 7.81393 6.73575 7.81393 6.88377Z" fill="#C3922E"/>
</svg>
