<svg width="12" height="12" viewBox="0 0 12 12" fill="none" xmlns="http://www.w3.org/2000/svg">
<path d="M8.00133 12H3.99867V9.55L2.07038 10.75L0 7.4275L2.29403 6L0 4.5725L2.07038 1.25L3.99867 2.45V0H8.00133V2.45L9.92962 1.25L12 4.574L9.70597 6L12 7.4275L9.92962 10.75L8.00133 9.55V12ZM4.99933 11H7.00067V7.75L9.60891 9.3735L10.6221 7.75L7.81321 6L10.6221 4.25L9.60891 2.626L7.00067 4.25V1H4.99933V4.25L2.39109 2.626L1.37792 4.25L4.18679 6L1.37792 7.75L2.39109 9.376L4.99933 7.75V11Z" fill="#021C1B"/>
</svg>
