<svg width="26" height="13" viewBox="0 0 26 13" fill="none" xmlns="http://www.w3.org/2000/svg">
<path d="M6.27211 0.900006C6.27211 0.402964 6.83376 0 7.52654 0H23.834C24.5268 0 25.0885 0.402964 25.0885 0.900006C25.0885 1.39705 24.5268 1.80001 23.834 1.80001H7.52654C6.83376 1.80001 6.27211 1.39701 6.27211 0.900006ZM23.834 5.40004H1.25442C0.561648 5.40004 0 5.80304 0 6.30004C0 6.79709 0.561648 7.20005 1.25442 7.20005H23.834C24.5268 7.20005 25.0885 6.79709 25.0885 6.30004C25.0885 5.80304 24.5268 5.40004 23.834 5.40004ZM23.834 10.8001H12.5442C11.8515 10.8001 11.2898 11.203 11.2898 11.7001C11.2898 12.1971 11.8515 12.6001 12.5442 12.6001H23.834C24.5268 12.6001 25.0885 12.1971 25.0885 11.7001C25.0885 11.203 24.5268 10.8001 23.834 10.8001Z" fill="#021C1B"/>
</svg>
