<svg width="30" height="30" viewBox="0 0 30 30" fill="none" xmlns="http://www.w3.org/2000/svg">
<path fill-rule="evenodd" clip-rule="evenodd" d="M12.1526 11.8478C12.7502 11.2494 13.0873 10.4368 13.0873 9.58916C13.0873 8.74148 12.7502 7.92895 12.1526 7.33047C11.2519 6.42848 10.1098 5.28475 9.20912 4.38277C8.61043 3.78322 7.79906 3.44671 6.95366 3.44671C6.1072 3.44671 5.29582 3.78322 4.69712 4.38277C3.98997 5.09094 3.12332 5.95991 2.29812 6.78629C0.193666 8.8927 -0.177463 12.1769 1.40381 14.7007C1.407 14.7061 1.41019 14.7103 1.41338 14.7157C5.06827 20.3363 9.69827 24.9666 15.3311 28.5926C15.3343 28.5947 15.3375 28.5969 15.3407 28.599C17.8418 30.1729 21.0957 29.8077 23.1874 27.7226C24.0414 26.9207 24.9123 26.0496 25.6226 25.3382C26.2213 24.7387 26.5574 23.9261 26.5574 23.0785C26.5574 22.2318 26.2213 21.4193 25.6226 20.8198C24.7219 19.9178 23.5809 18.7741 22.6791 17.8721C22.0815 17.2736 21.2701 16.9371 20.4237 16.9371C19.5772 16.9371 18.7658 17.2736 18.1682 17.8721L16.9602 19.0818C16.6316 19.4109 16.1297 19.4876 15.7192 19.2746C13.5967 18.0808 11.9495 16.428 10.7787 14.2971C10.565 13.8935 10.6394 13.3962 10.9626 13.0725C10.9733 13.0618 10.9839 13.0501 10.9945 13.0395C11.3423 12.6593 11.7592 12.2419 12.1526 11.8478ZM10.649 10.342C10.2385 10.7531 9.80461 11.1876 9.44093 11.5848C8.46899 12.573 8.251 14.081 8.90605 15.3056C8.90712 15.3088 8.90925 15.312 8.91138 15.3163C10.2789 17.8103 12.2068 19.7442 14.6856 21.1371C14.692 21.1403 14.6984 21.1435 14.7048 21.1467C15.9447 21.8101 17.4707 21.5833 18.4649 20.5876L19.6719 19.3779C19.8707 19.1787 20.1419 19.0669 20.4237 19.0669C20.7055 19.0669 20.9766 19.1787 21.1755 19.3779C22.0762 20.2809 23.2183 21.4236 24.119 22.3256C24.3178 22.5258 24.4306 22.7963 24.4306 23.0785C24.4306 23.3617 24.3178 23.6322 24.119 23.8314C23.4193 24.5321 22.5622 25.3915 21.7189 26.1816C21.7104 26.1891 21.703 26.1976 21.6944 26.2061C20.3046 27.5969 18.1395 27.8429 16.4753 26.7982C11.1041 23.3383 6.68782 18.9221 3.20095 13.5624C2.15138 11.8808 2.40021 9.69458 3.80177 8.29209L6.20184 5.88856C6.40069 5.68942 6.67186 5.57654 6.95366 5.57654C7.23546 5.57654 7.50556 5.68942 7.70548 5.88856C8.60618 6.79055 9.74721 7.93428 10.649 8.83626C10.8478 9.03646 10.9605 9.30695 10.9605 9.58916C10.9605 9.87136 10.8478 10.1429 10.649 10.342ZM13.3032 2.54578C20.5704 3.68843 26.317 9.44326 27.457 16.7198C27.5474 17.3002 28.0918 17.6974 28.6725 17.6069C29.252 17.5153 29.6486 16.9701 29.5582 16.3897C28.2747 8.20156 21.8093 1.72687 13.6339 0.442576C13.0533 0.350993 12.5088 0.748208 12.4185 1.32859C12.327 1.91003 12.7237 2.45526 13.3032 2.54578ZM14.2103 8.21753C17.8035 9.36871 20.6438 12.2131 21.7934 15.8115C21.972 16.3705 22.5707 16.6804 23.13 16.5015C23.6883 16.3226 23.9978 15.722 23.8191 15.1629C22.4612 10.9107 19.1051 7.54877 14.8589 6.18887C14.2996 6.00996 13.7009 6.31985 13.5212 6.87893C13.3425 7.43907 13.652 8.03863 14.2103 8.21753Z" fill="#0A4D68"/>
</svg>
