<svg width="24" height="25" viewBox="0 0 24 25" fill="none" xmlns="http://www.w3.org/2000/svg">
<g id="Group 1000008209">
<path id="Vector" fill-rule="evenodd" clip-rule="evenodd" d="M8.17374 11.4679L8.1703 11.4696C7.72894 11.6903 7.42154 12.1093 7.34254 12.5962C7.26355 13.0822 7.42326 13.5776 7.77188 13.9263L11.0503 17.2047C11.3989 17.5533 11.8944 17.713 12.3804 17.634C12.8673 17.555 13.2863 17.2476 13.507 16.8063L13.5087 16.8028C13.8152 16.1889 14.3983 15.7604 15.0758 15.6505C15.7533 15.5406 16.4419 15.763 16.9271 16.2481L19.0171 18.3373C19.4997 18.8207 19.7719 19.4759 19.7719 20.1594C19.7719 20.842 19.4997 21.4972 19.0171 21.9806L17.9025 23.0943C16.6978 24.2999 15.0638 24.9766 13.3601 24.9766C11.6557 24.9766 10.0216 24.2999 8.81689 23.0943L1.88222 16.1597C0.676638 14.9549 0 13.3209 0 11.6164C0 9.91281 0.676638 8.27874 1.88222 7.07402L2.99592 5.95946C3.47936 5.47688 4.13453 5.20468 4.81717 5.20468C5.50068 5.20468 6.15585 5.47688 6.63929 5.95946L8.72845 8.04948C9.2136 8.53463 9.43599 9.22329 9.32608 9.90078C9.21617 10.5783 8.78769 11.1613 8.17374 11.4679ZM7.40608 9.93169C7.5263 9.87244 7.60959 9.75824 7.63106 9.62601C7.65252 9.49291 7.60959 9.35896 7.51428 9.26364L5.42426 7.17363C5.26369 7.01305 5.04558 6.92203 4.81717 6.92203C4.58963 6.92203 4.37152 7.01305 4.21009 7.17363L3.09639 8.28819C2.21367 9.17091 1.71735 10.3679 1.71735 11.6164C1.71735 12.8649 2.21367 14.0628 3.09639 14.9455L10.0311 21.8802C10.9138 22.7629 12.1116 23.2592 13.3601 23.2592C14.6087 23.2592 15.8057 22.7629 16.6884 21.8802L17.8029 20.7665C17.9635 20.605 18.0545 20.3869 18.0545 20.1594C18.0545 19.931 17.9635 19.7129 17.8029 19.5523L15.7129 17.4623C15.6176 17.367 15.4837 17.324 15.3506 17.3455C15.2183 17.367 15.1041 17.4503 15.0449 17.5705L15.0423 17.5748C14.5752 18.509 13.6873 19.1625 12.656 19.3299C11.6239 19.4973 10.5755 19.1582 9.83614 18.4197L6.55685 15.1404C5.81839 14.4011 5.47921 13.3527 5.64665 12.3205C5.81409 11.2893 6.46755 10.4014 7.40179 9.93427L7.40608 9.93169ZM12.8801 9.4912C12.4062 9.4912 12.0215 9.10565 12.0215 8.63252C12.0215 8.15853 12.4062 7.77384 12.8801 7.77384C15.2664 7.77384 17.2027 9.71016 17.2027 12.0964C17.2027 12.5704 16.818 12.9551 16.344 12.9551C15.8709 12.9551 15.4854 12.5704 15.4854 12.0964C15.4854 10.6581 14.3184 9.4912 12.8801 9.4912ZM12.8801 6.12862C12.4062 6.12862 12.0215 5.74393 12.0215 5.26994C12.0215 4.79595 12.4062 4.41127 12.8801 4.41127C17.122 4.41127 20.5653 7.85456 20.5653 12.0964C20.5653 12.5704 20.1806 12.9551 19.7066 12.9551C19.2326 12.9551 18.8479 12.5704 18.8479 12.0964C18.8479 8.80254 16.174 6.12862 12.8801 6.12862ZM12.8801 2.69392C12.4062 2.69392 12.0215 2.30923 12.0215 1.83524C12.0215 1.36125 12.4062 0.976562 12.8801 0.976562C19.0171 0.976562 24 5.95946 24 12.0964C24 12.5704 23.6153 12.9551 23.1413 12.9551C22.6673 12.9551 22.2826 12.5704 22.2826 12.0964C22.2826 6.90744 18.0691 2.69392 12.8801 2.69392Z" fill="white"/>
</g>
</svg>
