<svg width="40" height="41" viewBox="0 0 40 41" fill="none" xmlns="http://www.w3.org/2000/svg">
<path d="M19.9859 3.83203C10.7859 3.83203 3.33594 11.2987 3.33594 20.4987C3.33594 29.6987 10.7859 37.1654 19.9859 37.1654C29.2026 37.1654 36.6693 29.6987 36.6693 20.4987C36.6693 11.2987 29.2026 3.83203 19.9859 3.83203ZM20.0026 33.832C12.6359 33.832 6.66927 27.8654 6.66927 20.4987C6.66927 13.132 12.6359 7.16536 20.0026 7.16536C27.3693 7.16536 33.3359 13.132 33.3359 20.4987C33.3359 27.8654 27.3693 33.832 20.0026 33.832ZM19.6359 12.1654H19.5359C18.8693 12.1654 18.3359 12.6987 18.3359 13.3654V21.232C18.3359 21.8154 18.6359 22.3654 19.1526 22.6654L26.0693 26.8154C26.6359 27.1487 27.3693 26.982 27.7026 26.4154C27.7863 26.2804 27.842 26.13 27.8663 25.9731C27.8906 25.8162 27.8832 25.6559 27.8443 25.502C27.8054 25.348 27.7359 25.2035 27.64 25.0769C27.5441 24.9504 27.4237 24.8444 27.2859 24.7654L20.8359 20.932V13.3654C20.8359 12.6987 20.3026 12.1654 19.6359 12.1654Z" fill="#070812"/>
</svg>
