<svg width="52" height="56" viewBox="0 0 52 56" fill="none" xmlns="http://www.w3.org/2000/svg">
<g id="Group 1000008359">
<path id="Vector" d="M51.0269 23.6291H0.973057C0.714987 23.6291 0.467487 23.5261 0.285004 23.3428C0.102521 23.1595 3.62578e-06 22.9108 3.62578e-06 22.6516V14.8319C-0.000474155 14.6561 0.0462753 14.4834 0.135326 14.332C0.224376 14.1806 0.35243 14.0562 0.505992 13.9718L25.5329 0.130955C25.6809 0.0451647 25.8487 0 26.0195 0C26.1903 0 26.3581 0.0451647 26.506 0.130955L51.494 13.9718C51.6476 14.0562 51.7756 14.1806 51.8647 14.332C51.9537 14.4834 52.0005 14.6561 52 14.8319V22.6516C52 22.9108 51.8975 23.1595 51.715 23.3428C51.5325 23.5261 51.285 23.6291 51.0269 23.6291ZM1.94611 19.6742C1.94611 20.7787 2.84154 21.6742 3.94611 21.6742H48.0539C49.1585 21.6742 50.0539 20.7787 50.0539 19.6742V16.588C50.0539 15.8603 49.6586 15.19 49.0218 14.8379L26.9679 2.64075C26.3656 2.30764 25.6344 2.30764 25.0321 2.64075L2.97817 14.8379C2.34137 15.19 1.94611 15.8603 1.94611 16.588V19.6742Z" fill="#E5B472"/>
<path id="Vector_2" d="M51.0269 56H0.973054C0.714984 56 0.467484 55.8971 0.285001 55.7138C0.102518 55.5304 0 55.2818 0 55.0226V48.1217C0 47.8625 0.102518 47.6139 0.285001 47.4306C0.467484 47.2473 0.714984 47.1443 0.973054 47.1443H51.0269C51.285 47.1443 51.5325 47.2473 51.715 47.4306C51.8975 47.6139 52 47.8625 52 48.1217V55.0226C52 55.2818 51.8975 55.5304 51.715 55.7138C51.5325 55.8971 51.285 56 51.0269 56ZM1.94611 52.0451C1.94611 53.1497 2.84154 54.0451 3.94611 54.0451H48.0539C49.1585 54.0451 50.0539 53.1497 50.0539 52.0451V51.0992C50.0539 49.9946 49.1585 49.0992 48.0539 49.0992H3.94611C2.84154 49.0992 1.94611 49.9946 1.94611 51.0992V52.0451Z" fill="#E5B472"/>
<path id="Vector_3" d="M26.0013 19.397C24.8958 19.3989 23.8146 19.0713 22.8946 18.4555C21.9746 17.8398 21.2572 16.9636 20.8333 15.938C20.4093 14.9124 20.2979 13.7835 20.5131 12.6942C20.7283 11.605 21.2604 10.6043 22.0422 9.81909C22.8239 9.03385 23.82 8.49929 24.9043 8.28311C25.9887 8.06694 27.1125 8.17887 28.1335 8.60474C29.1545 9.0306 30.0267 9.75124 30.6397 10.6754C31.2526 11.5996 31.5788 12.6857 31.5769 13.7962C31.5743 15.2808 30.9861 16.7039 29.941 17.7537C28.8959 18.8035 27.4793 19.3944 26.0013 19.397ZM26.0013 10.1405C25.2811 10.1385 24.5766 10.3513 23.9768 10.7518C23.3771 11.1523 22.9091 11.7226 22.6322 12.3904C22.3552 13.0582 22.2818 13.7936 22.4211 14.5033C22.5604 15.2131 22.9062 15.8654 23.4148 16.3777C23.9234 16.8899 24.5718 17.239 25.278 17.3809C25.9842 17.5227 26.7164 17.4509 27.382 17.1745C28.0475 16.8981 28.6165 16.4296 29.0168 15.8282C29.4171 15.2268 29.6308 14.5196 29.6308 13.7962C29.6308 12.8283 29.2487 11.8999 28.5683 11.2146C27.888 10.5294 26.9648 10.1431 26.0013 10.1405Z" fill="#E5B472"/>
<path id="Vector_4" d="M12.0489 49.0993H3.82657C3.5685 49.0993 3.321 48.9963 3.13852 48.813C2.95603 48.6296 2.85352 48.381 2.85352 48.1218V22.6492C2.85352 22.39 2.95603 22.1414 3.13852 21.958C3.321 21.7747 3.5685 21.6718 3.82657 21.6718H12.0489C12.3069 21.6718 12.5544 21.7747 12.7369 21.958C12.9194 22.1414 13.0219 22.39 13.0219 22.6492V48.1218C13.0219 48.381 12.9194 48.6296 12.7369 48.813C12.5544 48.9963 12.3069 49.0993 12.0489 49.0993ZM4.79962 45.1443C4.79962 46.2489 5.69505 47.1443 6.79962 47.1443H9.07582C10.1804 47.1443 11.0758 46.2489 11.0758 45.1443V25.6267C11.0758 24.5221 10.1804 23.6267 9.07582 23.6267H6.79962C5.69505 23.6267 4.79962 24.5221 4.79962 25.6267V45.1443Z" fill="#E5B472"/>
<path id="Vector_5" d="M48.1758 49.0993H39.9535C39.6955 49.0993 39.448 48.9963 39.2655 48.813C39.083 48.6296 38.9805 48.381 38.9805 48.1218V22.6492C38.9805 22.39 39.083 22.1414 39.2655 21.958C39.448 21.7747 39.6955 21.6718 39.9535 21.6718H48.1758C48.4339 21.6718 48.6814 21.7747 48.8639 21.958C49.0464 22.1414 49.1489 22.39 49.1489 22.6492V48.1218C49.1489 48.2502 49.1237 48.3773 49.0748 48.4958C49.0259 48.6144 48.9542 48.7222 48.8639 48.813C48.7735 48.9037 48.6663 48.9757 48.5482 49.0248C48.4301 49.074 48.3036 49.0993 48.1758 49.0993ZM40.9266 45.1443C40.9266 46.2489 41.822 47.1443 42.9266 47.1443H45.2028C46.3073 47.1443 47.2028 46.2489 47.2028 45.1443V25.6267C47.2028 24.5221 46.3073 23.6267 45.2028 23.6267H42.9266C41.822 23.6267 40.9266 24.5221 40.9266 25.6267V45.1443Z" fill="#E5B472"/>
<path id="Vector_6" d="M26.0025 43.0902C24.8061 43.1407 23.6384 42.7137 22.7542 41.9025C21.8701 41.0912 21.3413 39.9616 21.2832 38.7601C21.2832 38.5009 21.3857 38.2522 21.5682 38.0689C21.7507 37.8856 21.9982 37.7826 22.2563 37.7826C22.5143 37.7826 22.7618 37.8856 22.9443 38.0689C23.1268 38.2522 23.2293 38.5009 23.2293 38.7601C23.2913 39.4414 23.6161 40.0712 24.1343 40.5151C24.6525 40.9589 25.3231 41.1816 26.0025 41.1353C26.682 41.1816 27.3525 40.9589 27.8707 40.5151C28.3457 40.1083 28.6582 39.5452 28.7547 38.9295C28.7724 38.8173 28.773 38.7029 28.7566 38.5904C28.6662 37.97 28.3558 37.4008 27.8796 36.9896C27.3603 36.5411 26.6857 36.3167 26.0025 36.3653C24.8045 36.4157 23.6354 35.9874 22.7509 35.1741C21.8665 34.3607 21.3388 33.2286 21.2832 32.0254C21.3388 30.8222 21.8665 29.6901 22.7509 28.8767C23.6354 28.0634 24.8045 27.6351 26.0025 27.6855C27.2005 27.6351 28.3697 28.0634 29.2541 28.8767C30.1385 29.6901 30.6663 30.8222 30.7218 32.0254C30.7218 32.2846 30.6193 32.5333 30.4368 32.7166C30.2543 32.8999 30.0068 33.0029 29.7488 33.0029C29.4907 33.0029 29.2432 32.8999 29.0607 32.7166C28.8782 32.5333 28.7757 32.2846 28.7757 32.0254C28.7186 31.3414 28.3955 30.7075 27.8764 30.2611C27.3936 29.8459 26.7774 29.624 26.1452 29.6342C26.0501 29.6357 25.9549 29.6357 25.8598 29.6342C25.2276 29.624 24.6114 29.8459 24.1286 30.2611C23.6527 30.6704 23.3416 31.2372 23.2491 31.8558C23.2322 31.9682 23.2325 32.0826 23.2497 32.1949C23.3442 32.8125 23.6559 33.3779 24.1312 33.7867C24.6497 34.2326 25.3215 34.4565 26.0025 34.4104C27.2022 34.36 28.3727 34.7897 29.2574 35.6051C30.1421 36.4205 30.6688 37.5551 30.7218 38.7601C30.6638 39.9616 30.135 41.0912 29.2508 41.9025C28.3666 42.7137 27.1989 43.1407 26.0025 43.0902Z" fill="#E5B472"/>
<path id="Vector_7" d="M26.0024 45.6791C25.7443 45.6791 25.4968 45.5761 25.3143 45.3928C25.1318 45.2095 25.0293 44.9608 25.0293 44.7016V26.0517C25.0293 25.7924 25.1318 25.5438 25.3143 25.3605C25.4968 25.1772 25.7443 25.0742 26.0024 25.0742C26.2604 25.0742 26.5079 25.1772 26.6904 25.3605C26.8729 25.5438 26.9754 25.7924 26.9754 26.0517V44.7016C26.9754 44.9608 26.8729 45.2095 26.6904 45.3928C26.5079 45.5761 26.2604 45.6791 26.0024 45.6791Z" fill="#E5B472"/>
</g>
</svg>
