<svg width="45" height="44" viewBox="0 0 45 44" fill="none" xmlns="http://www.w3.org/2000/svg">
<path d="M16.6384 44C17.0491 44 17.3824 43.6667 17.3824 43.256C17.3824 42.8454 17.0491 42.5121 16.6384 42.5121H4.15321C3.74256 42.5121 3.40924 42.8454 3.40924 43.256C3.40924 43.6667 3.74256 44 4.15321 44H16.6384ZM4.66813 23.4863C4.59315 23.0839 4.85852 22.6955 5.26097 22.6205C5.66341 22.5455 6.0518 22.8109 6.12678 23.2133C6.1631 23.4078 6.26855 23.5765 6.41266 23.6937C6.55794 23.812 6.74598 23.8812 6.94515 23.8776C7.14081 23.8741 7.32475 23.798 7.46534 23.6744C7.60418 23.5502 7.70377 23.378 7.73247 23.1835C7.76 22.9954 7.7149 22.8091 7.58075 22.6463C7.40911 22.4413 7.10859 22.2509 6.65811 22.0962L6.5925 22.0699C5.93288 21.8332 5.45838 21.5098 5.14556 21.1373C4.7314 20.644 4.59374 20.0852 4.67751 19.5169C4.75542 18.9891 5.01962 18.5281 5.39453 18.1983L5.44549 18.1573C5.66458 17.9757 5.92117 17.8368 6.20001 17.7519C6.23457 17.3735 6.55325 17.0771 6.94046 17.0771C7.35111 17.0771 7.68444 17.4104 7.68444 17.821V17.8292C7.87482 17.9101 8.05232 18.0167 8.21107 18.1456C8.59888 18.4613 8.87947 18.9118 8.9773 19.4367C9.05053 19.8391 8.78399 20.2263 8.38154 20.2996C7.97909 20.3728 7.59188 20.1062 7.51865 19.7038C7.48819 19.5392 7.39798 19.3962 7.27496 19.2961C7.15194 19.1965 6.9926 19.1379 6.82389 19.1397C6.66631 19.1426 6.51927 19.1988 6.4027 19.2902L6.37634 19.3148C6.25683 19.4197 6.17189 19.5673 6.14787 19.7325C6.12444 19.8907 6.16369 20.0465 6.27851 20.1836C6.42847 20.3622 6.6915 20.5304 7.08574 20.6727L7.14081 20.6891C7.86545 20.9381 8.38447 21.289 8.72424 21.6996C9.14719 22.2163 9.29071 22.8021 9.20284 23.399C9.11965 23.9556 8.84081 24.4424 8.44598 24.7897C8.22337 24.9825 7.96562 25.1342 7.68326 25.2326C7.66452 25.6263 7.33881 25.9403 6.94046 25.9403C6.54505 25.9403 6.2211 25.631 6.19767 25.2414C5.93347 25.1529 5.68977 25.0176 5.47654 24.8442C5.06765 24.5115 4.77182 24.037 4.66813 23.4863ZM33.4545 20.9252C33.676 20.5802 34.1358 20.48 34.4809 20.7014C34.8259 20.9229 34.9261 21.3827 34.7046 21.7277L26.3686 34.6629C26.1472 35.0079 25.6874 35.1081 25.3423 34.8867C24.9973 34.6652 24.8971 34.2054 25.1185 33.8603L33.4545 20.9252ZM26.9082 20.5825C27.7523 20.5825 28.518 20.9264 29.0727 21.4817C29.6286 22.0341 29.9719 22.8009 29.9719 23.6463C29.9719 24.4892 29.6286 25.2543 29.0745 25.8096L29.0698 25.8143C28.515 26.3673 27.7506 26.71 26.9082 26.71C26.0629 26.71 25.296 26.3667 24.7419 25.8126L24.6985 25.7657C24.1701 25.2145 23.8444 24.4676 23.8444 23.6463C23.8444 22.8009 24.1877 22.0341 24.7419 21.48C25.296 20.9258 26.0629 20.5825 26.9082 20.5825ZM28.0224 22.5303C27.74 22.2462 27.3452 22.0704 26.9082 22.0704C26.4735 22.0704 26.0787 22.2474 25.794 22.5321C25.5093 22.8168 25.3324 23.2116 25.3324 23.6463C25.3324 24.0674 25.4952 24.4488 25.7606 24.7288L25.794 24.7605C26.0787 25.0452 26.4735 25.2221 26.9082 25.2221C27.3452 25.2221 27.74 25.0463 28.0224 24.7634C28.3082 24.4781 28.484 24.0833 28.484 23.6463C28.484 23.2116 28.3071 22.8168 28.0224 22.5303ZM32.9144 28.8781C33.7586 28.8781 34.5242 29.2219 35.079 29.7773C35.6349 30.3297 35.9782 31.0965 35.9782 31.9418C35.9782 32.7848 35.6349 33.5498 35.0807 34.1052L35.076 34.1099C34.5213 34.6629 33.7568 35.0056 32.9144 35.0056C32.0691 35.0056 31.3023 34.6623 30.7481 34.1081L30.7048 34.0613C30.1764 33.51 29.8507 32.7631 29.8507 31.9418C29.8507 31.0965 30.1939 30.3297 30.7481 29.7755C31.3023 29.2213 32.0691 28.8781 32.9144 28.8781ZM34.0286 30.8259C33.7463 30.5417 33.3514 30.366 32.9144 30.366C32.4797 30.366 32.0849 30.5429 31.8002 30.8276C31.5155 31.1123 31.3386 31.5072 31.3386 31.9418C31.3386 32.363 31.5015 32.7444 31.7668 33.0244L31.8002 33.056C32.0849 33.3407 32.4797 33.5176 32.9144 33.5176C33.3514 33.5176 33.7463 33.3419 34.0286 33.0589C34.3145 32.7737 34.4902 32.3788 34.4902 31.9418C34.4902 31.5072 34.3133 31.1123 34.0286 30.8259ZM33.1224 6.97721C34.0403 4.96615 35.0918 3.43779 36.2752 2.3933C36.5815 2.12266 36.6102 1.65343 36.3396 1.34706C36.2558 1.25274 36.1539 1.18479 36.0432 1.1432C34.2518 0.471865 32.3749 0.0940219 30.4857 0.0155242C28.5976 -0.0629735 26.6967 0.156117 24.8567 0.675139C24.4876 0.77824 24.2621 1.14495 24.3254 1.5146C24.5204 2.66394 24.8819 3.77814 25.405 4.8525C25.7576 5.57656 26.187 6.28479 26.6902 6.97721H25.6997C25.1162 6.97721 24.5849 7.21564 24.2012 7.59934C23.8175 7.98304 23.579 8.51378 23.579 9.09724C23.579 9.68187 23.8175 10.2126 24.2012 10.5963C24.4121 10.8072 24.6675 10.9742 24.9516 11.0819C22.9417 12.4808 20.7432 14.503 18.8188 17.08C16.888 19.6651 15.2243 22.8168 14.2929 26.464C14.1921 26.8617 14.4323 27.2671 14.8301 27.3679C15.2278 27.4686 15.6332 27.2284 15.734 26.8307C16.6127 23.3897 18.185 20.4138 20.0103 17.9692C22.3225 14.8727 25.0342 12.6331 27.2626 11.3784C27.3393 11.3356 27.4049 11.2811 27.4594 11.2184H32.4194C32.4581 11.2624 32.502 11.3028 32.5518 11.3379C35.0467 13.093 38.1433 16.3893 40.3828 20.4126C42.118 23.5303 43.3312 27.0785 43.3312 30.6665C43.3312 34.6939 42.2398 37.6587 40.0887 39.5953C37.9166 41.5513 34.6238 42.5121 30.2455 42.5121C28.7031 42.5121 27.0933 42.4646 25.5368 42.2988C23.9897 42.1342 22.473 41.8519 21.0941 41.3832C20.7057 41.252 20.2833 41.46 20.1521 41.8483C20.0209 42.2367 20.2288 42.6591 20.6172 42.7903C22.1057 43.2959 23.7296 43.5993 25.3798 43.7751C27.0224 43.9496 28.6761 44 30.2455 44C35.0005 44 38.6242 42.9133 41.0823 40.7002C43.5614 38.4683 44.8191 35.1362 44.8191 30.6665C44.8191 26.8067 43.5268 23.013 41.6786 19.6921C39.7168 16.1679 37.1181 13.1656 34.7761 11.1862C35.2131 11.1095 35.605 10.8974 35.9061 10.5963L35.9518 10.5459C36.3086 10.1663 36.5282 9.65492 36.5282 9.09841C36.5282 8.51612 36.2892 7.9848 35.9044 7.60109C35.5224 7.21564 34.9917 6.97721 34.4076 6.97721H33.1224ZM28.5771 6.97721C27.8208 6.08328 27.2081 5.15654 26.7418 4.20109C26.3815 3.46181 26.1091 2.70495 25.9252 1.9311C27.4067 1.57903 28.9222 1.43493 30.4271 1.49761C31.7721 1.55384 33.1112 1.77528 34.4123 2.16015C33.3151 3.38507 32.3438 4.99075 31.5003 6.97721H28.5771ZM25.6997 8.46515H34.4076C34.581 8.46515 34.7398 8.53721 34.854 8.65144C34.97 8.76391 35.0403 8.92267 35.0403 9.09724C35.0403 9.2595 34.98 9.40771 34.8821 9.51784L34.854 9.5442C34.7398 9.65844 34.581 9.73049 34.4076 9.73049H25.6997C25.5268 9.73049 25.3675 9.65844 25.2533 9.5442C25.139 9.42997 25.067 9.27122 25.067 9.09841C25.067 8.92442 25.139 8.76567 25.2533 8.65144C25.3675 8.53721 25.5268 8.46515 25.6997 8.46515ZM6.94164 26.7815C5.48357 26.7815 4.16434 26.1922 3.213 25.2402C2.25931 24.2836 1.66882 22.965 1.66882 21.5087C1.66882 20.0506 2.25814 18.7314 3.21007 17.78C4.16434 16.8252 5.48357 16.2358 6.94164 16.2358C8.39794 16.2358 9.71659 16.8263 10.6703 17.78L10.7078 17.8152C11.6392 18.7636 12.2145 20.0682 12.2145 21.5087C12.2145 22.9661 11.6245 24.2854 10.6714 25.2385C9.71659 26.191 8.39736 26.7815 6.94164 26.7815ZM2.16207 26.2888C3.38639 27.512 5.07702 28.2694 6.94164 28.2694C8.80742 28.2694 10.4992 27.5126 11.7224 26.2894C12.945 25.0633 13.7024 23.3739 13.7024 21.5087C13.7024 19.6657 12.9625 17.9927 11.7628 16.7718L11.7224 16.7279C10.4992 15.5048 8.80859 14.7479 6.94164 14.7479C5.07878 14.7479 3.38991 15.5042 2.16558 16.7262L2.16089 16.7308C0.937736 17.9552 0.180878 19.6452 0.180878 21.5087C0.180878 23.3756 0.937736 25.0662 2.16207 26.2888ZM16.6384 30.8897C17.0491 30.8897 17.3824 30.5564 17.3824 30.1457C17.3824 29.7351 17.0491 29.4018 16.6384 29.4018H4.15321C3.74256 29.4018 3.40924 29.7351 3.40924 30.1457C3.40924 30.5564 3.74256 30.8897 4.15321 30.8897H16.6384ZM17.9495 33.5118C18.3601 33.5118 18.6934 33.1784 18.6934 32.7678C18.6934 32.3572 18.3601 32.0238 17.9495 32.0238H5.46424C5.05359 32.0238 4.72027 32.3572 4.72027 32.7678C4.72027 33.1784 5.05359 33.5118 5.46424 33.5118H17.9495ZM16.6384 36.1338C17.0491 36.1338 17.3824 35.8005 17.3824 35.3899C17.3824 34.9792 17.0491 34.6459 16.6384 34.6459H4.15321C3.74256 34.6459 3.40924 34.9792 3.40924 35.3899C3.40924 35.8005 3.74256 36.1338 4.15321 36.1338H16.6384ZM17.9495 38.7559C18.3601 38.7559 18.6934 38.4226 18.6934 38.0119C18.6934 37.6013 18.3601 37.2679 17.9495 37.2679H5.46424C5.05359 37.2679 4.72027 37.6013 4.72027 38.0119C4.72027 38.4226 5.05359 38.7559 5.46424 38.7559H17.9495ZM17.9495 41.3779C18.3601 41.3779 18.6934 41.0446 18.6934 40.634C18.6934 40.2233 18.3601 39.89 17.9495 39.89H5.46424C5.05359 39.89 4.72027 40.2233 4.72027 40.634C4.72027 41.0446 5.05359 41.3779 5.46424 41.3779H17.9495Z" fill="#140D28"/>
</svg>
