<svg width="40" height="40" viewBox="0 0 40 40" fill="none" xmlns="http://www.w3.org/2000/svg">
<path d="M9.67726 0C4.34122 0 0 4.34122 0 9.67726C0 15.0133 4.34122 19.3545 9.67726 19.3545H19.3545V9.67726C19.3545 4.34122 15.0133 0 9.67726 0ZM18.0642 18.0642H9.67726C5.05282 18.0642 1.2903 14.3017 1.2903 9.67726C1.2903 5.05282 5.05282 1.2903 9.67726 1.2903C14.3017 1.2903 18.0642 5.05282 18.0642 9.67726V18.0642Z" fill="#FF5722"/>
<path d="M11.806 2.90771L11.4189 4.13866C13.2273 4.70833 14.6466 6.12831 15.2169 7.93666L16.4472 7.54828C15.7511 5.33864 14.0157 3.60383 11.806 2.90771Z" fill="#FF5722"/>
<path d="M0 30.3224C0 35.6584 4.34122 39.9997 9.67726 39.9997C15.0133 39.9997 19.3545 35.6584 19.3545 30.3224V20.6451H9.67726C4.34122 20.6451 0 24.9864 0 30.3224ZM18.0642 30.3224C18.0642 34.9468 14.3017 38.7094 9.67726 38.7094C5.05282 38.7094 1.2903 34.9468 1.2903 30.3224C1.2903 25.698 5.05282 21.9354 9.67726 21.9354H18.0642V30.3224Z" fill="#FF5722"/>
<path d="M7.93455 24.7838L7.54746 23.5529C5.33782 24.249 3.60301 25.9844 2.90625 28.1934L4.13655 28.5818C4.70686 26.7734 6.12684 25.3535 7.93455 24.7838Z" fill="#FF5722"/>
<path d="M40 9.67726C40 4.34122 35.6588 0 30.3228 0C24.9867 0 20.6455 4.34122 20.6455 9.67726V19.3545H30.3228C35.6588 19.3545 40 15.0133 40 9.67726ZM21.9358 9.67726C21.9358 5.05282 25.6983 1.2903 30.3228 1.2903C34.9472 1.2903 38.7097 5.05282 38.7097 9.67726C38.7097 14.3017 34.9472 18.0642 30.3228 18.0642H21.9358V9.67726Z" fill="#FF5722"/>
<path d="M32.0645 15.2172L32.4522 16.4481C34.6618 15.752 36.3966 14.0166 37.0934 11.8076L35.8631 11.4192C35.2921 13.2275 33.8722 14.6475 32.0645 15.2172Z" fill="#FF5722"/>
<path d="M30.3228 20.6451H20.6455V30.3224C20.6455 35.6584 24.9867 39.9997 30.3228 39.9997C35.6588 39.9997 40 35.6584 40 30.3224C40 24.9864 35.6588 20.6451 30.3228 20.6451ZM34.9795 37.2926L34.1382 36.4513L35.2949 35.2946L34.3827 34.3823L33.2259 35.5391L32.2027 34.5159L33.3595 33.3591L32.4472 32.4469L31.2905 33.6036L29.9447 32.2578L32.2582 29.9443L37.293 34.9791C36.6807 35.8933 35.8936 36.6804 34.9795 37.2926ZM29.6776 28.654L30.7008 29.6772L29.6776 30.7005L28.6544 29.6772L29.6776 28.654ZM37.9433 33.8049L32.2582 28.1199L31.6131 28.765L29.6776 26.8296L28.7099 27.7973L24.3274 23.4148L23.4151 24.327L27.7976 28.7095L26.8299 29.6772L28.7654 31.6127L28.1202 32.2578L33.8053 37.9429C32.7427 38.43 31.566 38.7094 30.3228 38.7094C25.6983 38.7094 21.9358 34.9468 21.9358 30.3224V21.9354H30.3228C34.9472 21.9354 38.7097 25.698 38.7097 30.3224C38.7097 31.5656 38.4304 32.7424 37.9433 33.8049Z" fill="#FF5722"/>
<path d="M32.4515 23.5529L32.0645 24.7838C33.8728 25.3535 35.2921 26.7734 35.8625 28.5818L37.0928 28.1934C36.3966 25.9838 34.6612 24.249 32.4515 23.5529Z" fill="#FF5722"/>
<path d="M9.64308 4.85923C9.00374 4.22118 8.15472 3.86957 7.25215 3.86957C5.38702 3.86957 3.86963 5.38696 3.86963 7.25145C3.86963 8.1553 4.22124 9.00496 4.86058 9.64302L9.70889 14.4926C10.3482 15.1307 11.1972 15.4823 12.0998 15.4823C13.9649 15.4823 15.4823 13.9649 15.4823 12.1004C15.4823 11.1965 15.1307 10.3469 14.4914 9.70882L9.64308 4.85923ZM5.15993 7.25145C5.15993 6.09792 6.09862 5.15987 7.25215 5.15987C7.81085 5.15987 8.33601 5.37728 8.73148 5.77212L10.6992 7.74047L7.74053 10.6991L5.77218 8.73013C5.37735 8.33594 5.15993 7.81079 5.15993 7.25145ZM12.0998 14.192C11.5411 14.192 11.016 13.9746 10.6205 13.5797L8.65277 11.6114L11.6114 8.65271L13.5798 10.6217C13.9746 11.0159 14.192 11.5411 14.192 12.1004C14.192 13.2539 13.2533 14.192 12.0998 14.192Z" fill="#FF5722"/>
<path d="M34.8375 9.03077C34.8375 6.18501 32.5221 3.86957 29.6763 3.86957C26.8306 3.86957 24.5151 6.18501 24.5151 9.03077C24.5151 11.8765 26.8306 14.192 29.6763 14.192C32.5221 14.192 34.8375 11.8765 34.8375 9.03077ZM29.6763 5.15987C30.5112 5.15987 31.2828 5.42825 31.9157 5.87921L26.5248 11.2701C26.0738 10.6372 25.8054 9.8656 25.8054 9.03077C25.8054 6.89597 27.5415 5.15987 29.6763 5.15987ZM29.6763 12.9017C28.8415 12.9017 28.0699 12.6333 27.437 12.1823L32.8279 6.79145C33.2789 7.42435 33.5472 8.19595 33.5472 9.03077C33.5472 11.1656 31.8111 12.9017 29.6763 12.9017Z" fill="#FF5722"/>
<path d="M5.16162 32.2575C5.16162 34.0362 6.60869 35.4833 8.38737 35.4833C12.3002 35.4833 15.484 32.2995 15.484 28.3866C15.484 26.608 14.037 25.1609 12.2583 25.1609C8.34544 25.1609 5.16162 28.3447 5.16162 32.2575ZM12.2583 26.4512C13.3254 26.4512 14.1937 27.3196 14.1937 28.3866C14.1937 31.5885 11.5886 34.193 8.38737 34.193C7.32029 34.193 6.45192 33.3246 6.45192 32.2575C6.45192 29.0557 9.05704 26.4512 12.2583 26.4512Z" fill="#FF5722"/>
<path d="M11.1558 28.5747L8.5752 31.1553L9.48757 32.0677L12.0682 29.4871L11.1558 28.5747Z" fill="#FF5722"/>
</svg>
