<svg width="38" height="40" viewBox="0 0 38 40" fill="none" xmlns="http://www.w3.org/2000/svg">
<path d="M36.7983 16.8779H0.701724C0.515616 16.8779 0.33713 16.8043 0.205532 16.6734C0.0739336 16.5425 2.61475e-06 16.3649 2.61475e-06 16.1797V10.5942C-0.000341938 10.4686 0.0333716 10.3453 0.0975907 10.2371C0.16181 10.129 0.254156 10.0401 0.364898 9.97984L18.4132 0.093539C18.5198 0.0322605 18.6409 0 18.764 0C18.8872 0 19.0082 0.0322605 19.1149 0.093539L37.1351 9.97984C37.2458 10.0401 37.3382 10.129 37.4024 10.2371C37.4666 10.3453 37.5003 10.4686 37.5 10.5942V16.1797C37.5 16.3649 37.4261 16.5425 37.2945 16.6734C37.1629 16.8043 36.9844 16.8779 36.7983 16.8779ZM1.40345 15.4815H36.0966V11.0062L18.75 1.50387L1.40345 11.0062V15.4815Z" fill="#FF5722"/>
<path d="M36.7983 39.9999H0.701721C0.515613 39.9999 0.337128 39.9263 0.205529 39.7954C0.073931 39.6644 0 39.4869 0 39.3017V34.3725C0 34.1873 0.073931 34.0097 0.205529 33.8788C0.337128 33.7479 0.515613 33.6743 0.701721 33.6743H36.7983C36.9844 33.6743 37.1629 33.7479 37.2945 33.8788C37.4261 34.0097 37.5 34.1873 37.5 34.3725V39.3017C37.5 39.4869 37.4261 39.6644 37.2945 39.7954C37.1629 39.9263 36.9844 39.9999 36.7983 39.9999ZM1.40344 38.6035H36.0966V35.0707H1.40344V38.6035Z" fill="#FF5722"/>
<path d="M18.7507 13.855C17.9535 13.8564 17.1738 13.6223 16.5103 13.1825C15.8469 12.7427 15.3295 12.1169 15.0238 11.3843C14.718 10.6517 14.6377 9.84534 14.7929 9.0673C14.9481 8.28925 15.3318 7.57453 15.8956 7.01364C16.4593 6.45275 17.1776 6.07092 17.9596 5.91651C18.7416 5.7621 19.5521 5.84205 20.2883 6.14624C21.0246 6.45043 21.6536 6.96517 22.0957 7.62529C22.5377 8.2854 22.773 9.06118 22.7716 9.8544C22.7697 10.9149 22.3455 11.9314 21.5918 12.6812C20.8382 13.4311 19.8165 13.8532 18.7507 13.855ZM18.7507 7.24319C18.2314 7.24181 17.7233 7.39378 17.2907 7.67986C16.8582 7.96594 16.5208 8.37328 16.3211 8.85029C16.1213 9.3273 16.0684 9.85255 16.1688 10.3595C16.2693 10.8665 16.5187 11.3324 16.8855 11.6983C17.2522 12.0642 17.7198 12.3136 18.2291 12.4149C18.7384 12.5162 19.2664 12.4649 19.7464 12.2675C20.2264 12.0701 20.6367 11.7354 20.9253 11.3058C21.214 10.8763 21.3681 10.3711 21.3681 9.8544C21.3681 9.16307 21.0926 8.49996 20.6019 8.01046C20.1113 7.52096 19.4455 7.24504 18.7507 7.24319Z" fill="#FF5722"/>
<path d="M8.6884 35.072H2.75885C2.57274 35.072 2.39426 34.9985 2.26266 34.8675C2.13106 34.7366 2.05713 34.559 2.05713 34.3738V16.1791C2.05713 15.994 2.13106 15.8164 2.26266 15.6855C2.39426 15.5545 2.57274 15.481 2.75885 15.481H8.6884C8.8745 15.481 9.05299 15.5545 9.18459 15.6855C9.31619 15.8164 9.39012 15.994 9.39012 16.1791V34.3738C9.39012 34.559 9.31619 34.7366 9.18459 34.8675C9.05299 34.9985 8.8745 35.072 8.6884 35.072ZM3.46057 33.6757H7.98667V16.8773H3.46057V33.6757Z" fill="#FF5722"/>
<path d="M34.7421 35.072H28.8126C28.6265 35.072 28.448 34.9985 28.3164 34.8675C28.1848 34.7366 28.1108 34.559 28.1108 34.3738V16.1791C28.1108 15.994 28.1848 15.8164 28.3164 15.6855C28.448 15.5545 28.6265 15.481 28.8126 15.481H34.7421C34.9282 15.481 35.1067 15.5545 35.2383 15.6855C35.3699 15.8164 35.4438 15.994 35.4438 16.1791V34.3738C35.4438 34.4655 35.4257 34.5563 35.3904 34.641C35.3551 34.7257 35.3035 34.8027 35.2383 34.8675C35.1731 34.9324 35.0958 34.9838 35.0106 35.0189C34.9255 35.054 34.8343 35.072 34.7421 35.072ZM29.5143 33.6757H34.0404V16.8773H29.5143V33.6757Z" fill="#FF5722"/>
<path d="M18.751 30.7792C17.8882 30.8152 17.0461 30.5102 16.4085 29.9308C15.7709 29.3513 15.3895 28.5444 15.3477 27.6862C15.3477 27.5011 15.4216 27.3235 15.5532 27.1925C15.6848 27.0616 15.8633 26.9881 16.0494 26.9881C16.2355 26.9881 16.414 27.0616 16.5456 27.1925C16.6772 27.3235 16.7511 27.5011 16.7511 27.6862C16.7958 28.1729 17.03 28.6228 17.4037 28.9398C17.7775 29.2568 18.261 29.4159 18.751 29.3828C19.241 29.4159 19.7245 29.2568 20.0983 28.9398C20.472 28.6228 20.7062 28.1729 20.7509 27.6862C20.7114 27.1964 20.4792 26.7419 20.1047 26.4216C19.7302 26.1012 19.2437 25.941 18.751 25.9757C17.887 26.0117 17.0439 25.7057 16.4061 25.1248C15.7683 24.5438 15.3877 23.7352 15.3477 22.8757C15.3877 22.0163 15.7683 21.2076 16.4061 20.6267C17.0439 20.0457 17.887 19.7398 18.751 19.7758C19.615 19.7398 20.4581 20.0457 21.0959 20.6267C21.7337 21.2076 22.1143 22.0163 22.1544 22.8757C22.1544 23.0609 22.0804 23.2385 21.9488 23.3694C21.8172 23.5004 21.6387 23.5739 21.4526 23.5739C21.2665 23.5739 21.088 23.5004 20.9564 23.3694C20.8248 23.2385 20.7509 23.0609 20.7509 22.8757C20.7097 22.3872 20.4767 21.9344 20.1024 21.6156C19.728 21.2967 19.2425 21.1374 18.751 21.1722C18.2595 21.1374 17.774 21.2967 17.3996 21.6156C17.0253 21.9344 16.7923 22.3872 16.7511 22.8757C16.7941 23.3636 17.0276 23.8153 17.4015 24.1338C17.7754 24.4523 18.2599 24.6122 18.751 24.5793C19.6161 24.5433 20.4603 24.8502 21.0983 25.4327C21.7363 26.0151 22.1161 26.8256 22.1544 27.6862C22.1125 28.5444 21.7311 29.3513 21.0935 29.9308C20.4559 30.5102 19.6138 30.8152 18.751 30.7792Z" fill="#FF5722"/>
<path d="M18.7515 32.6279C18.5654 32.6279 18.3869 32.5543 18.2553 32.4234C18.1237 32.2925 18.0498 32.1149 18.0498 31.9297V18.6083C18.0498 18.4232 18.1237 18.2456 18.2553 18.1146C18.3869 17.9837 18.5654 17.9102 18.7515 17.9102C18.9376 17.9102 19.1161 17.9837 19.2477 18.1146C19.3793 18.2456 19.4532 18.4232 19.4532 18.6083V31.9297C19.4532 32.1149 19.3793 32.2925 19.2477 32.4234C19.1161 32.5543 18.9376 32.6279 18.7515 32.6279Z" fill="#FF5722"/>
</svg>
