<svg width="40" height="40" viewBox="0 0 40 40" fill="none" xmlns="http://www.w3.org/2000/svg">
<path d="M39.4926 22.8365C38.4992 21.2256 36.3984 20.741 34.8092 21.7238L26.6042 26.7244C26.4351 25.3719 25.25 24.3137 23.8397 24.3137H22.318V4.70588H29.2135L25.4725 11.7647H25.0589C24.6265 11.7647 24.2758 12.1158 24.2758 12.549C24.2758 15.5763 26.7349 18.0392 29.7575 18.0392H31.3236C34.3462 18.0392 36.8053 15.5763 36.8053 12.549C36.8053 12.1158 36.4546 11.7647 36.0222 11.7647H35.6062L31.8247 4.70588H33.2814C34.5767 4.70588 35.6306 3.65035 35.6306 2.35294C35.6306 1.05553 34.5767 0 33.2814 0H6.65633C5.36095 0 4.30707 1.05553 4.30707 2.35294C4.30707 3.65035 5.36095 4.70588 6.65633 4.70588H8.07028L4.32915 11.7647H3.91552C3.48302 11.7647 3.13243 12.1158 3.13243 12.549C3.13243 15.5763 5.59149 18.0392 8.61406 18.0392H10.1802C13.2028 18.0392 15.6619 15.5763 15.6619 12.549C15.6619 12.1158 15.3113 11.7647 14.8788 11.7647H14.4628L10.6813 4.70588H17.6195V24.3137H13.491C12.765 24.3137 12.0736 24.1261 11.4917 23.7711C9.66387 22.6562 7.45563 22.4468 5.48162 23.1478V21.9608C5.48162 21.5276 5.13103 21.1765 4.69853 21.1765H0.783089C0.350589 21.1765 0 21.5276 0 21.9608V39.2157C0 39.6489 0.350589 40 0.783089 40H4.69853C5.13103 40 5.48162 39.6489 5.48162 39.2157V38.5035H20.2898C20.5281 38.5035 20.7612 38.4373 20.9638 38.3118L38.385 27.5316C39.9826 26.5435 40.4795 24.4373 39.4926 22.8365ZM31.3236 16.4706H29.7574C27.8665 16.4706 26.2844 15.1211 25.9206 13.3333C26.9217 13.3333 34.1567 13.3333 35.1603 13.3333C34.7966 15.1211 33.2144 16.4706 31.3236 16.4706ZM27.2456 11.7647L30.5195 5.58737L33.8287 11.7647H27.2456ZM5.87317 2.35294C5.87317 1.92047 6.22446 1.56863 6.65626 1.56863H33.2813C33.7131 1.56863 34.0644 1.92047 34.0644 2.35294C34.0644 2.78541 33.7131 3.13725 33.2813 3.13725C24.4397 3.13725 15.5537 3.13725 6.65626 3.13725C6.22446 3.13725 5.87317 2.78541 5.87317 2.35294ZM10.1802 16.4706H8.61398C6.72313 16.4706 5.14106 15.1211 4.77716 13.3333C5.81263 13.3333 12.9491 13.3333 14.0169 13.3333C13.6531 15.1211 12.071 16.4706 10.1802 16.4706ZM6.10222 11.7647L9.37616 5.58737L12.6853 11.7647H6.10222ZM19.1857 4.70588H20.7519V24.3137H19.1857V4.70588ZM3.91544 38.4314H1.56618V22.7451H3.91544V38.4314ZM37.562 26.1971L20.2092 36.9349H5.48162V24.8431C7.13942 24.053 9.09229 24.1442 10.677 25.1109C11.5044 25.6157 12.4775 25.8824 13.4911 25.8824H23.8397C24.4991 25.8824 25.0459 26.3992 25.0586 27.0344C25.0718 27.6954 24.5433 28.2354 23.8842 28.2354H18.011C17.5785 28.2354 17.228 28.5865 17.228 29.0197C17.228 29.4529 17.5785 29.804 18.011 29.804H23.8842C24.7647 29.804 23.9669 30.184 35.6277 23.0611C36.4928 22.5262 37.6255 22.7938 38.16 23.6608C38.6932 24.5255 38.425 25.6633 37.562 26.1971Z" fill="#FF5722"/>
</svg>
