<svg width="50" height="50" viewBox="0 0 50 50" fill="none" xmlns="http://www.w3.org/2000/svg">
<g id="Group 1000008387">
<path id="Vector" d="M45.8331 39.17H44.1665V37.5034C44.1665 37.0425 43.7931 36.67 43.3331 36.67H39.9998C39.5398 36.67 39.1665 37.0425 39.1665 37.5034V39.17H37.4998C37.0398 39.17 36.6665 39.5425 36.6665 40.0034V43.3367C36.6665 43.7975 37.0398 44.17 37.4998 44.17H39.1665V45.8367C39.1665 46.2975 39.5398 46.67 39.9998 46.67H43.3331C43.7931 46.67 44.1665 46.2975 44.1665 45.8367V44.17H45.8331C46.2931 44.17 46.6665 43.7975 46.6665 43.3367V40.0034C46.6665 39.5425 46.2931 39.17 45.8331 39.17ZM44.9998 42.5034H43.3331C42.8731 42.5034 42.4998 42.8759 42.4998 43.3367V45.0033H40.8332V43.3367C40.8332 42.8759 40.4598 42.5034 39.9998 42.5034H38.3332V40.8367H39.9998C40.4598 40.8367 40.8332 40.4642 40.8332 40.0034V38.3367H42.4998V40.0034C42.4998 40.4642 42.8731 40.8367 43.3331 40.8367H44.9998V42.5034Z" fill="#E5B472"/>
<path id="Vector_2" d="M17.4998 19.1702H32.4998C32.9598 19.1702 33.3331 18.7977 33.3331 18.3368C33.3331 13.7419 29.5948 10.0035 24.9998 10.0035C20.4048 10.0035 16.6665 13.7419 16.6665 18.3368C16.6665 18.7977 17.0398 19.1702 17.4998 19.1702ZM31.6148 17.5035H25.8331V11.7285C28.8431 12.1069 31.2373 14.4935 31.6148 17.5035ZM24.1665 11.7285V17.5035H18.3848C18.7623 14.4935 21.1565 12.1069 24.1665 11.7285Z" fill="#E5B472"/>
<path id="Vector_3" d="M49.9033 40.4711C49.8733 40.2619 49.8391 40.0536 49.7933 39.8503C49.7691 39.7411 49.7383 39.6336 49.71 39.5252C49.6616 39.3428 49.6083 39.1628 49.5483 38.9861C49.5091 38.8703 49.4666 38.7569 49.4225 38.6436C49.3591 38.4811 49.2891 38.3219 49.2158 38.1644C49.1608 38.0469 49.1066 37.9294 49.0466 37.8144C48.97 37.6686 48.8858 37.5278 48.8008 37.3869C48.7316 37.2711 48.6658 37.1536 48.5908 37.0411C48.4858 36.8844 48.37 36.7353 48.2541 36.5861C48.1166 36.4078 47.9708 36.2361 47.8183 36.0694C47.7141 35.9553 47.6125 35.8403 47.5025 35.7328C47.4 35.6319 47.2908 35.5378 47.1825 35.4419C47.065 35.3378 46.9458 35.2353 46.8216 35.1369C46.7683 35.0944 46.7208 35.0461 46.6658 35.0053V25.837H49.1658C49.5025 25.837 49.8066 25.6345 49.9358 25.3228C50.0649 25.0111 49.9933 24.6528 49.755 24.4145L42.5 17.1587V2.50374C42.5 2.04291 42.1266 1.67041 41.6667 1.67041H33.3334C32.8734 1.67041 32.5 2.04291 32.5 2.50374V7.15872L25.5892 0.247914C25.2634 -0.077918 24.7367 -0.077918 24.4109 0.247914L0.244323 24.4145C0.00599101 24.6528 -0.0656753 25.0111 0.0634908 25.3228C0.192657 25.6345 0.496822 25.837 0.833488 25.837H3.33348V45.8369C3.33348 46.2977 3.70681 46.6702 4.16681 46.6702H9.16679H24.1667H35.0017C35.0408 46.7219 35.0858 46.7669 35.1258 46.8177C35.2292 46.9486 35.3375 47.0744 35.4475 47.1986C35.5383 47.3011 35.6283 47.4052 35.7233 47.5027C35.8392 47.6211 35.9625 47.731 36.0858 47.8419C36.2317 47.9744 36.3808 48.1019 36.535 48.2235C36.6992 48.3527 36.865 48.4802 37.0392 48.5969C37.1483 48.6702 37.2625 48.7335 37.375 48.801C37.5183 48.8877 37.6625 48.9735 37.8117 49.0519C37.9258 49.1119 38.0425 49.1652 38.1592 49.2194C38.3175 49.2935 38.4775 49.3627 38.64 49.4269C38.7533 49.471 38.8667 49.5127 38.9817 49.5519C39.1592 49.6127 39.3392 49.6652 39.5217 49.7135C39.63 49.7419 39.7367 49.7727 39.8458 49.7969C40.05 49.8427 40.2575 49.876 40.4667 49.9069C40.56 49.9202 40.6508 49.9394 40.745 49.9494C41.0483 49.9827 41.355 50.0035 41.6667 50.0035C46.2616 50.0035 50 46.2652 50 41.6702C50 41.3586 49.9799 41.0511 49.9458 40.7486C49.9358 40.6552 49.9166 40.5636 49.9033 40.4711ZM34.1667 3.33707H40.8333V15.492L34.1667 8.82538V3.33707ZM25.0001 2.01541L32.7442 9.75954L41.0775 18.0928L47.155 24.1703H45.8333H4.16681H2.84515L25.0001 2.01541ZM10.0001 45.0036V35.8369C10.0001 32.1611 12.9909 29.1703 16.6668 29.1703C20.3426 29.1703 23.3334 32.1611 23.3334 35.8369V45.0036H10.0001ZM25.0001 45.0036V35.8369C25.0001 31.242 21.2617 27.5036 16.6668 27.5036C12.0718 27.5036 8.33346 31.242 8.33346 35.8369V45.0036H5.00014V25.837H45V34.0378C44.47 33.8053 43.9133 33.6236 43.3333 33.5053V29.1703C43.3333 28.7095 42.96 28.337 42.5 28.337H29.1667C28.7067 28.337 28.3334 28.7095 28.3334 29.1703V37.5036C28.3334 37.9644 28.7067 38.3369 29.1667 38.3369H34.0342C33.5859 39.3586 33.3334 40.4852 33.3334 41.6702C33.3334 42.8552 33.5859 43.9819 34.0342 45.0036H25.0001ZM40.745 33.3911C40.6517 33.4011 40.56 33.4203 40.4667 33.4336C40.2575 33.4636 40.05 33.4978 39.8458 33.5436C39.7367 33.5678 39.63 33.5986 39.5217 33.6269C39.3392 33.6753 39.1592 33.7286 38.9817 33.7886C38.8667 33.8278 38.7533 33.8694 38.6408 33.9136C38.4775 33.9778 38.3175 34.0478 38.1592 34.1211C38.0425 34.1753 37.9258 34.2294 37.8117 34.2886C37.6633 34.3661 37.52 34.4519 37.3775 34.5386C37.2642 34.6069 37.1492 34.6703 37.04 34.7444C36.8708 34.8578 36.7092 34.9828 36.5492 35.1078C36.3875 35.2336 36.2325 35.3669 36.08 35.5053C35.96 35.6136 35.84 35.7211 35.7267 35.8361C35.6292 35.9361 35.5375 36.0419 35.4442 36.1469C35.3367 36.2686 35.2308 36.3911 35.13 36.5186C35.0892 36.5703 35.0425 36.6169 35.0025 36.6694H30V30.0028H41.6667V33.3361C41.355 33.3369 41.0483 33.3578 40.745 33.3911ZM41.6667 48.3369C41.4092 48.3369 41.1542 48.3186 40.9017 48.2894C40.825 48.281 40.7508 48.266 40.675 48.2544C40.4992 48.2277 40.3242 48.196 40.1517 48.156C40.0667 48.1361 39.9825 48.1136 39.8983 48.091C39.7367 48.0469 39.5775 47.9952 39.4208 47.9394C39.3392 47.9102 39.2567 47.8819 39.1767 47.8502C39.005 47.7811 38.8383 47.7027 38.6733 47.6194C38.6158 47.5902 38.5558 47.5661 38.4992 47.5352C38.2933 47.4244 38.0958 47.3002 37.9025 47.1677C37.8192 47.1111 37.7408 47.0477 37.6608 46.9869C37.5458 46.9002 37.4317 46.8111 37.3225 46.7169C37.24 46.6461 37.1608 46.5727 37.0817 46.4986C36.9742 46.3969 36.8708 46.2902 36.77 46.1802C36.7042 46.1086 36.6367 46.0394 36.5742 45.9652C36.42 45.7819 36.2717 45.5919 36.1358 45.3902C35.4192 44.3261 35 43.0461 35 41.6702C35 40.2927 35.42 39.0119 36.1383 37.9486C36.2733 37.7486 36.42 37.5603 36.5733 37.3786C36.6375 37.3019 36.7067 37.2303 36.775 37.1569C36.8742 37.0494 36.975 36.9444 37.0808 36.8444C37.1608 36.7686 37.2417 36.6944 37.325 36.6228C37.4333 36.5294 37.5458 36.4411 37.66 36.3553C37.7408 36.2936 37.82 36.2303 37.9042 36.1728C38.0967 36.0403 38.295 35.9169 38.5 35.8061C38.5567 35.7753 38.6175 35.7511 38.675 35.7219C38.84 35.6394 39.0067 35.5603 39.1775 35.4911C39.2575 35.4586 39.34 35.4311 39.4217 35.4019C39.5792 35.3453 39.7383 35.2944 39.8992 35.2503C39.9833 35.2269 40.0675 35.2044 40.1525 35.1853C40.325 35.1453 40.4992 35.1136 40.6758 35.0869C40.7517 35.0753 40.8258 35.0611 40.9025 35.0519C41.1542 35.0219 41.4092 35.0036 41.6667 35.0036C41.9175 35.0036 42.165 35.0211 42.4091 35.0478C43.5041 35.1694 44.5208 35.5553 45.3908 36.1436C45.5891 36.2769 45.7758 36.4228 45.9566 36.5744C46.0358 36.6411 46.1108 36.7136 46.1866 36.7836C46.2908 36.8794 46.3925 36.9778 46.4891 37.0794C46.5675 37.1611 46.6433 37.2444 46.7175 37.3303C46.8083 37.4353 46.8933 37.5444 46.9766 37.6553C47.04 37.7394 47.1066 37.8211 47.1658 37.9086C47.2966 38.1003 47.42 38.2969 47.53 38.5011C47.5625 38.5611 47.5883 38.6253 47.6191 38.6861C47.7 38.8478 47.7775 39.0111 47.845 39.1786C47.8783 39.2603 47.9066 39.3444 47.9366 39.4277C47.9925 39.5836 48.0433 39.7411 48.0875 39.9011C48.1108 39.9861 48.1333 40.0711 48.1533 40.1569C48.1933 40.3286 48.225 40.5027 48.2508 40.6777C48.2625 40.7536 48.2766 40.8286 48.2858 40.9052C48.315 41.1577 48.3333 41.4127 48.3333 41.6702C48.3333 45.3461 45.3425 48.3369 41.6667 48.3369Z" fill="#E5B472"/>
<path id="Vector_4" d="M19.1665 35.8367C17.7882 35.8367 16.6665 36.9583 16.6665 38.3367C16.6665 39.715 17.7882 40.8366 19.1665 40.8366C20.5448 40.8366 21.6665 39.715 21.6665 38.3367C21.6665 36.9583 20.5448 35.8367 19.1665 35.8367ZM19.1665 39.17C18.7073 39.17 18.3332 38.7967 18.3332 38.3367C18.3332 37.8767 18.7073 37.5033 19.1665 37.5033C19.6257 37.5033 19.9998 37.8767 19.9998 38.3367C19.9998 38.7967 19.6257 39.17 19.1665 39.17Z" fill="#E5B472"/>
</g>
</svg>
