<svg width="48" height="48" viewBox="0 0 48 48" fill="none" xmlns="http://www.w3.org/2000/svg">
<path d="M43.9992 37.5992H42.3992V35.9992C42.3992 35.5568 42.0408 35.1992 41.5992 35.1992H38.3992C37.9576 35.1992 37.5992 35.5568 37.5992 35.9992V37.5992H35.9992C35.5576 37.5992 35.1992 37.9568 35.1992 38.3992V41.5992C35.1992 42.0416 35.5576 42.3992 35.9992 42.3992H37.5992V43.9992C37.5992 44.4416 37.9576 44.7992 38.3992 44.7992H41.5992C42.0408 44.7992 42.3992 44.4416 42.3992 43.9992V42.3992H43.9992C44.4408 42.3992 44.7992 42.0416 44.7992 41.5992V38.3992C44.7992 37.9568 44.4408 37.5992 43.9992 37.5992ZM43.1992 40.7992H41.5992C41.1576 40.7992 40.7992 41.1568 40.7992 41.5992V43.1992H39.1992V41.5992C39.1992 41.1568 38.8408 40.7992 38.3992 40.7992H36.7992V39.1992H38.3992C38.8408 39.1992 39.1992 38.8416 39.1992 38.3992V36.7992H40.7992V38.3992C40.7992 38.8416 41.1576 39.1992 41.5992 39.1992H43.1992V40.7992Z" fill="#FF7D00"/>
<path d="M16.8 18.3996H31.1999C31.6415 18.3996 31.9999 18.042 31.9999 17.5996C31.9999 13.1884 28.4111 9.59961 24 9.59961C19.5888 9.59961 16 13.1884 16 17.5996C16 18.042 16.3584 18.3996 16.8 18.3996ZM30.3503 16.7996H24.8V11.2556C27.6896 11.6188 29.9879 13.91 30.3503 16.7996ZM23.2 11.2556V16.7996H17.6496C18.012 13.91 20.3104 11.6188 23.2 11.2556Z" fill="#FF7D00"/>
<path d="M47.9072 38.8488C47.8783 38.648 47.8456 38.448 47.8015 38.2528C47.7784 38.148 47.7488 38.0448 47.7215 37.9408C47.6752 37.7656 47.624 37.5928 47.5664 37.4232C47.5288 37.312 47.4879 37.2032 47.4456 37.0944C47.3848 36.9384 47.3176 36.7856 47.2472 36.6344C47.1944 36.5216 47.1424 36.4088 47.0848 36.2985C47.0112 36.1585 46.9304 36.0233 46.8488 35.8881C46.7824 35.7769 46.7192 35.6641 46.6472 35.556C46.5464 35.4057 46.4352 35.2625 46.324 35.1193C46.192 34.9481 46.052 34.7833 45.9056 34.6233C45.8056 34.5137 45.708 34.4033 45.6024 34.3001C45.504 34.2033 45.3992 34.1129 45.2952 34.0209C45.1824 33.9209 45.068 33.8225 44.9488 33.7281C44.8976 33.6873 44.852 33.6409 44.7992 33.6017V24.8001H47.1992C47.5224 24.8001 47.8144 24.6057 47.9384 24.3065C48.0624 24.0073 47.9935 23.6633 47.7648 23.4345L40.8 16.4689V2.40019C40.8 1.95779 40.4416 1.60019 40 1.60019H32C31.5584 1.60019 31.2 1.95779 31.2 2.40019V6.86897L24.5656 0.234599C24.2528 -0.0781997 23.7472 -0.0781997 23.4345 0.234599L0.23455 23.4345C0.00575137 23.6633 -0.0630483 24.0073 0.0609511 24.3065C0.184951 24.6057 0.476949 24.8001 0.800148 24.8001H3.20014V44C3.20014 44.4424 3.55854 44.8 4.00013 44.8H8.80011H23.2001H33.6016C33.6392 44.8496 33.6824 44.8928 33.7208 44.9416C33.82 45.0672 33.924 45.188 34.0296 45.3072C34.1168 45.4056 34.2032 45.5056 34.2944 45.5992C34.4056 45.7128 34.524 45.8184 34.6424 45.9248C34.7824 46.052 34.9256 46.1744 35.0736 46.2912C35.2312 46.4152 35.3904 46.5376 35.5576 46.6496C35.6624 46.72 35.772 46.7808 35.88 46.8456C36.0176 46.9288 36.156 47.0112 36.2992 47.0864C36.4088 47.144 36.5208 47.1952 36.6328 47.2472C36.7848 47.3184 36.9384 47.3848 37.0944 47.4464C37.2032 47.4888 37.312 47.5288 37.4224 47.5664C37.5928 47.6248 37.7656 47.6752 37.9408 47.7216C38.0448 47.7488 38.1472 47.7784 38.252 47.8016C38.448 47.8456 38.6472 47.8776 38.848 47.9072C38.9376 47.92 39.0248 47.9384 39.1152 47.948C39.4064 47.98 39.7008 48 40 48C44.4112 48 48 44.4112 48 40C48 39.7008 47.9808 39.4056 47.948 39.1152C47.9384 39.0256 47.9199 38.9376 47.9072 38.8488ZM32.8 3.20019H39.2V14.8689L32.8 8.46896V3.20019ZM24 1.93139L31.4344 9.36576L39.4344 17.3657L45.2688 23.2001H44H4.00013H2.73134L24 1.93139ZM9.60011 43.2V34.4001C9.60011 30.8713 12.4713 28.0001 16.0001 28.0001C19.5289 28.0001 22.4001 30.8713 22.4001 34.4001V43.2H9.60011ZM24 43.2V34.4001C24 29.9889 20.4113 26.4001 16.0001 26.4001C11.5889 26.4001 8.00012 29.9889 8.00012 34.4001V43.2H4.80013V24.8001H43.2V32.6729C42.6912 32.4497 42.1568 32.2753 41.6 32.1617V28.0001C41.6 27.5577 41.2416 27.2001 40.8 27.2001H28C27.5584 27.2001 27.2 27.5577 27.2 28.0001V36C27.2 36.4424 27.5584 36.8 28 36.8H32.6728C32.2424 37.7808 32 38.8624 32 40C32 41.1376 32.2424 42.2192 32.6728 43.2H24ZM39.1152 32.0521C39.0256 32.0617 38.9376 32.0801 38.848 32.0929C38.6472 32.1217 38.448 32.1545 38.252 32.1985C38.1472 32.2217 38.0448 32.2513 37.9408 32.2785C37.7656 32.3249 37.5928 32.3761 37.4224 32.4337C37.312 32.4713 37.2032 32.5113 37.0952 32.5537C36.9384 32.6153 36.7848 32.6825 36.6328 32.7529C36.5208 32.8049 36.4088 32.8569 36.2992 32.9137C36.1568 32.9881 36.0192 33.0705 35.8824 33.1537C35.7736 33.2193 35.6632 33.2801 35.5584 33.3513C35.396 33.4601 35.2408 33.5801 35.0872 33.7001C34.932 33.8209 34.7832 33.9489 34.6368 34.0817C34.5216 34.1857 34.4064 34.2889 34.2976 34.3993C34.204 34.4953 34.116 34.5969 34.0264 34.6977C33.9232 34.8145 33.8216 34.9321 33.7248 35.0545C33.6856 35.1041 33.6408 35.1489 33.6024 35.1993H28.8V28.7993H40V31.9993C39.7008 32.0001 39.4064 32.0201 39.1152 32.0521ZM40 46.4C39.7528 46.4 39.508 46.3824 39.2656 46.3544C39.192 46.3464 39.1208 46.332 39.048 46.3208C38.8792 46.2952 38.7112 46.2648 38.5456 46.2264C38.464 46.2072 38.3832 46.1856 38.3024 46.164C38.1472 46.1216 37.9944 46.072 37.844 46.0184C37.7656 45.9904 37.6864 45.9632 37.6096 45.9328C37.4448 45.8664 37.2848 45.7912 37.1264 45.7112C37.0712 45.6832 37.0136 45.66 36.9592 45.6304C36.7616 45.524 36.572 45.4048 36.3864 45.2776C36.3064 45.2232 36.2312 45.1624 36.1544 45.104C36.044 45.0208 35.9344 44.9352 35.8296 44.8448C35.7504 44.7768 35.6744 44.7064 35.5984 44.6352C35.4952 44.5376 35.396 44.4352 35.2992 44.3296C35.236 44.2608 35.1712 44.1944 35.1112 44.1232C34.9632 43.9472 34.8208 43.7648 34.6904 43.5712C34.0024 42.5496 33.6 41.3208 33.6 40C33.6 38.6776 34.0032 37.448 34.6928 36.4272C34.8224 36.2352 34.9632 36.0544 35.1104 35.88C35.172 35.8064 35.2384 35.7376 35.304 35.6673C35.3992 35.564 35.496 35.4632 35.5976 35.3673C35.6744 35.2945 35.752 35.2233 35.832 35.1545C35.936 35.0649 36.044 34.9801 36.1536 34.8977C36.2312 34.8385 36.3072 34.7777 36.388 34.7225C36.5728 34.5953 36.7632 34.4769 36.96 34.3705C37.0144 34.3409 37.0728 34.3177 37.128 34.2897C37.2864 34.2105 37.4464 34.1345 37.6104 34.0681C37.6872 34.0369 37.7664 34.0105 37.8448 33.9825C37.996 33.9281 38.1488 33.8793 38.3032 33.8369C38.384 33.8145 38.4648 33.7929 38.5464 33.7745C38.712 33.7361 38.8792 33.7057 39.0488 33.6801C39.1216 33.6689 39.1928 33.6553 39.2664 33.6465C39.508 33.6177 39.7528 33.6001 40 33.6001C40.2408 33.6001 40.4784 33.6169 40.7128 33.6425C41.764 33.7593 42.74 34.1297 43.5752 34.6945C43.7656 34.8225 43.9448 34.9625 44.1184 35.1081C44.1944 35.1721 44.2664 35.2417 44.3392 35.3089C44.4392 35.4009 44.5368 35.4953 44.6296 35.5929C44.7048 35.6713 44.7776 35.7513 44.8488 35.8336C44.936 35.9344 45.0176 36.0392 45.0976 36.1456C45.1584 36.2264 45.2224 36.3048 45.2792 36.3888C45.4048 36.5728 45.5232 36.7616 45.6288 36.9576C45.66 37.0152 45.6848 37.0768 45.7144 37.1352C45.792 37.2904 45.8664 37.4472 45.9312 37.608C45.9632 37.6864 45.9904 37.7672 46.0192 37.8472C46.0728 37.9968 46.1216 38.148 46.164 38.3016C46.1864 38.3832 46.208 38.4648 46.2272 38.5472C46.2656 38.712 46.296 38.8792 46.3208 39.0472C46.332 39.12 46.3456 39.192 46.3544 39.2656C46.3824 39.508 46.4 39.7528 46.4 40C46.4 43.5288 43.5288 46.4 40 46.4Z" fill="#FF7D00"/>
<path d="M18.4 34.4004C17.0768 34.4004 16 35.4772 16 36.8004C16 38.1236 17.0768 39.2004 18.4 39.2004C19.7232 39.2004 20.8 38.1236 20.8 36.8004C20.8 35.4772 19.7232 34.4004 18.4 34.4004ZM18.4 37.6004C17.9592 37.6004 17.6 37.242 17.6 36.8004C17.6 36.3588 17.9592 36.0004 18.4 36.0004C18.8408 36.0004 19.2 36.3588 19.2 36.8004C19.2 37.242 18.8408 37.6004 18.4 37.6004Z" fill="#FF7D00"/>
</svg>
