<svg width="53" height="48" viewBox="0 0 53 48" fill="none" xmlns="http://www.w3.org/2000/svg">
<path d="M26.8931 11.6044C26.4939 11.7441 25.4663 11.9036 24.4969 10.3599L23.082 11.3962C23.8061 12.5481 24.6661 13.1524 25.4988 13.3975V14.5701H27.2086V13.4147C27.2804 13.3958 27.3556 13.3838 27.424 13.3598C28.6559 12.9244 29.4903 11.7759 29.4509 10.5647C29.4304 9.92446 29.1073 8.36278 26.5614 7.67451C25.4039 7.36165 24.9773 6.86881 24.9662 6.51053C24.9542 6.13596 25.327 5.70826 25.8142 5.53597C26.2143 5.39626 27.2419 5.23684 28.2113 6.78052L29.6262 5.74425C28.9029 4.59228 28.0412 3.99743 27.2086 3.75315V2.57031H25.4988V3.72572C25.4287 3.74458 25.3526 3.75658 25.2851 3.78058C24.0515 4.216 23.218 5.36455 23.2581 6.57567C23.2778 7.21594 23.6009 8.77763 26.1468 9.4659C27.3052 9.77875 27.7309 10.2716 27.742 10.6299C27.7548 11.0044 27.3813 11.4322 26.8931 11.6044Z" fill="#FF7D00"/>
<path d="M13.0789 35.9993L9.0225 20.5531C11.105 20.4433 13.1559 19.5716 15.1657 18.7085C18.7178 17.1794 22.0792 15.7471 25.6483 18.2911V24.9441C23.7 25.3418 22.2288 27.0732 22.2288 29.1423V39.4279H20.519V41.1421H32.4874V39.4279H30.7776V29.1423C30.7776 27.0732 29.3064 25.341 27.3581 24.9441V18.2911C30.9264 15.748 34.2878 17.1794 37.8407 18.7085C39.8505 19.5725 41.9014 20.4433 43.9839 20.5531L39.9275 35.9993H50.6948L46.5554 20.2436C47.1444 20.0602 47.7352 19.8039 48.3284 19.4328L47.4223 17.98C44.5969 19.7499 41.7783 18.5362 38.5144 17.134C36.4524 16.2468 34.2399 15.3014 31.9249 15.1926C33.833 13.6198 35.0521 11.2352 35.0521 8.57127C35.0521 3.84507 31.2171 0 26.5032 0C21.7894 0 17.9543 3.84507 17.9543 8.57127C17.9543 11.2344 19.1734 13.6189 21.0807 15.1926C18.7656 15.3014 16.5532 16.246 14.4921 17.134C11.2273 18.5379 8.40784 19.7482 5.58415 17.98L4.67797 19.4328C5.27126 19.8048 5.86199 20.0602 6.451 20.2436L2.3125 35.9993H13.0789ZM42.1451 34.2851L45.3107 22.2339L48.4763 34.2851H42.1451ZM29.0679 29.1423V39.4279H23.9386V29.1423C23.9386 27.7246 25.0892 26.5709 26.5032 26.5709C27.9172 26.5709 29.0679 27.7246 29.0679 29.1423ZM19.6641 8.57127C19.6641 4.79048 22.7323 1.71425 26.5032 1.71425C30.2741 1.71425 33.3423 4.79048 33.3423 8.57127C33.3423 12.3521 30.2741 15.4283 26.5032 15.4283C22.7323 15.4283 19.6641 12.3521 19.6641 8.57127ZM4.53007 34.2851L7.69572 22.2339L10.8614 34.2851H4.53007Z" fill="#FF7D00"/>
<path d="M17.0977 48.0002H35.9051V42.8574H17.0977V48.0002ZM18.8074 44.5717H34.1954V46.2859H18.8074V44.5717Z" fill="#FF7D00"/>
<path d="M7.69397 41.9999C4.39411 41.9999 1.70977 39.3077 1.70977 36H0C0 40.2539 3.45203 43.7141 7.69397 43.7141C11.9359 43.7141 15.3879 40.2539 15.3879 36H13.6782C13.6782 39.3077 10.9938 41.9999 7.69397 41.9999Z" fill="#FF7D00"/>
<path d="M51.2915 36C51.2915 39.3077 48.6071 41.9999 45.3073 41.9999C42.0074 41.9999 39.3231 39.3077 39.3231 36H37.6133C37.6133 40.2539 41.0653 43.7141 45.3073 43.7141C49.5492 43.7141 53.0012 40.2539 53.0012 36H51.2915Z" fill="#FF7D00"/>
</svg>
