<svg width="48" height="48" viewBox="0 0 48 48" fill="none" xmlns="http://www.w3.org/2000/svg">
<path fill-rule="evenodd" clip-rule="evenodd" d="M32.135 39.3747L15.838 39.3677C14.3596 39.3691 13.1588 38.1722 13.1562 36.6945C13.1554 36.223 13.2723 35.7586 13.5087 35.3499L21.6692 21.2155C22.4096 19.9331 24.0506 19.4943 25.3344 20.2355C25.8162 20.5137 26.1792 20.9185 26.4056 21.3836L34.486 35.3654C35.224 36.6464 34.7838 38.2822 33.5028 39.0187C33.0712 39.2668 32.5992 39.381 32.135 39.3747Z" fill="#2B495A"/>
<path d="M43.4129 9.64959L34.0379 0.274594C33.8621 0.0988125 33.6236 0 33.375 0H5.25C4.73222 0 4.3125 0.419719 4.3125 0.9375V47.0625C4.3125 47.5803 4.73222 48 5.25 48H42.75C43.2678 48 43.6875 47.5803 43.6875 47.0625V10.3125C43.6875 10.0639 43.5887 9.82537 43.4129 9.64959ZM34.3125 3.20081L40.4867 9.375H34.3125V3.20081ZM6.1875 46.125V1.875H32.4375V10.3125C32.4375 10.8303 32.8572 11.25 33.375 11.25H41.8125V46.125H6.1875Z" fill="#2B495A"/>
<path d="M9.70312 5.62512V11.25C9.74924 12.4926 11.5325 12.4917 11.5781 11.25V5.62512H12.2812C13.5238 5.579 13.5229 3.79578 12.2812 3.75012H8.99999C7.75743 3.79625 7.75837 5.57947 8.99999 5.62512H9.70312Z" fill="#2B495A"/>
<path d="M15.0234 12.1875C15.5412 12.1875 15.9609 11.7677 15.9609 11.25V9.84362H17.8359V11.25C17.8821 12.4925 19.6653 12.4916 19.7109 11.25V6.56246C19.5691 2.83552 14.2265 2.83833 14.0859 6.56246V11.25C14.0859 11.7677 14.5058 12.1875 15.0234 12.1875ZM15.9609 6.56246C16.0082 5.32008 17.7892 5.32112 17.8359 6.56246V7.96862H15.9609V6.56246Z" fill="#2B495A"/>
<path d="M21.3425 12.0885C21.7957 12.318 22.3678 12.137 22.6003 11.6693L23.4024 10.0651L24.2044 11.6693C24.4368 12.1371 25.0089 12.318 25.4622 12.0885C25.9254 11.857 26.113 11.2938 25.8815 10.8307L24.4506 7.96879L25.8816 5.10679C26.1131 4.64367 25.9254 4.08051 25.4623 3.84895C24.9992 3.61738 24.436 3.80507 24.2045 4.2682L23.4024 5.87235L22.6004 4.2682C22.3689 3.80517 21.8059 3.61738 21.3426 3.84895C20.8794 4.08051 20.6918 4.64367 20.9233 5.10679L22.3542 7.96879L20.9232 10.8308C20.6917 11.2939 20.8794 11.8571 21.3425 12.0885Z" fill="#2B495A"/>
<path d="M38.0625 15H9.93749C8.69493 15.0461 8.69587 16.8293 9.93749 16.875H38.0625C39.305 16.8289 39.3041 15.0457 38.0625 15Z" fill="#2B495A"/>
<path d="M18.6797 19.8214C18.6797 19.3036 18.26 18.8839 17.7422 18.8839H9.93749C8.69493 18.93 8.69587 20.7133 9.93749 20.7589H17.7422C18.26 20.7589 18.6797 20.3392 18.6797 19.8214Z" fill="#2B495A"/>
<path d="M38.0625 42.1875H9.93749C8.69493 42.2336 8.69587 44.0168 9.93749 44.0625H38.0625C39.305 44.0164 39.3041 42.2332 38.0625 42.1875Z" fill="#2B495A"/>
<path d="M24 32.4373C24.5178 32.4373 24.9375 32.0176 24.9375 31.4998V25.8751C24.8914 24.6325 23.1082 24.6334 23.0625 25.8751V31.4997C23.0625 32.0176 23.4823 32.4373 24 32.4373Z" fill="#2B495A"/>
<path d="M23.0625 35.25C23.0625 35.7678 23.4822 36.1873 24 36.1873C25.2421 36.1411 25.2421 34.3576 24 34.3119C23.4822 34.3119 23.0625 34.7316 23.0625 35.2494V35.25Z" fill="#2B495A"/>
<path d="M38.0625 18.8839H30.2578C29.0152 18.93 29.0162 20.7133 30.2578 20.7589H38.0625C39.3051 20.7128 39.3041 18.9296 38.0625 18.8839Z" fill="#2B495A"/>
<path d="M16.9266 23.7053C16.9266 23.1875 16.5068 22.7678 15.9891 22.7678H9.93749C8.69493 22.8139 8.69587 24.5972 9.93749 24.6428H15.9891C16.5068 24.6428 16.9266 24.2231 16.9266 23.7053Z" fill="#2B495A"/>
<path d="M14.6841 27.5894C14.6841 27.0716 14.2644 26.6519 13.7466 26.6519H9.93749C8.69493 26.698 8.69587 28.4812 9.93749 28.5269H13.7466C14.2644 28.5269 14.6841 28.1071 14.6841 27.5894Z" fill="#2B495A"/>
<path d="M9.93749 30.5356C8.69493 30.5818 8.69587 32.365 9.93749 32.4106H11.5042C12.7468 32.3645 12.7459 30.5813 11.5042 30.5356H9.93749Z" fill="#2B495A"/>
<path d="M38.0633 22.7678H31.9804C30.7378 22.8139 30.7388 24.5972 31.9804 24.6428H38.0633C39.3058 24.5968 39.3049 22.8135 38.0633 22.7678Z" fill="#2B495A"/>
<path d="M38.0628 26.6519H34.2245C32.982 26.698 32.9829 28.4812 34.2245 28.5269H38.0628C39.3053 28.4807 39.3044 26.6975 38.0628 26.6519Z" fill="#2B495A"/>
<path d="M38.0625 30.5356H36.4689C35.2263 30.5818 35.2272 32.365 36.4689 32.4106H38.0625C39.3051 32.3646 39.3041 30.5813 38.0625 30.5356Z" fill="#2B495A"/>
</svg>
