<svg width="48" height="48" viewBox="0 0 48 48" fill="none" xmlns="http://www.w3.org/2000/svg">
<g id="042-vat" clip-path="url(#clip0_5975_1704)">
<g id="Group">
<g id="Group_2">
<path id="Vector" d="M38.5226 9.84009L28.9571 0.274594C28.7812 0.0988125 28.5428 0 28.2942 0L3.42383 9.375e-05C2.90605 9.375e-05 2.48633 0.419906 2.48633 0.937594V43.0258C2.48633 43.5435 2.90605 43.9633 3.42383 43.9633H30.0542C31.2967 43.9172 31.2958 42.134 30.0542 42.0883H4.36133V1.87509L27.3567 1.875V10.503C27.3567 11.0207 27.7764 11.4405 28.2942 11.4405H36.9222V31.7917C36.9683 33.0343 38.7515 33.0334 38.7972 31.7917V10.503C38.7972 10.2544 38.6984 10.016 38.5226 9.84009ZM29.2317 3.20081L35.5964 9.5655H29.2317V3.20081Z" fill="#2B495A"/>
<path id="Vector_2" d="M22.5549 11.4405C23.0727 11.4405 23.4924 11.0206 23.4924 10.503V5.70117H24.2288C25.4714 5.65505 25.4704 3.87183 24.2288 3.82617H20.8809C19.6383 3.8723 19.6393 5.65552 20.8809 5.70117H21.6173V10.503C21.6174 11.0207 22.0371 11.4405 22.5549 11.4405Z" fill="#2B495A"/>
<path id="Vector_3" d="M18.0118 11.4405C18.5295 11.4405 18.9493 11.0207 18.9493 10.503V6.67686C18.8055 2.89939 13.3905 2.9023 13.248 6.67686V10.503C13.2942 11.7455 15.0774 11.7446 15.123 10.503V9.52733H17.0743V10.503C17.0743 11.0208 17.494 11.4405 18.0118 11.4405ZM15.123 7.65233V6.67686C15.1723 5.38405 17.0255 5.38499 17.0743 6.67686V7.65233H15.123Z" fill="#2B495A"/>
<path id="Vector_4" d="M8.51213 10.7994C8.79057 11.6471 10.0127 11.6468 10.2909 10.7994L12.2041 5.06016C12.3679 4.56901 12.1024 4.0381 11.6112 3.87432C11.1199 3.71054 10.5891 3.97595 10.4254 4.46729L9.40163 7.53844L8.37788 4.46729C8.2141 3.97604 7.68329 3.71073 7.19204 3.87432C6.70088 4.0381 6.43538 4.56901 6.59917 5.06016L8.51213 10.7994Z" fill="#2B495A"/>
<path id="Vector_5" d="M33.7936 15.6636H7.48821C6.24565 15.7097 6.24659 17.4929 7.48821 17.5386H33.7936C35.0361 17.4924 35.0351 15.7092 33.7936 15.6636Z" fill="#2B495A"/>
<path id="Vector_6" d="M33.7936 19.7289H7.48821C6.24565 19.775 6.24659 21.5582 7.48821 21.6039H33.7936C35.0361 21.5578 35.0351 19.7746 33.7936 19.7289Z" fill="#2B495A"/>
<path id="Vector_7" d="M7.48821 25.6693H20.6409C21.8834 25.6232 21.8825 23.84 20.6409 23.7943H7.48821C6.24565 23.8404 6.24659 25.6236 7.48821 25.6693Z" fill="#2B495A"/>
<path id="Vector_8" d="M30.3886 27.8596H7.48821C6.24565 27.9057 6.24659 29.689 7.48821 29.7346H30.3886C31.6312 29.6885 31.6302 27.9053 30.3886 27.8596Z" fill="#2B495A"/>
<path id="Vector_9" d="M27.2551 32.8624C27.2551 32.3447 26.8354 31.9249 26.3176 31.9249H7.48821C6.24565 31.9711 6.24659 33.7543 7.48821 33.7999H26.3177C26.8354 33.7999 27.2551 33.3802 27.2551 32.8624Z" fill="#2B495A"/>
<path id="Vector_10" d="M7.48821 35.9902C6.24565 36.0364 6.24659 37.8196 7.48821 37.8652H24.7115C25.9541 37.8191 25.9531 36.0359 24.7115 35.9902H7.48821Z" fill="#2B495A"/>
</g>
<path id="Vector_11" fill-rule="evenodd" clip-rule="evenodd" d="M36.9039 48C41.6456 48 45.5129 44.1328 45.5129 39.3911C45.0725 27.9872 28.7336 27.9903 28.2949 39.3912C28.2949 44.1328 32.1622 48 36.9039 48Z" fill="#2B495A"/>
<path id="Vector_12" d="M38.228 39.391L39.9565 37.6626C40.8038 36.7543 39.5381 35.4898 38.6306 36.3367L36.9021 38.0651L35.1736 36.3367C34.8076 35.9707 34.2139 35.9707 33.8477 36.3367C33.4816 36.7028 33.4816 37.2964 33.8477 37.6626L35.5762 39.391L33.8477 41.1195C33.0004 42.0279 34.2662 43.2923 35.1736 42.4454L36.9021 40.7169L38.6306 42.4454C38.9968 42.8115 39.5903 42.8115 39.9565 42.4454C40.3226 42.0793 40.3226 41.4857 39.9565 41.1195L38.228 39.391Z" fill="white"/>
</g>
</g>
<defs>
<clipPath id="clip0_5975_1704">
<rect width="48" height="48" fill="white"/>
</clipPath>
</defs>
</svg>
