<svg width="48" height="48" viewBox="0 0 48 48" fill="none" xmlns="http://www.w3.org/2000/svg">
<g id="032-balance" clip-path="url(#clip0_5975_1598)">
<g id="Group">
<path id="Vector" d="M45.2033 10.0179C41.2719 10.0179 38.3685 8.93533 35.2945 7.78912C32.756 6.84276 30.1499 5.87107 26.8909 5.49303L26.8215 2.77258C26.6284 -0.92546 21.3873 -0.922928 21.1952 2.77258L21.1258 5.49303C17.8668 5.87107 15.2608 6.84276 12.7223 7.78912C9.64837 8.93533 6.74495 10.0179 2.81348 10.0179C1.26213 10.0179 0 11.28 0 12.8314C0 14.3827 1.26213 15.6448 2.81348 15.6448C4.92153 15.6448 6.76015 15.3918 8.44045 15.0033V19.3004C8.48659 20.5434 10.2704 20.5425 10.3161 19.3004V14.5013C13.9947 13.3939 17.0869 11.7599 20.9809 11.1791L20.2769 38.7756C19.1749 39.1571 18.3815 40.2052 18.3815 41.4352V42.373H17.4437C15.8923 42.373 14.6302 43.6352 14.6302 45.1865V47.0622C14.6302 47.58 15.0501 48 15.568 48H32.4489C32.9669 48 33.3868 47.58 33.3868 47.0622V45.1865C33.3868 43.6352 32.1246 42.373 30.5733 42.373H29.6355V41.4352C29.6355 40.2051 28.8421 39.157 27.7401 38.7756L27.0361 11.1791C29.5454 11.5544 31.6865 12.3527 33.9173 13.1845C35.1409 13.6407 36.3802 14.1028 37.7008 14.5014V19.3005C37.7469 20.5435 39.5308 20.5425 39.5764 19.3005V15.0034C41.2566 15.3919 43.0953 15.6449 45.2033 15.6449C48.9306 15.5035 48.9297 10.1586 45.2033 10.0179ZM23.0704 2.82041C23.1364 1.54534 24.881 1.54619 24.9466 2.82041L25.0111 5.34814C24.3598 5.32235 23.6573 5.32235 23.0059 5.34814L23.0704 2.82041ZM31.5111 45.1865V46.1243H16.5059V45.1865C16.5059 44.6694 16.9266 44.2487 17.4437 44.2487H30.5733C31.0904 44.2487 31.5111 44.6694 31.5111 45.1865ZM27.7598 42.373H20.2572V41.4352C20.2572 40.9181 20.6779 40.4974 21.195 40.4974H26.822C27.3391 40.4974 27.7598 40.9181 27.7598 41.4352V42.373ZM25.86 38.6217H22.157L22.862 10.987C23.6022 10.9455 24.4146 10.9455 25.1549 10.987L25.86 38.6217ZM45.2033 13.7692C36.5075 13.7619 32.6561 9.10686 24.0085 9.08004C15.3606 9.10695 11.5096 13.7619 2.81348 13.7692C2.29637 13.7692 1.87566 13.3485 1.87566 12.8314C1.87566 12.3142 2.29637 11.8935 2.81348 11.8935C7.08313 11.8935 10.2831 10.7004 13.3776 9.5467C20.6945 6.46228 27.3301 6.46556 34.6392 9.54698C37.7338 10.7005 40.9337 11.8936 45.2033 11.8936C46.4305 11.9333 46.4592 13.7176 45.2033 13.7692Z" fill="#2B495A"/>
<g id="Group_2">
<path id="Vector_2" fill-rule="evenodd" clip-rule="evenodd" d="M9.37811 35.9802C14.2852 35.9802 18.2875 31.9779 18.2875 27.0708C17.8317 15.269 0.922659 15.2723 0.46875 27.0709C0.46875 31.978 4.47102 35.9802 9.37811 35.9802Z" fill="#2B495A"/>
<path id="Vector_3" fill-rule="evenodd" clip-rule="evenodd" d="M38.6379 35.9802C43.545 35.9802 47.5472 31.9779 47.5472 27.0708C47.0915 15.269 30.1824 15.2723 29.7285 27.0709C29.7284 31.978 33.7307 35.9802 38.6379 35.9802Z" fill="#2B495A"/>
</g>
<g id="Group_3">
<path id="Vector_4" d="M12.0139 22.5073C11.5653 22.2483 10.9918 22.402 10.7329 22.8505L6.40122 30.3532C6.1422 30.8017 6.29591 31.3753 6.74447 31.6342C7.18506 31.8909 7.76511 31.7437 8.02554 31.291L12.3571 23.7884C12.6162 23.3398 12.4624 22.7661 12.0139 22.5073Z" fill="white"/>
<path id="Vector_5" d="M7.21347 24.2574C8.45647 24.2112 8.45553 22.4274 7.21347 22.3817H7.21282C5.96982 22.4279 5.97142 24.2118 7.21347 24.2574Z" fill="white"/>
<path id="Vector_6" d="M11.5456 29.8843H11.545C11.027 29.8843 10.6074 30.3042 10.6074 30.8221C10.6536 32.0646 12.4376 32.0645 12.4834 30.8221C12.4835 30.3041 12.0636 29.8843 11.5456 29.8843Z" fill="white"/>
<path id="Vector_7" d="M39.412 26.3756L38.5849 26.033C38.4408 25.9734 38.328 25.8596 38.2672 25.7128C38.2064 25.5661 38.2058 25.4059 38.2655 25.2616C38.3252 25.1174 38.4389 25.0046 38.5857 24.9437C38.7325 24.8831 38.8927 24.8824 39.037 24.942L39.4505 25.1133C39.929 25.3112 40.4776 25.0841 40.6757 24.6056C40.874 24.1271 40.6467 23.5785 40.1682 23.3804L39.7547 23.2091C39.6962 23.1849 39.6371 23.1631 39.5774 23.1435V22.8506C39.5313 21.6076 37.7475 21.6085 37.7018 22.8506V23.2868C37.1721 23.5524 36.7607 23.9932 36.5326 24.5438C36.0011 25.7542 36.6354 27.2857 37.867 27.7658L38.6942 28.1084C38.9898 28.2309 39.1361 28.5841 39.0136 28.8799C38.954 29.024 38.8402 29.1369 38.6934 29.1977C38.5467 29.2585 38.3863 29.2591 38.2423 29.1994L37.8288 29.0282C37.3505 28.8304 36.8018 29.0573 36.6035 29.5357C36.4052 30.0143 36.6326 30.5628 37.1111 30.7611L37.5245 30.9323C37.5831 30.9565 37.6422 30.9785 37.7018 30.998V31.291C37.7479 32.534 39.5318 32.533 39.5774 31.291V30.8546C41.4497 29.9365 41.3456 27.1587 39.412 26.3756Z" fill="white"/>
</g>
</g>
</g>
<defs>
<clipPath id="clip0_5975_1598">
<rect width="48" height="48" fill="white"/>
</clipPath>
</defs>
</svg>
