<svg width="48" height="48" viewBox="0 0 48 48" fill="none" xmlns="http://www.w3.org/2000/svg">
<g id="004-tax office">
<g id="Group">
<path id="Vector" fill-rule="evenodd" clip-rule="evenodd" d="M14.6255 21.6558H33.3801C34.4116 21.6558 35.2555 22.4998 35.2555 23.5312V34.784C35.2555 35.8154 34.4115 36.6595 33.3801 36.6595H14.6255C13.5941 36.6595 12.75 35.8155 12.75 34.784V23.5312C12.75 22.4996 13.594 21.6558 14.6255 21.6558Z" fill="#573AA9"/>
<g id="Group_2">
<path id="Vector_2" d="M47.0682 43.6924L47.0682 40.8792C47.0682 40.3613 46.6482 39.9415 46.1304 39.9415H45.1831L44.7338 18.3737H46.1303C46.6481 18.3737 47.0681 17.9538 47.0681 17.4359V13.685C48.3109 13.6389 48.31 11.8552 47.0681 11.8095H46.3209L24.3658 2.50659C24.1319 2.40747 23.8679 2.40747 23.6341 2.50659L1.67889 11.8096H0.9318C-0.311069 11.8558 -0.310131 13.6394 0.9318 13.6851H0.931893V17.436C0.931893 17.9539 1.35181 18.3737 1.86962 18.3737H3.26619L2.81683 39.9416H1.86962C1.35181 39.9416 0.931893 40.3614 0.931893 40.8793V43.6925H0.9318C-0.311069 43.7386 -0.310131 45.5223 0.9318 45.5679H47.0682C48.311 45.5217 48.3101 43.7381 47.0682 43.6924ZM43.3072 39.9416H39.5762L40.0256 18.3737H42.8579L43.3072 39.9416ZM10.2996 39.9416L9.85028 18.3737H38.1497L37.7003 39.9416H10.2996ZM24 4.38843L41.514 11.8096H33.4854L24.3658 7.94543C24.1319 7.84631 23.8679 7.84631 23.6341 7.94543L14.5146 11.8096H6.48598L24 4.38843ZM28.6782 11.8096H19.3217L24 9.82736L28.6782 11.8096ZM2.80735 13.6851H45.1927V16.4983H2.80735V13.6851ZM5.14212 18.3737H7.97444L8.4238 39.9415H4.69276L5.14212 18.3737ZM2.80735 41.817H45.1927V43.6925H2.80735V41.817Z" fill="#573AA9"/>
<path id="Vector_3" d="M23.8757 25.4067C22.3245 25.4067 21.0625 26.6687 21.0625 28.2199V31.9709C21.1086 33.2137 22.8923 33.2128 22.938 31.9709V31.033H24.8134V31.9709C24.8596 33.2137 26.6432 33.2128 26.6889 31.9709V28.2199C26.6889 26.6687 25.4269 25.4067 23.8757 25.4067ZM24.8134 29.1576H22.938V28.2199C22.9852 26.9773 24.7665 26.9783 24.8134 28.2199V29.1576Z" fill="white"/>
<path id="Vector_4" d="M31.4692 29.1576L32.8346 26.817C33.4231 25.7227 31.8766 24.8218 31.2147 25.872L30.3836 27.2967L29.5526 25.872C29.2918 25.4247 28.7179 25.2735 28.2701 25.5345C27.8227 25.7955 27.6716 26.3697 27.9326 26.817L29.298 29.1576L27.9326 31.4983C27.6716 31.9457 27.8227 32.5199 28.2701 32.7807C28.7097 33.0393 29.2902 32.8947 29.5526 32.4433L30.3836 31.0186L31.2147 32.4433C31.4771 32.8948 32.0575 33.0393 32.4972 32.7807C32.9446 32.5198 33.0957 31.9456 32.8347 31.4983L31.4692 29.1576Z" fill="white"/>
<path id="Vector_5" d="M19.2567 25.4067H15.9748C14.7319 25.4529 14.7328 27.2365 15.9748 27.2822H16.678V31.9709C16.7241 33.2137 18.5078 33.2128 18.5534 31.9709V27.2822H19.2567C20.4996 27.2361 20.4987 25.4524 19.2567 25.4067Z" fill="white"/>
</g>
</g>
</g>
</svg>
