<svg width="48" height="48" viewBox="0 0 48 48" fill="none" xmlns="http://www.w3.org/2000/svg">
<path fill-rule="evenodd" clip-rule="evenodd" d="M32.135 39.3747L15.838 39.3677C14.3596 39.3691 13.1588 38.1722 13.1562 36.6945C13.1554 36.223 13.2723 35.7586 13.5087 35.3499L21.6692 21.2155C22.4096 19.9331 24.0506 19.4943 25.3344 20.2355C25.8162 20.5137 26.1792 20.9185 26.4056 21.3836L34.486 35.3654C35.224 36.6464 34.7838 38.2822 33.5028 39.0187C33.0712 39.2668 32.5992 39.381 32.135 39.3747Z" fill="#573AA9"/>
<path d="M43.4129 9.64959L34.0379 0.274594C33.8621 0.0988125 33.6236 0 33.375 0H5.25C4.73222 0 4.3125 0.419719 4.3125 0.9375V47.0625C4.3125 47.5803 4.73222 48 5.25 48H42.75C43.2678 48 43.6875 47.5803 43.6875 47.0625V10.3125C43.6875 10.0639 43.5887 9.82537 43.4129 9.64959ZM34.3125 3.20081L40.4867 9.375H34.3125V3.20081ZM6.1875 46.125V1.875H32.4375V10.3125C32.4375 10.8303 32.8572 11.25 33.375 11.25H41.8125V46.125H6.1875Z" fill="#573AA9"/>
<path d="M9.70501 5.62512V11.25C9.75113 12.4926 11.5344 12.4917 11.58 11.25V5.62512H12.2831C13.5257 5.579 13.5248 3.79578 12.2831 3.75012H9.00188C7.75932 3.79625 7.76026 5.57947 9.00188 5.62512H9.70501Z" fill="#573AA9"/>
<path d="M15.0234 12.1875C15.5412 12.1875 15.9609 11.7677 15.9609 11.25V9.84362H17.8359V11.25C17.8821 12.4925 19.6653 12.4916 19.7109 11.25V6.56246C19.5691 2.83552 14.2265 2.83833 14.0859 6.56246V11.25C14.0859 11.7677 14.5058 12.1875 15.0234 12.1875ZM15.9609 6.56246C16.0082 5.32008 17.7892 5.32112 17.8359 6.56246V7.96862H15.9609V6.56246Z" fill="#573AA9"/>
<path d="M21.3425 12.0885C21.7957 12.318 22.3678 12.137 22.6003 11.6693L23.4024 10.0651L24.2044 11.6693C24.4368 12.1371 25.0089 12.318 25.4622 12.0885C25.9254 11.857 26.113 11.2938 25.8815 10.8307L24.4506 7.96879L25.8816 5.10679C26.1131 4.64367 25.9254 4.08051 25.4623 3.84895C24.9992 3.61738 24.436 3.80507 24.2045 4.2682L23.4024 5.87235L22.6004 4.2682C22.3689 3.80517 21.8059 3.61738 21.3426 3.84895C20.8794 4.08051 20.6918 4.64367 20.9233 5.10679L22.3542 7.96879L20.9232 10.8308C20.6917 11.2939 20.8794 11.8571 21.3425 12.0885Z" fill="#573AA9"/>
<path d="M38.0644 15H9.93938C8.69682 15.0461 8.69776 16.8293 9.93938 16.875H38.0644C39.3069 16.8289 39.306 15.0457 38.0644 15Z" fill="#573AA9"/>
<path d="M18.6816 19.8214C18.6816 19.3036 18.2619 18.8839 17.7441 18.8839H9.93938C8.69682 18.93 8.69776 20.7133 9.93938 20.7589H17.7441C18.2619 20.7589 18.6816 20.3392 18.6816 19.8214Z" fill="#573AA9"/>
<path d="M38.0644 42.1875H9.93938C8.69682 42.2336 8.69776 44.0168 9.93938 44.0625H38.0644C39.3069 44.0164 39.306 42.2332 38.0644 42.1875Z" fill="#573AA9"/>
<path d="M24 32.4373C24.5178 32.4373 24.9375 32.0176 24.9375 31.4998V25.8751C24.8914 24.6325 23.1082 24.6334 23.0625 25.8751V31.4997C23.0625 32.0176 23.4823 32.4373 24 32.4373Z" fill="#573AA9"/>
<path d="M23.0625 35.25C23.0625 35.7678 23.4822 36.1873 24 36.1873C25.2421 36.1411 25.2421 34.3576 24 34.3119C23.4822 34.3119 23.0625 34.7316 23.0625 35.2494V35.25Z" fill="#573AA9"/>
<path d="M38.0644 18.8839H30.2597C29.0171 18.93 29.0181 20.7133 30.2597 20.7589H38.0644C39.3069 20.7128 39.306 18.9296 38.0644 18.8839Z" fill="#573AA9"/>
<path d="M16.9284 23.7053C16.9284 23.1875 16.5087 22.7678 15.9909 22.7678H9.93938C8.69682 22.8139 8.69776 24.5972 9.93938 24.6428H15.9909C16.5087 24.6428 16.9284 24.2231 16.9284 23.7053Z" fill="#573AA9"/>
<path d="M14.686 27.5894C14.686 27.0716 14.2663 26.6519 13.7485 26.6519H9.93938C8.69682 26.698 8.69776 28.4812 9.93938 28.5269H13.7485C14.2663 28.5269 14.686 28.1071 14.686 27.5894Z" fill="#573AA9"/>
<path d="M9.93938 30.5356C8.69682 30.5818 8.69776 32.365 9.93938 32.4106H11.5061C12.7487 32.3645 12.7478 30.5813 11.5061 30.5356H9.93938Z" fill="#573AA9"/>
<path d="M38.0613 22.7678H31.9784C30.7359 22.8139 30.7368 24.5972 31.9784 24.6428H38.0613C39.3039 24.5968 39.3029 22.8135 38.0613 22.7678Z" fill="#573AA9"/>
<path d="M38.0628 26.6519H34.2245C32.982 26.698 32.9829 28.4812 34.2245 28.5269H38.0628C39.3053 28.4807 39.3044 26.6975 38.0628 26.6519Z" fill="#573AA9"/>
<path d="M38.0643 30.5356H36.4706C35.2281 30.5818 35.229 32.365 36.4706 32.4106H38.0643C39.3069 32.3646 39.3059 30.5813 38.0643 30.5356Z" fill="#573AA9"/>
</svg>
