<svg width="174" height="120" viewBox="0 0 174 120" fill="none" xmlns="http://www.w3.org/2000/svg">
<path d="M123.025 14.3182C123.259 13.2787 124.741 13.2787 124.975 14.3182L130.997 40.9742C131.149 41.6479 131.922 41.9682 132.506 41.5994L155.612 27.0084C156.513 26.4394 157.561 27.4867 156.992 28.3878L142.401 51.4941C142.032 52.0781 142.352 52.8512 143.026 53.0034L169.682 59.0246C170.721 59.2594 170.721 60.7406 169.682 60.9754L143.026 66.9966C142.352 67.1488 142.032 67.9219 142.401 68.5059L156.992 91.6122C157.561 92.5133 156.513 93.5606 155.612 92.9916L132.506 78.4006C131.922 78.0318 131.149 78.3521 130.997 79.0258L124.975 105.682C124.741 106.721 123.259 106.721 123.025 105.682L117.003 79.0258C116.851 78.3521 116.078 78.0318 115.494 78.4006L92.3878 92.9916C91.4867 93.5606 90.4394 92.5133 91.0084 91.6122L105.599 68.5059C105.968 67.9219 105.648 67.1488 104.974 66.9966L78.3182 60.9754C77.2787 60.7406 77.2787 59.2594 78.3182 59.0246L104.974 53.0034C105.648 52.8512 105.968 52.0781 105.599 51.4941L91.0084 28.3878C90.4394 27.4867 91.4867 26.4394 92.3878 27.0084L115.494 41.5994C116.078 41.9682 116.851 41.6479 117.003 40.9742L123.025 14.3182Z" fill="#FF7D00"/>
<circle cx="60" cy="60" r="60" fill="#FF7D00"/>
<g clip-path="url(#clip0_5975_3061)">
<path d="M90.9215 39.6094C85.1882 39.6094 80.9541 38.0307 76.4711 36.3591C72.7691 34.979 68.9685 33.562 64.2159 33.0107L64.1147 29.0434C63.8331 23.6504 56.1898 23.6541 55.9097 29.0434L55.8085 33.0107C51.0558 33.562 47.2553 34.979 43.5533 36.3591C39.0705 38.0307 34.8364 39.6094 29.103 39.6094C26.8406 39.6094 25 41.45 25 43.7124C25 45.9748 26.8406 47.8154 29.103 47.8154C32.1772 47.8154 34.8585 47.4464 37.309 46.8798V53.1464C37.3763 54.9591 39.9777 54.9577 40.0443 53.1464V46.1478C45.409 44.5327 49.9185 42.1498 55.5971 41.3028L54.5704 81.5478C52.9634 82.1041 51.8064 83.6326 51.8064 85.4263V86.794H50.4387C48.1763 86.794 46.3357 88.6346 46.3357 90.897V93.6323C46.3357 94.3876 46.948 95 47.7034 95H72.3214C73.0767 95 73.689 94.3876 73.689 93.6323V90.897C73.689 88.6346 71.8484 86.794 69.586 86.794H68.2184V85.4263C68.2184 83.6325 67.0613 82.104 65.4543 81.5478L64.4276 41.3028C68.0871 41.8502 71.2095 43.0143 74.4627 44.2274C76.2471 44.8927 78.0545 45.5665 79.9803 46.1479V53.1465C80.0476 54.9593 82.649 54.9579 82.7156 53.1465V46.8799C85.1659 47.4465 87.8473 47.8155 90.9215 47.8155C96.3571 47.6093 96.3558 39.8147 90.9215 39.6094ZM58.6443 29.1131C58.7406 27.2536 61.2849 27.2549 61.3805 29.1131L61.4746 32.7994C60.5247 32.7618 59.5002 32.7618 58.5502 32.7994L58.6443 29.1131ZM70.9537 90.897V92.2647H49.0711V90.897C49.0711 90.1429 49.6846 89.5293 50.4387 89.5293H69.586C70.3402 89.5293 70.9537 90.1429 70.9537 90.897ZM65.483 86.794H54.5417V85.4263C54.5417 84.6722 55.1553 84.0587 55.9094 84.0587H64.1154C64.8695 84.0587 65.483 84.6722 65.483 85.4263V86.794ZM62.7124 81.3233H57.3123L58.3404 41.0227C59.4199 40.9621 60.6046 40.9621 61.6842 41.0227L62.7124 81.3233ZM90.9215 45.0801C78.2401 45.0694 72.6235 38.2808 60.0124 38.2417C47.4009 38.281 41.7848 45.0694 29.103 45.0801C28.3489 45.0801 27.7353 44.4665 27.7353 43.7124C27.7353 42.9583 28.3489 42.3447 29.103 42.3447C35.3296 42.3447 39.9962 40.6048 44.5091 38.9223C55.1795 34.4242 64.8564 34.4289 75.5156 38.9227C80.0284 40.6049 84.6949 42.3449 90.9215 42.3449C92.7112 42.4027 92.7529 45.0048 90.9215 45.0801Z" fill="white"/>
<path fill-rule="evenodd" clip-rule="evenodd" d="M38.6764 77.4715C45.8326 77.4715 51.6692 71.6349 51.6692 64.4787C51.0046 47.2677 26.3455 47.2725 25.6836 64.4788C25.6836 71.635 31.5202 77.4715 38.6764 77.4715Z" fill="white"/>
<path fill-rule="evenodd" clip-rule="evenodd" d="M81.3463 77.4715C88.5025 77.4715 94.3392 71.6349 94.3392 64.4787C93.6745 47.2677 69.0155 47.2725 68.3535 64.4788C68.3534 71.635 74.19 77.4715 81.3463 77.4715Z" fill="white"/>
<path d="M42.5211 57.8241C41.8668 57.4464 41.0304 57.6705 40.6528 58.3247L34.3359 69.266C33.9581 69.9202 34.1823 70.7566 34.8364 71.1343C35.4789 71.5086 36.3248 71.2939 36.7046 70.6337L43.0215 59.6924C43.3994 59.0382 43.1751 58.2016 42.5211 57.8241Z" fill="#FF7D00"/>
<path d="M35.5197 60.376C37.3324 60.3087 37.331 57.7072 35.5197 57.6406H35.5187C33.706 57.7081 33.7083 60.3095 35.5197 60.376Z" fill="#FF7D00"/>
<path d="M41.8389 68.582H41.838C41.0826 68.582 40.4707 69.1945 40.4707 69.9497C40.538 71.7617 43.1397 71.7616 43.2064 69.9497C43.2066 69.1943 42.5943 68.582 41.8389 68.582Z" fill="#FF7D00"/>
<path d="M82.4769 63.4645L81.2707 62.9649C81.0605 62.8779 80.896 62.712 80.8073 62.498C80.7187 62.2839 80.7178 62.0503 80.8049 61.8399C80.8919 61.6296 81.0578 61.4651 81.2718 61.3764C81.4858 61.2879 81.7196 61.2869 81.9299 61.3739L82.5329 61.6236C83.2309 61.9122 84.0308 61.5811 84.3198 60.8833C84.6089 60.1854 84.2774 59.3854 83.5796 59.0965L82.9766 58.8467C82.8913 58.8114 82.8051 58.7796 82.7181 58.751V58.3239C82.6508 56.5112 80.0494 56.5125 79.9828 58.3239V58.96C79.2103 59.3473 78.6103 59.9901 78.2777 60.793C77.5027 62.5583 78.4276 64.7917 80.2238 65.4918L81.43 65.9915C81.8611 66.1702 82.0745 66.6852 81.8959 67.1166C81.8089 67.3268 81.643 67.4913 81.429 67.5801C81.2149 67.6687 80.981 67.6695 80.771 67.5825L80.168 67.3328C79.4705 67.0444 78.6702 67.3753 78.3811 68.073C78.092 68.7709 78.4235 69.5709 79.1213 69.86L79.7243 70.1097C79.8096 70.145 79.8959 70.177 79.9828 70.2055V70.6327C80.0501 72.4454 82.6515 72.444 82.7181 70.6327V69.9963C85.4485 68.6575 85.2967 64.6065 82.4769 63.4645Z" fill="#FF7D00"/>
</g>
<defs>
<clipPath id="clip0_5975_3061">
<rect width="70" height="70" fill="white" transform="translate(25 25)"/>
</clipPath>
</defs>
</svg>
