<svg width="32" height="32" viewBox="0 0 32 32" fill="none" xmlns="http://www.w3.org/2000/svg">
<path fill-rule="evenodd" clip-rule="evenodd" d="M9.75031 14.4375H22.2534C22.9411 14.4375 23.5037 15.0002 23.5037 15.6878V23.1897C23.5037 23.8773 22.941 24.44 22.2534 24.44H9.75031C9.0627 24.44 8.5 23.8773 8.5 23.1897V15.6878C8.5 15.0001 9.06264 14.4375 9.75031 14.4375Z" fill="#FF5722"/>
<path d="M31.3788 29.1278L31.3788 27.2524C31.3788 26.9071 31.0988 26.6272 30.7536 26.6272H30.1221L29.8225 12.2487H30.7536C31.0988 12.2487 31.3787 11.9688 31.3787 11.6235V9.12292C32.2073 9.09217 32.2067 7.90306 31.3787 7.87262H30.8806L16.2439 1.67065C16.0879 1.60457 15.912 1.60457 15.7561 1.67065L1.11926 7.87268H0.6212C-0.207379 7.90344 -0.206754 9.09254 0.6212 9.12299H0.621262V11.6236C0.621262 11.9689 0.901206 12.2488 1.24642 12.2488H2.17746L1.87788 26.6273H1.24642C0.901206 26.6273 0.621262 26.9072 0.621262 27.2524V29.1279H0.6212C-0.207379 29.1587 -0.206754 30.3478 0.6212 30.3782H31.3788C32.2073 30.3474 32.2067 29.1583 31.3788 29.1278ZM28.8715 26.6273H26.3842L26.6837 12.2488H28.572L28.8715 26.6273ZM6.86642 26.6273L6.56685 12.2488H25.4331L25.1335 26.6273H6.86642ZM16 2.92521L27.676 7.87268H22.3236L16.2439 5.29655C16.0879 5.23047 15.912 5.23047 15.7561 5.29655L9.67643 7.87268H4.32399L16 2.92521ZM19.1188 7.87268H12.8812L16 6.55117L19.1188 7.87268ZM1.87157 9.12299H30.1285V10.9984H1.87157V9.12299ZM3.42808 12.2487H5.31629L5.61587 26.6272H3.1285L3.42808 12.2487ZM1.87157 27.8776H30.1285V29.1279H1.87157V27.8776Z" fill="#FF5722"/>
<path d="M15.9175 16.9375C14.8833 16.9375 14.042 17.7788 14.042 18.813V21.3136C14.0727 22.1422 15.2619 22.1415 15.2923 21.3136V20.6884H16.5426V21.3136C16.5734 22.1422 17.7625 22.1415 17.7929 21.3136V18.813C17.7929 17.7788 16.9516 16.9375 15.9175 16.9375ZM16.5426 19.4381H15.2923V18.813C15.3238 17.9846 16.5113 17.9852 16.5426 18.813V19.4381Z" fill="white"/>
<path d="M20.9791 19.439L21.8894 17.8785C22.2817 17.1491 21.2507 16.5484 20.8094 17.2486L20.2554 18.1984L19.7014 17.2486C19.5276 16.9504 19.145 16.8495 18.8464 17.0236C18.5481 17.1976 18.4474 17.5803 18.6214 17.8785L19.5317 19.439L18.6214 20.9994C18.4474 21.2977 18.5481 21.6805 18.8464 21.8544C19.1395 22.0268 19.5264 21.9304 19.7014 21.6294L20.2554 20.6796L20.8094 21.6294C20.9844 21.9304 21.3713 22.0268 21.6645 21.8544C21.9627 21.6804 22.0634 21.2976 21.8895 20.9994L20.9791 19.439Z" fill="white"/>
<path d="M12.8375 16.9375H10.6495C9.82094 16.9683 9.82157 18.1574 10.6495 18.1878H11.1183V21.3136C11.1491 22.1422 12.3382 22.1415 12.3686 21.3136V18.1878H12.8375C13.6661 18.1571 13.6654 16.9679 12.8375 16.9375Z" fill="white"/>
</svg>
