<svg width="52" height="56" viewBox="0 0 52 56" fill="none" xmlns="http://www.w3.org/2000/svg">
<path d="M51.0269 23.6291H0.973057C0.714987 23.6291 0.467487 23.5261 0.285004 23.3428C0.102521 23.1595 3.62578e-06 22.9108 3.62578e-06 22.6516V14.8319C-0.000474155 14.6561 0.0462753 14.4834 0.135326 14.332C0.224376 14.1806 0.35243 14.0562 0.505992 13.9718L25.5329 0.130955C25.6809 0.0451647 25.8487 0 26.0195 0C26.1903 0 26.3581 0.0451647 26.506 0.130955L51.494 13.9718C51.6476 14.0562 51.7756 14.1806 51.8647 14.332C51.9537 14.4834 52.0005 14.6561 52 14.8319V22.6516C52 22.9108 51.8975 23.1595 51.715 23.3428C51.5325 23.5261 51.285 23.6291 51.0269 23.6291ZM1.94611 21.6742H50.0539V15.4086L26 2.10542L1.94611 15.4086V21.6742Z" fill="white"/>
<path d="M51.0269 56.0001H0.973054C0.714984 56.0001 0.467484 55.8971 0.285001 55.7138C0.102518 55.5305 0 55.2818 0 55.0226V48.1217C0 47.8625 0.102518 47.6139 0.285001 47.4306C0.467484 47.2473 0.714984 47.1443 0.973054 47.1443H51.0269C51.285 47.1443 51.5325 47.2473 51.715 47.4306C51.8975 47.6139 52 47.8625 52 48.1217V55.0226C52 55.2818 51.8975 55.5305 51.715 55.7138C51.5325 55.8971 51.285 56.0001 51.0269 56.0001ZM1.94611 54.0451H50.0539V49.0992H1.94611V54.0451Z" fill="white"/>
<path d="M26.0011 19.397C24.8956 19.3989 23.8144 19.0713 22.8944 18.4555C21.9744 17.8398 21.257 16.9636 20.833 15.938C20.4091 14.9124 20.2977 13.7835 20.5129 12.6942C20.7281 11.605 21.2602 10.6043 22.0419 9.81909C22.8236 9.03385 23.8197 8.49929 24.9041 8.28311C25.9884 8.06694 27.1123 8.17887 28.1332 8.60474C29.1542 9.0306 30.0264 9.75124 30.6394 10.6754C31.2524 11.5996 31.5786 12.6857 31.5767 13.7962C31.5741 15.2808 30.9858 16.7039 29.9408 17.7537C28.8957 18.8035 27.479 19.3944 26.0011 19.397ZM26.0011 10.1405C25.2809 10.1385 24.5763 10.3513 23.9766 10.7518C23.3768 11.1523 22.9089 11.7226 22.6319 12.3904C22.355 13.0582 22.2815 13.7936 22.4209 14.5033C22.5602 15.2131 22.906 15.8654 23.4146 16.3777C23.9231 16.8899 24.5716 17.239 25.2778 17.3809C25.984 17.5227 26.7162 17.4509 27.3817 17.1745C28.0473 16.8981 28.6162 16.4296 29.0165 15.8282C29.4169 15.2268 29.6305 14.5196 29.6305 13.7962C29.6306 12.8283 29.2485 11.8999 28.5681 11.2146C27.8877 10.5294 26.9646 10.1431 26.0011 10.1405Z" fill="white"/>
<path d="M12.0489 49.0993H3.82657C3.5685 49.0993 3.321 48.9963 3.13852 48.813C2.95603 48.6296 2.85352 48.381 2.85352 48.1218V22.6492C2.85352 22.39 2.95603 22.1414 3.13852 21.958C3.321 21.7747 3.5685 21.6718 3.82657 21.6718H12.0489C12.3069 21.6718 12.5544 21.7747 12.7369 21.958C12.9194 22.1414 13.0219 22.39 13.0219 22.6492V48.1218C13.0219 48.381 12.9194 48.6296 12.7369 48.813C12.5544 48.9963 12.3069 49.0993 12.0489 49.0993ZM4.79962 47.1443H11.0758V23.6267H4.79962V47.1443Z" fill="white"/>
<path d="M48.1758 49.0993H39.9535C39.6955 49.0993 39.448 48.9963 39.2655 48.813C39.083 48.6296 38.9805 48.381 38.9805 48.1218V22.6492C38.9805 22.39 39.083 22.1414 39.2655 21.958C39.448 21.7747 39.6955 21.6718 39.9535 21.6718H48.1758C48.4339 21.6718 48.6814 21.7747 48.8639 21.958C49.0464 22.1414 49.1489 22.39 49.1489 22.6492V48.1218C49.1489 48.2502 49.1237 48.3773 49.0748 48.4958C49.0259 48.6144 48.9542 48.7222 48.8639 48.813C48.7735 48.9037 48.6663 48.9757 48.5482 49.0248C48.4301 49.074 48.3036 49.0993 48.1758 49.0993ZM40.9266 47.1443H47.2028V23.6267H40.9266V47.1443Z" fill="white"/>
<path d="M26.0025 43.0903C24.8061 43.1407 23.6384 42.7137 22.7542 41.9025C21.8701 41.0912 21.3413 39.9616 21.2832 38.7601C21.2832 38.5009 21.3857 38.2523 21.5682 38.069C21.7507 37.8856 21.9982 37.7827 22.2563 37.7827C22.5143 37.7827 22.7618 37.8856 22.9443 38.069C23.1268 38.2523 23.2293 38.5009 23.2293 38.7601C23.2913 39.4414 23.6161 40.0713 24.1343 40.5151C24.6525 40.959 25.3231 41.1816 26.0025 41.1353C26.682 41.1816 27.3525 40.959 27.8707 40.5151C28.3889 40.0713 28.7137 39.4414 28.7757 38.7601C28.721 38.0744 28.3989 37.4381 27.8796 36.9896C27.3603 36.5411 26.6857 36.3168 26.0025 36.3653C24.8045 36.4158 23.6354 35.9874 22.7509 35.1741C21.8665 34.3608 21.3388 33.2286 21.2832 32.0254C21.3388 30.8222 21.8665 29.6901 22.7509 28.8768C23.6354 28.0634 24.8045 27.6351 26.0025 27.6855C27.2005 27.6351 28.3697 28.0634 29.2541 28.8768C30.1385 29.6901 30.6663 30.8222 30.7218 32.0254C30.7218 32.2847 30.6193 32.5333 30.4368 32.7166C30.2543 32.8999 30.0068 33.0029 29.7488 33.0029C29.4907 33.0029 29.2432 32.8999 29.0607 32.7166C28.8782 32.5333 28.7757 32.2847 28.7757 32.0254C28.7186 31.3414 28.3955 30.7076 27.8764 30.2612C27.3573 29.8148 26.6841 29.5917 26.0025 29.6404C25.3209 29.5917 24.6477 29.8148 24.1286 30.2612C23.6095 30.7076 23.2865 31.3414 23.2293 32.0254C23.2889 32.7085 23.6127 33.3408 24.1312 33.7867C24.6497 34.2326 25.3215 34.4565 26.0025 34.4104C27.2022 34.3601 28.3727 34.7897 29.2574 35.6051C30.1421 36.4206 30.6688 37.5552 30.7218 38.7601C30.6638 39.9616 30.135 41.0912 29.2508 41.9025C28.3666 42.7137 27.1989 43.1407 26.0025 43.0903Z" fill="white"/>
<path d="M26.0021 45.6791C25.744 45.6791 25.4965 45.5761 25.3141 45.3928C25.1316 45.2095 25.0291 44.9608 25.0291 44.7016V26.0517C25.0291 25.7924 25.1316 25.5438 25.3141 25.3605C25.4965 25.1772 25.744 25.0742 26.0021 25.0742C26.2602 25.0742 26.5077 25.1772 26.6902 25.3605C26.8726 25.5438 26.9752 25.7924 26.9752 26.0517V44.7016C26.9752 44.9608 26.8726 45.2095 26.6902 45.3928C26.5077 45.5761 26.2602 45.6791 26.0021 45.6791Z" fill="white"/>
</svg>
