<svg width="36" height="32" viewBox="0 0 36 32" fill="none" xmlns="http://www.w3.org/2000/svg">
<path d="M18.2654 7.73759C17.9942 7.83073 17.2963 7.93702 16.6378 6.90789L15.6768 7.59874C16.1686 8.36672 16.7528 8.76957 17.3183 8.933V9.7147H18.4797V8.94443C18.5285 8.93186 18.5796 8.92385 18.626 8.90786C19.4628 8.61757 20.0295 7.85187 20.0028 7.04446C19.9889 6.61761 19.7694 5.57649 18.0401 5.11764C17.2539 4.90907 16.9641 4.58051 16.9566 4.34165C16.9484 4.09194 17.2016 3.80681 17.5326 3.69195C17.8044 3.59881 18.5023 3.49253 19.1608 4.52165L20.1218 3.83081C19.6306 3.06282 19.0453 2.66626 18.4797 2.5034V1.71484H17.3183V2.48512C17.2707 2.49769 17.219 2.50569 17.1732 2.52169C16.3352 2.81197 15.7691 3.57767 15.7964 4.38508C15.8097 4.81193 16.0292 5.85305 17.7585 6.3119C18.5453 6.52047 18.8345 6.84904 18.842 7.08789C18.8507 7.3376 18.597 7.62274 18.2654 7.73759Z" fill="#FF5722"/>
<path d="M8.88434 23.9996L6.12902 13.702C7.54355 13.6289 8.9366 13.0478 10.3018 12.4723C12.7145 11.4529 14.9977 10.4981 17.422 12.1941V16.6294C16.0987 16.8946 15.0993 18.0488 15.0993 19.4282V26.2852H13.938V27.4281H22.0675V26.2852H20.9061V19.4282C20.9061 18.0488 19.9068 16.894 18.5834 16.6294V12.1941C21.0071 10.4987 23.2904 11.4529 25.7037 12.4723C27.0688 13.0483 28.4619 13.6289 29.8764 13.702L27.1211 23.9996H34.4347L31.6231 13.4958C32.0232 13.3735 32.4244 13.2026 32.8274 12.9552L32.2119 11.9866C30.2927 13.1666 28.3783 12.3575 26.1612 11.4226C24.7606 10.8312 23.2578 10.201 21.6854 10.1284C22.9814 9.07983 23.8095 7.49015 23.8095 5.71418C23.8095 2.56338 21.2046 0 18.0027 0C14.8009 0 12.1959 2.56338 12.1959 5.71418C12.1959 7.48958 13.024 9.07926 14.3195 10.1284C12.747 10.201 11.2442 10.8307 9.8442 11.4226C7.62659 12.3586 5.71152 13.1655 3.79354 11.9866L3.17802 12.9552C3.58101 13.2032 3.98226 13.3735 4.38235 13.4958L1.57129 23.9996H8.88434ZM28.6274 22.8567L30.7776 14.8226L32.9279 22.8567H28.6274ZM19.7447 19.4282V26.2852H16.2607V19.4282C16.2607 18.4831 17.0423 17.714 18.0027 17.714C18.9632 17.714 19.7447 18.4831 19.7447 19.4282ZM13.3573 5.71418C13.3573 3.19366 15.4413 1.14284 18.0027 1.14284C20.5641 1.14284 22.6481 3.19366 22.6481 5.71418C22.6481 8.23471 20.5641 10.2855 18.0027 10.2855C15.4413 10.2855 13.3573 8.23471 13.3573 5.71418ZM3.07757 22.8567L5.22781 14.8226L7.37806 22.8567H3.07757Z" fill="#FF5722"/>
<path d="M11.6123 31.9988H24.3872V28.5703H11.6123V31.9988ZM12.7737 29.7131H23.2259V30.856H12.7737V29.7131Z" fill="#FF5722"/>
<path d="M5.2261 27.9999C2.98468 27.9999 1.16135 26.2051 1.16135 24H0C0 26.8359 2.34477 29.1428 5.2261 29.1428C8.10742 29.1428 10.4522 26.8359 10.4522 24H9.29084C9.29084 26.2051 7.46751 27.9999 5.2261 27.9999Z" fill="#FF5722"/>
<path d="M34.8387 24C34.8387 26.2051 33.0154 27.9999 30.7739 27.9999C28.5325 27.9999 26.7092 26.2051 26.7092 24H25.5479C25.5479 26.8359 27.8926 29.1428 30.7739 29.1428C33.6553 29.1428 36 26.8359 36 24H34.8387Z" fill="#FF5722"/>
</svg>
