<svg width="60" height="61" viewBox="0 0 60 61" fill="none" xmlns="http://www.w3.org/2000/svg">
<path d="M26.3327 4.01775C26.9894 -0.174535 33.0262 -0.174535 33.6829 4.01775C34.1824 7.20582 38.2264 8.28941 40.253 5.77817C42.9179 2.47593 48.1458 5.4943 46.6185 9.4533C45.457 12.464 48.4174 15.4244 51.4281 14.2629C55.3871 12.7355 58.4054 17.9635 55.1032 20.6284C52.5919 22.655 53.6755 26.699 56.8636 27.1984C61.0559 27.8552 61.0559 33.8919 56.8636 34.5487C53.6755 35.0481 52.5919 39.0921 55.1032 41.1187C58.4054 43.7836 55.3871 49.0116 51.4281 47.4842C48.4174 46.3227 45.457 49.2831 46.6185 52.2938C48.1458 56.2528 42.9179 59.2711 40.253 55.9689C38.2264 53.4577 34.1824 54.5413 33.6829 57.7293C33.0262 61.9216 26.9894 61.9216 26.3327 57.7293C25.8332 54.5413 21.7892 53.4577 19.7627 55.9689C17.0978 59.2711 11.8698 56.2528 13.3972 52.2938C14.5587 49.2831 11.5983 46.3227 8.58758 47.4842C4.62858 49.0116 1.61021 43.7836 4.91245 41.1187C7.42368 39.0921 6.3401 35.0481 3.15202 34.5487C-1.04026 33.8919 -1.04026 27.8552 3.15202 27.1984C6.3401 26.699 7.42368 22.655 4.91245 20.6284C1.61021 17.9635 4.62858 12.7355 8.58758 14.2629C11.5983 15.4244 14.5587 12.464 13.3972 9.4533C11.8698 5.4943 17.0978 2.47594 19.7627 5.77817C21.7892 8.28941 25.8332 7.20582 26.3327 4.01775Z" fill="#C3922E"/>
<path d="M37.7423 23.1901C37.8282 23.1041 37.9142 23.0612 38.0861 23.0612C38.215 23.0612 38.3439 23.1041 38.4728 23.1901L39.6759 24.4362C39.7618 24.5221 39.8478 24.651 39.8478 24.7799C39.8478 24.9518 39.7618 25.0807 39.6759 25.1666L26.7853 38.0573C26.6993 38.1432 26.5704 38.1862 26.4415 38.1862C26.2697 38.1862 26.1407 38.1432 26.0548 38.0573L20.34 32.2994C20.2111 32.2135 20.1681 32.1276 20.1681 31.9557C20.1681 31.8268 20.2111 31.6979 20.34 31.569L21.5431 30.3658C21.629 30.2799 21.7579 30.194 21.9298 30.194C22.0587 30.194 22.1876 30.2799 22.2736 30.3658L26.4415 34.5338L37.7423 23.1901Z" fill="white"/>
</svg>
