<svg width="218" height="218" viewBox="0 0 218 218" fill="none" xmlns="http://www.w3.org/2000/svg">
<path d="M97.5195 3.75538C103.184 1.40905 106.016 0.235883 109 0.235883C111.984 0.235883 114.816 1.40905 120.481 3.75538L175.301 26.4629C180.966 28.8092 183.798 29.9824 185.908 32.0922C188.018 34.2019 189.191 37.0342 191.537 42.6988L214.245 97.5195C216.591 103.184 217.764 106.016 217.764 109C217.764 111.984 216.591 114.816 214.245 120.481L191.537 175.301C189.191 180.966 188.018 183.798 185.908 185.908C183.798 188.018 180.966 189.191 175.301 191.537L120.48 214.245C114.816 216.591 111.984 217.764 109 217.764C106.016 217.764 103.184 216.591 97.5195 214.245L42.6987 191.537C37.0342 189.191 34.2019 188.018 32.0922 185.908C29.9824 183.798 28.8092 180.966 26.4629 175.301L3.75538 120.48C1.40905 114.816 0.235883 111.984 0.235883 109C0.235883 106.016 1.40905 103.184 3.75538 97.5195L26.4629 42.6987C28.8092 37.0342 29.9824 34.2019 32.0922 32.0922C34.2019 29.9824 37.0342 28.8092 42.6988 26.4629L97.5195 3.75538Z" fill="white"/>
</svg>
