<svg width="40" height="40" viewBox="0 0 40 40" fill="none" xmlns="http://www.w3.org/2000/svg">
<path d="M38.1468 18.1469H37.3433C36.9853 14.7518 35.6529 11.5722 33.4703 8.92117C33.2643 8.67123 32.8951 8.63553 32.6454 8.84121C32.3955 9.0469 32.3598 9.41616 32.5655 9.6661C34.5751 12.1069 35.8125 15.0271 36.1653 18.1469H34.8018C34.3938 14.8709 32.8954 11.8008 30.5471 9.45278C28.199 7.10446 25.129 5.60606 21.8529 5.19804V3.83452C25.1549 4.20683 28.2125 5.55967 30.7289 7.76913C30.9719 7.98276 31.3423 7.95865 31.556 7.71542C31.7693 7.4722 31.7452 7.10202 31.5019 6.8884C28.7706 4.49003 25.4442 3.03405 21.8529 2.65654V1.85302C21.8529 0.831296 21.0216 0 19.9999 0C18.9782 0 18.1469 0.831296 18.1469 1.85302V2.65685C14.1958 3.07585 10.4919 4.84159 7.6669 7.6669C4.84159 10.4922 3.07585 14.1958 2.65685 18.1469H1.85302C0.831295 18.1469 0 18.9782 0 19.9999C0 21.0216 0.831295 21.8529 1.85302 21.8529H2.65685C3.07585 25.804 4.84159 29.5076 7.6669 32.3329C10.4919 35.1582 14.1958 36.924 18.1469 37.343V38.1468C18.1469 39.1685 18.9782 39.9998 19.9999 39.9998C21.0216 39.9998 21.8529 39.1685 21.8529 38.1468V37.3433C25.4445 36.9658 28.7706 35.5098 31.5023 33.1114C31.7455 32.8978 31.7696 32.5276 31.556 32.2844C31.3426 32.0415 30.9722 32.0174 30.7289 32.2307C28.2125 34.4402 25.1552 35.7933 21.8529 36.1653V34.8018C28.543 33.9693 33.9522 28.6766 34.8018 21.8529H36.1653C35.8125 24.973 34.5751 27.8933 32.5658 30.3337C32.3601 30.5837 32.3958 30.9529 32.6454 31.1586C32.8954 31.3643 33.2646 31.3286 33.4703 31.0787C35.6532 28.4276 36.9856 25.248 37.3436 21.8529H38.1468C39.1688 21.8529 40.0001 21.0216 40.0001 19.9999C40.0001 18.9782 39.1685 18.1469 38.1468 18.1469ZM19.3188 1.85302C19.3188 1.47766 19.6243 1.17187 19.9999 1.17187C20.3756 1.17187 20.6811 1.47766 20.6811 1.85302V6.499C20.6811 6.87436 20.3756 7.17984 19.9999 7.17984C19.6243 7.17984 19.3188 6.87436 19.3188 6.499C19.3188 5.41532 19.3188 2.93608 19.3188 1.85302ZM18.1469 3.83482V5.19804C14.8705 5.60606 11.8008 7.10446 9.45278 9.45278C7.10446 11.8008 5.60606 14.8709 5.19804 18.1469H3.83482C4.68626 10.6872 10.6872 4.68626 18.1469 3.83482ZM1.17187 19.9999C1.17187 19.6243 1.47735 19.3188 1.85302 19.3188H6.499C6.87436 19.3188 7.17984 19.6246 7.17984 19.9999C7.17984 20.3756 6.87436 20.6811 6.499 20.6811C5.41532 20.6811 2.93578 20.6811 1.85302 20.6811C1.47735 20.6811 1.17187 20.3756 1.17187 19.9999ZM3.83482 21.8529H5.19804C6.03849 28.6031 11.3745 33.9583 18.1469 34.8018V36.165C10.6872 35.3139 4.68626 29.3126 3.83482 21.8529ZM13.7451 19.4186C13.7451 18.912 14.2242 18.4963 14.7201 18.3248V20.5505C14.1992 20.397 13.7451 19.9526 13.7451 19.4186ZM25.1626 18.2888C25.1638 18.2891 25.1647 18.2894 25.1659 18.2897C25.6817 18.4441 26.1379 18.879 26.1379 19.4186C26.1379 19.9346 25.7103 20.386 25.1626 20.5486V18.2888ZM25.5745 17.1883C25.4256 17.1392 25.2855 17.1075 25.1626 17.0873C25.1626 16.7855 25.1522 16.6726 24.8189 16.2881C24.8162 16.285 24.8134 16.2817 24.8107 16.2786C24.5836 16.0174 24.2364 15.6588 23.4334 14.7958C23.0947 14.4317 22.5493 14.3719 22.1422 14.6383C20.2474 15.8758 17.9357 16.4974 15.805 16.3445C15.3103 16.3067 14.8687 16.6372 14.7509 17.1063C14.6011 17.1343 14.4531 17.1746 14.3081 17.2265V15.8825C14.3081 12.7764 16.8353 10.2493 19.9413 10.2493C23.0477 10.2493 25.5748 12.7764 25.5748 15.8825V17.1883H25.5745ZM15.8923 21.0668C15.8923 19.9529 15.8923 19.3539 15.8923 17.5243C18.1808 17.6479 20.6319 16.9891 22.6681 15.6936C23.4334 16.5154 23.8445 16.943 23.9907 17.1191V21.0668C23.9907 23.2632 22.2008 25.0469 20.0133 25.0496C20.0115 25.0496 20.0094 25.0496 20.0075 25.0496C20.006 25.0496 20.0045 25.0496 20.003 25.0496C17.5442 25.0478 15.8923 23.1405 15.8923 21.0668ZM29.2107 30.2004C27.1569 32.0552 24.5876 33.25 21.8529 33.6202C21.8529 33.2378 21.8124 32.8783 21.5401 32.4721C21.6418 32.3134 21.7797 32.1044 21.9244 31.8877C22.3318 31.9316 22.7099 31.733 22.8991 31.4583L24.9099 28.5344L29.2107 30.2004ZM17.2347 27.7013L19.1372 29.7921L17.9842 30.6746L16.2121 28.0977L17.2347 27.7013ZM19.0932 31.3015L19.9999 30.6075C20.3399 30.8678 20.1583 30.7286 20.9066 31.3015C20.8117 31.444 20.7104 31.5969 20.61 31.7516C20.2151 31.6136 19.7854 31.6133 19.3896 31.7516C19.2922 31.6014 19.1921 31.4498 19.0932 31.3015ZM22.0156 30.6746L20.8626 29.7921L22.7633 27.7034L23.7865 28.0996L22.0156 30.6746ZM19.7292 26.2148C20.544 26.2533 21.3073 26.1141 22.0092 25.8172V26.791L19.9999 28.9992L17.9833 26.783V25.8535C18.5351 26.0683 19.1277 26.1876 19.7292 26.2148ZM15.0891 28.5332L17.1008 31.4586C17.2909 31.7342 17.6696 31.9313 18.0755 31.8877C18.2201 32.1044 18.3578 32.3134 18.4597 32.4721C18.2046 32.8527 18.1469 33.2009 18.1469 33.6202C15.4122 33.25 12.843 32.0552 10.7888 30.2004L15.0891 28.5332ZM20.6811 38.1468C20.6811 38.5225 20.3756 38.828 19.9999 38.828C19.6243 38.828 19.3188 38.5222 19.3188 38.1468C19.3188 36.5209 19.3188 35.157 19.3188 33.5012C19.3188 33.1218 19.63 32.82 19.9999 32.82C20.3707 32.82 20.6811 33.1227 20.6811 33.5012V38.1468ZM30.1006 29.3386C29.8732 29.2064 29.7179 29.1405 29.6932 29.1304C29.6895 29.1289 29.6856 29.1274 29.6816 29.1259C27.1199 28.1337 23.4981 26.7284 23.1811 26.6057V25.1247C24.2147 24.3145 24.9318 23.1197 25.115 21.7571C26.3219 21.5801 27.3098 20.6069 27.3098 19.4186C27.3098 18.8869 27.1111 18.3773 26.7464 17.9595V15.8825C26.7464 12.1298 23.6938 9.07711 19.9413 9.07711C16.1886 9.07711 13.1359 12.1298 13.1359 15.8825V18.0062C12.7719 18.4161 12.5732 18.9111 12.5732 19.4186C12.5732 20.61 13.5647 21.5816 14.7692 21.7574C14.9545 23.081 15.6664 24.3596 16.8115 25.2071V26.6085L10.318 29.1259C10.3143 29.1274 10.3103 29.1289 10.3067 29.1304C10.2819 29.1408 10.1266 29.2067 9.89895 29.3386C8.03097 27.318 6.76572 24.7307 6.37967 21.8532C7.64066 21.8532 8.35171 20.9396 8.35171 20.0002C8.35171 19.0499 7.63181 18.1472 6.37967 18.1472C7.20212 12.0159 12.0159 7.20243 18.1469 6.37967C18.1469 7.64096 19.0603 8.35202 19.9999 8.35202C20.9502 8.35202 21.8529 7.63181 21.8529 6.37967C27.9839 7.20243 32.7974 12.0159 33.6202 18.1472C32.354 18.1472 31.6481 19.0661 31.6481 20.0002C31.6481 20.9338 32.3516 21.8532 33.6202 21.8532C33.2341 24.7304 31.9686 27.3177 30.1006 29.3386ZM38.1468 20.6811C37.5829 20.6811 33.9571 20.6811 33.5008 20.6811C33.1255 20.6811 32.82 20.3756 32.82 19.9999C32.82 19.6246 33.1255 19.3191 33.5008 19.3191H38.1468C38.5222 19.3191 38.828 19.6246 38.828 19.9999C38.828 20.3756 38.5222 20.6811 38.1468 20.6811Z" fill="white"/>
</svg>
