<svg width="60" height="61" viewBox="0 0 60 61" fill="none" xmlns="http://www.w3.org/2000/svg">
<g clip-path="url(#clip0_2_160094)">
<path d="M57 8.77298C55.7332 8.77823 54.6062 9.57863 54.184 10.773H40.949C40.4403 5.10472 35.69 0.761597 29.999 0.761597C24.3079 0.761597 19.5576 5.10472 19.049 10.773H5.81598C5.32894 9.39543 3.92031 8.56911 2.48024 8.81618C1.04018 9.06326 -0.0124512 10.3119 -0.0124512 11.773C-0.0124512 13.2341 1.04018 14.4827 2.48024 14.7298C3.92031 14.9769 5.32894 14.1505 5.81598 12.773H10.507L4.27198 27.915C3.5065 28.2141 3.00195 28.9511 2.99998 29.773V30.773C2.99998 35.7435 7.02941 39.773 12 39.773C16.9705 39.773 21 35.7435 21 30.773V29.773C20.998 28.9511 20.4935 28.2141 19.728 27.915L13.493 12.773H19.051C19.4718 17.2986 22.629 21.1011 27 22.347V43.957C25.8056 44.3792 25.0052 45.5062 25 46.773V48.773C25 49.3253 24.5523 49.773 24 49.773H22C19.7908 49.773 18 51.5638 18 53.773V54.773H12C10.3431 54.773 8.99998 56.1161 8.99998 57.773C8.99998 59.4298 10.3431 60.773 12 60.773H48C49.6568 60.773 51 59.4298 51 57.773C51 56.1161 49.6568 54.773 48 54.773H42V53.773C42 51.5638 40.2091 49.773 38 49.773H36C35.4477 49.773 35 49.3253 35 48.773V46.773C34.9947 45.5062 34.1943 44.3792 33 43.957V22.347C37.371 21.1011 40.5281 17.2986 40.949 12.773H46.507L40.272 27.915C39.5065 28.2141 39.002 28.9511 39 29.773V30.773C39 35.7435 43.0294 39.773 48 39.773C52.9705 39.773 57 35.7435 57 30.773V29.773C56.998 28.9511 56.4935 28.2141 55.728 27.915L49.493 12.773H54.184C54.695 14.2076 56.2012 15.0303 57.6844 14.685C59.1676 14.3397 60.1556 12.9363 59.9805 11.4235C59.8053 9.91077 58.5229 8.77026 57 8.77298ZM12 14.399L17.507 27.773H6.49298L12 14.399ZM19 30.773C19 34.639 15.866 37.773 12 37.773C8.13398 37.773 4.99998 34.639 4.99998 30.773V29.773H19V30.773ZM48 14.399L53.507 27.773H42.493L48 14.399ZM55 30.773C55 34.639 51.866 37.773 48 37.773C44.134 37.773 41 34.639 41 30.773V29.773H55V30.773ZM2.99998 12.773C2.44769 12.773 1.99998 12.3253 1.99998 11.773C1.99998 11.2207 2.44769 10.773 2.99998 10.773C3.55226 10.773 3.99998 11.2207 3.99998 11.773C3.99998 12.3253 3.55226 12.773 2.99998 12.773ZM49 57.773C49 58.3253 48.5523 58.773 48 58.773H12C11.4477 58.773 11 58.3253 11 57.773C11 57.2207 11.4477 56.773 12 56.773H48C48.5523 56.773 49 57.2207 49 57.773ZM36 51.773H38C39.1046 51.773 40 52.6684 40 53.773V54.773H20V53.773C20 52.6684 20.8954 51.773 22 51.773H24C25.6568 51.773 27 50.4298 27 48.773V46.773C27 46.2207 27.4477 45.773 28 45.773H32C32.5523 45.773 33 46.2207 33 46.773V48.773C33 50.4298 34.3431 51.773 36 51.773ZM31 43.773H29V22.722C29.33 22.752 29.662 22.773 30 22.773C30.338 22.773 30.67 22.752 31 22.722V43.773ZM30 20.773C25.0294 20.773 21 16.7435 21 11.773C21 6.80242 25.0294 2.77298 30 2.77298C34.9705 2.77298 39 6.80242 39 11.773C38.9945 16.7413 34.9683 20.7675 30 20.773ZM57 12.773C56.4477 12.773 56 12.3253 56 11.773C56 11.2207 56.4477 10.773 57 10.773C57.5523 10.773 58 11.2207 58 11.773C58 12.3253 57.5523 12.773 57 12.773Z" fill="#C3922E"/>
<path d="M33 8.77295V6.77295C33 5.66838 32.1046 4.77295 31 4.77295H29C27.8954 4.77295 27 5.66838 27 6.77295V8.77295H25C23.8954 8.77295 23 9.66838 23 10.773V12.773C23 13.8775 23.8954 14.773 25 14.773H27V16.773C27 17.8775 27.8954 18.773 29 18.773H31C32.1046 18.773 33 17.8775 33 16.773V14.773H35C36.1046 14.773 37 13.8775 37 12.773V10.773C37 9.66838 36.1046 8.77295 35 8.77295H33ZM35 12.773H32C31.4477 12.773 31 13.2207 31 13.773V16.773H29V13.773C29 13.2207 28.5523 12.773 28 12.773H25V10.773H28C28.5523 10.773 29 10.3252 29 9.77295V6.77295H31V9.77295C31 10.3252 31.4477 10.773 32 10.773H35V12.773Z" fill="#C3922E"/>
</g>
<defs>
<clipPath id="clip0_2_160094">
<rect width="60" height="60" fill="white" transform="translate(0 0.772949)"/>
</clipPath>
</defs>
</svg>
