<svg width="149" height="30" viewBox="0 0 149 30" fill="none" xmlns="http://www.w3.org/2000/svg">
<g clip-path="url(#clip0_2_68808)">
<mask id="mask0_2_68808" style="mask-type:luminance" maskUnits="userSpaceOnUse" x="0" y="0" width="149" height="30">
<path d="M148.711 0.209473H0.942383V29.7904H148.711V0.209473Z" fill="white"/>
</mask>
<g mask="url(#mask0_2_68808)">
<path fill-rule="evenodd" clip-rule="evenodd" d="M19.6371 8.85101C18.4341 8.03842 17.0197 7.60469 15.5729 7.60469V0.209473C18.4666 0.209473 21.2953 1.07692 23.7012 2.70212C26.1072 4.3273 27.9824 6.63726 29.0898 9.33983C30.1971 12.0424 26.813 15.0889 26.2485 17.958C25.684 20.8271 35.1222 19.7638 33.0761 21.8322C31.03 23.9007 20.7958 26.2616 17.9578 26.8323C15.1198 27.4029 12.6474 29.7839 9.97404 28.6646C7.30068 27.545 5.01569 25.6493 3.40808 23.217C1.80045 20.7847 0.942383 17.9252 0.942383 14.9999L19.6371 8.85101C19.6371 10.3136 8.6867 17.8923 9.49051 19.1085C10.2943 20.3246 11.4368 21.2724 12.7735 21.8322C14.1102 22.3919 15.5811 22.5384 17 22.253C18.4191 21.9677 19.7225 21.2634 20.7456 20.2292C21.7686 19.1949 22.4654 17.8771 22.7476 16.4426C23.03 15.0082 22.885 13.5211 22.3314 12.1699C21.7776 10.8186 20.84 9.6636 19.6371 8.85101Z" fill="white"/>
<path d="M92.8365 10.8975H89.2871V22.2952H92.8365V10.8975Z" fill="white"/>
<path d="M89.6814 8.76333C90.0523 9.13857 90.5162 9.32618 91.0728 9.32618C91.6295 9.32618 92.086 9.13857 92.4415 8.76333C92.7977 8.3725 92.9755 7.90342 92.9755 7.35621C92.9755 6.79337 92.7977 6.32432 92.4415 5.94909C92.086 5.57385 91.6295 5.38623 91.0728 5.38623C90.5162 5.38623 90.0523 5.57385 89.6814 5.94909C89.3252 6.32432 89.1475 6.79337 89.1475 7.35621C89.1475 7.90342 89.3252 8.3725 89.6814 8.76333Z" fill="white"/>
<path d="M38.3643 22.2951V5.73779H42.0065V19.0587H49.2677V22.2951H38.3643Z" fill="white"/>
<path fill-rule="evenodd" clip-rule="evenodd" d="M55.827 22.5532C54.6671 22.5532 53.6155 22.2952 52.672 21.7792C51.744 21.2476 51.0095 20.5285 50.4681 19.6216C49.9268 18.7148 49.6562 17.6986 49.6562 16.5728C49.6562 15.4471 49.9268 14.4387 50.4681 13.5475C51.0095 12.6563 51.744 11.9527 52.672 11.4368C53.6 10.9052 54.6517 10.6394 55.827 10.6394C57.0025 10.6394 58.0541 10.8974 58.982 11.4133C59.9099 11.9293 60.6446 12.6407 61.1859 13.5475C61.7272 14.4387 61.9979 15.4471 61.9979 16.5728C61.9979 17.6986 61.7272 18.7148 61.1859 19.6216C60.6446 20.5285 59.9099 21.2476 58.982 21.7792C58.0541 22.2952 57.0025 22.5532 55.827 22.5532ZM55.827 19.2933C56.3374 19.2933 56.7859 19.1839 57.1725 18.965C57.5592 18.7304 57.853 18.41 58.0541 18.0034C58.2706 17.5813 58.3788 17.1044 58.3788 16.5728C58.3788 16.0413 58.2706 15.58 58.0541 15.1891C57.8375 14.7826 57.536 14.4699 57.1493 14.251C56.7781 14.0165 56.3374 13.8993 55.827 13.8993C55.3321 13.8993 54.8914 14.0165 54.5047 14.251C54.118 14.4699 53.8165 14.7826 53.6 15.1891C53.3834 15.5957 53.2753 16.0647 53.2753 16.5963C53.2753 17.1122 53.3834 17.5813 53.6 18.0034C53.8165 18.41 54.118 18.7304 54.5047 18.965C54.8914 19.1839 55.3321 19.2933 55.827 19.2933Z" fill="white"/>
<path fill-rule="evenodd" clip-rule="evenodd" d="M64.809 26.751C65.7523 27.1888 66.8426 27.4077 68.0799 27.4077C69.2862 27.4077 70.3611 27.1654 71.3045 26.6807C72.248 26.196 72.9903 25.5238 73.5316 24.6639C74.0728 23.8039 74.3438 22.7877 74.3438 21.615V10.8974H70.8636V11.6632C70.6049 11.443 70.311 11.2581 69.9822 11.1085C69.3789 10.8114 68.6907 10.6628 67.9175 10.6628C66.8813 10.6628 65.9611 10.913 65.157 11.4133C64.3526 11.898 63.7185 12.5703 63.2546 13.4303C62.7906 14.2745 62.5587 15.2282 62.5587 16.2915C62.5587 17.339 62.7906 18.2926 63.2546 19.1526C63.7185 20.0125 64.3526 20.6926 65.157 21.1929C65.9611 21.6932 66.8813 21.9434 67.9175 21.9434C68.6753 21.9434 69.3636 21.7949 69.9822 21.4978C70.2818 21.3539 70.5525 21.1843 70.7942 20.989V21.7088C70.7942 22.5062 70.5389 23.1238 70.0286 23.5616C69.5337 23.9994 68.8455 24.2182 67.9639 24.2182C67.2526 24.2182 66.6417 24.0932 66.1312 23.843C65.6363 23.5929 65.1877 23.2254 64.7857 22.7407L62.6051 24.9452C63.1463 25.727 63.881 26.329 64.809 26.751ZM69.8662 18.4255C69.5105 18.6444 69.0853 18.7538 68.5902 18.7538C68.0953 18.7538 67.6624 18.6444 67.2911 18.4255C66.9353 18.2066 66.657 17.9095 66.4561 17.5344C66.2549 17.1435 66.1544 16.7291 66.1544 16.2915C66.1544 15.8224 66.2549 15.4002 66.4561 15.025C66.657 14.6497 66.9431 14.3527 67.3144 14.1338C67.6855 13.9149 68.1108 13.8054 68.5902 13.8054C69.0853 13.8054 69.5105 13.9149 69.8662 14.1338C70.2374 14.3527 70.5158 14.6497 70.7014 15.025C70.9024 15.4002 71.0029 15.8224 71.0029 16.2915C71.0029 16.7605 70.9024 17.1826 70.7014 17.5578C70.5158 17.9174 70.2374 18.2066 69.8662 18.4255Z" fill="white"/>
<path fill-rule="evenodd" clip-rule="evenodd" d="M81.8135 22.5532C80.6533 22.5532 79.6013 22.2952 78.6584 21.7792C77.7301 21.2476 76.9957 20.5285 76.4544 19.6216C75.913 18.7148 75.6424 17.6986 75.6424 16.5728C75.6424 15.4471 75.913 14.4387 76.4544 13.5475C76.9957 12.6563 77.7301 11.9527 78.6584 11.4368C79.5861 10.9052 80.6379 10.6394 81.8135 10.6394C82.9883 10.6394 84.0403 10.8974 84.9679 11.4133C85.8961 11.9293 86.6307 12.6407 87.172 13.5475C87.7133 14.4387 87.984 15.4471 87.984 16.5728C87.984 17.6986 87.7133 18.7148 87.172 19.6216C86.6307 20.5285 85.8961 21.2476 84.9679 21.7792C84.0403 22.2952 82.9883 22.5532 81.8135 22.5532ZM81.8135 19.2933C82.3234 19.2933 82.7718 19.1839 83.1587 18.965C83.545 18.7304 83.8391 18.41 84.0403 18.0034C84.2568 17.5813 84.3651 17.1044 84.3651 16.5728C84.3651 16.0413 84.2568 15.58 84.0403 15.1891C83.8237 14.7826 83.5224 14.4699 83.1353 14.251C82.7646 14.0165 82.3234 13.8993 81.8135 13.8993C81.3183 13.8993 80.8772 14.0165 80.4909 14.251C80.104 14.4699 79.8025 14.7826 79.5861 15.1891C79.3695 15.5957 79.2612 16.0647 79.2612 16.5963C79.2612 17.1122 79.3695 17.5813 79.5861 18.0034C79.8025 18.41 80.104 18.7304 80.4909 18.965C80.8772 19.1839 81.3183 19.2933 81.8135 19.2933Z" fill="white"/>
<path fill-rule="evenodd" clip-rule="evenodd" d="M101.367 22.5297C100.61 22.5297 99.9137 22.3812 99.2796 22.0841C98.946 21.9277 98.6445 21.7411 98.3754 21.5241V27.1029H94.872V10.8974H98.4214V11.684C98.6789 11.4711 98.965 11.2871 99.2796 11.1319C99.9137 10.8192 100.61 10.6628 101.367 10.6628C102.435 10.6628 103.378 10.9209 104.198 11.4368C105.033 11.9527 105.683 12.6563 106.146 13.5475C106.626 14.4387 106.866 15.4549 106.866 16.5963C106.866 17.7376 106.626 18.7538 106.146 19.6451C105.683 20.5363 105.033 21.2397 104.198 21.7558C103.378 22.2717 102.435 22.5297 101.367 22.5297ZM100.718 19.2933C101.228 19.2933 101.669 19.176 102.04 18.9415C102.427 18.707 102.729 18.3864 102.945 17.9799C103.162 17.5734 103.27 17.1122 103.27 16.5963C103.27 16.0647 103.162 15.5957 102.945 15.1892C102.729 14.7826 102.427 14.47 102.04 14.2511C101.669 14.0165 101.236 13.8992 100.741 13.8992C100.247 13.8992 99.8055 14.0165 99.4192 14.2511C99.0476 14.47 98.7543 14.7826 98.5378 15.1892C98.3212 15.5957 98.2129 16.0647 98.2129 16.5963C98.2129 17.1122 98.3132 17.5734 98.5144 17.9799C98.7309 18.3864 99.0323 18.707 99.4192 18.9415C99.8055 19.176 100.239 19.2933 100.718 19.2933Z" fill="white"/>
<path d="M110.339 22.3186C110.989 22.4907 111.646 22.5766 112.311 22.5766C113.718 22.5766 114.832 22.2483 115.652 21.5916C116.486 20.935 116.904 20.0516 116.904 18.9415C116.904 18.2223 116.773 17.6439 116.51 17.2061C116.247 16.7527 115.907 16.3931 115.489 16.1272C115.072 15.8615 114.63 15.6504 114.167 15.4941C113.703 15.3377 113.262 15.2048 112.845 15.0953C112.427 14.9859 112.087 14.8608 111.824 14.72C111.561 14.5794 111.429 14.3918 111.429 14.1573C111.429 13.9384 111.53 13.7742 111.731 13.6647C111.932 13.5396 112.233 13.4772 112.636 13.4772C113.053 13.4772 113.478 13.5632 113.911 13.7351C114.36 13.9071 114.762 14.2042 115.118 14.6264L117.136 12.5626C116.626 11.9059 115.961 11.4133 115.141 11.0851C114.337 10.7411 113.456 10.5691 112.497 10.5691C111.584 10.5691 110.788 10.7254 110.108 11.0381C109.426 11.3508 108.9 11.7808 108.53 12.328C108.159 12.8595 107.973 13.4928 107.973 14.2276C107.973 14.9155 108.105 15.4863 108.367 15.9396C108.63 16.3774 108.971 16.7214 109.388 16.9715C109.805 17.2217 110.246 17.4172 110.71 17.5578C111.174 17.6986 111.615 17.8315 112.033 17.9566C112.45 18.066 112.791 18.1989 113.053 18.3553C113.332 18.4959 113.471 18.7071 113.471 18.9884C113.471 19.2073 113.355 19.3793 113.123 19.5044C112.906 19.6295 112.59 19.692 112.172 19.692C111.568 19.692 111.012 19.5825 110.502 19.3636C109.991 19.1292 109.55 18.8086 109.179 18.4021L107.161 20.4659C107.548 20.888 108.012 21.2633 108.553 21.5916C109.11 21.9043 109.705 22.1466 110.339 22.3186Z" fill="white"/>
<path d="M123.377 22.5532C122.341 22.5532 121.421 22.3421 120.617 21.9199C119.827 21.4821 119.209 20.888 118.761 20.1375C118.312 19.3715 118.088 18.4959 118.088 17.5109V10.8975H121.637V17.464C121.637 17.8549 121.699 18.1911 121.823 18.4725C121.962 18.7539 122.163 18.9728 122.426 19.1292C122.689 19.2855 123.006 19.3636 123.377 19.3636C123.902 19.3636 124.32 19.1995 124.63 18.8711C124.939 18.5272 125.093 18.0581 125.093 17.464V10.8975H128.643V17.4875C128.643 18.4882 128.419 19.3715 127.97 20.1375C127.522 20.888 126.903 21.4821 126.114 21.9199C125.326 22.3421 124.413 22.5532 123.377 22.5532Z" fill="white"/>
<path d="M133.957 10.8974H130.408V22.2952H133.957V15.6348C133.957 15.2439 134.034 14.9156 134.188 14.6497C134.36 14.384 134.584 14.1806 134.862 14.04C135.14 13.8836 135.457 13.8054 135.813 13.8054C136.324 13.8054 136.748 13.9696 137.088 14.298C137.444 14.6107 137.623 15.0562 137.623 15.6348V22.2952H141.172V15.6348C141.172 15.2439 141.249 14.9156 141.403 14.6497C141.574 14.384 141.798 14.1806 142.077 14.04C142.355 13.8836 142.673 13.8054 143.027 13.8054C143.538 13.8054 143.963 13.9696 144.303 14.298C144.659 14.6107 144.836 15.0562 144.836 15.6348V22.2952H148.386V15.236C148.386 14.2823 148.186 13.4693 147.783 12.797C147.396 12.1091 146.863 11.5853 146.182 11.2258C145.517 10.8505 144.751 10.6628 143.886 10.6628C143.004 10.6628 142.207 10.8583 141.497 11.2492C141.034 11.4982 140.631 11.8196 140.285 12.2133C139.962 11.8015 139.57 11.4645 139.107 11.2022C138.488 10.8427 137.785 10.6628 136.996 10.6628C136.161 10.6628 135.411 10.8427 134.746 11.2022C134.457 11.3519 134.193 11.531 133.957 11.7398V10.8974Z" fill="white"/>
</g>
</g>
<defs>
<clipPath id="clip0_2_68808">
<rect width="149" height="29.5809" fill="white" transform="translate(0 0.209473)"/>
</clipPath>
</defs>
</svg>
