<svg width="148" height="28" viewBox="0 0 148 28" fill="none" xmlns="http://www.w3.org/2000/svg">
<g clip-path="url(#clip0_2_68801)">
<mask id="mask0_2_68801" style="mask-type:luminance" maskUnits="userSpaceOnUse" x="0" y="0" width="148" height="28">
<path d="M147.103 0.5H0V27.5H147.103V0.5Z" fill="white"/>
</mask>
<g mask="url(#mask0_2_68801)">
<path d="M12.6971 24.8001C18.9789 24.8001 24.071 19.6628 24.071 13.3251V5.2926C24.071 4.37959 23.7115 3.50398 23.0717 2.85839C22.4317 2.21279 21.5639 1.8501 20.6588 1.8501H13.2659V6.88418C13.2659 8.03283 13.3352 9.22279 13.9323 10.2005C14.3598 10.9011 14.9317 11.5008 15.6091 11.9589C16.2865 12.417 17.0538 12.7226 17.8586 12.8552L18.0764 12.8907C18.1663 12.9218 18.2442 12.9803 18.2993 13.0581C18.3545 13.136 18.3842 13.2293 18.3842 13.3251C18.3842 13.4208 18.3545 13.5142 18.2993 13.592C18.2442 13.6699 18.1663 13.7285 18.0764 13.7594L17.8586 13.795C16.6827 13.9888 15.5968 14.5503 14.7542 15.4004C13.9116 16.2504 13.355 17.3461 13.163 18.5325L13.1276 18.7522C13.0969 18.8428 13.0389 18.9214 12.9617 18.9771C12.8846 19.0328 12.7921 19.0627 12.6971 19.0627C12.6022 19.0627 12.5097 19.0328 12.4325 18.9771C12.3553 18.9214 12.2974 18.8428 12.2667 18.7522L12.2313 18.5325C12.0999 17.7205 11.797 16.9465 11.3429 16.263C10.8889 15.5796 10.2945 15.0026 9.60003 14.5712C8.63098 13.9688 7.45151 13.8988 6.31299 13.8988H1.33691C1.63434 19.9697 6.60643 24.8001 12.6971 24.8001Z" fill="white"/>
<path d="M0 13.325H5.86673C7.20537 13.325 8.59215 13.2427 9.73154 12.5339C10.6222 11.9799 11.3719 11.2231 11.9207 10.3239C12.6228 9.17375 12.7043 7.7738 12.7043 6.42245V0.5H4.0119C2.94788 0.5 1.92743 0.926696 1.17506 1.68622C0.422681 2.44574 0 3.47587 0 4.55V13.325ZM31.0622 1.85C31.0622 2.20804 30.9212 2.55142 30.6704 2.8046C30.4196 3.05777 30.0795 3.2 29.7248 3.2C29.3702 3.2 29.03 3.05777 28.7793 2.8046C28.5285 2.55142 28.3875 2.20804 28.3875 1.85C28.3875 1.49196 28.5285 1.14858 28.7793 0.895406C29.03 0.642231 29.3702 0.5 29.7248 0.5C30.0795 0.5 30.4196 0.642231 30.6704 0.895406C30.9212 1.14858 31.0622 1.49196 31.0622 1.85ZM141.561 8.6702C145.299 8.6702 147.103 11.3061 147.103 14.3591V20.0932H143.191V15.0395C143.191 13.6557 142.691 12.5136 141.256 12.5136C139.822 12.5136 139.344 13.6557 139.344 15.0395V20.0926H135.431V15.0395C135.431 13.6557 134.954 12.5136 133.518 12.5136C132.084 12.5136 131.584 13.6557 131.584 15.0395V20.0926H127.672V14.3584C127.672 11.3054 129.476 8.66953 133.215 8.66953C135.257 8.66953 136.735 9.48223 137.41 10.8221C138.127 9.48223 139.692 8.66885 141.561 8.66885V8.6702ZM120.642 16.5785C121.903 16.5785 122.446 15.4141 122.446 14.0297V9.10895H126.358V14.513C126.358 17.7422 124.489 20.4226 120.642 20.4226C116.796 20.4226 114.926 17.7429 114.926 14.513V9.10895H118.838V14.0297C118.838 15.4134 119.381 16.5785 120.642 16.5785ZM109.174 20.4442C106.718 20.4442 105.131 19.5877 104.196 17.9184L107.022 16.3146C107.413 17.0173 108 17.3689 108.978 17.3689C109.782 17.3689 110.151 17.0834 110.151 16.7317C110.151 15.3918 104.414 16.754 104.414 12.4927C104.414 10.4272 106.152 8.75795 109.108 8.75795C111.695 8.75795 113.108 10.0317 113.738 11.2622L110.912 12.8876C110.674 12.2288 109.934 11.8333 109.195 11.8333C108.63 11.8333 108.326 12.0749 108.326 12.4043C108.326 13.7664 114.063 12.5143 114.063 16.644C114.063 18.9504 111.825 20.4442 109.174 20.4442ZM95.5053 25.1456H91.5931V14.5792C91.5931 11.2177 94.0925 8.77955 97.5701 8.77955C100.961 8.77955 103.547 11.3938 103.547 14.5792C103.547 18.0939 101.243 20.4226 97.7874 20.4226C96.9831 20.4226 96.1793 20.181 95.5053 19.807V25.1456ZM97.5701 16.7101C98.8091 16.7101 99.6348 15.7435 99.6348 14.6007C99.6348 13.4371 98.8091 12.4921 97.5701 12.4921C96.3311 12.4921 95.5053 13.437 95.5053 14.6014C95.5053 15.7435 96.3311 16.7101 97.5701 16.7101ZM87.6741 7.94525C86.3916 7.94525 85.3272 6.86862 85.3272 5.57262C85.3272 4.27662 86.3916 3.2 87.6741 3.2C88.9565 3.2 90.0217 4.27662 90.0217 5.57262C90.0217 6.86862 88.9565 7.94525 87.6741 7.94525ZM85.7182 9.10895H89.6306V20.0932H85.7182V9.10895ZM78.2121 20.4226C74.8213 20.4226 72.235 17.7868 72.235 14.5792C72.235 11.3938 74.8213 8.75795 78.2121 8.75795C81.6027 8.75795 84.189 11.3938 84.189 14.5792C84.189 17.7868 81.6027 20.4226 78.2121 20.4226ZM78.2121 16.7101C79.451 16.7101 80.2768 15.7435 80.2768 14.6007C80.2768 13.4371 79.451 12.4704 78.2121 12.4704C76.973 12.4704 76.1472 13.4371 76.1472 14.6007C76.1472 15.7435 76.973 16.7101 78.2121 16.7101ZM64.8477 25.475C62.153 25.475 60.1965 24.2668 59.197 22.1135L62.4353 20.3565C62.7829 21.1037 63.4348 21.8725 64.7822 21.8725C66.1957 21.8725 67.1298 20.9714 67.2388 19.3899C66.7173 19.8516 65.8908 20.2026 64.6525 20.2026C61.6308 20.2026 59.1963 17.8522 59.1963 14.5569C59.1963 11.3722 61.7833 8.77955 65.174 8.77955C68.6516 8.77955 71.1511 11.2183 71.1511 14.5792V18.9289C71.1511 22.883 68.4336 25.475 64.8477 25.475ZM65.1085 16.4907C66.2819 16.4907 67.1733 15.6774 67.1733 14.4691C67.1733 13.2831 66.2826 12.4921 65.1085 12.4921C63.9564 12.4921 63.0436 13.2831 63.0436 14.4698C63.0436 15.6781 63.9564 16.4907 65.1085 16.4907ZM52.5606 20.4226C49.1699 20.4226 46.5829 17.7868 46.5829 14.5792C46.5829 11.3938 49.1699 8.75795 52.5606 8.75795C55.9506 8.75795 58.5376 11.3938 58.5376 14.5792C58.5376 17.7868 55.9513 20.4226 52.5606 20.4226ZM52.5606 16.7101C53.7996 16.7101 54.6253 15.7435 54.6253 14.6007C54.6253 13.4371 53.7996 12.4704 52.5606 12.4704C51.3216 12.4704 50.4958 13.4371 50.4958 14.6007C50.4958 15.7435 51.3216 16.7101 52.5606 16.7101ZM39.459 5.2655V16.3584H45.9363V20.0932H38.9155C36.438 20.0932 35.4385 18.775 35.4385 16.6879V5.2655H39.459Z" fill="white"/>
</g>
</g>
<defs>
<clipPath id="clip0_2_68801">
<rect width="148" height="27" fill="white" transform="translate(0 0.5)"/>
</clipPath>
</defs>
</svg>
