<svg width="146" height="28" viewBox="0 0 146 28" fill="none" xmlns="http://www.w3.org/2000/svg">
<g clip-path="url(#clip0_2_68785)">
<mask id="mask0_2_68785" style="mask-type:luminance" maskUnits="userSpaceOnUse" x="0" y="0" width="146" height="28">
<path d="M145.736 0.5H0.185547V27.5H145.736V0.5Z" fill="white"/>
</mask>
<g mask="url(#mask0_2_68785)">
<path d="M81.8771 20.4285H84.9905V8.55617H81.8771V20.4285ZM81.8771 6.70477H84.9905V3.88135H81.8771V6.70477Z" fill="white"/>
<path d="M86.9971 24.3168H90.1104V19.0864H90.1558C90.8195 20.1048 91.8957 20.7758 93.5435 20.7758C96.5654 20.7758 98.6257 18.3458 98.6257 14.5042C98.6257 10.8013 96.6341 8.23242 93.5208 8.23242C91.9184 8.23242 90.8195 8.99618 90.0643 10.0376H89.9956V8.55642H86.9971V24.3168ZM92.8799 18.1608C91.0258 18.1608 90.0416 16.749 90.0416 14.5968C90.0416 12.4676 90.8195 10.7782 92.7656 10.7782C94.6886 10.7782 95.4664 12.3518 95.4664 14.5968C95.4664 16.8416 94.4596 18.1608 92.8799 18.1608Z" fill="white"/>
<path d="M104.835 20.7756C107.766 20.7756 109.78 19.3408 109.78 16.957C109.78 14.1799 107.606 13.6245 105.637 13.2079C103.965 12.8608 102.409 12.7682 102.409 11.7499C102.409 10.8936 103.21 10.4308 104.423 10.4308C105.751 10.4308 106.553 10.8936 106.69 12.1665H109.505C109.277 9.78279 107.56 8.23218 104.469 8.23218C101.791 8.23218 99.6851 9.45879 99.6851 12.0276C99.6851 14.6196 101.745 15.1982 103.851 15.6148C105.454 15.9388 106.941 16.0545 106.941 17.1885C106.941 18.0216 106.163 18.5539 104.79 18.5539C103.393 18.5539 102.432 17.9522 102.226 16.5868H99.3419C99.5248 19.1093 101.425 20.7756 104.835 20.7756Z" fill="white"/>
<path d="M121.6 20.4285V8.55615H118.486V15.4065C118.486 16.9801 117.594 18.0911 116.129 18.0911C114.801 18.0911 114.184 17.3273 114.184 15.9388V8.55615H111.093V16.4711C111.093 19.0631 112.557 20.7525 115.167 20.7525C116.816 20.7525 117.731 20.1276 118.532 19.0399H118.602V20.4285H121.6Z" fill="white"/>
<path d="M123.614 20.4285H126.727V13.5319C126.727 11.9582 127.574 10.9399 128.833 10.9399C129.977 10.9399 130.641 11.6342 130.641 12.9765V20.4285H133.754V13.5319C133.754 11.9582 134.556 10.9399 135.86 10.9399C137.006 10.9399 137.669 11.6342 137.669 12.9765V20.4285H140.782V12.4442C140.782 9.85218 139.385 8.23218 136.913 8.23218C135.425 8.23218 134.189 9.01903 133.388 10.315H133.343C132.77 9.06533 131.58 8.23218 130.092 8.23218C128.467 8.23218 127.322 9.06533 126.681 10.153H126.613V8.55618H123.614V20.4285Z" fill="white"/>
<path d="M0.735352 20.4285H3.84857V3.88135H0.735352V20.4285Z" fill="white"/>
<path d="M11.4609 20.7756C15.1005 20.7756 17.5957 18.0448 17.5957 14.5039C17.5957 10.963 15.1005 8.23218 11.4609 8.23218C7.8211 8.23218 5.32596 10.963 5.32596 14.5039C5.32596 18.0448 7.8211 20.7756 11.4609 20.7756ZM11.4609 18.3688C9.538 18.3688 8.48496 16.8182 8.48496 14.5039C8.48496 12.1896 9.538 10.6159 11.4609 10.6159C13.3609 10.6159 14.4367 12.1896 14.4367 14.5039C14.4367 16.8182 13.3609 18.3688 11.4609 18.3688Z" fill="white"/>
<path d="M24.2163 24.4785C25.9561 24.4785 27.467 24.0619 28.4512 23.1362C29.3211 22.3262 29.8477 21.1922 29.8477 19.5259V8.55618H26.8488V9.80594H26.8031C26.0934 8.81079 25.0175 8.23218 23.5525 8.23218C20.5767 8.23218 18.4707 10.5002 18.4707 14.041C18.4707 17.6282 21.0344 19.711 23.6441 19.711C25.132 19.711 26.0247 19.1093 26.7115 18.3225H26.7802V19.6185C26.7802 21.2385 25.9332 22.0948 24.1705 22.0948C22.7284 22.0948 22.0645 21.5162 21.8127 20.7756H18.7224C19.0429 23.0899 21.0115 24.4785 24.2163 24.4785ZM24.1705 17.1885C22.5681 17.1885 21.5152 16.0082 21.5152 13.9948C21.5152 12.0045 22.5681 10.7548 24.1476 10.7548C26.0247 10.7548 26.9404 12.2359 26.9404 13.9716C26.9404 15.7305 26.1392 17.1885 24.1705 17.1885Z" fill="white"/>
<path d="M37.4151 20.7758C41.0549 20.7758 43.55 18.045 43.55 14.5042C43.55 10.9633 41.0549 8.23242 37.4151 8.23242C33.7754 8.23242 31.2803 10.9633 31.2803 14.5042C31.2803 18.045 33.7754 20.7758 37.4151 20.7758ZM37.4151 18.369C35.4923 18.369 34.4393 16.8184 34.4393 14.5042C34.4393 12.1898 35.4923 10.6162 37.4151 10.6162C39.3151 10.6162 40.391 12.1898 40.391 14.5042C40.391 16.8184 39.3151 18.369 37.4151 18.369Z" fill="white"/>
<path d="M141.913 6.60686C141.913 6.0743 142.341 5.64258 142.868 5.64258H144.775C145.301 5.64258 145.729 6.0743 145.729 6.60686C145.729 7.13942 145.301 7.57115 144.775 7.57115H142.868C142.341 7.57115 141.913 7.13942 141.913 6.60686Z" fill="white"/>
<path fill-rule="evenodd" clip-rule="evenodd" d="M62.4294 0.5C69.804 0.5 75.7829 6.54416 75.7829 14C75.7829 21.4558 69.804 27.5 62.4294 27.5C55.0546 27.5 49.0762 21.4558 49.0762 14C49.0762 6.54416 55.0546 0.5 62.4294 0.5ZM61.9467 1.5102C60.4234 1.72694 58.9728 2.96448 57.8467 5.03425C57.5201 5.63461 57.2254 6.29789 56.9687 7.01404C58.4998 6.62506 60.1816 6.39573 61.9467 6.36026V1.5102ZM55.84 7.33829C56.1594 6.32497 56.5501 5.39267 57.0009 4.56394C57.5591 3.53789 58.2216 2.65187 58.968 1.97134C54.9093 3.16303 51.7102 6.39733 50.5315 10.5006C51.2046 9.74601 52.081 9.07628 53.0959 8.51198C53.9156 8.05615 54.8378 7.66114 55.84 7.33829ZM55.5194 8.47924C55.1346 10.0272 54.9077 11.7275 54.8727 13.5121H50.0753C50.2897 11.9719 51.5138 10.5054 53.5611 9.36707C54.155 9.03686 54.8109 8.73891 55.5194 8.47924ZM55.8382 13.5121C55.878 11.5646 56.1554 9.73629 56.6142 8.12088C58.2121 7.65702 60.0204 7.37663 61.9467 7.33633V9.44429C61.2282 11.3042 59.7625 12.7858 57.9228 13.5121H55.8382ZM54.8727 14.4879H50.0753C50.2897 16.0281 51.5138 17.4946 53.5611 18.633C54.155 18.9632 54.8109 19.2611 55.5194 19.5207C55.1346 17.9728 54.9077 16.2725 54.8727 14.4879ZM56.6142 19.8791C56.1554 18.2638 55.878 16.4354 55.8382 14.4879H57.9228C59.7625 15.2142 61.2282 16.6958 61.9467 18.5557V20.6637C60.0204 20.6233 58.2121 20.343 56.6142 19.8791ZM55.84 20.6617C54.8378 20.3388 53.9156 19.9438 53.0959 19.488C52.081 18.9237 51.2046 18.254 50.5315 17.4994C51.7102 21.6026 54.9093 24.837 58.968 26.0286C58.2216 25.3481 57.5591 24.462 57.0009 23.4361C56.5501 22.6074 56.1594 21.675 55.84 20.6617ZM61.9467 26.4897C60.4234 26.2731 58.9728 25.0355 57.8467 22.9658C57.5201 22.3654 57.2254 21.7021 56.9687 20.986C58.4998 21.3749 60.1816 21.6043 61.9467 21.6398V26.4897ZM65.8908 26.0286C66.6372 25.3481 67.2996 24.462 67.8577 23.4361C68.3084 22.6074 68.6997 21.675 69.0188 20.6617C70.021 20.3388 70.943 19.9438 71.7629 19.488C72.7777 18.9237 73.6544 18.254 74.3274 17.4994C73.1483 21.6026 69.9496 24.837 65.8908 26.0286ZM67.8904 20.986C67.6333 21.7021 67.3383 22.3654 67.0118 22.9658C65.8859 25.0355 64.4354 26.2731 62.912 26.4897V21.6398C64.6771 21.6043 66.359 21.3749 67.8904 20.986ZM69.3393 19.5207C70.0476 19.2611 70.7039 18.9632 71.2975 18.633C73.3453 17.4946 74.5691 16.0281 74.7834 14.4879H69.9863C69.9508 16.2725 69.7238 17.9728 69.3393 19.5207ZM69.0208 14.4879C68.9807 16.4354 68.7036 18.2638 68.2443 19.8791C66.6467 20.343 64.8383 20.6233 62.912 20.6637V18.5573C63.6305 16.6967 65.0964 15.2144 66.9366 14.4879H69.0208ZM69.9863 13.5121H74.7834C74.5691 11.9719 73.3453 10.5054 71.2975 9.36707C70.7039 9.03686 70.0476 8.73891 69.3393 8.47924C69.7238 10.0272 69.9508 11.7275 69.9863 13.5121ZM68.2443 8.12088C68.7036 9.73629 68.9807 11.5646 69.0208 13.5121H66.9367C65.0964 12.7856 63.6305 11.3033 62.912 9.44274V7.33633C64.8383 7.37663 66.6467 7.65702 68.2443 8.12088ZM69.0188 7.33829C70.021 7.66114 70.943 8.05615 71.7629 8.51198C72.7777 9.07628 73.6544 9.74601 74.3274 10.5006C73.1483 6.39733 69.9496 3.16303 65.8908 1.97134C66.6372 2.65187 67.2996 3.53789 67.8577 4.56394C68.3084 5.39267 68.6997 6.32497 69.0188 7.33829ZM62.912 1.5102C64.4354 1.72694 65.8859 2.96448 67.0118 5.03425C67.3383 5.63461 67.6333 6.29789 67.8904 7.01404C66.359 6.62506 64.6771 6.39573 62.912 6.36026V1.5102Z" fill="white"/>
</g>
</g>
<defs>
<clipPath id="clip0_2_68785">
<rect width="146" height="27" fill="white" transform="translate(0 0.5)"/>
</clipPath>
</defs>
</svg>
