<svg width="52" height="32" viewBox="0 0 52 32" fill="none" xmlns="http://www.w3.org/2000/svg">
<path d="M51.2074 0.717773L52 1.88038C51.3659 4.48742 50.538 7.60531 49.5163 11.234C48.4946 14.8275 47.3849 18.4386 46.187 22.0674C45.0244 25.6961 43.8442 28.8492 42.6464 31.5267H27.9553C28.4838 29.0606 28.9946 26.4888 29.4878 23.8113C30.0163 21.0985 30.5095 18.3858 30.9675 15.6731C31.4255 12.9603 31.8307 10.3357 32.183 7.79907C32.5705 5.22726 32.8876 2.86682 33.1342 0.717773H51.2074Z" fill="url(#paint0_linear_2_120670)"/>
<path d="M0.792683 31.5267L0 30.3641C0.669377 27.7571 1.49729 24.6568 2.48374 21.0633C3.50542 17.4346 4.59756 13.8058 5.76016 10.1771C6.95799 6.51317 8.15583 3.36005 9.35366 0.717773H24.0447C23.3753 3.9942 22.6883 7.46439 21.9837 11.1283C21.3144 14.7923 20.6978 18.3858 20.1341 21.9088C19.6057 25.4319 19.1829 28.6378 18.8659 31.5267H0.792683Z" fill="url(#paint1_linear_2_120670)"/>
<defs>
<linearGradient id="paint0_linear_2_120670" x1="39.9777" y1="0.717773" x2="39.9777" y2="31.5267" gradientUnits="userSpaceOnUse">
<stop stop-color="#021C1B"/>
<stop offset="1" stop-color="#09827D"/>
</linearGradient>
<linearGradient id="paint1_linear_2_120670" x1="12.0224" y1="0.717773" x2="12.0224" y2="31.5267" gradientUnits="userSpaceOnUse">
<stop stop-color="#021C1B"/>
<stop offset="1" stop-color="#09827D"/>
</linearGradient>
</defs>
</svg>
