<svg width="133" height="59" viewBox="0 0 133 59" fill="none" xmlns="http://www.w3.org/2000/svg">
<g clip-path="url(#clip0_3_238329)">
<path d="M50.6973 39.3C50.5198 39.3829 50.3366 39.4551 50.1658 39.5498C47.9479 40.7809 45.7538 42.0576 43.5071 43.234C42.0957 43.9731 40.6251 44.611 39.1462 45.2094C36.5981 46.2404 34.0453 47.2683 31.4528 48.1805C28.4372 49.2411 25.353 50.0806 22.2042 50.6832C19.4409 51.212 16.6637 51.5826 13.8462 51.5426C11.5711 51.5104 9.34344 51.1562 7.25149 50.2306C4.63166 49.0712 2.54797 47.2892 1.24347 44.7241C0.279545 42.8275 0.111838 40.7922 0.432803 38.7067C0.810529 36.2526 1.73472 33.9993 2.97575 31.861C4.81278 28.6965 7.23291 25.9936 9.81405 23.428C13.822 19.4438 18.2845 16.031 23.2559 13.3174C26.2245 11.6972 29.3077 10.2982 32.6959 9.73153C34.1496 9.48838 35.6078 9.34095 37.0764 9.61021C38.6621 9.90097 39.5136 10.9463 39.9171 12.4042C40.3299 13.8948 39.9352 15.3118 39.3144 16.6489C38.2333 18.978 36.5552 20.8096 34.3472 22.1508C33.7089 22.5383 33.2481 22.5388 32.8425 22.1226C32.6743 21.9501 32.5432 21.6855 32.5127 21.4474C32.4549 20.9975 32.8064 20.72 33.2986 20.7144C33.5494 20.7113 33.8487 20.7215 34.0422 20.5977C36.3793 19.1004 38.0316 17.0783 38.6967 14.3596C38.8299 13.8155 38.8242 13.2181 38.7757 12.6545C38.6854 11.6041 38.0352 10.8347 36.9882 10.6468C36.2255 10.5101 35.421 10.4861 34.647 10.5516C31.7645 10.7948 29.0585 11.6578 26.4562 12.9012C23.4184 14.3525 20.5834 16.1221 17.8325 18.0438C15.9196 19.3799 14.114 20.8403 12.3756 22.3878C10.5179 24.0417 8.80936 25.837 7.25614 27.7745C6.44082 28.7917 5.61003 29.8032 4.8778 30.8787C3.15997 33.4034 1.82864 36.1119 1.41943 39.1674C0.976172 42.4794 2.0175 45.2785 4.59038 47.4766C6.52648 49.1306 8.83051 49.9266 11.3188 50.2747C13.6507 50.6012 15.9748 50.4538 18.3015 50.1769C24.4215 49.449 30.2397 47.6481 35.9221 45.3532C36.0821 45.2887 36.2353 45.2063 36.3519 45.0236C35.839 45.192 35.3194 45.342 34.8152 45.5329C32.3853 46.4528 29.9058 47.2207 27.3711 47.7904C25.322 48.2511 23.2502 48.5782 21.1304 48.4436C19.6726 48.3509 18.3635 47.8928 17.2148 46.9923C15.7555 45.8482 15.2725 44.0796 15.8902 42.1272C16.4336 40.4098 17.3841 38.9176 18.5178 37.537C21.827 33.5053 25.8974 30.3863 30.4275 27.8267C34.5402 25.5032 38.9692 23.989 43.5112 22.7471C46.0743 22.0464 48.6611 21.5037 51.3196 21.3834C53.023 21.3061 54.747 21.2503 56.3885 21.815C57.2982 22.1277 58.1925 22.5265 59.0289 22.9995C61.6684 24.4922 63.2717 28.85 60.3701 32.075C59.6745 32.8485 58.8752 33.5304 58.1207 34.2506C57.9339 34.4293 57.7348 34.5951 57.5784 34.7333C57.647 35.0517 57.8024 35.3466 57.7301 35.5682C57.6677 35.7602 57.3385 35.859 57.1424 36.0177C56.6991 36.3765 56.2651 36.7471 55.8544 37.1597C56.1908 37.1505 56.4137 36.9038 56.6831 36.7605C57.6754 36.2332 58.6657 35.7018 59.6595 35.1761C59.7741 35.1152 59.901 35.0691 60.0274 35.0394C60.6224 34.8987 61.0837 35.2729 61.0332 35.8825C61.0105 36.1579 60.9042 36.4267 60.7979 36.85C61.1333 36.6524 61.3691 36.5193 61.5987 36.3765C62.3764 35.8923 63.1556 35.4101 63.927 34.9161C64.749 34.3898 65.119 34.483 65.6087 35.3578C65.6448 35.4218 65.7011 35.4751 65.8162 35.6174C66.5267 35.2606 67.2564 34.9202 67.9602 34.5332C68.8158 34.0627 68.9587 34.0673 69.6925 34.8424C70.0816 34.6463 70.4892 34.4272 70.9082 34.2327C71.691 33.8703 72.4775 33.516 73.2701 33.1741C73.4589 33.0927 73.6741 33.0615 73.881 33.0307C74.5998 32.9253 74.9471 33.1101 75.2727 33.7607C75.3517 33.9189 75.4177 34.0832 75.5184 34.3084C76.0106 34.1196 76.4745 33.9537 76.9292 33.7653C79.0583 32.8828 81.1667 31.947 83.3185 31.1224C84.8821 30.5234 86.4941 30.0438 88.0994 29.5595C88.8358 29.3374 89.3874 28.9662 89.8498 28.3402C92.207 25.1495 94.5776 21.967 96.99 18.8168C100.593 14.1114 104.295 9.48275 108.422 5.21042C109.638 3.95268 110.896 2.73537 112.135 1.50118C112.209 1.42746 112.292 1.36245 112.376 1.3C112.934 0.882289 113.466 0.790147 113.823 1.0461C114.156 1.28567 114.38 2.05301 114.18 2.55979C114.011 2.98876 113.743 3.38088 113.504 3.78068C113.223 4.24753 112.947 4.71797 112.634 5.16281C111.179 7.22936 109.711 9.28669 108.25 11.3491C106.44 13.903 104.66 16.4789 102.814 19.0067C101.708 20.5204 100.521 21.9767 99.3337 23.4295C98.344 24.6396 97.3001 25.8063 96.2825 26.9939C96.234 27.0502 96.2072 27.1254 96.0874 27.3415C96.4868 27.2227 96.7629 27.126 97.0457 27.0589C97.6045 26.9258 98.1624 26.7548 98.7305 26.7001C99.359 26.6396 99.747 27.0876 99.5701 27.6865C99.4503 28.0934 99.1975 28.4927 98.9116 28.8147C98.0132 29.8262 97.0715 30.7994 96.0704 31.8687C96.3021 31.7935 96.459 31.7551 96.605 31.6926C98.0488 31.0753 99.4725 30.4057 100.942 29.8549C101.588 29.6128 102.323 29.5524 103.024 29.514C103.833 29.4694 104.25 29.8687 104.26 30.6842C104.268 31.3773 104.621 31.7464 105.214 31.9537C106.172 32.2895 107.174 32.3228 108.169 32.2557C111.545 32.0274 114.92 31.7827 118.292 31.5191C121.041 31.3046 123.793 31.1858 126.548 31.2683C128.226 31.3184 129.902 31.4346 131.578 31.5334C131.816 31.5472 132.05 31.6332 132.286 31.686C132.284 31.7459 132.283 31.8058 132.282 31.8656C132.124 31.9158 131.968 31.9977 131.807 32.0095C131.441 32.0366 131.073 32.0254 130.706 32.0366C128.95 32.0909 127.194 32.1344 125.438 32.2071C123.947 32.269 122.455 32.331 120.968 32.4548C118.486 32.6617 116.009 32.9319 113.528 33.149C111.726 33.3067 109.921 33.4464 108.115 33.5416C107.386 33.58 106.642 33.5365 105.919 33.429C104.409 33.2048 103.226 32.5516 102.979 30.8485C102.194 30.6811 101.496 30.9555 100.826 31.2089C98.8631 31.9496 96.9765 32.8541 95.1911 33.9593C94.9481 34.1098 94.6901 34.2496 94.4207 34.3402C93.9692 34.4922 93.5873 34.3494 93.3128 33.9783C93.0357 33.603 93.0166 33.2335 93.3654 32.8372C93.8128 32.3289 94.3206 31.8728 94.7995 31.3916C95.7025 30.484 96.6066 29.5774 97.5024 28.6627C97.6608 28.5009 97.781 28.3033 98.0014 28.0136C97.7274 28.0469 97.5808 28.0423 97.4497 28.0842C95.2861 28.784 93.2927 29.7981 91.4954 31.1961C90.7544 31.7725 89.9489 32.2665 89.1831 32.8116C88.375 33.3865 87.5752 33.9731 86.7779 34.5623C85.7041 35.3553 85.0405 36.4999 84.2505 37.5293C82.4268 39.9056 80.6507 42.3171 78.839 44.7026C77.2135 46.8424 75.5823 48.9785 73.9239 51.0932C72.8149 52.5071 71.6193 53.8549 70.5285 55.2821C69.7023 56.3632 68.8426 57.4049 67.842 58.3294C67.6702 58.4881 67.4814 58.6309 67.2858 58.7605C66.9942 58.9534 66.698 58.958 66.4127 58.7318C66.1201 58.4999 66.1149 58.204 66.2119 57.8836C66.2197 57.8585 66.229 57.8344 66.2398 57.8109C67.1067 55.9696 68.0872 54.203 69.6208 52.6995C69.7957 53.0835 69.6342 53.3532 69.5042 53.6112C69.0258 54.5623 68.534 55.5068 68.1186 56.5378C68.3219 56.3315 68.5438 56.1405 68.726 55.9174C70.4598 53.794 72.2262 51.6952 73.9058 49.5304C76.0979 46.7052 78.2202 43.8262 80.371 40.9693C80.5078 40.7881 80.6301 40.5961 80.7286 40.3816C79.8596 40.978 78.9742 41.5247 78.3064 42.377C77.7331 43.1091 77.0277 43.7387 76.3285 44.4682C76.1536 44.0919 76.3517 43.9066 76.506 43.7254C77.7094 42.3166 78.8735 40.871 80.1383 39.5186C81.3494 38.223 82.642 36.9985 83.946 35.7924C84.799 35.0041 85.493 34.0981 86.1876 33.1843C86.4719 32.8101 86.7583 32.4369 87.0277 32.0525C87.1691 31.8508 87.2764 31.6261 87.4771 31.2749C87.1391 31.341 86.9652 31.3573 86.8027 31.409C84.8795 32.0177 82.9444 32.5931 81.0418 33.2601C80.0573 33.6056 79.1362 34.1272 78.1774 34.549C77.2429 34.9601 76.2996 35.3512 75.3543 35.7361C75.1639 35.8134 74.9466 35.8472 74.7397 35.8585C74.2949 35.8836 73.9239 35.5616 73.895 35.1172C73.8784 34.8633 73.9202 34.6064 73.944 34.2235C73.476 34.3827 73.0451 34.4717 72.6704 34.6663C71.5104 35.2698 70.3716 35.9138 69.225 36.5429C69.0872 36.6187 68.9566 36.7077 68.8163 36.7773C68.0954 37.1357 67.9592 37.1137 67.3658 36.569C67.2904 36.4999 67.2084 36.439 67.1372 36.3811C66.3688 36.7062 65.6051 36.9806 64.8878 37.3461C64.1922 37.7003 63.5606 37.836 62.9698 37.1654C62.0559 37.6901 61.1952 38.183 60.3365 38.6786C60.1781 38.7702 60.0269 38.8746 59.8706 38.9698C59.5083 39.1905 59.1543 39.2759 58.788 38.9601C58.3788 38.6074 58.2518 38.2015 58.451 37.7095C58.5444 37.4787 58.6708 37.2611 58.8421 36.9176C58.0609 37.3886 57.3787 37.7643 56.7342 38.1953C55.4534 39.0517 54.1985 39.9455 52.9229 40.8096C52.5777 41.0435 52.2066 41.2447 51.831 41.4269C51.2969 41.686 50.8232 41.5795 50.4047 41.151C50.0187 40.7558 49.9749 40.352 50.3206 39.9061C50.4594 39.7269 50.6147 39.56 50.7628 39.3875C50.7406 39.3594 50.719 39.3297 50.6973 39.3ZM22.0236 47.4029C23.0133 47.2969 24.0098 47.2304 24.9923 47.0783C27.9057 46.6274 30.7139 45.7771 33.4921 44.8168C38.0532 43.2411 42.5375 41.4735 46.9515 39.5314C48.4861 38.8562 50.0672 38.2629 51.5322 37.4612C53.5994 36.3299 55.5401 34.9821 57.3591 33.4802C58.4288 32.5966 59.4351 31.6501 60.2029 30.4753C61.383 28.6693 61.1544 26.1943 59.659 24.634C58.3504 23.2688 56.6506 22.7676 54.8631 22.5255C52.2376 22.1692 49.6358 22.461 47.0346 22.8946C45.4138 23.1649 43.8817 23.8887 42.1964 23.8129C42.0968 23.8083 41.9946 23.8651 41.8935 23.8923C39.4599 24.549 37.0826 25.364 34.7899 26.4108C34.2971 26.6355 33.7496 26.7763 33.4457 27.3005C33.3766 27.4193 33.1939 27.4812 33.054 27.5508C30.4961 28.8342 28.0729 30.3218 25.8004 32.0648C23.3183 33.968 21.0504 36.074 19.1375 38.5449C18.1916 39.7663 17.3639 41.0527 16.8815 42.5368C16.222 44.5649 16.9909 46.1595 18.9997 46.9033C19.976 47.2647 20.9869 47.3609 22.0236 47.4029ZM90.5154 30.009C90.5856 29.9972 90.6501 30.0059 90.6837 29.9783C92.272 28.6627 93.9501 27.4372 95.4223 26.0044C98.0081 23.4884 100.297 20.6985 102.449 17.8093C104.381 15.2155 106.27 12.5895 108.139 9.95012C109.646 7.82316 111.098 5.65833 112.564 3.50271C112.773 3.19455 112.919 2.84287 113.094 2.51167C113.043 2.47277 112.993 2.43386 112.943 2.39496C112.754 2.55109 112.552 2.69442 112.379 2.86591C111.861 3.38088 111.353 3.90609 110.842 4.42874C109.13 6.18201 107.37 7.89125 105.721 9.70082C103.982 11.6092 102.344 13.6092 100.673 15.578C100.168 16.1733 99.7182 16.8152 99.2052 17.4034C98.8678 17.7899 98.4028 18.074 98.0984 18.481C96.555 20.5444 95.0415 22.6304 93.5269 24.7149C93.2535 25.0911 93.0347 25.5068 92.7668 25.8882C92.0042 26.9744 91.2291 28.052 90.4587 29.1326C90.2358 29.4454 90.1816 29.7423 90.5154 30.009Z" fill="white"/>
</g>
<defs>
<clipPath id="clip0_3_238329">
<rect width="132" height="58" fill="white" transform="translate(0.28418 0.906006)"/>
</clipPath>
</defs>
</svg>
