<svg width="36" height="36" viewBox="0 0 36 36" fill="none" xmlns="http://www.w3.org/2000/svg">
<g clip-path="url(#clip0_2_160138)">
<path d="M34.6329 28.0662L27.8305 21.2643H27.5968C26.6557 21.2643 25.7706 20.898 25.105 20.2324L25.0079 20.1353L26.1369 19.0063L24.1611 17.0305L27.6194 13.5722C27.9417 13.7997 28.3227 13.9256 28.7258 13.9256C29.2406 13.9256 29.725 13.7252 30.0885 13.3611L31.5484 11.9013C31.9125 11.5371 32.1129 11.0534 32.1129 10.5385C32.1129 10.0237 31.9125 9.53932 31.5484 9.17577L23.3144 0.941742C22.5867 0.214081 21.3165 0.214081 20.5889 0.941742L19.129 2.40158C18.7649 2.76569 18.5645 3.24948 18.5645 3.76432C18.5645 4.16682 18.691 4.54844 18.9179 4.87077L7.24935 16.5393C6.50702 16.033 5.43105 16.0996 4.78242 16.7482L3.32258 18.208C2.95847 18.5721 2.75806 19.0559 2.75806 19.5708C2.75806 20.0856 2.95847 20.57 3.32258 20.9335L10.9921 28.603H3.8871C2.95339 28.603 2.19355 29.3629 2.19355 30.2966V30.8611C1.25984 30.8611 0.5 31.6209 0.5 32.5546V35.3772H18.5645V32.5546C18.5645 31.6209 17.8047 30.8611 16.871 30.8611V30.2966C16.871 29.3629 16.1111 28.603 15.1774 28.603H14.8466L15.7419 27.7077C16.106 27.3436 16.3065 26.8598 16.3065 26.345C16.3065 25.9425 16.18 25.5609 15.9531 25.2385L19.4113 21.7803L21.3871 23.7561L22.5161 22.6271L22.6132 22.7242C23.2788 23.3892 23.6452 24.2749 23.6452 25.2159V25.4496L30.4476 32.2521C30.9991 32.8036 31.7618 33.1192 32.5408 33.1192C34.1723 33.1186 35.5 31.7903 35.5 30.1594C35.5 29.3685 35.1918 28.625 34.6329 28.0662ZM17.4355 32.5546V34.2482H1.62903V32.5546C1.62903 32.243 1.88194 31.9901 2.19355 31.9901H16.871C17.1826 31.9901 17.4355 32.243 17.4355 32.5546ZM15.7419 30.2966V30.8611H3.32258V30.2966C3.32258 29.985 3.57548 29.7321 3.8871 29.7321H15.1774C15.489 29.7321 15.7419 29.985 15.7419 30.2966ZM26.7985 12.7966L24.7742 14.8209L17.6692 7.71594L19.6935 5.69158L26.7985 12.7966ZM19.9273 3.19981L21.3871 1.73997C21.5384 1.58924 21.7382 1.50626 21.9516 1.50626C22.165 1.50626 22.3648 1.58924 22.5161 1.73997L30.7502 9.974C30.9009 10.1253 30.9839 10.3251 30.9839 10.5385C30.9839 10.7519 30.9009 10.9517 30.7502 11.103L29.2903 12.5629C28.9883 12.8638 28.4633 12.8638 28.1613 12.5629L19.9273 4.32884C19.7765 4.17755 19.6935 3.97771 19.6935 3.76432C19.6935 3.55094 19.7765 3.35053 19.9273 3.19981ZM8.07242 17.3127L10.0968 15.2884L17.2018 22.3934L15.1774 24.4177L8.07242 17.3127ZM14.9437 26.9095L13.4839 28.3693C13.1819 28.6702 12.6569 28.6702 12.3548 28.3693L4.12081 20.1353C3.97008 19.984 3.8871 19.7842 3.8871 19.5708C3.8871 19.3574 3.97008 19.1575 4.12081 19.0063L5.58065 17.5464C5.73194 17.3957 5.93177 17.3127 6.14516 17.3127C6.35855 17.3127 6.55839 17.3957 6.70968 17.5464L14.9437 25.7805C15.0944 25.9317 15.1774 26.1316 15.1774 26.345C15.1774 26.5584 15.0944 26.7582 14.9437 26.9095ZM18 21.5951L10.895 14.4901L16.871 8.51416L23.976 15.6192L23.3629 16.2322L23.3144 16.1837C22.5867 15.456 21.3165 15.456 20.5889 16.1837L18.5645 18.208C18.2004 18.5721 18 19.0559 18 19.5708C18 20.0856 18.2004 20.57 18.5645 20.9335L18.6131 20.9821L18 21.5951ZM19.3627 20.1353C19.212 19.984 19.129 19.7842 19.129 19.5708C19.129 19.3574 19.212 19.1575 19.3627 19.0063L21.3871 16.9819C21.5384 16.8312 21.7382 16.7482 21.9516 16.7482C22.165 16.7482 22.3648 16.8312 22.5161 16.9819L24.5405 19.0063L21.3871 22.1596L19.3627 20.1353ZM32.5408 31.9901C32.0587 31.9901 31.5868 31.7942 31.2458 31.4538L24.768 24.976C24.7098 23.8233 24.2334 22.7479 23.4115 21.9259L23.3144 21.8288L24.2097 20.9335L24.3068 21.0306C25.1287 21.8525 26.2041 22.3296 27.3569 22.3871L33.8347 28.8644C34.1802 29.2105 34.371 29.6705 34.371 30.1594C34.371 31.1682 33.5496 31.9896 32.5408 31.9901Z" fill="white"/>
</g>
<defs>
<clipPath id="clip0_2_160138">
<rect width="35" height="35" fill="white" transform="translate(0.5 0.386475)"/>
</clipPath>
</defs>
</svg>
