<svg width="49" height="83" viewBox="0 0 49 83" fill="none" xmlns="http://www.w3.org/2000/svg">
<g opacity="0.1">
<path opacity="0.04" d="M32.6095 54.9411C25.9066 51.7976 20.8216 48.5617 17.4932 45.2795C14.5346 42.3672 13.0553 39.5473 13.0091 36.8199C12.9629 33.3066 15.5054 30.1169 20.0819 27.8518C20.914 28.3141 21.8386 28.8226 22.948 29.4235C29.3736 32.8906 40.0984 38.669 40.2371 45.2795C40.3295 48.5617 37.787 51.8438 32.6095 54.9411ZM48.2806 39.4549C46.2929 32.567 38.0182 27.6207 30.7142 23.2291C24.4273 19.4846 18.4639 15.9251 18.0941 11.9958C17.9092 10.1929 18.88 8.34382 21.0527 6.40227C22.4857 5.1079 25.0745 4.22958 27.4783 4.22958C29.651 4.22958 31.4076 4.96923 32.3784 6.2636C33.4879 7.74287 33.719 9.86932 32.9794 12.643C32.8869 13.059 33.0256 13.6137 33.4416 14.1222C34.2737 15.1855 36.0766 16.2487 38.2955 16.2487C39.4974 16.2487 40.6993 15.9251 41.8088 15.3242L41.855 15.2779L41.9013 15.2317C44.5362 12.5043 44.3051 10.0542 43.6579 8.48251C41.855 4.27581 34.5511 0.993652 27.016 0.993652C17.6319 0.993652 11.3912 5.75508 10.1892 13.7987C10.0043 15.0006 10.3741 17.2657 11.6223 19.7158C12.5468 21.5187 14.2572 23.9687 17.0771 25.6329C11.7147 28.4065 4.17967 32.6132 4.54949 41.3502C4.9193 49.3476 13.1016 54.2015 21.0527 58.9166C28.0793 63.0771 34.736 67.0064 34.7822 72.6462C33.6728 76.7142 29.1887 78.5171 25.2594 78.5171C22.4857 78.5171 20.1744 77.6388 19.1574 76.2982C20.8678 72.6924 20.2668 70.3811 19.4347 69.0405C18.464 67.4687 16.5686 66.4979 14.5808 66.4979C12.0383 66.4979 9.31091 68.1621 9.31091 71.8603C9.31091 73.7557 9.95811 75.5585 11.2062 77.084C13.6101 79.9964 17.9092 81.7068 24.0112 82.2153C24.5197 82.2615 25.0282 82.2615 25.5367 82.2615C33.303 82.2615 40.838 77.7312 42.6871 71.9065C44.2589 67.0064 41.7163 61.829 35.5681 57.2525C43.6117 54.2014 46.7089 49.7636 47.8646 46.5277C49.2052 42.6446 48.3269 39.5936 48.2806 39.4549Z" fill="white"/>
<path opacity="0.08" d="M32.4702 54.9409C25.7673 51.7975 20.6822 48.5615 17.3539 45.2794C14.3953 42.3671 12.916 39.5472 12.8698 36.8198C12.8236 33.3065 15.3661 30.1168 19.9426 27.8516C20.7747 28.3139 21.6993 28.8224 22.8087 29.4234C29.2343 32.8904 39.9591 38.6689 40.0978 45.2794C40.144 48.5615 37.6015 51.8437 32.4702 54.9409ZM48.0951 39.4547C46.1073 32.5668 37.8789 27.6205 30.5749 23.2289C24.288 19.4845 18.3246 15.925 17.9548 11.9956C17.7699 10.1928 18.7407 8.34366 20.9134 6.4021C22.3464 5.10774 24.9352 4.18319 27.339 4.18319C29.5117 4.18319 31.2683 4.92282 32.2391 6.21719C33.3485 7.69647 33.5797 9.82294 32.8401 12.5966C32.7014 13.0126 32.8863 13.5674 33.3023 14.0759C34.1344 15.1391 35.9373 16.2023 38.1562 16.2023C39.3581 16.2023 40.56 15.8787 41.6695 15.2778L41.7157 15.2315L41.762 15.1853C44.3969 12.4579 44.1658 10.0078 43.5186 8.43611C41.7157 4.22941 34.4118 0.947266 26.8767 0.947266C17.4925 0.947266 11.2518 5.70869 10.0499 13.7523C9.86502 14.9542 10.2348 17.2193 11.4367 19.6694C12.3613 21.4722 14.0717 23.9223 16.8916 25.5865C11.5292 28.3601 3.99412 32.5668 4.36394 41.3038C4.73376 49.3012 12.916 54.155 20.8671 58.8702C27.8937 63.0307 34.5505 66.9601 34.5967 72.5998C33.4872 76.6678 29.0032 78.4707 25.0738 78.4707C22.3002 78.4707 19.9888 77.5924 18.9718 76.2518C20.6822 72.646 20.0813 70.3347 19.2492 68.9941C18.2784 67.4223 16.3831 66.4515 14.3953 66.4515C11.8528 66.4515 9.1716 68.0695 9.1716 71.7677C9.1716 73.663 9.8188 75.4659 11.0669 76.9914C13.4708 79.9037 17.7699 81.6141 23.8719 82.0764C24.3804 82.1227 24.8889 82.1227 25.3974 82.1227C33.1636 82.1227 40.6987 77.5924 42.5478 71.8139C44.1195 66.9138 41.577 61.7364 35.4288 57.1598C43.4724 54.1088 46.5696 49.671 47.7253 46.4351C49.0197 42.6444 48.1413 39.5934 48.0951 39.4547Z" fill="white"/>
<path opacity="0.12" d="M32.2847 54.9409C25.5817 51.7975 20.4967 48.5615 17.1683 45.2794C14.2098 42.3671 12.7305 39.5472 12.6843 36.8198C12.638 33.3065 15.1805 30.1168 19.7571 27.8516C20.5891 28.3139 21.5137 28.8224 22.6232 29.4234C29.0488 32.8904 39.7735 38.6689 39.9122 45.2794C40.0047 48.5615 37.4159 51.8437 32.2847 54.9409ZM47.8633 39.4547C45.8756 32.5668 37.6933 27.6205 30.3431 23.2289C24.0562 19.4845 18.0929 15.925 17.723 11.9956C17.5381 10.1928 18.5089 8.34366 20.6816 6.4021C22.1146 5.10774 24.7034 4.18319 27.1072 4.18319C29.2799 4.18319 31.0366 4.96905 32.0073 6.21719C33.1168 7.69647 33.3479 9.82294 32.6083 12.5966C32.5158 13.0126 32.6545 13.5674 33.0705 14.0759C33.9026 15.1391 35.7055 16.2023 37.9244 16.2023C39.1264 16.2023 40.3283 15.8787 41.4377 15.2778L41.4839 15.2315L41.5302 15.1853C44.1651 12.4579 43.934 10.0078 43.2868 8.43611C41.484 4.22941 34.18 0.947266 26.6449 0.947266C17.2608 0.947266 11.0663 5.70868 9.86438 13.706C9.67947 14.9079 10.0031 17.1731 11.2512 19.6232C12.1758 21.426 13.8862 23.8761 16.7061 25.5403C11.3437 28.3139 3.80857 32.5206 4.17839 41.2576C4.54821 49.2549 12.7305 54.1088 20.6816 58.824C27.7082 62.9845 34.3649 66.9138 34.4111 72.5536C33.3017 76.6216 28.8176 78.4244 24.8421 78.4244C22.0684 78.4244 19.757 77.5461 18.74 76.2055C20.4505 72.5998 19.8495 70.2884 19.0174 68.9478C18.0467 67.3761 16.1513 66.4053 14.1635 66.4053C11.621 66.4053 8.93985 68.0233 8.93985 71.7215C8.93985 73.6168 9.54078 75.4197 10.7889 76.9452C13.1927 79.8575 17.4919 81.5217 23.5939 82.0302C24.1024 82.0764 24.611 82.0764 25.1195 82.0764C32.8857 82.0764 40.3745 77.5924 42.2236 71.7677C43.7953 66.8676 41.2528 61.6901 35.1046 57.1136C43.1481 54.0626 46.2454 49.6248 47.4011 46.3888C48.8341 42.6444 47.9096 39.5934 47.8633 39.4547Z" fill="white"/>
<path opacity="0.16" d="M32.0986 54.9409C25.3956 51.7975 20.3106 48.5615 16.9822 45.2794C14.0236 42.3671 12.5444 39.5472 12.4981 36.8198C12.4519 33.3065 14.9944 30.1168 19.5709 27.8516C20.403 28.3139 21.3276 28.8224 22.437 29.4234C28.8626 32.8904 39.5874 38.6689 39.7261 45.2794C39.8185 48.5615 37.2298 51.8437 32.0986 54.9409ZM47.631 39.4547C45.6432 32.5668 37.5072 27.6205 30.157 23.2289C23.8701 19.4845 17.9067 15.925 17.5369 11.9956C17.352 10.1928 18.3228 8.34366 20.4955 6.4021C21.9285 5.10774 24.5173 4.13695 26.9211 4.13695C29.0938 4.13695 30.8504 4.92282 31.8212 6.21719C32.9307 7.69647 33.1618 9.82294 32.4221 12.5966C32.3297 13.0126 32.4684 13.5674 32.8844 14.0759C33.7165 15.1391 35.5194 16.2023 37.7383 16.2023C38.9402 16.2023 40.1421 15.8787 41.2516 15.2778L41.2978 15.2315L41.344 15.1853C43.979 12.4579 43.7479 10.0078 43.1007 8.43611C41.2978 4.22941 33.9939 0.947266 26.4588 0.947266C17.1209 0.947266 10.8802 5.70868 9.67825 13.706C9.49334 14.9079 9.81695 17.1731 11.0651 19.6232C11.9896 21.426 13.7463 23.8761 16.5661 25.5403C11.2037 28.3139 3.66868 32.5206 4.0385 41.2576C4.40832 49.2549 12.5906 54.1088 20.5417 58.824C27.5683 62.9845 34.225 66.9138 34.2712 72.5536C33.1618 76.6216 28.6315 78.4244 24.7022 78.4244C21.9285 78.4244 19.6172 77.5461 18.6001 76.2055C20.3106 72.5998 19.7096 70.2884 18.8775 68.9478C17.9067 67.3761 16.0114 66.4515 14.0236 66.4515C11.4811 66.4515 8.79992 68.0695 8.79992 71.7215C8.79992 73.6168 9.40088 75.4197 10.649 76.9452C13.0529 79.8575 17.352 81.5217 23.454 82.0302C23.9625 82.0764 24.471 82.0764 24.9795 82.0764C32.7457 82.0764 40.2346 77.5924 42.0837 71.7677C43.6554 66.8676 41.1129 61.6901 34.9647 57.1136C43.0082 54.0626 46.1055 49.6248 47.2611 46.3888C48.6017 42.6444 47.6772 39.5934 47.631 39.4547Z" fill="white"/>
<path opacity="0.2" d="M31.9133 54.9411C25.2103 51.7976 20.079 48.5155 16.7969 45.2795C13.8383 42.3672 12.3591 39.5473 12.3128 36.8199C12.2666 33.3066 14.8091 30.1169 19.3856 27.8518C20.2177 28.3141 21.1423 28.8226 22.2517 29.4235C28.6773 32.8906 39.4021 38.669 39.5408 45.2795C39.6332 48.5617 37.0445 51.8438 31.9133 54.9411ZM47.4457 39.4549C45.4579 32.567 37.3219 27.6207 30.0179 23.2291C23.731 19.4846 17.7677 15.9251 17.3978 11.9958C17.2129 10.1929 18.1837 8.34382 20.3564 6.40227C21.7894 5.1079 24.3782 4.13712 26.782 4.13712C28.9547 4.13712 30.7114 4.92299 31.6821 6.21736C32.7916 7.69664 33.0227 9.8231 32.2831 12.5968C32.1906 13.0128 32.3293 13.5675 32.7453 14.076C33.5774 15.1393 35.3803 16.2025 37.5992 16.2025C38.8012 16.2025 40.0031 15.8789 41.1125 15.2779L41.1587 15.2317L41.205 15.1855C43.8399 12.4581 43.6088 10.008 42.9616 8.43627C41.1587 4.22958 33.8548 0.993652 26.2735 0.993652C16.8894 0.993652 10.7411 5.70886 9.53919 13.7524C9.35428 14.9543 9.63165 17.2195 10.8798 19.6695C11.8043 21.4724 13.561 23.9225 16.3808 25.5867C11.0184 28.3603 3.48338 32.567 3.8532 41.304C4.22302 49.3013 12.4053 54.1552 20.3564 58.8704C27.383 63.0309 34.0397 66.9602 34.0859 72.6C32.9765 76.668 28.4462 78.4709 24.4706 78.4709C21.697 78.4709 19.3856 77.5925 18.3686 76.2519C20.079 72.6462 19.4781 70.3348 18.646 68.9942C17.6752 67.4225 15.7799 66.4979 13.7921 66.4979C11.2496 66.4979 8.61465 68.0697 8.61465 71.7679C8.61465 73.6632 9.16938 75.4661 10.4175 76.9916C12.8213 79.9039 17.1205 81.5219 23.2225 82.0304C23.731 82.0766 24.2395 82.0766 24.748 82.0766C32.5142 82.0766 40.0031 77.6388 41.8522 71.8141C43.4239 66.914 40.8814 61.7365 34.7331 57.16C42.7767 54.109 45.874 49.6712 47.0296 46.4352C48.4165 42.6446 47.4457 39.5936 47.4457 39.4549Z" fill="white"/>
<path opacity="0.24" d="M31.7322 54.941C25.0292 51.7975 19.9441 48.5616 16.6158 45.2795C13.6572 42.3671 12.1779 39.5472 12.1317 36.8198C12.0855 33.3065 14.628 30.1169 19.2045 27.8517C20.0366 28.314 20.9611 28.8225 22.0706 29.4234C28.4962 32.8905 39.221 38.6689 39.3597 45.2795C39.4521 48.5616 36.8634 51.8438 31.7322 54.941ZM47.2183 39.4548C45.2306 32.5669 37.1408 27.6206 29.8368 23.229C23.5499 19.4845 17.5865 15.925 17.2167 11.9957C17.0318 10.1928 18.0026 8.34373 20.1753 6.40218C21.6084 5.10781 24.1971 4.13702 26.6009 4.13702C28.7736 4.13702 30.5302 4.96913 31.501 6.2635C32.6105 7.74278 32.8416 9.86923 32.102 12.6429C31.9633 13.0589 32.1482 13.6136 32.5642 14.1222C33.3963 15.1854 35.1992 16.2486 37.4181 16.2486C38.62 16.2486 39.822 15.925 40.9314 15.3241L40.9776 15.2778L41.0238 15.2316C43.6588 12.5042 43.4277 10.0541 42.7805 8.48242C40.9776 4.27572 33.6275 1.03979 26.0924 1.03979C16.7082 1.03979 10.56 5.75499 9.35806 13.7986C9.17315 15.0005 9.45052 17.2656 10.6987 19.7157C11.6232 21.5186 13.4261 23.9686 16.2459 25.6328C10.8836 28.4064 3.34849 32.6131 3.71831 41.3501C4.08813 49.3475 12.2704 54.2014 20.2215 58.9166C27.2481 63.077 33.9048 67.0063 33.9511 72.6461C32.8416 76.7141 28.2651 78.517 24.3357 78.517C21.5621 78.517 19.2507 77.6387 18.2337 76.2981C19.9441 72.6923 19.3432 70.381 18.5111 69.0404C17.5403 67.4686 15.645 66.5903 13.6572 66.5903C11.1147 66.5903 8.47973 68.162 8.47973 71.8602C8.47973 73.7556 9.03446 75.5584 10.2826 77.0839C12.6864 79.9963 16.9856 81.6142 23.0876 82.1227C23.5961 82.169 24.1046 82.169 24.6131 82.169C32.3793 82.169 39.8219 77.7311 41.671 71.9065C43.2428 67.0063 40.7003 61.8289 34.552 57.2524C42.5956 54.2014 45.6928 49.7635 46.8485 46.5276C48.2353 42.6445 47.2646 39.5935 47.2183 39.4548Z" fill="white"/>
<path opacity="0.28" d="M31.5454 54.9411C24.8424 51.7976 19.7574 48.5617 16.429 45.2795C13.4705 42.3672 11.9912 39.5473 11.945 36.8199C11.8987 33.3066 14.4413 30.1169 19.0178 27.8518C19.8499 28.3141 20.7744 28.8226 21.8839 29.4235C28.3095 32.8906 39.0342 38.669 39.1729 45.2795C39.2654 48.5617 36.6767 51.8438 31.5454 54.9411ZM46.9854 39.4549C44.9976 32.567 36.954 27.6207 29.6501 23.2291C23.3631 19.4846 17.3998 15.9251 17.03 11.9958C16.8451 10.1929 17.8159 8.34382 19.9886 6.40227C21.4216 5.1079 24.0103 4.0909 26.4142 4.0909C28.5869 4.0909 30.3435 4.92299 31.3143 6.21736C32.4237 7.69664 32.6549 9.8231 31.9152 12.5968C31.8228 13.0128 31.9615 13.5675 32.3775 14.076C33.2096 15.1393 35.0125 16.2025 37.2314 16.2025C38.4333 16.2025 39.6352 15.8789 40.7447 15.2779L40.7909 15.2317L40.8371 15.1855C43.4721 12.4581 43.241 10.008 42.5938 8.43627C40.7909 4.22958 33.4407 0.993652 25.9057 0.993652C16.5215 0.993652 10.4195 5.70885 9.21756 13.7062C9.03265 14.9081 9.31002 17.1733 10.5582 19.6233C11.4827 21.4262 13.2856 23.8762 16.1054 25.5404C10.7431 28.3141 3.20799 32.5208 3.57781 41.2578C3.94762 49.2551 12.1299 54.109 20.081 58.8242C27.1076 62.9847 33.7643 66.914 33.8106 72.5537C32.7011 76.6218 28.1246 78.4246 24.1952 78.4246C21.4216 78.4246 19.1102 77.5463 18.0932 76.2057C19.8036 72.6 19.2027 70.2886 18.3706 68.948C17.3998 67.3763 15.5045 66.4979 13.5167 66.4979C10.9742 66.4979 8.38546 68.0235 8.38546 71.7216C8.38546 73.617 8.94019 75.4198 10.1883 76.9453C12.5922 79.8577 16.8913 81.4756 22.9933 81.9379C23.5018 81.9841 24.0103 81.9841 24.5188 81.9841C32.285 81.9841 39.7277 77.5463 41.5768 71.7679C43.1485 66.8678 40.606 61.6903 34.4577 57.1138C42.5013 54.0628 45.5986 49.6249 46.7543 46.389C48.0024 42.6446 47.0316 39.5936 46.9854 39.4549Z" fill="white"/>
<path opacity="0.32" d="M31.3622 54.9411C24.6592 51.7976 19.5741 48.5617 16.2458 45.2795C13.2872 42.3672 11.8079 39.5473 11.7617 36.8199C11.7155 33.3066 14.258 30.1169 18.8345 27.8518C19.6666 28.3141 20.5912 28.8226 21.7006 29.4235C28.1262 32.8906 38.851 38.669 38.9897 45.2795C39.0822 48.5617 36.5396 51.8438 31.3622 54.9411ZM46.8021 39.4549C44.8143 32.567 36.817 27.6207 29.4668 23.2291C23.1799 19.4846 17.2166 15.9251 16.8468 11.9958C16.6618 10.1929 17.6326 8.34382 19.8053 6.40227C21.2384 5.1079 23.8271 4.0909 26.2309 4.0909C28.4036 4.0909 30.1602 4.92299 31.131 6.21736C32.2405 7.69664 32.4716 9.8231 31.732 12.5968C31.6395 13.0128 31.7782 13.5675 32.1943 14.076C33.0264 15.1393 34.8292 16.2025 37.0481 16.2025C38.25 16.2025 39.452 15.8789 40.5614 15.2779L40.6077 15.2317L40.6539 15.1855C43.2888 12.4581 43.0577 10.008 42.4105 8.43627C40.6077 4.22958 33.2575 0.993652 25.7224 0.993652C16.3382 0.993652 10.2362 5.70885 9.0343 13.7062C8.84939 14.9081 9.08053 17.1733 10.3287 19.6233C11.2532 21.4262 13.0561 23.8762 15.876 25.5404C10.5136 28.3141 2.97849 32.5208 3.34831 41.2578C3.71813 49.2551 11.9004 54.109 19.8515 58.8242C26.8781 62.9847 33.5348 66.914 33.5811 72.5537C32.4716 76.6218 27.8951 78.4246 23.9195 78.4246C21.1459 78.4246 18.8345 77.5463 17.8175 76.2057C19.5279 72.6 18.927 70.2886 18.0949 68.948C17.1241 67.3763 15.2288 66.4979 13.241 66.4979C10.6985 66.4979 8.10977 68.0235 8.10977 71.7216C8.10977 73.617 8.61826 75.4198 9.8664 76.9453C12.2702 79.8577 16.5694 81.4294 22.6714 81.9379C23.1799 81.9841 23.6884 81.9841 24.1969 81.9841C31.9631 81.9841 39.3595 77.5925 41.2086 71.7679C42.7803 66.8678 40.2378 61.6903 34.0896 57.1138C42.1331 54.0628 45.2304 49.6249 46.3861 46.389C47.8191 42.6446 46.8483 39.5936 46.8021 39.4549Z" fill="white"/>
<path opacity="0.36" d="M31.174 54.9407C24.471 51.7973 19.386 48.5614 16.0576 45.2792C13.099 42.3669 11.6198 39.547 11.5736 36.8196C11.5273 33.3063 14.0698 30.1166 18.6464 27.8515C19.4785 28.3137 20.403 28.8222 21.5124 29.4232C27.938 32.8903 38.6628 38.6687 38.8015 45.2792C38.894 48.5614 36.3515 51.8435 31.174 54.9407ZM46.5677 39.4546C44.58 32.5667 36.5826 27.6203 29.2786 23.2287C22.9917 19.4843 17.0284 15.9248 16.6586 11.9954C16.4737 10.1926 17.4444 8.34349 19.6171 6.40193C21.0502 5.10756 23.6389 4.04432 26.0427 4.04432C28.2154 4.04432 29.9721 4.92265 30.9428 6.21702C32.0523 7.6963 32.2835 9.82276 31.5438 12.5964C31.4051 13.0125 31.59 13.5672 32.0061 14.0757C32.8382 15.1389 34.641 16.2021 36.8599 16.2021C38.0619 16.2021 39.2638 15.8786 40.3732 15.2776L40.4195 15.2314L40.4657 15.1852C43.1007 12.4577 42.8695 10.0077 42.2223 8.43593C40.4195 4.22924 33.0693 1.03955 25.5342 1.03955C16.1501 1.03955 10.0943 5.70852 8.89236 13.7521C8.70745 14.954 8.93858 17.2191 10.1867 19.6692C11.1113 21.4721 12.9604 23.9221 15.7802 25.5863C10.4179 28.36 2.88279 32.5667 3.25261 41.3036C3.62243 49.301 11.8047 54.1549 19.7558 58.8701C26.7824 63.0305 33.4391 66.9599 33.4854 72.5996C32.3759 76.6676 27.7531 78.4705 23.8238 78.4705C21.0502 78.4705 18.7388 77.5922 17.7218 76.2516C19.4322 72.6459 18.8313 70.3345 17.9992 68.9939C17.0284 67.4222 15.1331 66.5901 13.1453 66.5901C10.6028 66.5901 8.01403 68.1156 8.01403 71.7675C8.01403 73.6629 8.52255 75.4657 9.7707 76.9912C12.1745 79.9036 16.4737 81.4753 22.5757 81.9838C23.0842 82.03 23.5927 82.03 24.1012 82.03C31.8674 82.03 39.2638 77.6384 41.1129 71.8138C42.6846 66.9137 40.1421 61.7362 33.9939 57.1597C42.0374 54.1087 45.1347 49.6708 46.2903 46.4349C47.6309 42.6442 46.614 39.5932 46.5677 39.4546Z" fill="white"/>
<path opacity="0.4" d="M31.037 54.9407C24.334 51.7973 19.249 48.5614 15.9206 45.2792C12.962 42.3669 11.4827 39.547 11.4365 36.8196C11.3903 33.3063 13.9328 30.1166 18.5093 27.8515C19.3414 28.3137 20.266 28.8222 21.3754 29.4232C27.801 32.8903 38.5258 38.6687 38.6645 45.2792C38.7107 48.5614 36.1682 51.8435 31.037 54.9407ZM46.3382 39.4546C44.3505 32.5667 36.3993 27.6203 29.0954 23.2287C22.8085 19.4843 16.8451 15.9248 16.4753 11.9954C16.2904 10.1926 17.2612 8.34349 19.4339 6.40193C20.8669 5.10756 23.4557 4.04432 25.8595 4.04432C28.0322 4.04432 29.7888 4.92265 30.7596 6.21702C31.869 7.6963 32.1002 9.82276 31.3606 12.5964C31.2219 13.0125 31.4068 13.5672 31.8228 14.0757C32.6549 15.1389 34.4578 16.2021 36.6767 16.2021C37.8786 16.2021 39.0805 15.8786 40.19 15.2776L40.2362 15.2314L40.2825 15.1852C42.9174 12.4577 42.6863 10.0077 42.0391 8.43593C40.2362 4.22924 32.8861 1.03955 25.351 1.03955C16.013 1.03955 9.91102 5.70852 8.70911 13.7521C8.5242 14.954 8.70909 17.2191 9.95723 19.6692C10.8818 21.4721 12.7309 23.9221 15.5508 25.5863C10.1884 28.36 2.6533 32.5667 3.02312 41.3036C3.39294 49.301 11.5752 54.1549 19.5263 58.8701C26.5529 63.0305 33.2096 66.9599 33.2559 72.5996C32.1464 76.6676 27.5237 78.4705 23.5481 78.4705C20.7745 78.4705 18.4631 77.5922 17.4461 76.2516C19.1565 72.6459 18.5555 70.3345 17.7234 68.9939C16.7527 67.4222 14.8574 66.5901 12.8696 66.5901C10.3271 66.5901 7.78457 68.0693 7.78457 71.7675C7.78457 73.6629 8.24684 75.4657 9.5412 76.9912C11.945 79.9036 16.2442 81.4291 22.3462 81.9376C22.8547 81.9838 23.3632 81.9838 23.8717 81.9838C31.6379 81.9838 39.0343 77.5922 40.8834 71.8138C42.4551 66.9137 39.9126 61.7362 33.7644 57.1597C41.8079 54.1087 44.9052 49.6708 46.0609 46.4349C47.4477 42.6442 46.3845 39.5932 46.3382 39.4546Z" fill="white"/>
<path opacity="0.44" d="M30.8524 54.9409C24.1494 51.7974 19.0643 48.5615 15.736 45.2794C12.7774 42.3671 11.2982 39.5472 11.2519 36.8197C11.2057 33.3065 13.7482 30.1168 18.3247 27.8516C19.1568 28.3139 20.0814 28.8224 21.1908 29.4234C27.6164 32.8904 38.3412 38.6689 38.4799 45.2794C38.5724 48.5615 35.9836 51.8437 30.8524 54.9409ZM46.1536 39.4547C44.1659 32.5668 36.261 27.6205 28.957 23.2289C22.6701 19.4845 16.7068 15.9249 16.3369 11.9956C16.152 10.1927 17.1228 8.34365 19.2955 6.4021C20.7286 5.10773 23.3173 4.04449 25.7211 4.04449C27.8938 4.04449 29.6504 4.96906 30.6212 6.26342C31.7307 7.7427 31.9618 9.86915 31.2222 12.6428C31.1297 13.0588 31.2684 13.6136 31.6845 14.1221C32.5166 15.1853 34.3194 16.2486 36.5383 16.2486C37.7402 16.2486 38.9422 15.925 40.0516 15.324L40.0979 15.2778L40.1441 15.2315C42.7791 12.5041 42.5479 10.0541 41.9007 8.48234C40.0978 4.27564 32.7477 1.08594 25.2126 1.08594C15.8747 1.08594 9.81889 5.75492 8.61697 13.7523C8.43206 14.9542 8.61696 17.2193 9.8651 19.6694C10.7896 21.4722 12.6388 23.9223 15.5049 25.5865C10.1425 28.3601 2.6074 32.5668 2.97722 41.3038C3.34704 49.3012 11.5293 54.155 19.4804 58.8702C26.507 63.0307 33.1637 66.96 33.21 72.5998C32.1005 76.6678 27.4777 78.4707 23.5022 78.4707C20.7285 78.4707 18.4172 77.5924 17.4002 76.2518C19.1106 72.646 18.5096 70.3347 17.6775 68.9941C16.7068 67.4223 14.8114 66.6365 12.8237 66.6365C10.2811 66.6365 7.73864 68.1157 7.73864 71.8139C7.73864 73.7093 8.20089 75.5121 9.44903 77.0376C11.8529 79.95 16.152 81.4755 22.2541 81.984C22.7626 82.0302 23.2711 82.0302 23.7796 82.0302C31.5458 82.0302 38.8959 77.6848 40.745 71.8602C42.3168 66.96 39.7743 61.7826 33.626 57.206C41.6696 54.155 44.7668 49.7172 45.9225 46.4813C47.2169 42.6444 46.1999 39.5934 46.1536 39.4547Z" fill="white"/>
<path opacity="0.48" d="M30.6691 54.9407C23.9661 51.7973 18.8811 48.5614 15.5527 45.2792C12.5942 42.3669 11.1149 39.547 11.0687 36.8196C11.0225 33.3063 13.565 30.1166 18.1415 27.8515C18.9736 28.3137 19.8981 28.8222 21.0076 29.4232C27.4332 32.8903 38.158 38.6687 38.2966 45.2792C38.3891 48.5614 35.8004 51.8435 30.6691 54.9407ZM45.9242 39.4546C43.9364 32.5667 36.0777 27.6203 28.7738 23.2287C22.4868 19.4843 16.5235 15.9248 16.1537 11.9954C15.9688 10.1926 16.9396 8.34349 19.1122 6.40193C20.5453 5.10756 23.134 3.9981 25.5379 3.9981C27.7105 3.9981 29.4672 4.92265 30.438 6.21702C31.5474 7.6963 31.7786 9.82276 31.0389 12.5964C30.9465 13.0125 31.0852 13.5672 31.5012 14.0757C32.3333 15.1389 34.1362 16.2021 36.3551 16.2021C37.557 16.2021 38.7589 15.8786 39.8684 15.2776L39.9146 15.2314L39.9608 15.1852C42.5958 12.4577 42.3646 10.0077 41.7175 8.43593C39.9146 4.22924 32.5644 1.03955 24.9831 1.03955C15.6452 1.03955 9.58939 5.70851 8.38748 13.7059C8.20257 14.9078 8.38747 17.1729 9.63561 19.623C10.5602 21.4259 12.4555 23.8759 15.2754 25.5401C9.91298 28.3137 2.37791 32.5204 2.74773 41.2574C3.11755 49.2548 11.2998 54.1087 19.2509 58.8239C26.2775 62.9843 32.9343 66.9137 32.9805 72.5534C31.871 76.6214 27.2021 78.4243 23.2727 78.4243C20.4991 78.4243 18.1877 77.546 17.1707 76.2054C18.8811 72.5996 18.2801 70.2883 17.4481 68.9477C16.4773 67.3759 14.5819 66.5901 12.5942 66.5901C10.0517 66.5901 7.55539 68.0693 7.55539 71.7213C7.55539 73.6166 8.01767 75.4195 9.26581 76.945C11.6696 79.8573 15.9688 81.3828 22.0708 81.8913C22.5793 81.9376 23.0878 81.9376 23.5963 81.9376C31.3625 81.9376 38.7127 77.5922 40.5618 71.7675C42.1335 66.8674 39.591 61.69 33.4427 57.1134C41.4863 54.0624 44.5836 49.6246 45.7393 46.3887C47.0336 42.6443 45.9704 39.5932 45.9242 39.4546Z" fill="white"/>
<path opacity="0.52" d="M30.48 54.9409C23.777 51.7975 18.692 48.5615 15.3636 45.2794C12.4051 42.3671 10.9258 39.5472 10.8796 36.8198C10.8333 33.3065 13.3758 30.1168 17.9524 27.8516C18.7845 28.3139 19.709 28.8224 20.8185 29.4234C27.2441 32.8904 37.9688 38.6689 38.1075 45.2794C38.2 48.5615 35.6112 51.8437 30.48 54.9409ZM45.6888 39.4547C43.701 32.5668 35.8886 27.6205 28.5384 23.2289C22.2515 19.4845 16.2882 15.925 15.9183 11.9956C15.7334 10.1927 16.7042 8.34365 18.8769 6.4021C20.3099 5.10773 22.8987 3.99827 25.3025 3.99827C27.4752 3.99827 29.2319 4.92282 30.2026 6.21719C31.3121 7.69647 31.5432 9.82293 30.8036 12.5966C30.6649 13.0126 30.8498 13.5674 31.2659 14.0759C32.0979 15.1391 33.9008 16.2023 36.1197 16.2023C37.3217 16.2023 38.5236 15.8787 39.633 15.2778L39.6792 15.2315L39.7255 15.1853C42.3604 12.4579 42.1293 10.0078 41.4821 8.4361C39.6792 4.2294 32.2829 1.08594 24.7478 1.08594C15.3636 1.08594 9.40028 5.70869 8.19837 13.7523C8.01346 14.9542 8.15215 17.2193 9.40029 19.6694C10.3248 21.4722 12.2202 23.9223 15.04 25.5865C9.67766 28.3601 2.14256 32.5668 2.51238 41.3038C2.8822 49.3012 11.0645 54.155 19.0156 58.8702C26.0422 63.0307 32.6989 66.9601 32.7451 72.5998C31.6357 76.6678 26.9667 78.4707 22.9911 78.4707C20.2175 78.4707 17.9061 77.5924 16.8891 76.2518C18.5995 72.646 17.9986 70.3347 17.1665 68.9941C16.1957 67.4223 14.3004 66.6365 12.3126 66.6365C9.7701 66.6365 7.27383 68.0695 7.27383 71.7677C7.27383 73.663 7.68988 75.4659 8.93802 76.9914C11.3418 79.9037 15.641 81.383 21.743 81.8915C22.2515 81.9377 22.76 81.9377 23.2685 81.9377C31.0347 81.9377 38.3387 77.6386 40.234 71.8139C41.8057 66.9138 39.2632 61.7364 33.115 57.1598C41.1585 54.1088 44.2558 49.671 45.4115 46.4351C46.8445 42.6444 45.7351 39.5934 45.6888 39.4547Z" fill="white"/>
<path opacity="0.56" d="M30.2979 54.9409C23.5949 51.7974 18.5099 48.5615 15.1816 45.2794C12.223 42.3671 10.7437 39.5472 10.6975 36.8197C10.6513 33.3065 13.1938 30.1168 17.7703 27.8516C18.6024 28.3139 19.5269 28.8224 20.6364 29.4234C27.062 32.8904 37.7868 38.6689 37.9255 45.2794C38.0179 48.5615 35.4292 51.8437 30.2979 54.9409ZM45.5067 39.4547C43.519 32.5668 35.7065 27.6205 28.4026 23.2289C22.1157 19.4845 16.1523 15.9249 15.7825 11.9956C15.5976 10.1927 16.5684 8.34365 18.7411 6.4021C20.1741 5.10773 22.7628 3.95205 25.1667 3.95205C27.3394 3.95205 29.096 4.92282 30.0668 6.21719C31.1763 7.69646 31.4074 9.82293 30.6677 12.5966C30.5291 13.0126 30.714 13.5674 31.13 14.0759C31.9621 15.1391 33.765 16.2023 35.9839 16.2023C37.1858 16.2023 38.3877 15.8787 39.4972 15.2778L39.5434 15.2315L39.5896 15.1853C42.2246 12.4579 41.9935 10.0078 41.3463 8.4361C39.5434 4.2294 32.147 1.08594 24.612 1.08594C15.2278 1.08594 9.26444 5.70869 8.06253 13.7523C7.87762 14.9542 8.01631 17.2193 9.26445 19.6694C10.189 21.4722 12.1305 23.9223 14.9504 25.5865C9.58803 28.3601 2.05296 32.5668 2.42278 41.3038C2.7926 49.3012 10.9749 54.155 18.926 58.8702C25.9525 63.0307 32.6093 66.96 32.6555 72.5998C31.5461 76.6678 26.8309 78.4707 22.9015 78.4707C20.1279 78.4707 17.8165 77.5924 16.7995 76.2518C18.5099 72.646 17.909 70.3347 17.0769 68.9941C16.1061 67.4223 14.2108 66.6827 12.223 66.6827C9.6805 66.6827 7.1842 68.1157 7.1842 71.8139C7.1842 73.7093 7.60025 75.5121 8.84839 77.0376C11.2522 79.95 15.5514 81.4292 21.6534 81.9377C22.1619 81.984 22.6704 81.984 23.1789 81.984C30.9451 81.984 38.2491 77.6848 40.0981 71.8602C41.6699 66.96 39.1274 61.7826 32.9791 57.206C41.0227 54.155 44.1199 49.7172 45.2756 46.4813C46.6624 42.6444 45.553 39.5934 45.5067 39.4547Z" fill="white"/>
<path opacity="0.6" d="M30.1121 54.9409C23.4091 51.7974 18.3241 48.5615 14.9958 45.2794C12.0372 42.3671 10.5579 39.5472 10.5117 36.8197C10.4655 33.3065 13.008 30.1168 17.5845 27.8516C18.4166 28.3139 19.3411 28.8224 20.4506 29.4234C26.8762 32.8904 37.601 38.6689 37.7397 45.2794C37.8321 48.5615 35.2434 51.8437 30.1121 54.9409ZM45.2747 39.4547C43.2869 32.5668 35.5208 27.6205 28.2168 23.2289C21.9299 19.4845 15.9665 15.9249 15.5967 11.9956C15.4118 10.1927 16.3826 8.34365 18.5553 6.4021C19.9883 5.10773 22.5771 3.95205 24.9809 3.95205C27.1536 3.95205 28.9102 4.92282 29.881 6.21719C30.9905 7.69646 31.2216 9.82293 30.482 12.5966C30.3895 13.0126 30.5282 13.5674 30.9442 14.0759C31.7763 15.1391 33.5792 16.2023 35.7981 16.2023C37 16.2023 38.202 15.8787 39.3114 15.2778L39.3576 15.2315L39.4039 15.1853C42.0388 12.4579 41.8077 10.0078 41.1605 8.4361C39.3576 4.2294 31.9612 1.08594 24.4262 1.08594C15.042 1.08594 9.12489 5.70868 7.92298 13.706C7.73807 14.9079 7.83052 17.1731 9.07866 19.6232C10.0032 21.426 11.9447 23.8761 14.7646 25.5403C9.40223 28.3139 1.86717 32.5206 2.23699 41.2576C2.6068 49.2549 10.7891 54.1088 18.7402 58.824C25.7668 62.9845 32.4235 66.9138 32.4697 72.5536C31.3603 76.6216 26.6451 78.4244 22.7157 78.4244C19.9421 78.4244 17.6307 77.5461 16.6137 76.2055C18.3241 72.5998 17.7232 70.2884 16.8911 68.9478C15.9203 67.3761 14.025 66.6365 12.0372 66.6365C9.49471 66.6365 7.04464 68.0233 7.04464 71.7215C7.04464 73.6168 7.41447 75.4197 8.70883 76.9452C11.1127 79.8575 15.4118 81.3368 21.5138 81.7991C22.0223 81.8453 22.5308 81.8453 23.0393 81.8453C30.8055 81.8453 38.1095 77.5461 39.9586 71.7677C41.5303 66.8676 38.9878 61.6901 32.8396 57.1136C40.8831 54.0626 43.9804 49.6248 45.136 46.3888C46.4304 42.6444 45.3209 39.5934 45.2747 39.4547Z" fill="white"/>
<path opacity="0.64" d="M29.9259 54.9411C23.2229 51.7976 18.1379 48.5617 14.8095 45.2795C11.851 42.3672 10.3717 39.5473 10.3255 36.8199C10.2792 33.3066 12.8218 30.1169 17.3983 27.8518C18.2304 28.3141 19.1549 28.8226 20.2644 29.4235C26.69 32.8906 37.4148 38.669 37.5534 45.2795C37.6459 48.5617 35.1034 51.8438 29.9259 54.9411ZM45.0423 39.4549C43.0545 32.567 35.3345 27.6206 28.0306 23.229C21.7437 19.4846 15.7803 15.9251 15.4105 11.9958C15.2256 10.1929 16.1964 8.3438 18.369 6.40225C19.8021 5.10788 22.3909 3.9522 24.7947 3.9522C26.9674 3.9522 28.724 4.9692 29.6948 6.26357C30.8042 7.74285 31.0354 9.8693 30.2957 12.6429C30.2033 13.059 30.342 13.6137 30.758 14.1222C31.5901 15.1855 33.393 16.2487 35.6119 16.2487C36.8138 16.2487 38.0157 15.9251 39.1252 15.3241L39.1714 15.2779L39.2176 15.2317C41.8526 12.5043 41.6215 10.0542 40.9743 8.48249C39.1714 4.27579 31.775 1.13232 24.2399 1.13232C14.902 1.13232 8.9849 5.75507 7.78299 13.7524C7.59808 14.9543 7.69053 17.2195 8.93867 19.6695C9.86322 21.4724 11.8048 23.9225 14.6709 25.5866C9.30848 28.3603 1.77342 32.567 2.14324 41.304C2.51305 49.3013 10.6953 54.1552 18.6464 58.8704C25.673 63.0309 32.3298 66.9602 32.376 72.5999C31.2665 76.668 26.5513 78.4708 22.5758 78.4708C19.8021 78.4708 17.4907 77.5925 16.4737 76.2519C18.1841 72.6462 17.5832 70.3348 16.7511 68.9942C15.7803 67.4225 13.885 66.6828 11.8972 66.6828C9.35472 66.6828 6.90466 68.0697 6.90466 71.7678C6.90466 73.6632 7.27447 75.466 8.52261 76.9916C10.9264 79.9039 15.2256 81.3369 21.3276 81.8454C21.8361 81.8917 22.3446 81.8917 22.8531 81.8917C30.6193 81.8917 37.877 77.6387 39.7261 71.8141C41.2979 66.914 38.7554 61.7365 32.6071 57.16C40.6507 54.109 43.7479 49.6711 44.9036 46.4352C46.2442 42.6446 45.0885 39.5936 45.0423 39.4549Z" fill="white"/>
<path opacity="0.68" d="M29.7401 54.9411C23.0372 51.7976 17.9521 48.5617 14.6238 45.2795C11.6652 42.3672 10.1859 39.5473 10.1397 36.8199C10.0935 33.3066 12.636 30.1169 17.2125 27.8518C18.0446 28.3141 18.9691 28.8226 20.0786 29.4235C26.5042 32.8906 37.229 38.669 37.3676 45.2795C37.4601 48.5617 34.9176 51.8438 29.7401 54.9411ZM44.8565 39.4549C42.8687 32.567 35.195 27.6206 27.8448 23.229C21.5579 19.4846 15.5945 15.9251 15.2247 11.9958C15.0398 10.1929 16.0106 8.3438 18.1833 6.40225C19.6163 5.10788 22.2051 3.90596 24.6089 3.90596C26.7816 3.90596 28.5382 4.92297 29.509 6.21734C30.6185 7.69661 30.8496 9.82308 30.1099 12.5967C29.9713 13.0128 30.1562 13.5675 30.5722 14.076C31.4043 15.1392 33.2072 16.2025 35.4261 16.2025C36.628 16.2025 37.8299 15.8789 38.9394 15.2779L38.9856 15.2317L39.0318 15.1855C41.6668 12.4581 41.4357 10.008 40.7885 8.43625C38.9856 4.22955 31.5892 1.13232 24.0542 1.13232C14.7162 1.13232 8.79911 5.70884 7.5972 13.7524C7.41229 14.9543 7.50474 17.2195 8.75288 19.6695C9.67743 21.4724 11.6652 23.9225 14.4851 25.5866C9.12269 28.3603 1.58762 32.567 1.95744 41.304C2.32726 49.3013 10.5095 54.1552 18.4606 58.8704C25.4872 63.0309 32.144 66.9602 32.1902 72.5999C31.0807 76.668 26.3193 78.4708 22.39 78.4708C19.6163 78.4708 17.3049 77.5925 16.2879 76.2519C17.9984 72.6462 17.3974 70.3348 16.5653 68.9942C15.5945 67.4225 13.6992 66.7291 11.7114 66.7291C9.16893 66.7291 6.7651 68.1159 6.7651 71.7678C6.7651 73.6632 7.13491 75.466 8.38306 76.9916C10.7869 79.9039 15.086 81.3369 21.188 81.8454C21.6965 81.8917 22.2051 81.8917 22.7136 81.8917C30.4798 81.8917 37.7375 77.6387 39.5866 71.8141C41.1583 66.914 38.6158 61.7365 32.4675 57.16C40.5111 54.109 43.6084 49.6711 44.7641 46.4352C46.0584 42.6446 44.9027 39.5936 44.8565 39.4549Z" fill="white"/>
<path opacity="0.72" d="M29.5597 54.9411C22.8567 51.7976 17.7717 48.5617 14.4433 45.2795C11.4848 42.3672 10.0055 39.5473 9.95927 36.8199C9.91304 33.3066 12.4556 30.1169 17.0321 27.8518C17.8642 28.3141 18.7887 28.8226 19.8982 29.4235C26.3238 32.8906 37.0485 38.669 37.1872 45.2795C37.2797 48.5617 34.7372 51.8438 29.5597 54.9411ZM44.6298 39.4549C42.6421 32.567 35.0145 27.6206 27.6644 23.229C21.3775 19.4846 15.4141 15.9251 15.0443 11.9958C14.8594 10.1929 15.8302 8.3438 18.0029 6.40225C19.4359 5.10788 22.0247 3.90596 24.4285 3.90596C26.6012 3.90596 28.3578 4.92297 29.3286 6.21734C30.438 7.69661 30.6692 9.82308 29.9295 12.5967C29.7908 13.0128 29.9758 13.5675 30.3918 14.076C31.2239 15.1392 33.0268 16.2025 35.2457 16.2025C36.4476 16.2025 37.6495 15.8789 38.759 15.2779L38.8052 15.2317L38.8514 15.1855C41.4864 12.4581 41.2553 10.008 40.6081 8.43625C38.8052 4.22955 31.4088 1.13232 23.8737 1.13232C14.5358 1.13232 8.66493 5.70884 7.46301 13.7524C7.2781 14.9543 7.32432 17.2195 8.57246 19.6695C9.49701 21.4724 11.4848 23.9225 14.3047 25.5866C8.94227 28.3603 1.4072 32.567 1.77702 41.304C2.14684 49.3013 10.3291 54.1552 18.2802 58.8704C25.3068 63.0309 31.9635 66.9602 32.0098 72.5999C30.9003 76.668 26.1389 78.4708 22.1633 78.4708C19.3897 78.4708 17.0783 77.5925 16.0613 76.2519C17.7717 72.6462 17.1708 70.3348 16.3387 68.9942C15.3679 67.4225 13.4726 66.7291 11.4848 66.7291C8.94227 66.7291 6.53844 68.0697 6.53844 71.7678C6.53844 73.6632 6.86205 75.466 8.1102 76.9916C10.514 79.9039 14.8132 81.2907 20.9152 81.7992C21.4237 81.8454 21.9322 81.8454 22.4407 81.8454C30.2069 81.8454 37.4646 77.5925 39.3137 71.8141C40.8855 66.914 38.3429 61.7365 32.1947 57.16C40.2383 54.109 43.3355 49.6711 44.4912 46.4352C45.878 42.6446 44.6761 39.5936 44.6298 39.4549Z" fill="white"/>
<path opacity="0.76" d="M29.4214 54.9411C22.7184 51.7976 17.6334 48.5617 14.305 45.2795C11.3464 42.3672 9.86716 39.5473 9.82093 36.8199C9.7747 33.3066 12.3172 30.1169 16.8937 27.8518C17.7258 28.3141 18.6504 28.8226 19.7598 29.4235C26.1855 32.8906 36.9102 38.669 37.0489 45.2795C37.1413 48.5617 34.5526 51.8438 29.4214 54.9411ZM44.3991 39.4549C42.4113 32.567 34.7837 27.6206 27.4798 23.229C21.1929 19.4846 15.2296 15.9251 14.8597 11.9958C14.6748 10.1929 15.6456 8.3438 17.8183 6.40225C19.2513 5.10788 21.8401 3.85974 24.2439 3.85974C26.4166 3.85974 28.1732 4.92297 29.144 6.21734C30.2535 7.69661 30.4846 9.82308 29.745 12.5967C29.6525 13.0128 29.7912 13.5675 30.2073 14.076C31.0393 15.1392 32.8422 16.2025 35.0611 16.2025C36.263 16.2025 37.4649 15.8789 38.5744 15.2779L38.6206 15.2317L38.6669 15.1855C41.3018 12.4581 41.0707 10.008 40.4235 8.43625C38.6206 4.22955 31.2243 1.13232 23.643 1.13232C14.305 1.13232 8.43412 5.70883 7.23221 13.7062C7.0473 14.9081 7.09351 17.1732 8.34166 19.6233C9.2662 21.4262 11.3002 23.8762 14.1201 25.5404C8.7577 28.3141 1.22263 32.5208 1.59245 41.2577C1.96227 49.2551 10.1445 54.109 18.0956 58.8242C25.1222 62.9846 31.779 66.914 31.8252 72.5537C30.7157 76.6217 25.9081 78.4246 21.9788 78.4246C19.2051 78.4246 16.8938 77.5463 15.8768 76.2057C17.5872 72.5999 16.9862 70.2886 16.1541 68.948C15.1833 67.3762 13.288 66.7291 11.3002 66.7291C8.7577 66.7291 6.35387 68.0697 6.35387 71.7678C6.35387 73.6632 6.67748 75.466 7.92563 76.9916C10.3295 79.9039 14.6286 81.2907 20.7306 81.7992C21.2391 81.8454 21.7476 81.8454 22.2561 81.8454C30.0223 81.8454 37.2338 77.6387 39.0829 71.8141C40.6546 66.914 38.1121 61.7365 31.9639 57.16C40.0075 54.109 43.1047 49.6711 44.2604 46.4352C45.6472 42.6446 44.4453 39.5936 44.3991 39.4549Z" fill="white"/>
<path opacity="0.8" d="M29.2332 54.9411C22.5302 51.7976 17.4452 48.5617 14.1168 45.2795C11.1583 42.3672 9.67898 39.5473 9.63275 36.8199C9.58653 33.3066 12.1291 30.1169 16.7056 27.8518C17.5377 28.3141 18.4622 28.8226 19.5717 29.4235C25.9973 32.8906 36.722 38.669 36.8607 45.2795C36.9532 48.5617 34.3645 51.8438 29.2332 54.9411ZM44.2109 39.4549C42.2231 32.567 34.6418 27.6206 27.3379 23.229C21.0509 19.4846 15.0876 15.9251 14.7178 11.9958C14.5329 10.1929 15.5037 8.3438 17.6764 6.40225C19.1094 5.10788 21.6981 3.85974 24.102 3.85974C26.2747 3.85974 28.0313 4.92297 29.0021 6.21734C30.1115 7.69661 30.3426 9.82308 29.603 12.5967C29.4643 13.0128 29.6493 13.5675 30.0653 14.076C30.8974 15.1392 32.7003 16.2025 34.9192 16.2025C36.1211 16.2025 37.323 15.8789 38.4325 15.2779L38.4787 15.2317L38.5249 15.1855C41.1599 12.4581 40.9288 10.008 40.2816 8.43625C38.4787 4.22955 31.0823 1.13232 23.501 1.13232C14.163 1.13232 8.33838 5.70883 7.13647 13.7062C6.95156 14.9081 6.99781 17.1732 8.24595 19.6233C9.1705 21.4262 11.2045 23.8762 14.0244 25.5404C8.662 28.3141 1.12693 32.5208 1.49675 41.2577C1.86657 49.2551 10.0488 54.109 17.9999 58.8242C25.0265 62.9846 31.6833 66.914 31.7295 72.5537C30.62 76.6217 25.8124 78.4246 21.883 78.4246C19.1094 78.4246 16.798 77.5463 15.781 76.2057C17.4914 72.5999 16.8905 70.2886 16.0584 68.948C15.0876 67.3762 13.1923 66.7291 11.2045 66.7291C8.662 66.7291 6.30441 68.0697 6.30441 71.7216C6.30441 73.617 6.62798 75.4198 7.87612 76.9453C10.28 79.8576 14.5791 81.2445 20.6811 81.753C21.1896 81.7992 21.6981 81.7992 22.2066 81.7992C29.9728 81.7992 37.1843 77.5925 39.0334 71.7678C40.6051 66.8677 38.0626 61.6903 31.9144 57.1138C39.958 54.0627 43.0552 49.6249 44.2109 46.389C45.459 42.6446 44.2571 39.5936 44.2109 39.4549Z" fill="white"/>
<path opacity="0.84" d="M29.0503 54.9412C22.3473 51.7978 17.2623 48.5618 13.9339 45.2797C10.9753 42.3674 9.49607 39.5475 9.44984 36.8201C9.40361 33.3068 11.9461 30.1171 16.5227 27.8519C17.3548 28.3142 18.2793 28.8227 19.3887 29.4237C25.8144 32.8907 36.5392 38.6692 36.6778 45.2797C36.7703 48.5618 34.1815 51.844 29.0503 54.9412ZM43.9817 39.455C41.994 32.5672 34.4589 27.6208 27.1088 23.2292C20.8218 19.4848 14.8585 15.9253 14.4886 11.9959C14.3037 10.1931 15.2745 8.34397 17.4472 6.40242C18.8803 5.10805 21.469 3.85991 23.8728 3.85991C26.0455 3.85991 27.8021 4.96936 28.7729 6.2175C29.8824 7.69678 30.1135 9.82325 29.3739 12.5969C29.2352 13.0129 29.4201 13.5677 29.8362 14.0762C30.6683 15.1394 32.4711 16.2026 34.6901 16.2026C35.892 16.2026 37.0939 15.879 38.2033 15.2781L38.2495 15.2319L38.2958 15.1856C40.9308 12.4582 40.6996 10.0082 40.0524 8.43642C38.2495 4.22972 30.8069 1.17871 23.2719 1.17871C13.8877 1.17871 8.10926 5.70901 6.90735 13.7526C6.72244 15.0007 6.72242 17.2659 7.97056 19.7159C8.89511 21.5188 10.9291 23.9688 13.749 25.633C8.38661 28.4067 0.851541 32.6134 1.22136 41.3504C1.59118 49.3477 9.77343 54.2016 17.7246 58.9168C24.7511 63.0773 31.4079 67.0066 31.4541 72.6463C30.3447 76.7143 25.537 78.5172 21.5614 78.5172C18.7878 78.5172 16.4764 77.6389 15.4594 76.2983C17.1698 72.6926 16.5689 70.3812 15.7368 69.0406C14.766 67.4689 12.8707 66.8217 10.8829 66.8217C8.3404 66.8217 5.98278 68.1161 5.98278 71.8143C5.98278 73.7096 6.26015 75.5124 7.50829 77.0379C9.91212 79.9503 14.2113 81.2909 20.3133 81.7994C20.8218 81.8456 21.3303 81.8456 21.8388 81.8456C29.605 81.8456 36.7703 77.6851 38.6194 71.8605C40.1911 66.9604 37.6486 61.7829 31.5003 57.2064C39.5439 54.1554 42.6411 49.7175 43.7968 46.4816C45.2761 42.6447 44.028 39.5937 43.9817 39.455Z" fill="white"/>
<path opacity="0.88" d="M28.8618 54.9412C22.1588 51.7978 17.0738 48.5618 13.7454 45.2797C10.7868 42.3674 9.30758 39.5475 9.26136 36.8201C9.21513 33.3068 11.7576 30.1171 16.3342 27.8519C17.1662 28.3142 18.0908 28.8227 19.2002 29.4237C25.6258 32.8907 36.3506 38.6692 36.4893 45.2797C36.5818 48.5618 33.993 51.844 28.8618 54.9412ZM43.7932 39.455C41.8054 32.5672 34.3166 27.6208 26.9664 23.2292C20.6795 19.4848 14.7162 15.9253 14.3464 11.9959C14.1615 10.1931 15.1322 8.34397 17.3049 6.40242C18.738 5.10805 21.3267 3.81367 23.7305 3.81367C25.9032 3.81367 27.6599 4.92313 28.6306 6.2175C29.7401 7.69678 29.9713 9.82325 29.2316 12.5969C29.0929 13.0129 29.2778 13.5677 29.6939 14.0762C30.526 15.1394 32.3288 16.2026 34.5477 16.2026C35.7497 16.2026 36.9516 15.879 38.061 15.2781L38.1073 15.2319L38.1535 15.1856C40.7885 12.4582 40.5573 10.0082 39.9101 8.43642C38.1073 4.22972 30.6647 1.17871 23.1296 1.17871C13.7916 1.17871 8.01319 5.70901 6.81127 13.7526C6.62636 14.9545 6.62638 17.2196 7.87452 19.6697C8.79907 21.4726 10.8793 23.9226 13.6992 25.5868C8.3368 28.3605 0.801736 32.5671 1.17156 41.3041C1.54137 49.3015 9.72363 54.1554 17.6747 58.8706C24.7013 63.031 31.358 66.9604 31.4043 72.6001C30.2948 76.6681 25.4409 78.471 21.5116 78.471C18.738 78.471 16.4266 77.5927 15.4096 76.2521C17.12 72.6463 16.5191 70.335 15.687 68.9944C14.7162 67.4226 12.8209 66.8217 10.8331 66.8217C8.29056 66.8217 5.97918 68.1161 5.97918 71.768C5.97918 73.6633 6.25655 75.4662 7.50469 76.9917C9.90852 79.9041 14.2077 81.2446 20.3097 81.7531C20.8182 81.7994 21.3267 81.7994 21.8352 81.7994C29.6014 81.7994 36.7667 77.6389 38.6158 71.8143C40.1875 66.9141 37.645 61.7367 31.4967 57.1601C39.5403 54.1091 42.6375 49.6713 43.7932 46.4354C45.0414 42.6447 43.7932 39.5937 43.7932 39.455Z" fill="white"/>
<path opacity="0.92" d="M28.6785 54.9412C21.9755 51.7978 16.8905 48.5618 13.5622 45.2797C10.6036 42.3674 9.12433 39.5475 9.0781 36.8201C9.03187 33.3068 11.5744 30.1171 16.1509 27.8519C16.983 28.3142 17.9076 28.8227 19.017 29.4237C25.4426 32.8907 36.1674 38.6692 36.3061 45.2797C36.3985 48.5618 33.8098 51.844 28.6785 54.9412ZM43.5638 39.455C41.576 32.5672 34.1334 27.6208 26.7832 23.2292C20.4963 19.4848 14.5329 15.9253 14.1631 11.9959C13.9782 10.1931 14.949 8.34397 17.1217 6.40242C18.5547 5.10805 21.1435 3.81367 23.5473 3.81367C25.72 3.81367 27.4766 4.92313 28.4474 6.2175C29.5568 7.69678 29.788 9.82325 29.0484 12.5969C28.9559 13.0129 29.0946 13.5677 29.5106 14.0762C30.3427 15.1394 32.1456 16.2026 34.3645 16.2026C35.5664 16.2026 36.7683 15.879 37.8778 15.2781L37.924 15.2319L37.9703 15.1856C40.6052 12.4582 40.3741 10.0082 39.7269 8.43642C37.924 4.22972 30.4814 1.17871 22.9463 1.17871C13.6084 1.17871 7.82997 5.709 6.62805 13.7063C6.44314 14.9083 6.39689 17.1734 7.64503 19.6235C8.56958 21.4263 10.6498 23.8764 13.4697 25.5406C8.10731 28.3142 0.572244 32.5209 0.942063 41.2579C1.31188 49.2553 9.49414 54.1091 17.4453 58.8243C24.4718 62.9848 31.1286 66.9141 31.1748 72.5539C30.0654 76.6219 25.2115 78.4248 21.2359 78.4248C18.4623 78.4248 16.1509 77.5464 15.1339 76.2058C16.8443 72.6001 16.2433 70.2887 15.4112 68.9481C14.4405 67.3764 12.5452 66.7755 10.5574 66.7755C8.01487 66.7755 5.70348 68.0236 5.70348 71.7218C5.70348 73.6171 5.93462 75.42 7.18276 76.9455C9.58659 79.8578 13.8858 81.1522 19.9878 81.6607C20.4963 81.7069 21.0048 81.7069 21.5133 81.7069C29.2795 81.7069 36.4447 77.5464 38.2938 71.768C39.8656 66.8679 37.3231 61.6904 31.1748 57.1139C39.2184 54.0629 42.3156 49.6251 43.4713 46.3892C44.8581 42.6447 43.61 39.5937 43.5638 39.455Z" fill="white"/>
<path opacity="0.96" d="M28.4962 54.9409C21.7932 51.7974 16.7082 48.5615 13.3799 45.2794C10.4213 42.367 8.94201 39.5471 8.89578 36.8197C8.84956 33.3064 11.3921 30.1168 15.9686 27.8516C16.8007 28.3139 17.7252 28.8224 18.8347 29.4233C25.2603 32.8904 35.9851 38.6688 36.1237 45.2794C36.2162 48.5615 33.6275 51.8437 28.4962 54.9409ZM43.3352 39.4547C41.3474 32.5668 33.9048 27.6205 26.6009 23.2289C20.314 19.4844 14.3506 15.9249 13.9808 11.9956C13.7959 10.1927 14.7667 8.34363 16.9394 6.40208C18.3724 5.10771 20.9611 3.81333 23.365 3.81333C25.5377 3.81333 27.2943 4.96903 28.2651 6.2634C29.3746 7.74268 29.6057 9.86913 28.866 12.6428C28.7274 13.0588 28.9123 13.6136 29.3283 14.1221C30.1604 15.1853 31.9633 16.2485 34.1822 16.2485C35.3841 16.2485 36.586 15.9249 37.6955 15.324L37.7417 15.2777L37.7879 15.2315C40.4229 12.5041 40.1918 10.054 39.5446 8.48232C37.7417 4.27562 30.2991 1.22461 22.764 1.22461C13.4261 1.22461 7.69385 5.75489 6.49194 13.7522C6.30703 14.9542 6.26081 17.2193 7.50895 19.6693C8.4335 21.4722 10.56 23.9223 13.3799 25.5865C8.01747 28.3601 0.4824 32.5668 0.852219 41.3038C1.22204 49.3011 9.40429 54.155 17.3554 58.8702C24.382 63.0307 31.0387 66.96 31.0849 72.5998C29.9755 76.6678 25.1216 78.4707 21.1461 78.4707C18.3724 78.4707 16.061 77.5923 15.044 76.2517C16.7545 72.646 16.1535 70.3346 15.3214 68.994C14.3506 67.4223 12.4553 66.8676 10.4675 66.8676C7.92499 66.8676 5.61364 68.1157 5.61364 71.8139C5.61364 73.7092 5.84478 75.5121 7.09292 77.0376C9.49674 79.9499 13.7959 81.2443 19.8979 81.7528C20.4064 81.799 20.9149 81.799 21.4234 81.799C29.1896 81.799 36.3087 77.6848 38.1578 71.8601C39.7295 66.96 37.187 61.7825 31.0387 57.206C39.0823 54.155 42.1795 49.7172 43.3352 46.4813C44.6758 42.6444 43.3814 39.5934 43.3352 39.4547Z" fill="white"/>
<path d="M28.3094 54.9411C21.6064 51.7977 16.5214 48.5618 13.193 45.2796C10.2345 42.3673 8.75518 39.5474 8.70896 36.82C8.66273 33.3067 11.2052 30.117 15.7817 27.8519C16.6138 28.3141 17.5384 28.8226 18.6479 29.4236C25.0735 32.8906 35.7982 38.6691 35.9369 45.2796C36.0294 48.5618 33.4869 51.8439 28.3094 54.9411ZM43.1484 39.455C41.1606 32.5671 33.7642 27.6207 26.4603 23.2291C20.1733 19.4847 14.21 15.9252 13.8402 11.9958C13.6553 10.193 14.6261 8.34387 16.7988 6.40232C18.2318 5.10795 20.8205 3.76736 23.2244 3.76736C25.3971 3.76736 27.1537 4.92304 28.1245 6.21741C29.2339 7.69669 29.4651 9.82315 28.7254 12.5968C28.5868 13.0128 28.7717 13.5676 29.1877 14.0761C30.0198 15.1393 31.8227 16.2025 34.0416 16.2025C35.2435 16.2025 36.4454 15.8789 37.5549 15.278L37.6011 15.2318L37.6473 15.1855C40.2823 12.4581 40.0512 10.0081 39.404 8.43632C37.6011 4.22963 30.1585 1.22485 22.6234 1.22485C13.2855 1.22485 7.55326 5.70891 6.35135 13.7525C6.16644 14.9544 6.12022 17.2195 7.36836 19.6696C8.29291 21.4725 10.4194 23.9225 13.2393 25.5867C7.87688 28.3604 0.341775 32.5671 0.711594 41.304C1.08141 49.3014 9.26367 54.1553 17.2148 58.8705C24.2414 63.0309 30.8981 66.9603 30.9443 72.6C29.8349 76.668 24.9348 78.4709 21.0054 78.4709C18.2318 78.4709 15.9204 77.5926 14.9034 76.252C16.6138 72.6463 16.0129 70.3349 15.1808 68.9943C14.21 67.4226 12.3147 66.8678 10.3269 66.8678C7.7844 66.8678 5.51925 68.116 5.51925 71.7679C5.51925 73.6633 5.70416 75.4661 6.99853 76.9916C9.35613 79.904 13.7015 81.1983 19.8036 81.7068C20.3121 81.7531 20.8206 81.7531 21.3291 81.7531C29.0953 81.7531 36.2143 77.6388 38.0634 71.8142C39.6351 66.9141 37.0926 61.7366 30.9443 57.1601C38.9879 54.109 42.0852 49.6712 43.2409 46.4353C44.489 42.6446 43.1484 39.5936 43.1484 39.455Z" fill="white"/>
<path d="M43.5646 39.4545C41.5768 32.5666 33.7181 27.6203 26.4142 23.2286C20.1273 19.4842 14.1639 15.9247 13.7941 11.9954C13.6092 10.1925 14.5799 8.34341 16.7526 6.40186C18.1857 5.10749 20.9593 3.99803 23.3169 3.99803C25.4896 3.99803 27.0614 4.96882 28.0321 6.26318C29.1416 7.74246 29.3727 9.86891 28.6331 12.6426C28.4944 13.0586 28.6793 13.6133 29.0954 14.1218C29.9274 15.1851 31.7303 16.2483 33.9492 16.2483C35.1512 16.2483 36.3531 15.9247 37.4625 15.3238L37.5088 15.2775L37.555 15.2313C40.1899 12.5039 39.9588 10.0538 39.3116 8.4821C37.5088 4.2754 30.2048 0.947021 22.6697 0.947021C13.2856 0.947021 6.99867 5.75468 5.79675 13.752C5.61185 14.9539 5.98165 17.2191 7.22979 19.6691C8.15434 21.472 9.81852 23.9221 12.6384 25.5863C7.27601 28.3599 -0.259055 32.5666 0.110764 41.3036C0.480584 49.3009 8.66284 54.1548 16.614 58.87C23.6405 63.0305 30.2973 66.9598 30.3435 72.5996C29.2341 76.6676 24.7962 78.4704 20.8207 78.4704C18.047 78.4704 15.7357 77.5921 14.7187 76.2515C16.4291 72.6458 15.8281 70.3344 14.996 68.9938C14.0252 67.4221 12.1299 66.4051 10.1421 66.4051C7.5996 66.4051 4.87218 68.0693 4.87218 71.7675C4.87218 73.6628 5.51939 75.4657 6.76753 76.9912C9.12513 79.9035 13.4705 81.6139 19.5725 82.1224C20.081 82.1686 20.5895 82.1686 21.098 82.1686C28.8642 82.1686 36.4455 77.6384 38.2946 71.8137C39.8664 66.9136 37.3239 61.7361 31.1756 57.1596C39.2192 54.1086 41.8541 49.6707 43.0098 46.4348C44.4891 42.6442 43.6108 39.5932 43.5646 39.4545ZM28.3095 54.9407C21.6065 51.7972 16.5215 48.5613 13.1931 45.2791C10.2346 42.3668 8.7553 39.5469 8.70907 36.8195C8.66284 33.3062 11.2053 30.1165 15.7819 27.8514C16.614 28.3137 17.5385 28.8222 18.648 29.4231C25.0736 32.8902 35.7984 38.6686 35.937 45.2791C36.0295 48.5613 33.487 51.8434 28.3095 54.9407Z" fill="white"/>
</g>
</svg>
