<svg width="48" height="47" viewBox="0 0 48 47" fill="none" xmlns="http://www.w3.org/2000/svg">
<path d="M26.8492 34.8522C26.8492 34.8522 27.0892 15.2673 20.6106 6.00196C14.132 -3.26339 2.79939 1.41637 4.96746 12.3228C7.13832 23.2291 26.9671 39.2102 26.8492 34.8522Z" fill="#C3922E"/>
<path d="M23.3383 38.5315C23.3383 38.5315 10.3239 32.7034 4.96501 34.2558C-0.39386 35.8082 -1.07908 47.3868 6.50641 46.9296C14.0975 46.4723 26.1746 40.1018 23.3383 38.5315Z" fill="#C3922E"/>
<path d="M38.8375 32.4075C38.8375 32.4075 46.8478 20.6102 46.2547 15.0626C45.6616 9.51502 34.3803 6.81924 33.5065 14.3681C32.6317 21.9224 36.7962 34.9261 38.8375 32.4075Z" fill="#C3922E"/>
</svg>
