<svg width="80" height="80" viewBox="0 0 80 80" fill="none" xmlns="http://www.w3.org/2000/svg">
<path d="M20.3953 80H58.3744V73.2463H20.3953V80ZM53.351 64.3767C52.9603 64.1985 52.7348 63.8429 52.551 63.2402C52.3755 62.6479 52.3105 61.8608 52.312 61.1706C52.312 60.7094 52.3381 60.2918 52.3643 59.9939C52.3904 59.6969 52.4128 59.537 52.4128 59.537L52.5704 58.4337H26.3509L26.5078 59.5353C26.5078 59.5353 26.531 59.696 26.5571 59.993C26.5825 60.2918 26.6087 60.7094 26.6087 61.1706C26.6101 61.8608 26.5444 62.6479 26.3696 63.2402C26.1859 63.8429 25.9588 64.1967 25.5689 64.3749C25.5554 64.3828 24.3379 64.8615 23.0732 65.9037C22.4398 66.4279 21.7907 67.0936 21.2775 67.9558C20.7666 68.8128 20.3938 69.8987 20.3946 71.1523V72.0826H58.5268V71.1523C58.5283 69.8987 58.1548 68.8128 57.6431 67.9558C56.1596 65.5124 53.6035 64.4946 53.351 64.3767ZM27.6843 63.9084C27.9532 62.9763 28.0145 61.9988 28.0159 61.1706C28.0159 60.8526 28.0062 60.5565 27.9913 60.2944H50.9293C50.9151 60.5565 50.9047 60.8526 50.9039 61.1706C50.9069 61.9988 50.9682 62.9763 51.2363 63.9084C51.3781 64.4222 51.6053 64.8981 51.9049 65.3088H27.0143C27.315 64.8988 27.5428 64.4227 27.6843 63.9084ZM21.9169 70.221C22.0163 69.8297 22.1754 69.461 22.386 69.1037C22.935 68.1698 23.8456 67.3958 24.6187 66.8935C24.9971 66.647 25.3882 66.4284 25.79 66.2392H53.1299C53.5587 66.4366 54.6037 66.98 55.503 67.8361C56.2067 68.5053 56.7721 69.3064 57.0045 70.221H21.9169ZM53.3637 47.0001H25.7922V57.1923H53.3637V47.0001ZM52.0132 55.5464H26.9657V48.6014H52.0132V55.5464ZM76.2808 38.4171L70.3618 18.3515C72.8126 17.3294 74.5889 14.312 74.5912 10.7356C74.5904 6.31956 71.8826 2.74133 68.5429 2.73958C65.4594 2.74045 62.916 5.78929 62.5418 9.73006C62.0869 9.47519 61.6448 9.19053 61.2174 8.87743C60.9037 8.64768 60.6489 8.43976 60.4712 8.28601C60.383 8.21001 60.3143 8.14624 60.2687 8.10431L60.1918 8.02219L60.1238 7.95231L60.0065 7.84397C53.5542 2.15689 46.6178 0.185199 40.4359 0.0139751L39.5455 0.000873443L39.4969 0H39.3759L39.3281 0.000873443H38.4377C32.255 0.172097 25.3194 2.15602 18.8715 7.84048L18.7968 7.90863L18.7707 7.93046L18.6915 8.01258L18.5869 8.12091C18.2697 8.40888 17.939 8.67603 17.5964 8.92111C17.1875 9.21768 16.7651 9.48802 16.3311 9.73093C15.9576 5.78929 13.4141 2.74045 10.3314 2.73958C6.99017 2.74133 4.28314 6.31956 4.2824 10.7356C4.28464 14.6283 6.38587 17.8649 9.17432 18.5795C9.19747 18.5883 9.22138 18.5935 9.24528 18.6023L2.98416 38.4171H0C2.00413 44.1076 6.3657 48.0536 11.4264 48.0536C16.4879 48.0536 20.8495 44.1076 22.8536 38.4171H19.1344L13.45 19.1482C18.1335 18.749 21.4986 15.6451 22.3561 14.8353L22.386 14.8091C25.1837 12.3309 28.3723 10.5229 31.7687 9.48895C31.9196 10.7871 32.0496 12.5509 32.0496 14.7838C32.0496 20.9513 31.0546 30.6989 26.7424 44.0622L26.2195 45.6818H52.8617L52.4307 44.1199C48.1999 28.7883 47.2692 18.922 47.2692 13.2157C47.2692 11.7332 47.3319 10.5311 47.4156 9.5868C50.6965 10.6348 53.7756 12.4075 56.4868 14.8091L56.5174 14.8362C57.4235 15.6915 61.1203 19.1054 66.2057 19.1911L60.1305 38.4171H57.1464C59.1505 44.1076 63.5121 48.0536 68.5736 48.0536C73.6343 48.0536 77.9966 44.1076 80 38.4171H76.2808ZM17.2446 38.4171H4.89118L11.0089 19.0574C11.1919 19.088 11.3727 19.1081 11.5549 19.1273L17.2446 38.4171ZM57.4915 12.896L56.8834 12.3168L56.8566 12.3526C53.8541 9.83536 50.4596 8.02923 46.8643 7.0359L45.274 6.79042L45.1134 7.96803C44.9521 9.15437 44.8049 10.878 44.8049 13.2157C44.8049 18.5909 46.1823 27.2036 49.4645 39.9703C47.9048 41.5288 46.4789 40.7871 45.7125 40.1319C45.6146 39.5676 45.0357 36.1745 44.4352 31.3698C43.7763 26.1055 43.0973 19.1727 43.0099 12.5194L43.0981 7.76972L42.3944 7.74701L42.3063 12.5168C42.4609 24.2666 44.4277 36.7546 44.9274 39.7571C42.8889 42.1683 40.7264 40.415 40.1057 39.8148V7.29274H39.4028V39.9764C38.6155 40.6674 36.633 41.9761 34.7566 39.7563C35.2571 36.7537 37.2224 24.2684 37.3778 12.536V7.52512H36.6749V12.5273C36.5867 19.1727 35.907 26.1055 35.2489 31.3698C34.6476 36.1772 34.0687 39.5711 33.9708 40.1328C33.1633 40.8229 31.6238 41.6092 29.9678 39.6986C33.1454 28.7307 34.5139 20.4123 34.5139 14.7838C34.5139 11.6371 34.2681 9.32821 34.0388 7.8632L33.8625 6.7284L32.2998 6.95728C28.6352 7.92113 25.1713 9.7288 22.1104 12.2748L22.082 12.2268L21.3821 12.896C20.6747 13.58 17.2274 16.8114 12.6268 16.8664C11.6655 16.8664 10.6436 16.7048 9.60831 16.3239L9.57096 16.3108L9.53511 16.3021C7.54965 15.8094 6.04077 13.5057 6.04301 10.7356C6.04674 7.60549 7.96347 5.07207 10.3314 5.06683C12.6985 5.07207 14.6145 7.60549 14.619 10.7356C14.6181 10.9161 14.6111 11.0965 14.5981 11.2763L14.4748 13.013L15.735 12.4958C16.7063 12.0878 17.6366 11.5567 18.5092 10.912C18.8625 10.6534 19.1524 10.4176 19.3653 10.2324C19.4728 10.1398 19.5602 10.0603 19.6297 9.99476C19.6992 9.92662 19.7275 9.9039 19.8015 9.81829L19.8523 9.77199C26.2516 4.13121 33.1716 2.33511 39.3176 2.32725H39.5552C45.702 2.33511 52.6212 4.13121 59.025 9.77636L59.0676 9.81392C59.1415 9.90041 59.1744 9.92662 59.2431 9.99476C59.7175 10.4403 61.1987 11.6939 63.1386 12.4958L64.3972 13.0139L64.2755 11.2763C64.262 11.0894 64.2546 10.9094 64.2546 10.7356C64.259 7.60549 66.1743 5.07207 68.5429 5.06595C70.9101 5.0712 72.8261 7.60549 72.8306 10.7356C72.8328 13.5057 71.3239 15.8094 69.3385 16.3021L69.3034 16.3108L69.2653 16.3239C68.2856 16.6842 67.2647 16.8671 66.2378 16.8664C61.6461 16.8114 58.1989 13.58 57.4915 12.896ZM62.0376 38.4171L68.1747 18.9962C68.3263 18.9665 68.4794 18.9342 68.6333 18.8967L74.391 38.4171H62.0376Z" fill="#FF7D00"/>
</svg>
