<svg width="16" height="15" viewBox="0 0 16 15" fill="none" xmlns="http://www.w3.org/2000/svg">
<g clip-path="url(#clip0_2_120521)">
<path d="M7.51771 0C3.36588 0 0 3.35795 0 7.5C0 11.6421 3.36588 15 7.51771 15C11.6695 15 15.0354 11.6421 15.0354 7.5C15.0354 3.35795 11.6695 0 7.51771 0ZM7.51771 13.75C4.05786 13.75 1.25296 10.9517 1.25296 7.5C1.25296 4.0483 4.05786 1.25001 7.51771 1.25001C10.9776 1.25001 13.7825 4.0483 13.7825 7.5C13.7825 10.9517 10.9776 13.75 7.51771 13.75Z" fill="#C3922E"/>
<path d="M6.70764 3.93305C6.463 3.68898 6.06632 3.68898 5.82167 3.93305C5.57702 4.17713 5.57702 4.57287 5.82167 4.81694L8.51107 7.50001L5.82167 10.1831C5.57702 10.4271 5.57702 10.8229 5.82167 11.067C6.06632 11.311 6.463 11.311 6.70764 11.067L9.84003 7.94195C10.0847 7.69788 10.0847 7.30214 9.84003 7.05806L6.70764 3.93305Z" fill="#C3922E"/>
</g>
<defs>
<clipPath id="clip0_2_120521">
<rect width="15.0354" height="15" fill="white"/>
</clipPath>
</defs>
</svg>
