<svg width="25" height="24" viewBox="0 0 25 24" fill="none" xmlns="http://www.w3.org/2000/svg">
<path fill-rule="evenodd" clip-rule="evenodd" d="M24.2748 10.7766C24.8047 11.3065 24.8047 12.1713 24.2748 12.7012L13.896 23.0797C13.3653 23.6104 12.5021 23.6104 11.9714 23.0797L11.3909 22.4991C10.8597 21.968 10.8596 21.1052 11.3908 20.5739L19.2641 12.7014C19.7953 12.1703 19.7953 11.3073 19.2641 10.7762L11.3909 2.90363C10.8596 2.37242 10.8597 1.50969 11.3909 0.978479L11.9715 0.397932C12.5014 -0.131931 13.3662 -0.131931 13.8961 0.397932L24.2748 10.7766ZM2.90323 0.397815C2.37284 -0.132634 1.50876 -0.132576 0.978371 0.397815L0.397823 0.978361C-0.132332 1.50852 -0.132391 2.37336 0.397823 2.90358L8.27065 10.7762C8.80186 11.3074 8.80186 12.1702 8.27065 12.7014L0.397766 20.574C-0.132624 21.1043 -0.132565 21.9689 0.397766 22.4992L0.978313 23.0797C1.50894 23.6104 2.37255 23.6104 2.90317 23.0797L12.3601 13.6225C15.0129 16.2727 14.3418 15.6006 12.362 13.6206L13.2814 12.7012C13.8116 12.171 13.8115 11.3068 13.2814 10.7766L2.90323 0.397815Z" fill="#021C1B"/>
</svg>
