<svg xmlns="http://www.w3.org/2000/svg" xmlns:xlink="http://www.w3.org/1999/xlink" width="51" height="46" viewBox="0 0 51 46"><defs><path id="u1kba" d="M665.81 1721.6l-.78 5.87c-.74 5.54-4.36 10.02-9.43 11.68-8.16 2.68-16.33-3.08-17.44-11.8-.63-4.95 1-10.73 4.74-14.97l1.67-1.9a12.64 12.64 0 0 0 5.71 8.67c4.49 2.93 10.23 3.18 15.53 2.45zm23.22-23.25v7.88a1.5 1.5 0 0 1-1.5 1.51h-4.79v7.1a1.5 1.5 0 0 1-1.5 1.52h-.5v.74c0 4.24-3.26 7.68-7.29 7.68-3.62 0-6.64-2.8-7.2-6.46l-.02.16c-4.72.73-10.23.76-14.26-1.83-4.6-2.97-4.49-7.08-4.84-9.07l.7-.78c-.26-.55-.5-1.06-.75-1.53a5.4 5.4 0 0 1-2.57.65 5.52 5.52 0 0 1-5.48-5.55 5.5 5.5 0 0 1 6.38-5.48c.88.07 3.4.76 7.96 5.61l2.8-3.16c.28-.33.68-.5 1.1-.5h30.27c.82 0 1.5.67 1.5 1.5zm-13.8 13.8c.82 0 1.49-.68 1.49-1.51v-8.09a1.5 1.5 0 0 0-1.5-1.51h-9.96c-.82 0-1.5.68-1.5 1.51v8.09c0 .83.68 1.51 1.5 1.51zm2.53 4.2h-4.03c.16.37.37.7.66.94.65.52.76 1.47.25 2.13-.51.65-1.45.77-2.1.25a6.04 6.04 0 0 1-1.95-3.31h-1.44v.74c0 2.57 1.93 4.65 4.3 4.65 2.38 0 4.31-2.08 4.31-4.65z"/></defs><g><g transform="translate(-638 -1694)"><use fill="#fff" xlink:href="#u1kba"/></g></g></svg>