<svg xmlns="http://www.w3.org/2000/svg" xmlns:xlink="http://www.w3.org/1999/xlink" width="60" height="60" viewBox="0 0 60 60"><defs><path id="h0y9a" d="M745 975.77V988h-60v-12.25h28.69v-41.18h-15.9s8.63 23.27 8.63 23.43a10.45 10.45 0 0 1-10.47 9.6c-5.49 0-10.08-4.2-10.34-9.6 0-.27 8.52-23.43 8.52-23.43h-1.49v-2.63h21.06V928h2.56v3.94h21.06v2.63h-1.48s8.63 23.59 8.46 23.94a10.33 10.33 0 0 1-10.28 9.09c-5.33 0-9.81-3.96-10.31-9.11-.16-.34 8.47-23.92 8.47-23.92h-15.9v41.2zm-3.33-16.58h-15.32c.9 3.3 3.97 5.79 7.67 5.79a7.91 7.91 0 0 0 7.65-5.8zm-.37-2.5l-7.27-19.74-7.41 19.74zm-37.66 2.5h-15.32c.9 3.3 3.97 5.79 7.66 5.79 3.7 0 6.76-2.51 7.66-5.8zm-.26-2.5l-7.27-19.74-7.41 19.74zm39.2 28.81v-7.1h-55.02v7.1z"/></defs><g><g transform="translate(-685 -928)"><use fill="#fff" xlink:href="#h0y9a"/></g></g></svg>