<svg xmlns="http://www.w3.org/2000/svg" xmlns:xlink="http://www.w3.org/1999/xlink" width="240" height="203" viewBox="0 0 240 203"><defs><path id="r4kna" d="M1499.37 1796.63a3.66 3.66 0 0 1 4.2 3.07 3.74 3.74 0 0 1-3 4.3l-21.93 3.78 39.96 78.78c.3.6.43 1.26.4 1.9-.08 25.37-20.16 45.97-44.83 45.97-24.71 0-44.82-20.7-44.82-46.14 0-.64.16-1.24.43-1.77l39.08-77.06-44.04 7.56v.64c0 13.39-9.66 24.49-22.19 26.31v133.53h44.34c2 0 3.64 1.68 3.64 3.75a3.69 3.69 0 0 1-3.64 3.74h-95.95a3.7 3.7 0 0 1-3.63-3.74 3.7 3.7 0 0 1 3.63-3.75h44.34v-133.53c-9.9-1.44-18.03-8.7-20.99-18.29l-45.34 7.79 39.2 77.3a3.87 3.87 0 0 1 .42 1.74c0 25.43-20.11 46.14-44.83 46.14-24.67 0-44.74-20.62-44.83-45.98-.03-.63.1-1.29.4-1.9l38.22-75.34-19 3.27a3.67 3.67 0 0 1-4.19-3.08 3.74 3.74 0 0 1 3-4.3l75.76-13.02-.01-.64c0-13.39 9.67-24.5 22.2-26.31v-5.6a3.7 3.7 0 0 1 3.63-3.75c2 0 3.63 1.68 3.63 3.75v5.6c9.92 1.44 18.04 8.7 21 18.29zm-118.5 24.15c.06.36.07.72.02 1.07 1.85 8.45 9.16 14.81 17.9 14.9a3.59 3.59 0 0 1 .4 0c10.15-.1 18.36-8.63 18.36-19.09 0-10.52-8.32-19.09-18.55-19.09-10.24 0-18.56 8.57-18.56 19.1 0 .7.04 1.4.11 2.08.15.31.26.66.32 1.03zm55.93 71.25c1.83 19.57 17.9 34.92 37.37 34.92 19.49 0 35.55-15.35 37.39-34.92zm37.38-76.87l-35.2 69.4h70.4zm-187.74 101.1c1.83 19.56 17.9 34.9 37.38 34.9 19.48 0 35.55-15.34 37.38-34.9zm37.37-76.88l-35.19 69.39h70.39z"/></defs><g><g opacity=".1" transform="translate(-1279 -1782)"><use fill="#fff" xlink:href="#r4kna"/></g></g></svg>