<svg xmlns="http://www.w3.org/2000/svg" xmlns:xlink="http://www.w3.org/1999/xlink" width="43" height="36" viewBox="0 0 43 36"><defs><path id="p4rna" d="M429.54 8690.59c.36-.06.7.18.75.54.06.36-.18.7-.53.77l-3.93.67 7.15 13.97c.06.11.08.23.08.34a8.12 8.12 0 0 1-8.03 8.15 8.12 8.12 0 0 1-8.03-8.18.67.67 0 0 1 .07-.3l7-13.69-7.88 1.35v.1a4.7 4.7 0 0 1-3.98 4.68v23.69h7.94c.36 0 .66.3.66.66 0 .37-.3.66-.66.66h-17.18a.66.66 0 0 1-.65-.66c0-.37.29-.66.65-.66h7.94v-23.7a4.67 4.67 0 0 1-3.76-3.24l-8.12 1.38 7.02 13.71c.05.1.08.2.08.32 0 4.5-3.6 8.18-8.03 8.18a8.12 8.12 0 0 1-8.03-8.15c0-.12.02-.23.07-.34l6.84-13.37-3.4.58a.66.66 0 0 1-.75-.55.66.66 0 0 1 .54-.76l13.57-2.3v-.12a4.7 4.7 0 0 1 3.97-4.67v-1c0-.36.3-.66.65-.66.36 0 .65.3.65.67v.99a4.67 4.67 0 0 1 3.76 3.25zm-21.22 4.28v.2a3.35 3.35 0 0 0 3.28 2.64 3.36 3.36 0 0 0 3.29-3.39 3.36 3.36 0 0 0-3.33-3.39 3.36 3.36 0 0 0-3.3 3.76l.06.18zm10.01 12.64a6.79 6.79 0 0 0 6.7 6.2 6.79 6.79 0 0 0 6.7-6.2zm6.7-13.63l-6.3 12.3h12.6zm-33.63 17.93a6.79 6.79 0 0 0 6.7 6.2 6.79 6.79 0 0 0 6.7-6.2zm6.7-13.64l-6.3 12.31h12.6z"/></defs><g><g transform="translate(-390 -8688)"><use fill="#cea05f" xlink:href="#p4rna"/></g></g></svg>